<?xml version="1.0" encoding="UTF-8"?><svg id="Layer_2" xmlns="http://www.w3.org/2000/svg" viewBox="0 0 653.2796 193.8921"><g id="Components"><g id="ed5df373-f619-4a8d-9400-2ff0c56e7f60_1"><path d="m94.4438,158.9572l11.8425,23.6851s-13.6182,11.2498-40.1164,11.2498C31.6786,193.8921,0,165.7665,0,130.8304c0-35.083,31.5303-63.5049,66.1699-63.5049,26.4982,0,40.1164,11.2508,40.1164,11.2508l-11.8425,23.685s-9.7692-7.5499-23.9801-7.5499c-27.9789,0-40.2647,19.5395-40.2647,35.8239,0,16.4314,12.2858,35.9709,40.2647,35.9709,14.2109,0,23.9801-7.549,23.9801-7.549Z" style="fill:#ffda02; stroke-width:0px;"/><path d="m228.268,191.6718h-29.9016l-9.0305-24.4247h-46.4811l-9.0306,24.4247h-29.9016l49.2941-122.126h25.7573l49.294,122.126Zm-62.0245-84.3782h-.2963l-13.6183,35.5276h27.5329l-13.6183-35.5276Z" style="fill:#ffda02; stroke-width:0px;"/><path d="m276.679,69.5458c22.6491,0,39.8199,12.2868,39.8199,36.2672,0,18.3564-10.0656,30.6435-25.0174,35.3805l42.0415,50.4783h-35.3805l-37.3033-48.258v48.258h-27.8293v-122.126h43.6691Zm-12.5834,54.179c10.5099,0,23.0934-.7397,23.0934-15.9868s-12.5835-15.9878-23.0934-15.9878h-3.2564v31.9746h3.2564Z" style="fill:#ffda02; stroke-width:0px;"/><path d="m325.3838,69.5458h85.8589v24.4247h-29.0147v97.7013h-27.8293v-97.7013h-29.0149v-24.4247Z" style="fill:#ffda02; stroke-width:0px;"/><path d="m449.1413,191.6718h-27.8294v-122.126h27.8294v122.126Z" style="fill:#ffda02; stroke-width:0px;"/><path d="m536.7783,93.9705h-42.0415v24.2777h40.2646v24.4247h-40.2646v24.5742h42.0415v24.4247h-69.872v-122.126h69.872v24.4247Z" style="fill:#ffda02; stroke-width:0px;"/><path d="m596.4354,69.5458c22.6478,0,39.8201,12.2868,39.8201,36.2672,0,18.3564-10.0668,30.6435-25.0176,35.3805l42.0417,50.4783h-35.3795l-37.3045-48.258v48.258h-27.8305v-122.126h43.6703Zm-12.5834,54.179c10.5101,0,23.0936-.7397,23.0936-15.9868s-12.5835-15.9878-23.0936-15.9878h-3.2564v31.9746h3.2564Z" style="fill:#ffda02; stroke-width:0px;"/><path d="m60.4403,49.7448h-11.9629l-3.6119-9.7717h-18.595l-3.6131,9.7717h-11.9617L30.4158.8879h10.3042l19.7203,48.8569ZM35.6265,15.9892h-.1182l-5.4478,14.2124h11.015l-5.449-14.2124Z" style="fill:#ffda02; stroke-width:0px;"/><path d="m96.0268,36.6565l4.7382,9.4752s-5.449,4.5008-16.0492,4.5008c-13.7979,0-26.4706-11.2509-26.4706-25.2271,0-14.0352,12.6135-25.4054,26.4706-25.4054,10.6002,0,16.0492,4.501,16.0492,4.501l-4.7382,9.4752s-3.9082-3.0202-9.5933-3.0202c-11.1931,0-16.1085,7.8161-16.1085,14.3302,0,6.5741,4.9154,14.3905,16.1085,14.3905,5.6851,0,9.5933-3.0202,9.5933-3.0202Z" style="fill:#ffda02; stroke-width:0px;"/><path d="m116.1579,49.7448h-11.1341V.8879h11.1341v48.8569Z" style="fill:#ffda02; stroke-width:0px;"/><path d="m151.2145,10.6596h-16.8181v9.7113h16.1072v9.7715h-16.1072v9.8307h16.8181v9.7717h-27.9522V.8879h27.9522v9.7717Z" style="fill:#ffda02; stroke-width:0px;"/><path d="m175.0766.8879c9.0607,0,15.9313,4.9154,15.9313,14.5087,0,7.3439-4.0273,12.2592-10.0087,14.1544l16.818,20.1938h-14.1531l-14.9232-19.3059v19.3059h-11.1341V.8879h17.4698Zm-5.0335,21.6745c4.2045,0,9.2393-.2954,9.2393-6.396s-5.0348-6.3947-9.2393-6.3947h-1.3022v12.7907h1.3022Z" style="fill:#ffda02; stroke-width:0px;"/></g></g></svg>