<svg id="Layer_1" data-name="Layer 1" xmlns="http://www.w3.org/2000/svg" viewBox="0 0 413.6191 775.6924">
  <g>
    <path id="fullLogo" d="M413.6058,37.7317V146.8179H.0133V37.7317L98.1485,84.2061,207.53,0,315.8029,84.0192Zm-18.8013,90.2852V67.43l-81.401,38.5248-105.92-82.1926L100.5,106.1223,18.8147,67.4384v60.5785Z" style="fill: #fff"/>
    <path id="fullLogo-2" data-name="fullLogo" d="M0,241.6863V568.8829c0,45.0618,22.1019,82.7753,51.8382,113.1119,5.4611,5.5469,11.1511,10.8652,17.0126,15.926,27.3344,23.5317,58.3,41.7451,83.9761,54.6118a470.5992,470.5992,0,0,0,53.1534,22.874c.5432.2.8293.2858.8293.2858s.2858-.0857.8291-.2858a470.6053,470.6053,0,0,0,53.1535-22.874c25.676-12.8667,56.6417-31.08,83.9761-54.6118,5.8615-5.0608,11.5513-10.3791,17.0126-15.926,29.7361-30.3366,51.8382-68.05,51.8382-113.1119V241.6863Zm206.8091,514.03a477.8655,477.8655,0,0,1-45.567-19.9963c-31.2236-15.646-58.1846-33.1586-80.1261-52.0472-5.4938-4.7441-10.8437-9.7533-15.8806-14.8687C34.4331,637.38,18.8,603.7524,18.8,568.8833V260.4875H394.8178V568.8833c0,34.8691-15.6327,68.4979-46.4636,99.95-5.0073,5.0858-10.3572,10.095-15.8735,14.8585-21.919,18.8692-48.88,36.3818-80.1117,52.0318A477.5975,477.5975,0,0,1,206.8091,755.7159Z" style="fill: #fff"/>
    <path id="fullLogo-3" data-name="fullLogo" d="M21.9371,184.0183v-5.0852l-.9529-.9534H14.8178l-.9529.9534v10.0432l.9529.9534H26.1325l3.9409,3.9409v20.5953l-3.9409,3.9409h-16.4l-3.9409-3.9409v-9.98h8.0732v5.1488l.9529.9534h6.1664l.9529-.9534V198.7018l-.9529-.9534H9.7326l-3.9409-3.9415V174.0383l3.9409-3.9409h16.4l3.9409,3.9409v9.98Z" style="fill: #fff"/>
    <path id="fullLogo-4" data-name="fullLogo" d="M56.7079,207.9819H46.792l-2.1613,10.4249H36.3671l11.442-48.3094h7.8818l11.442,48.3094H58.8693Zm-1.5892-7.8182L51.75,183.8911l-3.3688,16.2726Z" style="fill: #fff"/>
    <path id="fullLogo-5" data-name="fullLogo" d="M73.8714,218.4068V170.0974h8.0732v48.3094Z" style="fill: #fff"/>
    <path id="fullLogo-6" data-name="fullLogo" d="M90.7173,218.4068V170.0974h8.7084l10.4881,29.6214V170.0974h8.0732v48.3094h-8.7085l-10.488-29.6214v29.6214Z" style="fill: #fff"/>
    <path id="fullLogo-7" data-name="fullLogo" d="M150.4061,177.9161h-8.7085v40.4907h-8.0732V177.9161h-8.7075v-7.8187h25.4892Z" style="fill: #fff"/>
    <path id="fullLogo-8" data-name="fullLogo" d="M177.8672,198.1933H153.5855v-7.8187h24.2817Z" style="fill: #fff"/>
    <path id="fullLogo-9" data-name="fullLogo" d="M208.8244,218.4068H186.64V170.0974h8.1363v40.4907h14.0482Z" style="fill: #fff"/>
    <path id="fullLogo-10" data-name="fullLogo" d="M234.06,207.9819h-9.9159l-2.1614,10.4249h-8.2636l11.442-48.3094h7.8818l11.442,48.3094h-8.2636Zm-1.5892-7.8182-3.3688-16.2726-3.3687,16.2726Z" style="fill: #fff"/>
    <path id="fullLogo-11" data-name="fullLogo" d="M274.2348,214.4659l-3.9409,3.9409H254.0212l-3.9409-3.9409V170.0974h8.0732v39.6009l.89.89h6.23l.89-.89V170.0974h8.0722Z" style="fill: #fff"/>
    <path id="fullLogo-12" data-name="fullLogo" d="M283.0074,218.4068V170.0974h20.85l3.9409,3.9409v21.6124l-3.9409,3.9409,3.9409,18.8152h-7.946l-3.9409-18.8152h-4.8307v18.8152Zm15.8278-26.6339.89-.9534V178.87l-.89-.89h-7.7546v13.7932Z" style="fill: #fff"/>
    <path id="fullLogo-13" data-name="fullLogo" d="M316.0618,218.4068V170.0974h23.1374v7.8187H324.135V189.93h11.1874v7.8187H324.135v12.84h15.0642v7.8187Z" style="fill: #fff"/>
    <path id="fullLogo-14" data-name="fullLogo" d="M347.082,218.4068V170.0974h8.7085l10.4881,29.6214V170.0974h8.0732v48.3094h-8.7085l-10.4881-29.6214v29.6214Z" style="fill: #fff"/>
    <path id="fullLogo-15" data-name="fullLogo" d="M406.7719,177.9161h-8.7085v40.4907h-8.0722V177.9161h-8.7084v-7.8187h25.4891Z" style="fill: #fff"/>
    <path id="fullLogo-16" data-name="fullLogo" d="M267.9216,507.1057a147.3865,147.3865,0,0,0-36.3661-11.0889l-20.3881-35.333-4.36-7.4848-24.7228,42.8178a147.77,147.77,0,0,0-36.4165,11.0889l11.618-20.111,13.13-22.7069,36.3913-63.03,20.2876,35.1312.7814,1.3862,15.02,25.958.378.6552Z" style="fill: #fff"/>
    <polygon id="fullLogo-17" data-name="fullLogo" points="155.723 304.962 144.206 324.897 143.677 325.804 41.055 503.552 41.055 451.636 53.48 430.114 69.609 402.165 82.714 379.458 111.923 328.828 125.708 304.962 155.723 304.962" style="fill: #fff"/>
    <polygon id="fullLogo-18" data-name="fullLogo" points="372.585 451.662 372.585 503.552 314.974 403.804 298.819 375.854 285.739 353.173 257.917 304.962 287.907 304.962 372.585 451.662" style="fill: #fff"/>
    <polygon id="fullLogo-19" data-name="fullLogo" points="92.442 304.962 41.055 393.95 41.055 342.009 53.48 320.486 62.452 304.962 92.442 304.962" style="fill: #fff"/>
    <polygon id="fullLogo-20" data-name="fullLogo" points="372.585 342.034 372.585 393.95 321.199 304.962 351.163 304.962 372.585 342.034" style="fill: #fff"/>
    <path id="fullLogo-21" data-name="fullLogo" d="M372.56,570.0093a97.0807,97.0807,0,0,1-8.241,37.6513l-49.3447-85.4591-16.1548-27.949-13.08-22.7068-29.234-50.63-16.1292-27.949-33.569-58.1407-33.5434,58.1407-16.1293,27.949-12.9282,22.3537-.5294.9075L49.2959,607.6859A96.5112,96.5112,0,0,1,41.08,569.9588L53.48,548.4868l16.1289-27.9234,13.1048-22.7321,29.2092-50.6051,16.1541-27.9743,12.9288-22.3789.5292-.8823,28.8811-50.0757,23.6393-40.9529,12.752-22.0768L219.56,304.9621l23.3369,40.4235.378.6553,12.7015,22.0011.3784.6805,29.1836,50.5294Z" style="fill: #fff"/>
    <path id="fullLogo-22" data-name="fullLogo" d="M341.6054,633.6691a137.21,137.21,0,0,0-13.9114-51.9157,133.847,133.847,0,0,0-24.0173-33.8714,129.5891,129.5891,0,0,0-20.5143-17.2127c-2.5454-1.8148-4.5867-2.9487-5.9223-3.8055-1.3358-.8315-2.0414-1.26-2.0414-1.26v-.0252l-2.1422-1.1844c-1.4113-.731-3.4274-1.9911-6.2248-3.3013a128.954,128.954,0,0,0-25.0254-9.5011,133.1065,133.1065,0,0,0-41.28-4.4356,135.6209,135.6209,0,0,0-78.2517,29.6121,133.8691,133.8691,0,0,0-23.0344,23.74c-1.7641,2.243-3.3519,4.6879-5.0151,7.0315q-1.1343,1.8144-2.2682,3.6289l-1.1594,1.84-1.0836,1.9406c-.7308,1.26-1.4366,2.5454-2.1673,3.8308-.7058,1.2853-1.3106,2.621-1.9909,3.9568-1.361,2.6211-2.47,5.3929-3.68,8.1149a135.1676,135.1676,0,0,0-5.746,17.213c-.8568,2.9485-1.3861,5.9726-2.0665,8.9717-.2521,1.5373-.504,3.0493-.7561,4.5866-.2772,1.5376-.4789,3.0746-.63,4.6121a132.1729,132.1729,0,0,0-.9577,16.759.0247.0247,0,0,1,.0253.0252c.5293.6048,1.0586,1.21,1.5877,1.84.9325,1.0586,1.8649,2.1172,2.8226,3.1755a128.0907,128.0907,0,0,1,.5545-21.3459c.126-1.4868.3024-2.9989.5544-4.486.2269-1.4868.4536-2.9736.68-4.4355.63-2.9484,1.1089-5.8719,1.9153-8.745.126-.5543.3024-1.1087.4284-1.6631-1.5625,15.5493.1765,32.7624,1.4365,40.3229q-.1134.4531-.3024,1.3607c-.2269.9577-.4536,2.243-.7309,3.78l.3781.3781c.7057.7309,1.4365,1.4366,2.1673,2.1673.05-.3781.1009-.7559.1764-1.1091.3277-1.8649.6048-3.4018.8569-4.46,5.494-1.1091,16.7844-2.5454,27.42-3.9313,1.0585,1.3606,2.47,3.2255,4.1835,5.4685,1.7389,2.3689,3.9062,5.0656,6.0484,8.0393,1.1592,1.4366,2.2933,2.9487,3.4779,4.486,1.1844,1.5123,2.3185,3.1,3.5534,4.6373s2.4447,3.0746,3.6543,4.5866c.58.7559,1.1844,1.5121,1.7641,2.2682.6049.731,1.21,1.4364,1.8145,2.1421,1.1846,1.4112,2.3185,2.7974,3.4023,4.1079,1.0837,1.2854,2.0414,2.5707,3.0746,3.6542,1.9658,2.2177,3.5786,4.1079,4.7379,5.4184.252.3277.5041.6048.7056.8568-.3024,3.8055-.4536,7.7623-.4536,11.6435q11.2653,6.5021,23.5385,12.6511c14.3651,7.2077,26.89,12.5507,35.61,16.0535,8.5435-3.4274,20.7158-8.644,34.7532-15.6-.4788.05-.9324.0757-1.3608.1009-.5041.0253-.9072.0505-1.2853.0754-5.1916-6.1242-23.3621-27.722-31.3763-36.7189.63-1.7138,1.613-4.3346,2.8478-7.6362.58-1.4367,1.0584-3.0241,1.6382-4.7127.58-1.6634,1.1844-3.4274,1.8144-5.2419,1.26-3.6544,2.6714-7.51,3.9063-11.4417,1.3105-3.9064,2.6714-7.8128,4.0072-11.4165.68-1.8144,1.31-3.5784,1.84-5.2671.5546-1.6634,1.0837-3.2511,1.5373-4.7127.9577-2.9235,1.6886-5.3932,2.1675-7.1071.126-.4282.2267-.8063.3276-1.1339,9.2238-1.4367,35.6605-7.1576,48.9419-11.5928.3276.3024.6552.6048,1.0081.9324a35.9337,35.9337,0,0,1,2.6209,2.5959c.9073.9826,1.9154,2.0664,2.9738,3.2007,1.0585,1.1087,2.1421,2.3436,3.2259,3.6541,1.1088,1.2853,2.2429,2.6211,3.377,4.007,1.1341,1.361,2.243,2.8226,3.3771,4.2341,2.2681,2.8222,4.41,5.7965,6.4517,8.5179,1.0079,1.361,1.94,2.722,2.8478,4.0073s1.7892,2.47,2.5452,3.6037c2.1927,3.1754,3.8308,5.62,4.612,6.8046a173.3025,173.3025,0,0,1-7.9385,28.8311c5.7207-4.2593,11.1644-8.5943,16.28-13.0046,5.0656-4.36,9.9547-8.9464,14.5163-13.5835q4.1582-4.2343,7.8377-8.4933c.5545-.6048,1.0586-1.1844,1.5625-1.764C341.8826,639.8686,341.7819,636.7436,341.6054,633.6691ZM111.513,562.9527c-.2772.4789-.4788.8823-.6553,1.21-12.5757,9.4507-21.9,22.9591-26.4366,30.3431.2771-.7562.5543-1.5121.8567-2.268,1.1341-2.6715,2.1926-5.3683,3.5031-7.9389.63-1.31,1.2349-2.6208,1.89-3.8809.68-1.26,1.386-2.4949,2.0665-3.755l1.0082-1.84,1.1339-1.8148c.731-1.2348,1.487-2.4445,2.243-3.6541,1.5877-2.3184,3.0747-4.637,4.7632-6.8548a131.2441,131.2441,0,0,1,22.3035-23.3621c3.5536-2.898,7.0817-5.4686,10.5848-7.8125-.68.63-1.3861,1.31-2.0413,2.0412-1.1594,1.21-2.3438,2.47-3.5534,3.755-1.1846,1.2853-2.2682,2.6968-3.4024,4.083l-1.7137,2.0412c-.5293.7306-1.0332,1.4363-1.5625,2.1421-1.0081,1.4366-2.0665,2.8229-2.999,4.1836-.9072,1.4111-1.7894,2.7721-2.6209,4.0574-.8569,1.26-1.5625,2.52-2.243,3.6794-.6805,1.1844-1.2853,2.2433-1.84,3.1754C112.2942,561.4409,111.8659,562.2722,111.513,562.9527Zm4.2339-.9574c.504-.9328,1.0836-1.9658,1.7137-3.1.6048-1.1343,1.26-2.3944,2.0665-3.6544.7813-1.2854,1.613-2.6208,2.47-4.0323.8821-1.361,1.8649-2.722,2.8226-4.1583.4788-.7058.9829-1.4112,1.4617-2.1169l1.613-2.0667c1.0836-1.361,2.1168-2.7721,3.2257-4.0575,1.1594-1.2853,2.2682-2.52,3.3771-3.73a34.6666,34.6666,0,0,1,3.3015-3.3517c1.0836-1.0081,2.1168-1.9911,3.0745-2.8734a19.5965,19.5965,0,0,1,2.2178-1.8144c11.5677-4.41,30.9982-10.5847,51.8653-11.8447.7813.7561,1.9909,1.9405,3.5283,3.4024,2.5705,2.6962,6.0484,6.1744,9.4,9.879,1.6884,1.8144,3.3769,3.6541,4.9646,5.368s2.974,3.4021,4.2089,4.7884c.2267.2519.4283.4786.63.7057-8.5434,7.762-22.53,26.4871-28.2765,34.35-.4284.0757-.9829.1766-1.6633.328-1.6886.2769-4.1079.7306-6.9809,1.1844-1.4618.2267-2.9738.63-4.637.9321-1.6382.3028-3.3519.6553-5.1413,1.0085-1.7892.3021-3.6039.7811-5.4688,1.1844s-3.755.8063-5.6451,1.21c-3.7551.882-7.5354,1.7388-11.0637,2.5707s-6.8045,1.6126-9.6271,2.2931c-2.6966.63-4.9144,1.1592-6.5524,1.5628a158.1862,158.1862,0,0,0-18.0949-21.472Q115.0285,563.4317,115.7469,561.9953Zm106.7548,56.6031-.6553,1.9658c-.5544,1.7136-1.31,4.1581-2.1421,7.132-.8317,2.9488-1.7137,6.4515-2.8226,10.106-1.0584,3.6544-2.2934,7.5605-3.5535,11.4414-1.26,3.8559-2.6966,7.6867-3.9818,11.29-.6553,1.8147-1.2853,3.5538-1.89,5.1917-.63,1.6382-1.1594,3.2259-1.7642,4.6121-1.4365,3.4022-2.5958,6.0986-3.2762,7.6864-10.5848,2.1673-39.7181,7.1572-50.1264,8.9467-.2269-.2015-.4788-.4033-.7813-.63-1.26-1.0838-3.125-2.6211-5.3175-4.5112-1.1089-.9325-2.2178-2.0412-3.4023-3.2256-1.1592-1.1595-2.3942-2.42-3.6794-3.7049-.63-.6553-1.26-1.31-1.9154-1.9908-.63-.6805-1.2348-1.4114-1.89-2.1171-1.2349-1.4367-2.495-2.898-3.755-4.3851-1.3106-1.4367-2.47-2.9989-3.6291-4.5112s-2.3187-2.9737-3.4023-4.4608c-2.0918-2.9737-4.0575-5.7458-5.5445-8.2158-1.5625-2.47-2.7721-4.5614-3.5786-6.0482-.05-.1261-.126-.2271-.1764-.3529a268.38,268.38,0,0,1,17.2884-52.3189q.4538-.1509,1.0586-.3781c1.5877-.5544,3.8305-1.361,6.5776-2.1926,2.7471-.882,5.9728-1.7391,9.4507-2.6712,1.7389-.479,3.5534-.8823,5.3932-1.3106,1.84-.4033,3.7046-.8823,5.57-1.26,1.89-.3529,3.7552-.68,5.62-1.0334,1.84-.3276,3.6794-.68,5.4435-.882,1.7894-.227,3.5031-.4535,5.1413-.6553,1.6128-.1766,3.15-.403,4.5866-.4787,2.8478-.1765,5.2168-.227,6.88-.3279,5.7459,7.838,24.5213,29.3857,34.3248,39.1132A1.6111,1.6111,0,0,0,222.5017,618.5984Zm48.7906-61.9714c-10.8619-6.6026-34.4-14.995-48.6142-18.0443-.7057-.7309-1.5625-1.6634-2.5706-2.722-1.31-1.3607-2.7722-2.9989-4.4606-4.662-1.6634-1.6637-3.4276-3.4277-5.2168-5.1917-3.5031-3.5787-7.2582-7.0314-9.9548-9.6525-.882-.7811-1.6382-1.4616-2.2933-2.0411,4.4859-2.2178,11.0132-3.4527,20.9678-4.31a135.085,135.085,0,0,1,22.0265,3.8812,125.7924,125.7924,0,0,1,24.6221,9.2744c2.7722,1.26,4.7631,2.495,6.1492,3.2256,1.361.7562,2.0666,1.1595,2.0666,1.1595.1007.05.7812.479,2.0413,1.26.9829.63,2.4194,1.4616,4.0827,2.57a158.4968,158.4968,0,0,1,16.1292,18.8765c-.5293.0249-1.1089.0249-1.7389.0753-1.361.1514-2.9738.2018-4.6625.5042a52.5835,52.5835,0,0,0-5.2923,1.0082c-.882.1513-1.7641.4534-2.6461.6805-.857.2519-1.7137.4787-2.52.7811-.8317.2772-1.613.5546-2.369.8063-.7308.3027-1.4365.58-2.0918.8571-1.3356.5039-2.2933,1.0078-2.999,1.3357C271.67,556.4255,271.4688,556.5264,271.2923,556.627Zm40.7262,91.13c-.8821-1.361-2.1673-3.3268-3.78-5.7461-.7561-1.1595-1.613-2.3691-2.52-3.68-.9072-1.285-1.8146-2.6964-2.8226-4.0827-2.0414-2.7973-4.1331-5.8217-6.4264-8.72-1.1089-1.4619-2.2178-2.9487-3.3519-4.36-1.1594-1.4115-2.2935-2.7977-3.3771-4.1584-1.0837-1.3358-2.1674-2.6211-3.2762-3.78-1.0585-1.1847-2.0918-2.3186-3.0243-3.3517a34.5064,34.5064,0,0,0-2.6714-2.722c-.68-.6553-1.26-1.2349-1.7892-1.7388.2015-14.39-1.4617-33.8461-5.1413-45.7413.6553-.3529,1.613-.9072,2.6966-1.3859.5546-.2775,1.1846-.58,1.865-.8823.68-.2772,1.4113-.58,2.1673-.882a23.5082,23.5082,0,0,1,2.3439-.8568c.8315-.2775,1.638-.6048,2.47-.8066a50.9658,50.9658,0,0,1,4.9647-1.2349c1.6129-.403,3.1251-.5291,4.41-.7309,1.31-.1763,2.3942-.1763,3.15-.252.3781-.0249.68-.05.8822-.0754,10.61,8.5684,17.7168,17.7671,29.5616,36.6937a131.4757,131.4757,0,0,1,10.5092,44.5821c.05.9574.0756,1.9406.1009,2.9232C332.054,641.1035,320.94,645.0351,312.0185,647.7571Z" style="fill: #fff"/>
  </g>
</svg>
