<svg id="Layer_1" data-name="Layer 1" xmlns="http://www.w3.org/2000/svg" viewBox="0 0 183.0058 331.4669">
  <g id="type">
    <path id="type_PathItem_" data-name="type &lt;PathItem&gt;" d="M89.0494,330.8235l-.0613-.02c-.0881-.0282-.2716-.0886-.5252-.1791a198.5789,198.5789,0,0,1-22.3454-9.62,173.49,173.49,0,0,1-35.53-23.129c-2.5723-2.22-5.0452-4.5346-7.3512-6.881C7.8169,275.2655,0,258.009,0,239.7022L.0068,12.6669,46.6562,34.76,91.8158,0l44.689,34.6814,46.501-22.0091v227.03c0,18.3043-7.8126,35.5589-23.2211,51.2842-2.3118,2.3518-4.7833,4.6651-7.3482,6.8771A173.9949,173.9949,0,0,1,116.9,321.0057a197.551,197.551,0,0,1-22.3246,9.6075c-.293.1046-.4638.1606-.56.19l-.1.0277-2.25.6357Z" style="fill: #121c4d"/>
    <path id="type_CompoundPathItem_" data-name="type &lt;CompoundPathItem&gt;" d="M174.9314,25.4221V69.43H8.0787V25.4221l39.59,18.7488L91.7956,10.2l43.68,33.8953Zm-7.5849,36.4231V37.4031l-32.839,15.5418L91.7769,19.7866,48.6175,53.0124,15.6636,37.4064V61.8452Z" style="fill: #ff681d"/>
    <path id="type_CompoundPathItem_2" data-name="type &lt;CompoundPathItem&gt;" d="M8.0733,107.7021V239.7007c0,18.1789,8.9165,33.3934,20.9127,45.6319,2.2032,2.2378,4.4987,4.3833,6.8633,6.4249,11.0273,9.4933,23.52,16.841,33.8779,22.0317a189.8544,189.8544,0,0,0,21.4433,9.2279c.2192.0807.3346.1153.3346.1153s.1153-.0346.3344-.1153a189.8521,189.8521,0,0,0,21.4434-9.2279c10.3583-5.1907,22.8506-12.5384,33.8779-22.0317,2.3646-2.0416,4.66-4.1871,6.8633-6.4249,11.9962-12.2385,20.9127-27.453,20.9127-45.6319V107.7021ZM91.5049,315.0734a192.7556,192.7556,0,0,1-18.3828-8.067,158.12,158.12,0,0,1-32.3247-20.997c-2.2163-1.9139-4.3746-3.9347-6.4066-5.9984-12.4264-12.6769-18.733-26.2432-18.733-40.31V115.2869H167.3519V239.7008c0,14.067-6.3066,27.6337-18.7445,40.3222-2.02,2.0517-4.1783,4.0725-6.4037,5.9942a158.1177,158.1177,0,0,1-32.3189,20.9909A192.6844,192.6844,0,0,1,91.5049,315.0734Z" style="fill: #ff681d"/>
    <path id="type_CompoundPathItem_3" data-name="type &lt;CompoundPathItem&gt;" d="M16.9233,84.4375V82.386l-.3845-.3847H14.0512l-.3844.3847v4.0516l.3844.3846h4.5646l1.59,1.59v8.3086l-1.59,1.59H12l-1.59-1.59V92.6946h3.257v2.0771l.3844.3846h2.4876l.3845-.3846V90.3611l-.3845-.3846H12l-1.59-1.59V80.4113l1.59-1.59h6.6161l1.59,1.59v4.0262Z" style="fill: #fffef9"/>
    <path id="type_CompoundPathItem_4" data-name="type &lt;CompoundPathItem&gt;" d="M30.9506,94.1049h-4l-.8719,4.2057H22.7446l4.616-19.4892h3.18l4.616,19.4892H31.8225Zm-.6411-3.154-1.359-6.5648-1.3591,6.5648Z" style="fill: #fffef9"/>
    <path id="type_CompoundPathItem_5" data-name="type &lt;CompoundPathItem&gt;" d="M37.8747,98.3106V78.8214h3.257V98.3106Z" style="fill: #fffef9"/>
    <path id="type_CompoundPathItem_6" data-name="type &lt;CompoundPathItem&gt;" d="M44.6707,98.3106V78.8214h3.5132l4.2312,11.95v-11.95H55.672V98.3106H52.1588l-4.2311-11.95v11.95Z" style="fill: #fffef9"/>
    <path id="type_CompoundPathItem_7" data-name="type &lt;CompoundPathItem&gt;" d="M68.7506,81.9757H65.2374V98.3106H61.9805V81.9757H58.4677V78.8214H68.7506Z" style="fill: #fffef9"/>
    <path id="type_CompoundPathItem_8" data-name="type &lt;CompoundPathItem&gt;" d="M79.8291,90.156H70.0332V87.0017h9.7959Z" style="fill: #fffef9"/>
    <path id="type_CompoundPathItem_9" data-name="type &lt;CompoundPathItem&gt;" d="M92.3179,98.3106h-8.95V78.8214h3.2824V95.1563h5.6674Z" style="fill: #fffef9"/>
    <path id="type_CompoundPathItem_10" data-name="type &lt;CompoundPathItem&gt;" d="M102.4985,94.1049h-4l-.8719,4.2057H94.2926l4.6159-19.4892h3.18l4.616,19.4892h-3.3337Zm-.6411-3.154-1.359-6.5648-1.359,6.5648Z" style="fill: #fffef9"/>
    <path id="type_CompoundPathItem_11" data-name="type &lt;CompoundPathItem&gt;" d="M118.7059,96.7207l-1.59,1.59h-6.5648l-1.59-1.59V78.8214h3.2569v15.976l.3589.3589h2.5132l.3589-.3589V78.8214h3.2565Z" style="fill: #fffef9"/>
    <path id="type_CompoundPathItem_12" data-name="type &lt;CompoundPathItem&gt;" d="M122.245,98.3106V78.8214h8.4113l1.59,1.59V89.13l-1.59,1.59,1.59,7.59h-3.2056l-1.59-7.59h-1.9488v7.59ZM128.63,87.5658l.359-.3846V82.36l-.359-.359h-3.1284v5.5645Z" style="fill: #fffef9"/>
    <path id="type_CompoundPathItem_13" data-name="type &lt;CompoundPathItem&gt;" d="M135.58,98.3106V78.8214h9.3342v3.1543h-6.0773v4.8465H143.35v3.1543h-4.5133v5.18h6.0773v3.1543Z" style="fill: #fffef9"/>
    <path id="type_CompoundPathItem_14" data-name="type &lt;CompoundPathItem&gt;" d="M148.0942,98.3106V78.8214h3.5132l4.2311,11.95v-11.95h3.2569V98.3106h-3.5132l-4.2311-11.95v11.95Z" style="fill: #fffef9"/>
    <path id="type_CompoundPathItem_15" data-name="type &lt;CompoundPathItem&gt;" d="M172.1745,81.9757h-3.5132V98.3106h-3.2565V81.9757h-3.5132V78.8214h10.2829Z" style="fill: #fffef9"/>
    <path id="type_PathItem_2" data-name="type &lt;PathItem&gt;" d="M116.159,214.7783a59.4626,59.4626,0,0,0-14.6709-4.4735l-8.225-14.2541-1.759-3.02L81.53,210.3048a59.618,59.618,0,0,0-14.6912,4.4735l4.687-8.1132,5.2969-9.16L91.5041,172.077,99.6886,186.25l.3152.5592,6.06,10.4721.1525.2643Z" style="fill: #fffef9"/>
    <polygon id="type_PathItem_3" data-name="type &lt;PathItem&gt;" points="70.896 133.229 66.249 141.271 66.036 141.637 24.636 213.345 24.636 192.401 29.648 183.718 36.155 172.443 41.442 163.283 53.225 142.857 58.787 133.229 70.896 133.229" style="fill: #fffef9"/>
    <polygon id="type_PathItem_4" data-name="type &lt;PathItem&gt;" points="158.383 192.411 158.383 213.345 135.141 173.104 128.624 161.829 123.347 152.678 112.123 133.229 124.222 133.229 158.383 192.411" style="fill: #fffef9"/>
    <polygon id="type_PathItem_5" data-name="type &lt;PathItem&gt;" points="45.366 133.229 24.636 169.129 24.636 148.174 29.648 139.492 33.268 133.229 45.366 133.229" style="fill: #fffef9"/>
    <polygon id="type_PathItem_6" data-name="type &lt;PathItem&gt;" points="158.383 148.185 158.383 169.129 137.652 133.229 149.741 133.229 158.383 148.185" style="fill: #fffef9"/>
    <path id="type_PathItem_7" data-name="type &lt;PathItem&gt;" d="M158.3724,240.1551a39.1652,39.1652,0,0,1-3.3246,15.1894L135.141,220.8684l-6.5172-11.2753-5.2766-9.16-11.7937-20.4253-6.5069-11.2753L91.5041,145.2767,77.9719,168.732,71.465,180.0073l-5.2155,9.018-.2136.3661L27.96,255.3547a38.9359,38.9359,0,0,1-3.3143-15.22l5.0022-8.6623,6.5068-11.2649,5.2868-9.1707,11.7836-20.4152,6.5169-11.2855,5.2158-9.0282.2135-.3559L76.823,149.75,86.36,133.229l5.1444-8.9063,5.1446,8.9063,9.4146,16.3077.1525.2644,5.1241,8.8757.1527.2746,11.7733,20.3847Z" style="fill: #fffef9"/>
    <path id="type_PathItem_8" data-name="type &lt;PathItem&gt;" d="M41.0455,271.49q-.0459.1828-.1222.549c-.0913.3863-.1829.9048-.2947,1.525-.62-.6405-1.23-1.2809-1.83-1.9318a51.6549,51.6549,0,0,1,.2236-8.6114c.0508-.6.1219-1.21.2237-1.81.0915-.6.1829-1.2.2745-1.7894.2542-1.1895.4473-2.3689.7727-3.5279.0508-.2237.1219-.4473.1728-.671A69.2269,69.2269,0,0,0,41.0455,271.49Z" style="fill: #fffef9"/>
    <path id="type_PathItem_9" data-name="type &lt;PathItem&gt;" d="M42.1333,250.0374c.1118-.3051.2237-.61.3456-.915.4576-1.0777.8847-2.1657,1.4134-3.2027.2541-.5286.4981-1.0573.7625-1.5656.2744-.5084.5591-1.0066.8336-1.5149l.4067-.7422.4575-.7321c.2949-.4982.6-.9862.9049-1.4742.6405-.9352,1.24-1.8706,1.9216-2.7653a52.9422,52.9422,0,0,1,8.9977-9.4249c1.4336-1.1691,2.8569-2.2061,4.27-3.1517-.2745.2542-.5592.5286-.8236.8235-.4676.488-.9456.9963-1.4335,1.5148-.4779.5186-.9151,1.088-1.3726,1.6472l-.6913.8235c-.2135.2947-.417.5794-.63.8641-.4066.58-.8337,1.1389-1.21,1.6878-.3662.5693-.7219,1.1183-1.0574,1.6369-.3457.5083-.63,1.0167-.9049,1.4843-.2744.4778-.5184.905-.7422,1.281-.2034.3865-.3762.7219-.5185.9964-.1118.1932-.1933.3559-.2644.488A45.9167,45.9167,0,0,0,42.1333,250.0374Z" style="fill: #fffef9"/>
    <path id="type_PathItem_10" data-name="type &lt;PathItem&gt;" d="M67.5406,288.8346c.1016.1322.2034.244.2847.3457-.122,1.5352-.1831,3.1315-.1831,4.6972a136.6534,136.6534,0,0,1-20.9947-14.671c-1.7081-1.4743-3.3857-3.03-4.992-4.6158.02-.1526.04-.305.0711-.4474.1323-.7524.244-1.3724.3457-1.8,2.2164-.4474,6.7712-1.0269,11.0616-1.586.4271.549.9965,1.3013,1.6879,2.2062.7014.9556,1.5758,2.0436,2.44,3.2432.4676.58.9252,1.19,1.403,1.81.4779.61.9354,1.2506,1.4336,1.8709s.9862,1.24,1.4741,1.85c.2339.3049.4779.61.7117.915.244.2949.4881.5795.7321.8642.4778.5693.9354,1.1285,1.3725,1.6572.4371.5186.8236,1.0371,1.24,1.4742C66.4222,287.5434,67.0729,288.3059,67.5406,288.8346Z" style="fill: #fffef9"/>
    <path id="type_PathItem_11" data-name="type &lt;PathItem&gt;" d="M62.3351,226.0637a13.9763,13.9763,0,0,1,1.3319-1.3522c.4371-.4067.854-.8032,1.24-1.1592a7.9093,7.9093,0,0,1,.8947-.732,73.3944,73.3944,0,0,1,20.9237-4.7784c.3152.3051.8032.7829,1.4234,1.3726,1.037,1.0877,2.44,2.4909,3.7922,3.9854.6813.732,1.3624,1.4742,2.003,2.1656s1.2,1.3725,1.6978,1.9317c.0916.1017.1729.1932.2542.2848-3.4466,3.1313-9.0892,10.6855-11.4073,13.8574-.1729.0306-.3966.0713-.6711.1323-.6812.1117-1.6572.2948-2.8161.4779-.59.0914-1.2.2541-1.8708.376-.6609.1221-1.3523.2644-2.0742.4068-.7218.1219-1.4538.3151-2.2061.4779s-1.5149.3252-2.2774.4879c-1.5149.3559-3.04.7015-4.4633,1.0371s-2.7452.6506-3.8838.9251c-1.0879.2542-1.9826.4676-2.6435.6305a63.8176,63.8176,0,0,0-7.3-8.6623q.1981-.427.488-1.0065c.2033-.3763.4371-.7931.6913-1.2506.244-.4575.5083-.9659.8337-1.4742.3152-.5186.6506-1.0573.9964-1.6267.3558-.5491.7523-1.0982,1.1387-1.6776.1932-.2847.3965-.5693.59-.854l.6507-.8338c.4373-.549.854-1.1183,1.3014-1.6368C61.44,227.05,61.8878,226.5517,62.3351,226.0637Z" style="fill: #fffef9"/>
    <path id="type_PathItem_12" data-name="type &lt;PathItem&gt;" d="M92.531,276.6748c-.2644.7321-.5186,1.4337-.7626,2.0945-.2541.6609-.4676,1.3014-.7116,1.8606-.5795,1.3725-1.0472,2.46-1.3217,3.1009-4.27.8743-16.0232,2.8874-20.2221,3.6093-.0916-.0813-.1932-.1627-.3152-.2542-.5084-.4372-1.2607-1.0574-2.1452-1.82-.4474-.3762-.8947-.8235-1.3725-1.3013-.4677-.4677-.9659-.9761-1.4844-1.4946-.2542-.2644-.5083-.5286-.7727-.8031-.2542-.2745-.4982-.5694-.7625-.8541-.4982-.58-1.0065-1.1691-1.5149-1.7691-.5287-.58-.9963-1.21-1.4641-1.82s-.9354-1.2-1.3725-1.8c-.844-1.2-1.6369-2.318-2.2367-3.3144-.63-.9964-1.1185-1.84-1.4438-2.44-.02-.0509-.0508-.0916-.0711-.1424a108.2692,108.2692,0,0,1,6.9744-21.1066q.1833-.0609.4271-.1526c.6405-.2236,1.5454-.549,2.6536-.8845,1.1083-.3558,2.41-.7016,3.8126-1.0776.7016-.1933,1.4336-.356,2.1757-.5287.7423-.1627,1.4947-.356,2.247-.5084.7626-.1423,1.5149-.2745,2.2672-.4169.7422-.1321,1.4844-.2744,2.196-.3558.7218-.0916,1.4133-.1829,2.0741-.2643.6507-.0713,1.2709-.1626,1.8505-.1931,1.1487-.0713,2.1045-.0916,2.7756-.1323a201.3883,201.3883,0,0,0,13.8473,15.7791.6731.6731,0,0,0-.02.0713c-.0609.1829-.1525.4574-.2643.793-.2238.6913-.5287,1.6775-.8642,2.8772-.3356,1.19-.6914,2.6027-1.1388,4.077-.4269,1.4743-.9251,3.05-1.4335,4.6157C93.6291,273.6756,93.05,275.221,92.531,276.6748Z" style="fill: #fffef9"/>
    <path id="type_PathItem_13" data-name="type &lt;PathItem&gt;" d="M88.9523,218.51c-.3558-.3151-.6609-.59-.9252-.8234,1.81-.8947,4.4429-1.3929,8.459-1.7387a54.4976,54.4976,0,0,1,8.8859,1.5658,50.7536,50.7536,0,0,1,9.9332,3.7415c1.1182.5084,1.9214,1.0065,2.4807,1.3013.549.305.8337.4677.8337.4677.0406.02.3151.1933.8235.5084.3965.2542.976.59,1.647,1.0369a63.9408,63.9408,0,0,1,6.5068,7.6152c-.2135.01-.4473.01-.7015.03-.549.0611-1.2.0814-1.8808.2034a21.21,21.21,0,0,0-2.1351.4067c-.3559.0611-.7116.183-1.0676.2746-.3456.1016-.6912.1931-1.0167.3151-.3354.1118-.65.2237-.9556.3253-.2949.1221-.58.2338-.8439.3457-.5389.2033-.9251.4066-1.21.5389-.1119.0508-.1932.0915-.2644.1321-4.382-2.6637-13.878-6.0493-19.6122-7.28-.2847-.2949-.63-.6711-1.037-1.0981-.5287-.549-1.1183-1.21-1.8-1.8808-.6709-.6711-1.3826-1.3828-2.1045-2.0944C91.555,220.96,90.04,219.5669,88.9523,218.51Z" style="fill: #fffef9"/>
    <path id="type_PathItem_14" data-name="type &lt;PathItem&gt;" d="M131.1148,270.0968c.8845,1.2811,1.5454,2.2672,1.8605,2.7452a69.9224,69.9224,0,0,1-3.2025,11.6311v.01A162.3625,162.3625,0,0,1,105.87,298.9914c-.112.061-.2338.1119-.3458.1729-.1931.02-.376.0306-.549.0407-.2033.01-.3659.02-.5184.03-2.0945-2.4706-9.4249-11.1836-12.658-14.8132.2542-.6914.6507-1.7487,1.149-3.0806.2338-.58.4269-1.22.6607-1.9013.2339-.671.4779-1.3826.732-2.1146.5084-1.4743,1.0778-3.03,1.576-4.6159.5287-1.5759,1.0777-3.1519,1.6165-4.6057.2745-.732.5287-1.4436.7423-2.1248.2236-.6711.4371-1.3116.62-1.9013.3865-1.1794.6812-2.1757.8745-2.8671.0507-.1728.0915-.3253.132-.4575a170.8974,170.8974,0,0,0,19.7444-4.6768c.1321.122.2643.244.4067.3762a14.52,14.52,0,0,1,1.0574,1.0472c.366.3964.7727.8337,1.2,1.2913.4271.4472.8643.9454,1.3014,1.4741.4473.5186.9049,1.0574,1.3625,1.6165.4575.5491.9047,1.1387,1.3622,1.7081.9152,1.1386,1.7792,2.3385,2.6028,3.4364.4067.549.7829,1.0981,1.1489,1.6166S130.81,269.6394,131.1148,270.0968Z" style="fill: #fffef9"/>
    <path id="type_PathItem_15" data-name="type &lt;PathItem&gt;" d="M144.82,267.0874a50.6065,50.6065,0,0,1-10.8685,4.4329c-.3557-.549-.8743-1.3421-1.5251-2.3181-.3049-.4677-.6506-.9557-1.0167-1.4844-.3659-.5184-.732-1.0878-1.1386-1.6471-.8235-1.1285-1.6674-2.3486-2.5926-3.5177-.4473-.59-.8947-1.19-1.3523-1.7589-.4676-.5694-.9251-1.1286-1.3622-1.6776-.4372-.5388-.8745-1.0574-1.3217-1.525-.4271-.4779-.844-.9354-1.22-1.3522a13.9851,13.9851,0,0,0-1.0778-1.0981c-.2745-.2643-.5083-.4981-.7218-.7014.0813-5.8053-.59-13.6544-2.0741-18.4531.2643-.1424.6507-.366,1.0879-.5592.2237-.1119.4778-.2339.7524-.3559.2744-.1118.5693-.2338.8742-.3558a9.4933,9.4933,0,0,1,.9456-.3457c.3354-.1119.6609-.244.9963-.3254a20.5542,20.5542,0,0,1,2.003-.4981c.6506-.1626,1.2607-.2135,1.7792-.2949.5287-.0711.9658-.0711,1.2709-.1017.1524-.01.2745-.02.3557-.03,4.28,3.4567,7.1474,7.1677,11.926,14.8031a53.0434,53.0434,0,0,1,4.24,17.9855C144.8,266.2944,144.81,266.691,144.82,267.0874Z" style="fill: #fffef9"/>
  </g>
</svg>
