<svg xmlns="http://www.w3.org/2000/svg" viewBox="0 0 288 288"><defs><style>.cls-1{fill:#000006;}.cls-2{fill:#cab677;}.cls-3{fill:#fffef9;}.cls-4{fill:#ea0029;}.cls-5{fill:#3eae2b;}</style></defs><g id="Logo_Heritage_-_MTL" data-name="Logo Heritage - MTL"><circle class="cls-1" cx="144" cy="144" r="128.5"/><path class="cls-2" d="M144,17.5a126.5,126.5,0,0,1,89.45,216A126.5,126.5,0,0,1,54.55,54.55,125.68,125.68,0,0,1,144,17.5m0-4A130.5,130.5,0,1,0,274.5,144,130.5,130.5,0,0,0,144,13.5Z"/><g id="Lettres"><path class="cls-3" d="M145.86,130.2h8.8L162,117.83H134.79V96.06H175L182.76,83a71.63,71.63,0,0,0-63.64-7v39.86C124.32,121.9,134.45,125.93,145.86,130.2Z"/><path class="cls-3" d="M113.54,106.08a23.93,23.93,0,0,1,1.84-9.22V77.2c-11,6.52-17.51,17.46-17.51,30.06,0,44.65,79.52,34.08,79.52,70.12,0,14.49-10.38,25.46-31.14,25.46-16.63,0-26.72-8.8-33-20l-9.55,12.42c8.08,11.39,20.47,20.85,41.77,20.85,36,0,47.59-21,47.59-41.53C193.06,129.19,113.15,137,113.54,106.08Z"/><path class="cls-3" d="M202.66,190.64a75.41,75.41,0,1,1,0-94.78l11.41-9.15a90,90,0,1,0,0,113.08Z"/><path class="cls-3" d="M122.06,191.49a56.23,56.23,0,0,0,12.73,4.11V146.47a149.22,149.22,0,0,1-15.67-6.78v48.56A38.29,38.29,0,0,0,122.06,191.49Z"/><path class="cls-3" d="M171.29,191.06a55.36,55.36,0,0,1-44,4.65A34.26,34.26,0,0,0,146.25,201C157.87,201,166.51,197.42,171.29,191.06Z"/><path class="cls-3" d="M192.62,189.94c1.36-1.4,2.66-2.87,3.89-4.39l-2.34-1.9A45,45,0,0,1,192.62,189.94Z"/><path class="cls-3" d="M101.37,195.26l7.43-9.64a55.33,55.33,0,0,1-12.1-71.35,34.63,34.63,0,0,1-.7-7,36.17,36.17,0,0,1,3.15-14.91,67.61,67.61,0,0,0,2.53,103.35Z"/><path class="cls-3" d="M182.38,87.29,176.06,97.9a55.6,55.6,0,0,1,11.06,10.44l9.61-7.71A68.09,68.09,0,0,0,182.38,87.29Z"/></g><path class="cls-3" d="M243.62,138.85c-3.42,0-9.37,3.71-9.37,15h-.77c0-13.7,5.84-12.67,5.84-20.05s-7.86-14-7.86-14-7.87,6.61-7.87,14,5.84,6.35,5.84,20.05h-.77c0-11.27-5.95-15-9.36-15a5.84,5.84,0,0,0-5.84,5.84,5.77,5.77,0,0,0,5.84,5.84c3.52,0,4.55-2.35,4.55-3.49a2.85,2.85,0,0,1-1.58.51,1.65,1.65,0,0,1,0-3.3c.91,0,4.3.88,4.3,9.58h-3.64v3.31h6.12s-.06,4.13-5.68,6.39c1.43,1.7,4.52,1.21,5,.84a4.83,4.83,0,0,0,3.13,3.84,4.82,4.82,0,0,0,3.12-3.84c.44.37,3.53.86,5-.84-5.62-2.26-5.68-6.39-5.68-6.39h5.34v-3.31h-2.85c0-8.7,3.38-9.58,4.29-9.58a1.65,1.65,0,0,1,0,3.3,2.85,2.85,0,0,1-1.58-.51c0,1.14,1,3.49,4.56,3.49a5.77,5.77,0,0,0,5.84-5.84,5.84,5.84,0,0,0-5.84-5.84Z"/><g id="Stars"><polygon class="cls-3" points="143.52 22.54 146.22 30.84 154.95 30.84 147.88 35.98 150.58 44.28 143.52 39.15 136.45 44.28 139.15 35.98 132.09 30.84 140.82 30.84 143.52 22.54"/><polygon class="cls-3" points="102.17 29.83 107.54 36.71 115.75 33.72 110.87 40.97 116.25 47.85 107.85 45.44 102.97 52.68 102.66 43.95 94.26 41.55 102.47 38.56 102.17 29.83"/><polygon class="cls-3" points="65.8 50.82 73.21 55.45 79.9 49.84 77.79 58.31 85.2 62.94 76.48 63.55 74.37 72.02 71.1 63.93 62.38 64.53 69.08 58.92 65.8 50.82"/><polygon class="cls-3" points="221.23 50.82 217.96 58.92 224.65 64.53 215.94 63.93 212.67 72.02 210.55 63.55 201.84 62.94 209.25 58.31 207.13 49.84 213.83 55.45 221.23 50.82"/><polygon class="cls-3" points="184.87 29.83 184.56 38.56 192.77 41.55 184.38 43.95 184.07 52.68 179.19 45.44 170.79 47.85 176.17 40.97 171.28 33.72 179.49 36.71 184.87 29.83"/></g><path class="cls-3" d="M113.53,245.08l-.38,0-.91-2.49c-.43-1.2-.7-1.53-2.1-2l-2.93-1.06-2.09,5.8,1.42.52c1.36.48,2,.23,3-1.19L110,244l.45.17-2.27,6.3-.45-.16,0-.78c.12-1.74-.2-2.36-1.55-2.85l-1.42-.51-2.12,5.89,4,1.43c1.33.48,1.72.47,2.61-.16l2.74-1.87.3.21-2.17,4.14-12.38-4.45.21-.56,2.6.48,4.48-12.45-2.32-1.29.2-.56,11.41,4.1Z"/><path class="cls-3" d="M117.36,257.84a9.28,9.28,0,0,1-3.32-1.43l.68-2.94.57.08c.28,2.33,1,3.37,2.62,3.72a1.91,1.91,0,0,0,2.59-1.44c.21-.92-.32-1.61-2.11-2.8s-2.89-2.22-2.51-3.9,2.23-2.86,4.48-2.35a9.46,9.46,0,0,1,2.9,1.18l-.52,2.62h-.52c-.48-2.08-1.12-2.94-2.43-3.24a1.79,1.79,0,0,0-2.24,1.19c-.21.91.31,1.54,2,2.64,2.33,1.54,3.14,2.53,2.76,4.17C121.78,257.45,119.72,258.38,117.36,257.84Z"/><path class="cls-3" d="M127.78,259.67c-1.52-.22-2.2-1.24-1.94-3.07l1-7-1.83-.26.07-.5,2.15-.64,1.5-2.67.62.09-.44,3.06,3.66.53-.17,1.18-3.66-.52-.91,6.37c-.12.85-.08,1.42.37,1.82a2.56,2.56,0,0,0,1.48.5,10.1,10.1,0,0,0,1.59.09l0,.43A6.59,6.59,0,0,1,127.78,259.67Z"/><path class="cls-3" d="M134.68,260.6a1.44,1.44,0,1,1,1.54-1.32A1.45,1.45,0,0,1,134.68,260.6Z"/><path class="cls-3" d="M148.74,247.08c-1.39.08-2.08.74-3.3,2.15l-.42-.29c1-2.15,2.62-3.48,4.49-3.58a3.84,3.84,0,0,1,4.39,3.95c.13,2.3-1,4.09-6.48,9.26l.11.21,5.18-.27,2-2.51.37.18-.75,4-9.49.51-.17-.4a51.81,51.81,0,0,0,5-5.36c1.6-2,2.21-3.15,2.12-5A2.76,2.76,0,0,0,148.74,247.08Z"/><path class="cls-3" d="M164.58,259.15c-3.76.66-6.12-2.35-6.87-6.61s.78-8,4.35-8.62c3.76-.66,6.12,2.36,6.88,6.64S168.15,258.52,164.58,259.15Zm-2.68-14.49c-1.59.28-2.83,2.06-1.88,7.47s2.93,6.63,4.73,6.31c1.58-.28,2.72-2.65,1.87-7.47S163.69,244.34,161.9,244.66Z"/><path class="cls-3" d="M180.49,254.26l.16.55-7.05,2.06-.16-.55,2.35-1.46-3.23-11.06h-2.8l-.14-.46,4.11-2,.29.12,3.75,12.86Z"/><path class="cls-3" d="M190.14,250.6l.21.54-6.84,2.68-.21-.54,2.21-1.66-4.2-10.73-2.8.24-.17-.45,3.91-2.38.29.09,4.89,12.47Z"/><rect class="cls-3" x="33.27" y="133.67" width="3.6" height="20.65"/><rect class="cls-4" x="39.35" y="133.67" width="3.6" height="20.65"/><rect class="cls-5" x="27.19" y="133.67" width="3.6" height="20.65"/></g></svg>