<?xml version="1.0" encoding="utf-8"?>
<!-- Generator: Adobe Illustrator 27.9.0, SVG Export Plug-In . SVG Version: 6.00 Build 0)  -->
<svg version="1.1" id="Layer_1" xmlns="http://www.w3.org/2000/svg" xmlns:xlink="http://www.w3.org/1999/xlink" x="0px" y="0px"
	 viewBox="0 0 288 288" style="enable-background:new 0 0 288 288;" xml:space="preserve">
<style type="text/css">
	.st0{fill:#FFFFFF;}
</style>
<g id="Logo_Heritage_-_MTL">
	<path class="st0" d="M144,15.5c71,0,128.5,57.5,128.5,128.5c0,34.1-13.5,66.8-37.6,90.9c-49.8,50.6-131.1,51.3-181.7,1.5
		S1.9,105.3,51.6,54.7c0.5-0.5,1-1,1.5-1.5C77.2,29,109.9,15.4,144,15.5 M144,13.5C71.9,13.5,13.5,71.9,13.5,144
		S71.9,274.5,144,274.5S274.5,216.1,274.5,144S216.1,13.5,144,13.5z"/>
	<g id="Lettres">
		<path class="st0" d="M145.9,130.2h8.8l7.3-12.4h-27.2V96.1H175l7.8-13.1c-18.9-12.2-42.5-14.8-63.6-7v39.9
			C124.3,121.9,134.4,125.9,145.9,130.2z"/>
		<path class="st0" d="M113.5,106.1c0-3.2,0.6-6.3,1.8-9.2V77.2c-11,6.5-17.5,17.5-17.5,30.1c0,44.7,79.5,34.1,79.5,70.1
			c0,14.5-10.4,25.5-31.1,25.5c-16.6,0-26.7-8.8-33-20l-9.6,12.4c8.1,11.4,20.5,20.9,41.8,20.9c36,0,47.6-21,47.6-41.5
			C193.1,129.2,113.2,137,113.5,106.1z"/>
		<path class="st0" d="M202.7,190.6c-26.2,32.4-73.7,37.4-106,11.3s-37.4-73.7-11.3-106s73.7-37.4,106-11.3
			c4.1,3.3,7.9,7.1,11.3,11.3l11.4-9.2C182.8,48,126.2,42,87.5,73.2S42.8,161.1,74,199.8s87.9,44.7,126.6,13.5
			c5-4,9.5-8.5,13.5-13.5L202.7,190.6z"/>
		<path class="st0" d="M122.1,191.5c4.1,1.9,8.3,3.3,12.7,4.1v-49.1c-5.3-2-10.6-4.2-15.7-6.8v48.6C120,189.4,121,190.5,122.1,191.5
			z"/>
		<path class="st0" d="M171.3,191.1c-13.4,7.6-29.3,9.3-44,4.6c5.7,3.6,12.3,5.4,19,5.3C157.9,201,166.5,197.4,171.3,191.1z"/>
		<path class="st0" d="M192.6,189.9c1.4-1.4,2.7-2.9,3.9-4.4l-2.3-1.9C193.8,185.8,193.3,187.9,192.6,189.9z"/>
		<path class="st0" d="M101.4,195.3l7.4-9.6c-21.2-17.5-26.3-47.9-12.1-71.3c-0.5-2.3-0.7-4.6-0.7-7c0-5.1,1.1-10.2,3.2-14.9
			c-28,24.8-30.5,67.5-5.8,95.4c2.5,2.9,5.3,5.5,8.3,7.9L101.4,195.3z"/>
		<path class="st0" d="M182.4,87.3l-6.3,10.6c4.1,3,7.9,6.5,11.1,10.4l9.6-7.7C192.6,95.5,187.8,91,182.4,87.3z"/>
	</g>
	<path class="st0" d="M243.6,138.9c-3.4,0-9.4,3.7-9.4,15h-0.8c0-13.7,5.8-12.7,5.8-20.1s-7.9-14-7.9-14s-7.9,6.6-7.9,14
		s5.8,6.4,5.8,20.1h-0.8c0-11.3-5.9-15-9.4-15c-3.2,0-5.8,2.6-5.8,5.8c0,3.2,2.5,5.8,5.7,5.8c0,0,0.1,0,0.1,0c3.5,0,4.6-2.4,4.6-3.5
		c-0.5,0.3-1,0.5-1.6,0.5c-0.9,0-1.6-0.7-1.6-1.6c0-0.9,0.7-1.7,1.6-1.7c0.9,0,4.3,0.9,4.3,9.6h-3.6v3.3h6.1c0,0-0.1,4.1-5.7,6.4
		c1.4,1.7,4.5,1.2,5,0.8c0.3,1.8,1.5,3.2,3.1,3.8c1.7-0.6,2.9-2.1,3.1-3.8c0.4,0.4,3.5,0.9,5-0.8c-5.6-2.3-5.7-6.4-5.7-6.4h5.3v-3.3
		h-2.9c0-8.7,3.4-9.6,4.3-9.6c0.9,0,1.7,0.7,1.7,1.7c0,0.9-0.7,1.6-1.7,1.6c-0.6,0-1.1-0.2-1.6-0.5c0,1.1,1,3.5,4.6,3.5
		c3.2,0,5.8-2.5,5.8-5.7c0,0,0-0.1,0-0.1C249.5,141.5,246.9,138.9,243.6,138.9L243.6,138.9z"/>
	<g id="Stars">
		<polygon class="st0" points="144,21.8 146.7,30.1 155.4,30.1 148.4,35.2 151.1,43.5 144,38.4 136.9,43.5 139.6,35.2 132.6,30.1 
			141.3,30.1 		"/>
		<polygon class="st0" points="102.6,29.1 108,35.9 116.2,33 111.3,40.2 116.7,47.1 108.3,44.7 103.4,51.9 103.1,43.2 94.7,40.8 
			102.9,37.8 		"/>
		<polygon class="st0" points="66.3,50 73.7,54.7 80.4,49.1 78.3,57.5 85.7,62.2 77,62.8 74.8,71.2 71.6,63.2 62.9,63.8 69.6,58.2 
					"/>
		<polygon class="st0" points="221.7,50 218.4,58.2 225.1,63.8 216.4,63.2 213.1,71.2 211,62.8 202.3,62.2 209.7,57.5 207.6,49.1 
			214.3,54.7 		"/>
		<polygon class="st0" points="185.4,29.1 185,37.8 193.2,40.8 184.9,43.2 184.6,51.9 179.7,44.7 171.3,47.1 176.6,40.2 171.8,33 
			180,35.9 		"/>
	</g>
	<path class="st0" d="M113.5,245.1h-0.4l-0.9-2.5c-0.4-1.2-0.7-1.5-2.1-2l-2.9-1.1l-2.1,5.8l1.4,0.5c1.4,0.5,2,0.2,3-1.2l0.5-0.7
		l0.4,0.2l-2.3,6.3l-0.4-0.2v-0.8c0.1-1.7-0.2-2.4-1.6-2.9l-1.4-0.5l-2.1,5.9l4,1.4c1.3,0.5,1.7,0.5,2.6-0.2l2.7-1.9l0.3,0.2
		l-2.2,4.1l-12.4-4.4l0.2-0.6l2.6,0.5l4.5-12.4l-2.3-1.3l0.2-0.6l11.4,4.1L113.5,245.1z"/>
	<path class="st0" d="M117.4,257.8c-1.2-0.3-2.3-0.7-3.3-1.4l0.7-2.9l0.6,0.1c0.3,2.3,1,3.4,2.6,3.7c1,0.4,2.1-0.1,2.5-1.1
		c0-0.1,0.1-0.2,0.1-0.4c0.2-0.9-0.3-1.6-2.1-2.8s-2.9-2.2-2.5-3.9s2.2-2.9,4.5-2.4c1,0.2,2,0.6,2.9,1.2l-0.5,2.6h-0.5
		c-0.5-2.1-1.1-2.9-2.4-3.2c-0.9-0.3-1.9,0.2-2.2,1.2c0,0,0,0,0,0c-0.2,0.9,0.3,1.5,2,2.6c2.3,1.5,3.1,2.5,2.8,4.2
		C121.8,257.5,119.7,258.4,117.4,257.8z"/>
	<path class="st0" d="M127.8,259.7c-1.5-0.2-2.2-1.2-1.9-3.1l1-7l-1.8-0.3l0.1-0.5l2.2-0.6l1.5-2.7l0.6,0.1l-0.4,3.1l3.7,0.5
		l-0.2,1.2l-3.7-0.5l-0.9,6.4c-0.1,0.9-0.1,1.4,0.4,1.8c0.4,0.3,0.9,0.5,1.5,0.5c0.5,0.1,1.1,0.1,1.6,0.1v0.4
		C130.2,259.6,129,259.8,127.8,259.7z"/>
	<path class="st0" d="M134.7,260.6c-0.8-0.1-1.4-0.7-1.3-1.5c0.1-0.8,0.7-1.4,1.5-1.3c0.8,0.1,1.4,0.7,1.3,1.5c0,0,0,0,0,0
		C136.2,260.1,135.5,260.7,134.7,260.6z"/>
	<path class="st0" d="M148.7,247.1c-1.4,0.1-2.1,0.7-3.3,2.1l-0.4-0.3c1-2.1,2.6-3.5,4.5-3.6c2.1-0.3,4,1.1,4.4,3.2
		c0,0.2,0,0.5,0,0.7c0.1,2.3-1,4.1-6.5,9.3l0.1,0.2l5.2-0.3l2-2.5l0.4,0.2l-0.8,4l-9.5,0.5l-0.2-0.4c1.8-1.7,3.5-3.5,5-5.4
		c1.6-2,2.2-3.1,2.1-5c0.1-1.5-1.1-2.8-2.7-2.9C149,247.1,148.9,247.1,148.7,247.1z"/>
	<path class="st0" d="M164.6,259.1c-3.8,0.7-6.1-2.4-6.9-6.6s0.8-8,4.4-8.6c3.8-0.7,6.1,2.4,6.9,6.6S168.1,258.5,164.6,259.1z
		 M161.9,244.7c-1.6,0.3-2.8,2.1-1.9,7.5c0.9,5.4,2.9,6.6,4.7,6.3c1.6-0.3,2.7-2.6,1.9-7.5S163.7,244.3,161.9,244.7L161.9,244.7z"/>
	<path class="st0" d="M180.5,254.3l0.2,0.6l-7.1,2.1l-0.2-0.5l2.4-1.5l-3.2-11.1h-2.8l-0.1-0.5l4.1-2l0.3,0.1l3.8,12.9L180.5,254.3z
		"/>
	<path class="st0" d="M190.1,250.6l0.2,0.5l-6.8,2.7l-0.2-0.5l2.2-1.7l-4.2-10.7l-2.8,0.2l-0.2-0.4l3.9-2.4l0.3,0.1l4.9,12.5
		L190.1,250.6z"/>
	<rect x="33.3" y="133.7" class="st0" width="3.6" height="20.6"/>
	<rect x="39.3" y="133.7" class="st0" width="3.6" height="20.6"/>
	<rect x="27.2" y="133.7" class="st0" width="3.6" height="20.6"/>
</g>
</svg>
