<?xml version="1.0" encoding="UTF-8"?><svg id="Layer_2" xmlns="http://www.w3.org/2000/svg" viewBox="0 0 252.4473 158.8166"><g id="Components"><g id="eed5c106-9b16-4271-a060-4c27624820fb_1"><path d="m23.747,62.9211v-13.9153h24.1998v39.0231c0,13.1588-6.5034,19.6634-19.6622,19.6634h-8.6212c-13.1588,0-19.6634-6.5045-19.6634-19.6634V19.6628C0,6.504,6.5045,0,19.6634,0h8.4703c13.1577,0,19.5113,6.504,19.5113,19.5113v17.0921h-15.8817v-16.1841c0-4.2351-1.9669-6.2015-6.0505-6.2015h-3.3266c-4.2357,0-6.2015,1.9663-6.2015,6.2015v66.8532c0,4.2351,1.9657,6.2015,6.2015,6.2015h3.6296c4.2346,0,6.2015-1.9663,6.2015-6.2015v-24.3514h-8.4703Z" style="fill:#abafad; stroke-width:0px;"/><path d="m108.299.9074v14.6718h-19.8143v29.9479h19.0573v14.6712h-19.0573v31.9142h20.1162v14.6718h-36.2997V.9074h35.9979Z" style="fill:#abafad; stroke-width:0px;"/><path d="m180.7523,106.7843h-16.0326l-2.1179-16.6375h-16.7885l-1.9669,16.6375h-14.9737L143.9986.7565h21.477l15.2767,106.0278Zm-33.1241-31.0068h13.1588l-6.5034-52.9384-6.6555,52.9384Z" style="fill:#16211f; stroke-width:0px;"/><path d="m234.449,106.7843l-15.7307-51.8795v51.8795h-16.1835V.9074h16.1835v51.1236L235.5067.9074h16.9406l-18.1505,52.031,17.5455,53.8458h-17.3934Z" style="fill:#16211f; stroke-width:0px;"/><path d="m11.7717,124.926v4.6562h-6.2886v9.5049h6.0488v4.6562h-6.0488v10.1289h6.3848v4.6562H.3469v-33.6025h11.4248Zm-5.3765-6.2412h4.8486l-3.5044,4.2725h-3.4082l2.064-4.2725Z" style="fill:#40474f; stroke-width:0px;"/><path d="m34.4279,124.926h4.8486l-4.9443,33.6504h-6.2886l-4.9443-33.6504h5.1841l3.0723,24.7695,3.0723-24.7695Z" style="fill:#40474f; stroke-width:0px;"/><path d="m62.4118,124.926v4.6562h-6.2886v9.5049h6.0488v4.6562h-6.0488v10.1289h6.3848v4.6562h-11.521v-33.6025h11.4248Zm-3.8403-1.9688h-3.5039l-3.5527-4.2725h4.9448l2.1118,4.2725Z" style="fill:#40474f; stroke-width:0px;"/><path d="m85.5954,124.926h4.6084v33.6025h-5.5684l-5.2324-22.6582.0479,22.6582h-4.6084v-33.6025h6.0005l4.8003,20.8818-.0479-20.8818Z" style="fill:#40474f; stroke-width:0px;"/><path d="m114.299,124.926v4.6562h-6.2886v9.5049h6.0488v4.6562h-6.0488v10.1289h6.3848v4.6562h-11.521v-33.6025h11.4248Z" style="fill:#40474f; stroke-width:0px;"/><path d="m137.675,148.592l3.2637-23.666h7.6328v33.6025h-5.04v-25.2021l-3.6963,25.2021h-4.9932l-3.6963-25.2979v25.2979h-4.416v-33.6025h7.6807l3.2646,23.666Z" style="fill:#40474f; stroke-width:0px;"/><path d="m172.6662,124.926v4.6562h-6.2881v9.5049h6.0479v4.6562h-6.0479v10.1289h6.3838v4.6562h-11.5205v-33.6025h11.4248Z" style="fill:#40474f; stroke-width:0px;"/><path d="m195.8508,124.926h4.6084v33.6025h-5.5684l-5.2324-22.6582.0479,22.6582h-4.6084v-33.6025h6.001l4.7998,20.8818-.0479-20.8818Z" style="fill:#40474f; stroke-width:0px;"/><path d="m216.6818,158.5285v-28.9463h-4.6084v-4.6562h14.3525v4.6562h-4.6084v28.9463h-5.1357Z" style="fill:#40474f; stroke-width:0px;"/><path d="m252.2014,147.1037v5.4727c0,4.1758-2.0635,6.2402-6.2402,6.2402h-2.2559c-4.1768,0-6.1924-2.0645-6.1924-6.1924v-7.1045h4.9922v6.9121c0,1.2959.624,1.9199,1.9678,1.9199h.6719c1.3447,0,1.9688-.624,1.9688-1.9199v-4.6084c0-1.3916-.4805-2.0156-1.4404-2.7363l-5.1846-3.792c-2.3037-1.6318-2.9756-3.2168-2.9756-5.8086v-4.6084c0-4.1768,2.0635-6.2402,6.2402-6.2402h2.1602c4.1279,0,6.1924,2.0635,6.1924,6.1924v6.0967h-5.04v-5.9053c0-1.2959-.624-1.9199-1.9209-1.9199h-.624c-1.2959,0-1.9199.624-1.9199,1.9199v3.7451c0,1.3916.4805,2.0635,1.4404,2.7363l5.1846,3.792c2.2559,1.6318,2.9756,3.0723,2.9756,5.8086Z" style="fill:#40474f; stroke-width:0px;"/></g></g></svg>