<?xml version="1.0" encoding="UTF-8"?>
<svg id="Layer_1" data-name="Layer 1" xmlns="http://www.w3.org/2000/svg" xmlns:xlink="http://www.w3.org/1999/xlink" viewBox="0 0 363.8162 43.1778">
  <g id="type">
    <path id="type_CompoundPathItem_" data-name="type &amp;lt;CompoundPathItem&amp;gt;" d="M62.5652,37.5952l1.3539-.0958c1.8381-.1456,2.9493-1.0155,2.9493-3.0464V10.0794c0-2.0309-1.1112-2.9007-2.9493-3.0464l-1.3539-.0958v-1.5967h17.7954v1.5967l-1.3539,.0958c-1.8381,.1456-2.9493,1.0155-2.9493,3.0464v11.0257h11.7985V10.0794c0-2.0309-1.1112-2.9007-2.9493-3.0464l-1.3539-.0958v-1.5967h17.7954v1.5967l-1.3539,.0958c-1.8381,.1456-2.9493,1.0155-2.9493,3.0464v24.3736c0,2.0309,1.1112,2.9007,2.9493,3.0464l1.3539,.0958v1.5967h-17.7954v-1.5967l1.3539-.0958c1.8381-.1456,2.9493-1.0155,2.9493-3.0464v-11.8483h-11.7985v11.8483c0,2.0309,1.1112,2.9007,2.9493,3.0464l1.3539,.0958v1.5967h-17.7954v-1.5967Z" style="fill: #fff;"/>
    <path id="type_CompoundPathItem_-2" data-name="type &amp;lt;CompoundPathItem&amp;gt;" d="M105.221,31.648v-11.7512c0-2.3209-.9184-3.192-2.6121-3.192h-.2899v-1.451l11.6541-1.6439V30.9225c0,2.5137,1.1125,4.2075,3.2891,4.2075,.8213,0,1.6924-.1942,2.805-.8711v-14.362c0-2.3209-.9197-3.192-2.6121-3.192h-.2899v-1.451l11.6541-1.6439v19.8263c0,2.3707,.9669,3.192,2.6607,3.192h.2414v1.451l-11.3157,1.6439v-4.8359c-1.4025,2.4179-4.0146,4.8359-7.8823,4.8359-4.3531,0-7.3024-3.0949-7.3024-8.0751Z" style="fill: #fff;"/>
    <path id="type_CompoundPathItem_-3" data-name="type &amp;lt;CompoundPathItem&amp;gt;" d="M132.6921,37.8379l.3857-.0485c1.2096-.1456,2.6121-.4841,2.6121-3.2405v-14.652c0-2.3694-.9669-3.192-2.6593-3.192h-.2427v-1.451l11.3157-1.6439v4.643c1.6452-2.6121,5.1271-4.643,8.6563-4.643s5.8513,1.8381,6.4325,4.8844c1.4497-2.9021,4.9802-4.8844,8.7521-4.8844,4.3518,0,6.6739,2.6121,6.6739,8.125v12.8139c0,2.3222,.9184,3.0464,2.6108,3.2405l.387,.0485v1.3539h-13.8792v-1.3539l.387-.0485c1.5481-.1942,1.741-1.1611,1.741-3.2405v-12.8625c0-2.9506-1.451-3.8204-3.0464-3.8204-1.3054,0-2.7079,.6284-3.2878,1.2083v15.4746c0,1.741,0,2.9991,1.7397,3.2405l.387,.0485v1.3539h-13.0081v-1.3539l.387-.0485c1.5481-.1942,1.741-1.1611,1.741-3.2405v-12.8625c0-2.9506-1.451-3.8204-3.0464-3.8204-1.3054,0-2.7079,.6284-3.2891,1.2083v15.4746c0,1.741,0,2.9991,1.741,3.2405l.387,.0485v1.3539h-13.8779v-1.3539Z" style="fill: #fff;"/>
    <path id="type_CompoundPathItem_-4" data-name="type &amp;lt;CompoundPathItem&amp;gt;" d="M179.3139,33.1948c0-5.0287,3.9162-6.3827,7.7852-7.6881,5.1258-1.741,7.5923-3.0477,7.5923-7.3509,0-2.5636-.9184-3.8204-2.6593-3.8204-2.4179,0-3.3849,2.3694-3.579,8.3664h-8.6563c.8226-6.4325,5.6099-9.0919,12.1383-9.0919,6.384,0,9.6232,2.7564,9.6232,8.0279v11.7027c0,1.451,.0485,3.2878,1.9824,3.2878,.4356,0,.8711-.0971,1.4025-.2414v1.451c-1.6439,1.2083-4.0133,1.8853-6.0442,1.8853-2.9506,0-4.7873-1.5468-5.5129-4.0133-2.2736,2.6108-4.9815,4.0133-7.7852,4.0133-3.7732,0-6.2869-2.5137-6.2869-6.5283Zm12.0412,2.3209c.5799,0,1.1125-.1929,1.451-.4828v-10.6872c-.3385,.1929-.7255,.4356-1.2096,.677l-.5799,.2899c-1.451,.7255-2.7079,1.5481-2.7079,4.9815,0,3.1907,1.1598,5.2216,3.0464,5.2216Z" style="fill: #fff;"/>
    <path id="type_CompoundPathItem_-5" data-name="type &amp;lt;CompoundPathItem&amp;gt;" d="M205.9139,37.8379l.3857-.0485c1.2096-.1456,2.6121-.4841,2.6121-3.2405v-14.652c0-2.3694-.9669-3.192-2.6593-3.192h-.2427v-1.451l11.3157-1.6439v4.8359c1.6452-2.6593,4.8359-4.8359,8.6563-4.8359,4.4003,0,7.0124,2.805,7.0124,8.125v12.8139c0,2.0795,.9184,3.0464,2.6108,3.2405l.387,.0485v1.3539h-14.2649v-1.3539l.3857-.0485c2.128-.2414,2.128-1.7895,2.128-3.2405v-12.8625c0-2.7564-1.4497-3.8204-3.1907-3.8204-1.1125,0-2.3707,.4356-3.3862,1.2083v15.4746c0,1.4996,0,2.9506,2.128,3.2405l.387,.0485v1.3539h-14.2649v-1.3539Z" style="fill: #fff;"/>
    <path id="type_CompoundPathItem_-6" data-name="type &amp;lt;CompoundPathItem&amp;gt;" d="M236.9628,37.8379l.387-.0485c1.2083-.1456,2.6108-.2899,2.6108-3.192v-14.7005c0-2.3209-.9184-3.192-2.6108-3.192h-.2899v-1.451l11.6541-1.6439v20.9874c0,2.1765,.9184,2.9978,2.6108,3.192l.387,.0485v1.3539h-14.7491v-1.3539ZM244.0224,1.9558c3.0949,0,5.2229,2.128,5.2229,4.8844,0,2.805-2.128,4.9317-5.2229,4.9317-3.0464,0-5.2216-2.1267-5.2216-4.9317,0-2.7564,2.1267-4.8844,5.2216-4.8844Z" style="fill: #fff;"/>
    <path id="type_CompoundPathItem_-7" data-name="type &amp;lt;CompoundPathItem&amp;gt;" d="M253.6483,33.1948c0-5.0287,3.9162-6.3827,7.7852-7.6881,5.1258-1.741,7.5923-3.0477,7.5923-7.3509,0-2.5636-.9184-3.8204-2.6593-3.8204-2.4179,0-3.3849,2.3694-3.579,8.3664h-8.6563c.8226-6.4325,5.6099-9.0919,12.1383-9.0919,6.384,0,9.6232,2.7564,9.6232,8.0279v11.7027c0,1.451,.0485,3.2878,1.9824,3.2878,.4356,0,.8711-.0971,1.4025-.2414v1.451c-1.6439,1.2083-4.0133,1.8853-6.0442,1.8853-2.9506,0-4.7873-1.5468-5.5129-4.0133-2.2736,2.6108-4.9815,4.0133-7.7865,4.0133-3.7719,0-6.2856-2.5137-6.2856-6.5283Zm12.0412,2.3209c.5799,0,1.1125-.1929,1.451-.4828v-10.6872c-.3385,.1929-.7255,.4356-1.2096,.677l-.5799,.2899c-1.451,.7255-2.7079,1.5481-2.7079,4.9815,0,3.1907,1.1598,5.2216,3.0464,5.2216Z" style="fill: #fff;"/>
    <path id="type_CompoundPathItem_-8" data-name="type &amp;lt;CompoundPathItem&amp;gt;" d="M289.4372,37.5952l1.3539-.0958c1.8381-.1456,2.9493-1.0155,2.9493-3.0464V10.0794c0-2.0309-1.1112-2.9007-2.9493-3.0464l-1.3539-.0958v-1.5967h17.7954v1.5967l-1.3539,.0958c-1.8381,.1456-2.9493,1.0155-2.9493,3.0464v11.0257h11.7985V10.0794c0-2.0309-1.1112-2.9007-2.9493-3.0464l-1.3539-.0958v-1.5967h17.7954v1.5967l-1.3539,.0958c-1.8381,.1456-2.9493,1.0155-2.9493,3.0464v24.3736c0,2.0309,1.1112,2.9007,2.9493,3.0464l1.3539,.0958v1.5967h-17.7954v-1.5967l1.3539-.0958c1.8381-.1456,2.9493-1.0155,2.9493-3.0464v-11.8483h-11.7985v11.8483c0,2.0309,1.1112,2.9007,2.9493,3.0464l1.3539,.0958v1.5967h-17.7954v-1.5967Z" style="fill: #fff;"/>
    <path id="type_CompoundPathItem_-9" data-name="type &amp;lt;CompoundPathItem&amp;gt;" d="M329.675,37.5952l1.3539-.0958c1.8381-.1456,2.9493-1.0155,2.9493-3.0464V10.0794c0-2.0309-1.1112-2.9007-2.9493-3.0464l-1.3539-.0958v-1.5967h19.0523c7.2538,0,11.2199,4.0618,11.2199,8.3178,0,3.2405-2.2251,6.5769-6.9153,8.3664l7.2053,12.0412c1.3054,2.1752,2.6593,3.3849,3.579,3.5292v1.5967h-11.3157c-.6297-1.0155-1.064-1.8381-1.4996-2.6607l-7.1567-12.9595h-.677v9.9617c0,2.4179,.9669,3.8204,2.9493,3.9661l1.3539,.0958v1.5967h-17.7954v-1.5967Zm13.8792-15.3289c4.0133,0,6.3827-4.1589,6.3827-8.2207,0-3.7233-1.9824-7.3995-6.1413-7.3995h-.6284v15.6202h.387Z" style="fill: #fff;"/>
  </g>
  <g id="logoMark">
    <a xlink:href="79.8713725490196">
      <path id="logoMark_PathItem_" data-name="logoMark &amp;lt;PathItem&amp;gt;" d="M27.5039,5.5992c.5559-1.4034,1.1892-2.5289,2.2281-3.5404,2.7385-2.7385,7.1765-2.7385,9.9104-.0046s2.7339,7.1719-.0046,9.9104c-.8065,.8429-1.5583,1.3852-2.8022,1.8363-.9087,.3278-4.9232,.8521-9.6282,3.6991-.8585,.5195-1.9677,.4232-2.6781-.2855-.0079-.0078-.0157-.0157-.0236-.0236-.0043-.0043-.0087-.0087-.013-.013-.7109-.7118-.8131-1.8187-.2971-2.6823,2.6124-4.3724,2.908-7.8857,3.3082-8.8965Z" style="fill: #fff;"/>
    </a>
    <a xlink:href="51.6760784313725">
      <path id="logoMark_PathItem_-2" data-name="logoMark &amp;lt;PathItem&amp;gt;" d="M39.64,29.732c-.9883-1.018-2.195-1.6644-3.4606-2.1828-1.3766-.5639-7.706-.927-14.4079-7.6288-6.7019-6.7019-7.5241-13.8227-7.9769-15.0648s-.9927-1.9931-1.8347-2.8036c-2.736-2.736-7.172-2.736-9.908,0-2.736,2.736-2.736,7.172,0,9.908,1.0111,1.0391,2.1407,1.6719,3.5432,2.2265s7.6437,.9132,14.3039,7.5734c6.6602,6.6602,6.3984,11.1565,8.3029,15.6515,1.9045,4.495,7.9929,5.7664,11.4381,2.2285,2.736-2.7359,2.736-7.1719,0-9.9079Z" style="fill: #fff;"/>
    </a>
    <a xlink:href="51.6760784313725">
      <path id="logoMark_PathItem_-3" data-name="logoMark &amp;lt;PathItem&amp;gt;" d="M14.1442,36.1824c-.5194,1.2667-1.1619,2.4742-2.1871,3.463-2.7339,2.7339-7.1719,2.7339-9.9058,0-3.5358-3.4447-2.2646-9.5368,2.2281-11.4414,3.1782-1.341,6.3563-1.6043,10.2985-3.9986,.8219-.4992,1.8816-.4144,2.5624,.2647,.0083,.0083,.0166,.0166,.0249,.0249,.0306,.0306,.0609,.0611,.0911,.0915,.6745,.6801,.7746,1.7329,.28,2.5532-2.6848,4.4528-2.9856,8.0471-3.3921,9.0427Z" style="fill: #fff;"/>
    </a>
  </g>
</svg>