<?xml version="1.0" encoding="UTF-8"?><svg id="Layer_2" xmlns="http://www.w3.org/2000/svg" viewBox="0 0 334.7753 82.9474"><g id="Components"><g id="d91644c7-a9ba-49ad-932c-303a8f1745e6_1"><path d="m93.3078,66.0438V16.9036h9.3926v20.282h.1362l12.1831-20.282h10.2769l-12.6594,19.8057,14.0887,29.3345h-10.5492l-9.8011-20.6226-3.6752,5.5808v15.0418h-9.3926Z" style="fill:#5e6367; stroke-width:0px;"/><path d="m127.8124,66.0438l12.1826-49.1402h12.0469l11.8429,49.1402h-8.9842l-2.3824-10.3452h-12.9995l-2.6547,10.3452h-9.0516Zm13.4075-18.6487h9.3248l-4.5599-19.874h-.1366l-4.6282,19.874Z" style="fill:#5e6367; stroke-width:0px;"/><path d="m168.9866,66.0438V16.9036h9.3922v40.8368h15.1096v8.3034h-24.5018Z" style="fill:#5e6367; stroke-width:0px;"/><path d="m223.9126,16.9036v8.3034h-10.9577v40.8368h-9.3922V25.207h-10.9577v-8.3034h31.3076Z" style="fill:#f68a33; stroke-width:0px;"/><path d="m229.4916,66.0438V16.9036h25.7267v8.3034h-16.3345v11.2983h12.4549v8.3034h-12.4549v12.9317h17.0148v8.3034h-26.407Z" style="fill:#f68a33; stroke-width:0px;"/><path d="m272.0947,51.4788c0,5.4447,2.3824,6.9424,6.1255,6.9424s6.1255-1.4977,6.1255-6.9424v-3.2672h9.3931v2.0418c0,12.1152-6.3978,16.4712-15.5186,16.4712s-15.5176-4.3559-15.5176-16.4712v-17.5599c0-12.1148,6.3978-16.4707,15.5176-16.4707s15.5186,4.3559,15.5186,16.4707v.1362h-9.3931v-1.3611c0-5.4452-2.3815-6.9424-6.1255-6.9424s-6.1255,1.4972-6.1255,6.9424v20.0102Z" style="fill:#f68a33; stroke-width:0px;"/><path d="m301.3577,66.0438V16.9036h9.3922v20.282h.1357l12.1835-20.282h10.2774l-12.6598,19.8057,14.0887,29.3345h-10.5497l-9.8002-20.6226-3.6756,5.5808v15.0418h-9.3922Z" style="fill:#f68a33; stroke-width:0px;"/><path d="m62.8733,5.9546C43.2566-5.8641,17.7733.4574,5.9546,20.074-5.8641,39.6907.4574,65.1741,20.074,76.9928s45.1001,5.4972,56.9188-14.1195c11.8187-19.6167,5.4972-45.1001-14.1195-56.9188Zm17.779,34.218c.0346.9946.0397,1.9913-.0017,2.9892L7.6278,61.2762c-.5029-.8629-.9643-1.7464-1.3985-2.6418l74.423-18.4618ZM5.2888,56.554c-.3737-.8998-.7089-1.8135-1.0146-2.737l75.855-18.8169c.1614.9593.292,1.9238.3822,2.8939L5.2888,56.554Zm75.1881-11.0357c-.1057,1.0351-.2527,2.0686-.4423,3.0986L10.7219,65.8109c-.649-.8219-1.262-1.6669-1.8392-2.5325l71.5942-17.7601Zm-.7837-12.7236L3.6289,51.6635c-.2514-.9343-.474-1.8758-.6563-2.8261l75.9801-18.8479c.283.9254.5262,1.8618.7407,2.8052Zm-5.1124-12.3254c.5396.8536,1.05,1.723,1.5203,2.6118L2.2647,41.3971c.0003-1.0055.0453-2.0125.1233-3.0194l72.1929-17.9085ZM2.6382,36.0022c.1461-1.0478.3442-2.0918.5772-3.132L71.2753,15.9869c.6922.8107,1.3553,1.6411,1.9742,2.4992L2.6382,36.0022Zm74.4769-10.8591c.4064.8904.7743,1.7964,1.1128,2.7127L2.6162,46.6123c-.129-.9683-.2272-1.9412-.2841-2.9184l74.783-18.5508Zm-15.4006-17.265c2.9387,1.7705,5.5593,3.87,7.8487,6.22L3.8464,30.4002c.9257-3.1476,2.2612-6.2285,4.0317-9.1673C19.0389,2.7083,43.1897-3.2827,61.7144,7.8781ZM21.2329,75.0693c-3.3994-2.0481-6.3724-4.5368-8.8991-7.3447l67.1702-16.6625c-.9215,3.6633-2.3866,7.2529-4.4347,10.6523-11.1608,18.5247-35.3117,24.5156-53.8364,13.3549Z" style="fill:#f68a33; stroke-width:0px;"/></g></g></svg>