<?xml version="1.0" encoding="utf-8"?>
<!-- Generator: Adobe Illustrator 27.9.0, SVG Export Plug-In . SVG Version: 6.00 Build 0)  -->
<svg version="1.1" id="Layer_1" xmlns="http://www.w3.org/2000/svg" xmlns:xlink="http://www.w3.org/1999/xlink" x="0px" y="0px"
	 viewBox="0 0 264.8 78.6" style="enable-background:new 0 0 264.8 78.6;" xml:space="preserve">
<style type="text/css">
	.st0{fill:#FFFFFF;}
</style>
<g id="Layer_2_00000005952600074650951470000012414102955781384833_">
	<g id="Calque_1">
		<path class="st0" d="M38.3,64.4l4.8,9.6c0,0-5.5,4.6-16.3,4.6C12.8,78.6,0,67.2,0,53s12.8-25.7,26.8-25.7
			c10.7,0,16.3,4.6,16.3,4.6l-4.8,9.6c-2.9-2-6.2-3-9.7-3.1c-11.3,0-16.3,7.9-16.3,14.5s5,14.6,16.3,14.6
			C32,67.5,35.4,66.4,38.3,64.4z"/>
		<path class="st0" d="M92.5,77.7H80.4l-3.7-9.9H57.9l-3.7,9.9H42.1l20-49.5h10.4L92.5,77.7z M67.4,43.5h-0.1l-5.5,14.4h11.2
			L67.4,43.5z"/>
		<path class="st0" d="M112.1,28.2c9.2,0,16.1,5,16.1,14.7c0,7.4-4.1,12.4-10.1,14.3l17,20.5h-14.3l-15.1-19.6v19.6H94.4V28.2H112.1
			z M107,50.2c4.3,0,9.4-0.3,9.4-6.5s-5.1-6.5-9.4-6.5h-1.3v13L107,50.2z"/>
		<path class="st0" d="M131.9,28.2h34.8v9.9h-11.8v39.6h-11.3V38.1h-11.8V28.2z"/>
		<path class="st0" d="M182,77.7h-11.2V28.2H182V77.7z"/>
		<path class="st0" d="M217.6,38.1h-17v9.8h16.3v9.9h-16.4v10h17v9.9h-28.3V28.2h28.3V38.1z"/>
		<path class="st0" d="M241.7,28.2c9.2,0,16.1,5,16.1,14.7c0,7.4-4.1,12.4-10.1,14.3l17,20.5h-14.3l-15.1-19.6v19.6H224V28.2H241.7z
			 M236.6,50.2c4.3,0,9.4-0.3,9.4-6.5s-5.1-6.5-9.4-6.5h-1.3v13L236.6,50.2z"/>
		<path class="st0" d="M24.5,20.2h-4.9l-1.5-4h-7.5l-1.5,4H4.3l8-19.8h4.2L24.5,20.2z M14.4,6.5L14.4,6.5l-2.2,5.8h4.5L14.4,6.5z"/>
		<path class="st0" d="M38.9,14.9l1.9,3.8c-1.9,1.3-4.2,1.9-6.5,1.8c-5.6,0-10.7-4.6-10.7-10.2S28.7,0,34.3,0
			c2.3-0.1,4.6,0.5,6.5,1.8l-1.9,3.8c-1.2-0.8-2.5-1.2-3.9-1.2c-4.5,0-6.5,3.2-6.5,5.8s2,5.8,6.5,5.8C36.4,16.1,37.8,15.7,38.9,14.9
			z"/>
		<path class="st0" d="M47.1,20.2h-4.5V0.4h4.5V20.2z"/>
		<path class="st0" d="M61.3,4.3h-6.8v3.9H61v4h-6.5v4h6.8v4H50V0.4h11.3V4.3z"/>
		<path class="st0" d="M71,0.4c3.7,0,6.5,2,6.5,5.9c0.1,2.6-1.6,5-4.1,5.8l6.8,8.2h-5.7l-6-7.8v7.8h-4.6V0.4H71z M69,9.1
			c1.7,0,3.7-0.1,3.7-2.6S70.6,4,68.9,4h-0.5v5.1L69,9.1z"/>
	</g>
</g>
</svg>
