<?xml version="1.0" encoding="utf-8"?>
<!-- Generator: Adobe Illustrator 27.9.0, SVG Export Plug-In . SVG Version: 6.00 Build 0)  -->
<svg version="1.1" id="Layer_1" xmlns="http://www.w3.org/2000/svg" xmlns:xlink="http://www.w3.org/1999/xlink" x="0px" y="0px"
	 viewBox="0 0 720 720" style="enable-background:new 0 0 720 720;" xml:space="preserve">
<style type="text/css">
	.st0{fill-rule:evenodd;clip-rule:evenodd;fill:#A8AAAD;}
	.st1{fill-rule:evenodd;clip-rule:evenodd;fill:#283354;}
	.st2{fill-rule:evenodd;clip-rule:evenodd;fill:#276EAF;}
	.st3{fill-rule:evenodd;clip-rule:evenodd;fill:#FFFFFF;}
	.st4{fill:#FFFFFF;}
</style>
<g>
	<path class="st0" d="M586.2,148.3l0,3.5c0,19.4-5.9,37-18.1,51.9c-3,25.9-16.1,46-39.4,57.4c-4,9.9-11.4,17.4-20.8,22.5
		c-8.4,16.5-25.5,23.4-43.3,25.3c-6.6,6.1-14.6,9.8-23.6,11.2c-7,5.3-15.7,7.4-24.4,8.2l-56.8,51.5l-6.3,0.1
		c-4.8,0.1-9.5,0.1-14.3,0.1c-4.8,0-9.5,0-14.3-0.1l-6.3-0.1l-56.8-51.5c-8.7-0.8-17.4-2.9-24.4-8.2c-8.9-1.4-17-5.1-23.6-11.2
		c-17.8-1.9-34.9-8.8-43.3-25.3c-9.4-5.1-16.8-12.6-20.8-22.5c-23.3-11.4-36.4-31.5-39.4-57.4c-12.2-14.9-18.2-32.5-18.1-51.9l0-3.5
		c-10.6-14.5-17.5-30.9-18.9-49.1c-3-37.6,14-60.8,41.5-83.1L134.8,0l-3.7,25.4c-5.3,37-4.6,56.4,20.5,79.4
		c7.8-13.2,21-22.2,34.9-29.9l20-11.1l-5.4,22.2c-7.7,31.7,10.6,50.7,35.6,61.4c-3.4-10.6-5.2-21.7-5.2-33
		C231.6,55,279.8,6.8,339.3,6.8c59.4,0,107.6,48.2,107.6,107.6c0,11.3-1.7,22.4-5.2,33c25-10.7,43.3-29.6,35.6-61.4L472,63.8
		l20,11.1c13.9,7.7,27.1,16.7,34.9,29.9c25.2-23,25.9-42.4,20.5-79.4L543.8,0l19.9,16.2c27.5,22.3,44.4,45.4,41.5,83.1
		C603.7,117.4,596.8,133.8,586.2,148.3L586.2,148.3z"/>
	<path class="st0" d="M175.6,588.9c-15.4,1.5-30.8,3.3-46.2,5.3l-2.4,0.3l-71.8-25.3l-10.1-3.5c2-17.4,3.9-34.8,6.1-52.2l0.4-3.1
		l-41.8-20L0,485.7l2.2-13.9L5.6,450c1.7-11,3.4-22.1,5.1-33.1c1.7-11.2,3.4-22.3,5.2-33.5l3.4-21l7-1.3c16.4-3,32.9-5.8,49.4-8.3
		l27.9-192.2l6.5-1.6c81.7-20.5,156.4-56.1,223-108l6.2-4.8l6.2,4.8c66.6,51.9,141.3,87.5,223,108l6.5,1.6l27.8,191.1
		c21,3,42,6.4,62.9,10.2l10.2,1.8l-6.3,30.3c-0.7,3.5-1.5,7-2.3,10.5c4.1,5.8,7,12.4,8.6,19.3c1.2,5.1,1.7,10.4,1.7,15.6
		c-0.1,11.9-5.7,26.5-15.3,33.9c-1.4,1.1-2.8,2-4.3,2.9l-24.8,19.2l2.1,16.8c2.2,17.7,4.7,35.4,7.1,53.1l-84.9,29.9l-2.4-0.3
		c-17.3-2.3-34.7-4.4-52.1-6.1c-3.9,4-7.8,7.9-11.9,11.8c-24.7,23.5-51.6,43.7-79.2,63.5c-12,8.6-24,17-35.9,25.7
		c-10.2,7.6-20.4,15.4-29.8,23.9l-6.7,6.1l-6.7-6.1c-9.4-8.5-19.6-16.4-29.8-23.9c-11.8-8.7-23.9-17.2-35.9-25.7
		c-27.7-19.8-54.6-40-79.2-63.5C183.5,596.8,179.5,592.9,175.6,588.9L175.6,588.9z"/>
	<path class="st1" d="M56,558.9l72.1,25.4c64.8-8.5,136.2-13.2,211.2-13.2l1.3,0l2.7-179.9l315.9,71.4L574,528.4l57.3,31l-75,25.7
		c-64.4-8.7-135.5-13.7-210.3-13.9l-2.7-179.9L11.1,479.9l101.6,48.5L56,558.9L56,558.9z"/>
	<path class="st1" d="M339.3,58.9c-68.8,53.6-144.7,89.3-226.7,109.8L82.8,373.5C111,581.6,267,641,339.3,706.5
		c72.3-65.4,228.3-124.9,256.5-333L566,168.7C484,148.2,408.1,112.5,339.3,58.9L339.3,58.9z"/>
	<path class="st2" d="M339.3,79.9c-63.9,47.7-134.8,81.5-211.8,102.2L99.7,373.5c11.7,83.1,45.5,149.9,106.3,207.8
		c23.8,22.6,49.7,42.1,76.4,61.1c18.9,13.5,38.8,27,56.9,41.9c18.1-14.9,38-28.4,56.9-41.9c26.6-19,52.6-38.5,76.4-61.1
		c60.8-57.9,94.6-124.7,106.3-207.8L551,182.1C474.1,161.5,403.2,127.7,339.3,79.9L339.3,79.9z"/>
	<path class="st1" d="M339.3,104.8c-59.1,42-124.1,73-193.8,93.2L120,373.5c11.4,77.2,43.1,139.2,99.9,193.3
		c23,21.9,48.4,40.9,74.2,59.3c15.1,10.8,30.4,21.3,45.2,32.6c14.8-11.3,30.1-21.8,45.2-32.6c25.8-18.4,51.2-37.5,74.2-59.3
		c56.8-54.1,88.5-116,99.9-193.3L533,198C463.4,177.8,398.4,146.8,339.3,104.8L339.3,104.8z"/>
	<path class="st2" d="M551.9,237.9c-6.3,8.6-14.9,15.6-25.8,20.7c-3.7,10.1-11.1,17.5-20.7,22.5c-7.8,16.5-24.9,22.9-42.3,24.6
		c-6.4,6.3-14.9,8-23.9,9.2c-6.8,5.5-16.6,6.5-26.8,3.6l-57.2,26.1l-1.9,32c-4.7,0.1-9.5,0.1-14.2,0.1s-9.5,0-14.2-0.1l-1.9-32
		l-57.2-26.1c-10.1,2.9-19.9,1.9-26.8-3.6c-9-1.3-17.5-2.9-23.9-9.2c-17.4-1.6-34.5-8.1-42.3-24.6c-9.6-4.9-17-12.4-20.7-22.5
		c-10.9-5.1-19.4-12.1-25.8-20.7h212.6H551.9L551.9,237.9z"/>
	<path class="st1" d="M339.3,16.9c53.9,0,97.6,43.7,97.6,97.6c0,17.6-4.7,34.6-13.5,49.5c40.6-9.8,74.8-34.7,63.7-80.2
		c16.2,8.9,31.3,19.5,35.8,37.6c40.2-31.2,40.5-55.7,34.5-97.3c21.3,17.3,40.7,37.5,37.8,74.5c-1.4,17.4-8.4,32.9-18.9,46.5l0,6.9
		c0,18.2-5.8,34.3-17.7,47.7l-0.1,1c-2.4,25.3-15,43.5-37.7,53.1c-3,10.7-10.5,17.9-20.4,22.4c-6.6,16.6-23.9,21.9-40.2,23
		c-6.1,6.9-14.1,10.5-23.2,11.3c-6.2,5.9-15.9,7.5-24.4,8l-56.6,51.3l-2.5,0c-4.7,0.1-9.4,0.1-14.1,0.1c-4.7,0-9.4,0-14.1-0.1
		l-2.5,0l-56.6-51.3c-8.5-0.4-18.2-2-24.4-8c-9.1-0.9-17.1-4.5-23.2-11.3c-16.4-1.1-33.7-6.4-40.2-23c-9.9-4.5-17.4-11.8-20.4-22.4
		c-22.7-9.6-35.3-27.8-37.7-53.1l-0.1-1c-11.9-13.5-17.8-29.5-17.7-47.7l0-6.9c-10.5-13.6-17.6-29.1-18.9-46.5
		c-2.9-37,16.5-57.2,37.8-74.5c-6,41.6-5.7,66.2,34.5,97.3c4.5-18.1,19.6-28.6,35.8-37.6c-11.1,45.6,23.1,70.4,63.7,80.2
		c-8.8-14.9-13.5-31.9-13.5-49.5C241.7,60.6,285.4,16.9,339.3,16.9L339.3,16.9z M339.3,226.2l1.5,0.3c9.4,2.1,9.9,3.9,17.8,0.2
		c6.2-8.9,14.6-15.5,23.6-21.3c-0.5-0.8-1.1-1.7-1.5-2.5c-12.9,6-27,9.2-41.3,9.2c-14.4,0-28.4-3.1-41.3-9.2c-0.5,0.9-1,1.7-1.5,2.5
		c9,5.8,17.4,12.4,23.6,21.3c7.9,3.6,8.4,1.9,17.8-0.2L339.3,226.2L339.3,226.2z"/>
	<path class="st0" d="M297.9,224.3c-9.6-7.6-18.6-12.7-24-15.5c4.1-3.9,8.8-7.9,11.7-13.3c3.9-7.3-5.8-12.8-24.5-15.8
		c-59.9-9.5-161.1-52.3-153.4-122.5c-28.6,48.5,4.1,98,77.2,128.9c-25.2-3-48.8-11.4-68.3-34.2c-0.1,39.9,34.4,61.4,86.7,73.2
		c-29.1-1.4-53.5-8.3-68.9-25.9c3.5,36.9,32.7,49.8,77.8,47.9c-17.1,4.1-31,4.8-40.9,1.3c2.9,13.8,19.2,20.2,47.7,19.9
		c-10.1,2.9-19,3.2-27.5,2.3c4.6,12,21.7,16.9,53.6,13.1c-5.1,2.1-11,3.3-17.6,3.6c5.6,8.2,15.4,11.4,31.9,7
		c-2.7,1.7-5.9,2.8-9.2,3.5c1,3.9,7.3,5.8,16.7,6.2c0.3-3.8,0.4-7.6,0-11.3c-1.6-14.5-11.9-23.8-23.6-31.4
		c-1.9-1.2-10.1-6.8-12.5-4.4l-6.3,6.2l-3.9-7.9c-2.9-5.9-4.1-14-2.8-20.4c2.2-10.4,9.9-15.9,19.7-17.5c0.5-0.4,0.9-0.9,1.4-1.3
		c5.7-4.9,11.5-6.3,18.9-5.2C272.6,213.3,285.1,218.1,297.9,224.3L297.9,224.3z"/>
	<path class="st0" d="M273.2,305.7l26.1,22.2c5.5-27.7-5.1-54.5-30-77.2c4.2,1.3,8-0.3,10.3-4.9c43.6,22.6,50,52.4,52.9,109.9
		c4-48.7-1.6-120.6-84.4-123.3c4,4.3,8.3,8.6,9.2,14.2c-9.1-5.2-18.3-7.3-27.4-3.9c-0.4-6.6,2.4-12.2,14.1-12.1
		c1.9-3.1,5.4-5.1,10.3-4.8c39.4,2.5,64.6,29.1,74.8,17.4c-13.4,3-34.3-19.9-72-25.9c-9-1.4-12.5,2.5-16.4,6.2
		c-21.4,2.2-17.5,22.2-14.1,29.1c4.6-4.5,11.2-2.4,20.5,3.6C272.8,273.2,274.7,288.5,273.2,305.7L273.2,305.7z"/>
	<path class="st0" d="M178.9,110.3c-32.7,31.2,24.5,50.3,48.1,57.5C198.3,154,177.8,139.6,178.9,110.3L178.9,110.3z"/>
	<path class="st0" d="M311.7,247.7c7.9,7.2,16.4,16.7,22.8,27.2c-2.6-9.2-6.8-17.5-12-24.9c-2.9,0.1-5.9-0.6-8.6-1.5
		C313.2,248.2,312.5,248,311.7,247.7L311.7,247.7z"/>
	<path class="st0" d="M380.6,224.3c9.6-7.6,18.6-12.7,24-15.5c-4.1-3.9-8.8-7.9-11.7-13.3c-3.9-7.3,5.8-12.8,24.5-15.8
		c59.9-9.5,161.1-52.3,153.4-122.5c28.6,48.5-4.1,98-77.2,128.9c25.2-3,48.8-11.4,68.3-34.2c0.1,39.9-34.4,61.4-86.7,73.2
		c29.1-1.4,53.5-8.3,68.9-25.9c-3.5,36.9-32.7,49.8-77.8,47.9c17.1,4.1,31,4.8,40.9,1.3c-2.9,13.8-19.2,20.2-47.7,19.9
		c10.1,2.9,19,3.2,27.5,2.3c-4.6,12-21.7,16.9-53.6,13.1c5.1,2.1,11,3.3,17.6,3.6c-5.6,8.2-15.4,11.4-31.9,7
		c2.7,1.7,5.9,2.8,9.2,3.5c-1,3.9-7.3,5.8-16.7,6.2c-0.3-3.8-0.4-7.6,0-11.3c1.6-14.5,11.9-23.8,23.6-31.4
		c1.9-1.2,10.1-6.8,12.5-4.4l6.3,6.2l3.9-7.9c2.9-5.9,4.1-14,2.8-20.4c-2.2-10.4-9.9-15.9-19.7-17.5c-0.5-0.4-0.9-0.9-1.4-1.3
		c-5.7-4.9-11.5-6.3-18.9-5.2C406,213.3,393.4,218.1,380.6,224.3L380.6,224.3z"/>
	<path class="st0" d="M405.3,305.7l-26.1,22.2c-5.5-27.7,5.1-54.5,30-77.2c-4.2,1.3-8-0.3-10.3-4.9c-43.6,22.6-50,52.4-52.9,109.9
		c-4-48.7,1.6-120.6,84.4-123.3c-4,4.3-8.3,8.6-9.2,14.2c9.1-5.2,18.3-7.3,27.4-3.9c0.4-6.6-2.4-12.2-14.1-12.1
		c-1.9-3.1-5.4-5.1-10.3-4.8c-39.4,2.5-64.6,29.1-74.8,17.4c13.4,3,34.3-19.9,72-25.9c9-1.4,12.5,2.5,16.4,6.2
		c21.4,2.2,17.5,22.2,14.1,29.1c-4.6-4.5-11.2-2.4-20.5,3.6C405.7,273.2,403.9,288.5,405.3,305.7L405.3,305.7z"/>
	<path class="st0" d="M499.6,110.3c32.7,31.2-24.5,50.3-48.1,57.5C480.2,154,500.8,139.6,499.6,110.3L499.6,110.3z"/>
	<path class="st0" d="M366.8,247.7c-7.9,7.2-16.4,16.7-22.8,27.2c2.6-9.2,6.8-17.5,12-24.9c2.9,0.1,5.9-0.6,8.6-1.5
		C365.4,248.2,366.1,248,366.8,247.7L366.8,247.7z"/>
	<path class="st3" d="M339.3,32.5c45.3,0,82,36.7,82,82c0,45.3-36.7,82-82,82c-45.3,0-82-36.7-82-82C257.3,69.2,294,32.5,339.3,32.5
		L339.3,32.5z"/>
	<path class="st2" d="M339.3,33.7c9.1,0,17.8,1.5,26,4.3c4.6,8.6,8.3,13.1,15.6,19.5l-0.3,0c8.3,4.9,13.8,7,23.6,8.7
		c10,13.4,15.9,30.1,15.9,48.2c0,0.5,0,1,0,1.4c-6.9,7.1-10.1,12-14,21c-6.7-14.1-15.3-25.8-25.4-35.7c2.4-13.8,2.5-28.3-0.3-43.6
		c-15.3,2.1-28.9,6.6-41.2,13.1l-40.8,30.6l15.9,49.9l-0.3-0.5c-14-1.7-27.9-5.8-41.8-13c2.3,9.2,2.8,14.9,1.7,24.2
		c10.5,14.5,25.8,25.4,43.5,30.4c7.9-4,13.3-5.6,21.7-6.7c8.5,1.1,13.9,2.7,21.9,6.7c17.6-4.9,32.8-15.6,43.4-30
		c-1.2-9.6-0.7-15.3,1.6-24.7c-13.9,7.2-27.8,11.3-41.8,13l-0.3,0.5l15.9-49.9l-40.8-30.6c-12.3-6.5-25.9-11-41.2-13.1
		c-2.8,15.3-2.7,29.8-0.3,43.6c-10.1,9.8-18.7,21.5-25.4,35.7c-3.8-8.8-6.9-13.7-13.5-20.6c0-0.6,0-1.2,0-1.9c0-18.1,6-34.8,16-48.2
		c9.5-1.7,14.9-3.8,23.1-8.6l-0.3,0c7.2-6.4,10.9-10.8,15.5-19.3C321.1,35.3,330,33.7,339.3,33.7L339.3,33.7z M339.1,151.3h-24.7
		c6.1,11.6,14.2,22.5,24.7,32.4c10.5-9.9,18.6-20.8,24.7-32.4H339.1L339.1,151.3z M339.1,91.5l5.6,17.4l18.2,0l-14.8,10.7l5.7,17.3
		l-14.7-10.8l-14.7,10.8l5.7-17.3l-14.8-10.7l18.2,0L339.1,91.5L339.1,91.5z M308.5,158.5l-8.8,3.7l-13.7-9.5l8.2,11.8l-8.8,3.6
		l13.9,3.6l8.2,11.8l0.3-9.5l13.9,3.6l-13.7-9.5L308.5,158.5L308.5,158.5z M369.7,158.5l8.8,3.7l13.7-9.5l-8.2,11.8l8.8,3.6
		l-13.9,3.6l-8.2,11.8l-0.3-9.5l-13.9,3.6l13.7-9.5L369.7,158.5L369.7,158.5z M288.3,98.2l-6.1-7.3l5.1-15.8l-8.9,11.3l-6-7.4
		l0.6,14.3l-8.9,11.3l9.2-2.4l0.6,14.4l5.1-15.8L288.3,98.2L288.3,98.2z M389.8,98.2l6.1-7.3l-5.1-15.8l8.9,11.3l6-7.4L405,93.3
		l8.9,11.3l-9.2-2.4l-0.6,14.4l-5.1-15.8L389.8,98.2L389.8,98.2z M339.1,61l5.1-8l16.6,0l-13.5-5l5.2-8l-13.4,5l-13.4-5l5.2,8
		l-13.5,5l16.6,0L339.1,61L339.1,61z"/>
	<path class="st3" d="M410.8,249.1c-4.2,1.3-7.9-0.9-10.2-5.5c-10.1,1-20.1,5.9-28.1,9.6c12.9-12,31.5-19.9,58-20.8
		c-4,4.3-8.3,8.6-9.2,14.2c9.1-5.2,18.3-7.3,27.4-3.9c3-10.9-5.5-15.7-12.2-15c-4.9-9.1-27.8-4.9-46.1,2.5
		c-17.9,7.2-33.2,18.2-40.8,13c13.4,3,34.3-19.9,72-25.9c9-1.4,12.5,2.5,16.4,6.2c21.4,2.2,17.5,22.2,14.1,29.1
		C444.3,237.3,421.6,260.4,410.8,249.1L410.8,249.1z M499.6,110.3c16.2,15.5,10.3,28-2.7,37.6l-1.8,1.3l-0.1,0.1
		C504.3,138.8,506.6,126.1,499.6,110.3L499.6,110.3z M393.9,188.2c3.5-3.7,11.7-6.5,23.5-8.4c59.9-9.5,161.1-52.3,153.4-122.5
		C610,140.4,451.5,214.7,393.9,188.2L393.9,188.2z M493.6,186.1c-8.4,11.2-22.9,17.4-39.2,22.1c41.4,3.3,100.3-11,107.5-56.3
		C543.6,173.3,521.1,182.8,493.6,186.1L493.6,186.1z M475.2,225.1c29.1-1.4,53.5-8.3,68.9-25.9c-8.7,31.6-46.2,41.4-83,40.5
		c0-1.7-0.2-3.3-0.5-4.8c-0.1-0.3-0.1-0.7-0.2-1C465.6,231.4,470.6,228.5,475.2,225.1L475.2,225.1z M466.3,247.2
		c17.1,4.1,31,4.8,40.9,1.3c-10.3,13.3-31.5,14.4-50.6,9.3l1.2-2.5c0.8-1.6,1.5-3.4,2-5.2C462,249.3,464.1,248.3,466.3,247.2
		L466.3,247.2z M459.6,268.5c10.1,2.9,19,3.2,27.5,2.3c-17.1,12.1-37.9,10-60.2,1.3C437.7,271.7,448.6,270.8,459.6,268.5
		L459.6,268.5z M433.4,283.8c5.1,2.1,11,3.3,17.6,3.6c-11.6,5.2-23.2,4.9-34.8-0.3C422,286.3,427.7,285.3,433.4,283.8L433.4,283.8z
		 M405.3,305.7l-13.1,11.1v0c-0.4-24.1,9.7-48,35.7-58.1v0C405.5,274.8,404,289.3,405.3,305.7L405.3,305.7z"/>
	<path class="st3" d="M267.8,249.1c4.2,1.3,7.9-0.9,10.2-5.5c10.1,1,20.1,5.9,28.1,9.6c-12.9-12-31.5-19.9-58-20.8
		c4,4.3,8.3,8.6,9.2,14.2c-9.1-5.2-18.3-7.3-27.4-3.9c-3-10.9,5.5-15.7,12.2-15c4.9-9.1,27.8-4.9,46.1,2.5
		c17.9,7.2,33.2,18.2,40.8,13c-13.4,3-34.3-19.9-72-25.9c-9-1.4-12.5,2.5-16.4,6.2c-21.4,2.2-17.5,22.2-14.1,29.1
		C234.2,237.3,257,260.4,267.8,249.1L267.8,249.1z M178.9,110.3c-16.2,15.5-10.3,28,2.7,37.6l1.8,1.3l0.1,0.1
		C174.3,138.8,172,126.1,178.9,110.3L178.9,110.3z M284.6,188.2c-3.5-3.7-11.7-6.5-23.5-8.4c-59.9-9.5-161.1-52.3-153.4-122.5
		C68.5,140.4,227.1,214.7,284.6,188.2L284.6,188.2z M184.9,186.1c8.4,11.2,22.9,17.4,39.2,22.1c-41.4,3.3-100.3-11-107.5-56.3
		C134.9,173.3,157.5,182.8,184.9,186.1L184.9,186.1z M203.4,225.1c-29.1-1.4-53.5-8.3-68.9-25.9c8.7,31.6,46.2,41.4,83,40.5
		c0-1.7,0.2-3.3,0.5-4.8c0.1-0.3,0.1-0.7,0.2-1C212.9,231.4,208,228.5,203.4,225.1L203.4,225.1z M212.3,247.2
		c-17.1,4.1-31,4.8-40.9,1.3c10.3,13.3,31.5,14.4,50.6,9.3l-1.2-2.5c-0.8-1.6-1.5-3.4-2-5.2C216.6,249.3,214.4,248.3,212.3,247.2
		L212.3,247.2z M219,268.5c-10.1,2.9-19,3.2-27.5,2.3c17.1,12.1,37.9,10,60.2,1.3C240.8,271.7,229.9,270.8,219,268.5L219,268.5z
		 M245.1,283.8c-5.1,2.1-11,3.3-17.6,3.6c11.6,5.2,23.2,4.9,34.8-0.3C256.5,286.3,250.8,285.3,245.1,283.8L245.1,283.8z
		 M273.2,305.7l13.1,11.1v0c0.4-24.1-9.7-48-35.7-58.1v0C273,274.8,274.6,289.3,273.2,305.7L273.2,305.7z"/>
	<path class="st2" d="M502.9,533.3l-79.3-0.3l63.4,19.5L502.9,533.3L502.9,533.3z M175.6,533.3L255,533l-63.4,19.5L175.6,533.3
		L175.6,533.3z"/>
	<path class="st1" d="M663.8,371.8l-4.2,20.2c-1,5-2.2,10.1-3.2,15.1c0.8,0.9,1.6,1.9,2.3,2.9c3.5,4.8,5.9,10.3,7.2,16.1
		c1,4.4,1.5,8.8,1.4,13.3c-0.1,4.8-0.7,9.4-2.4,13.9c-1.8,4.8-4.9,9-9,12.2c-7.5,5.8-16.7,7.8-25.9,5.9c-11.5-2.4-23.2-4.5-34.8-6.5
		c0.8,7.1,1.6,14.1,2.5,21.2c0.3,2.8,0.7,5.6,1,8.4c3.3,0.6,6.7,1.2,10,1.8l14.5,2.6l1.8,14.7c0.8,6.1,1.5,12.2,2.4,18.3l3.7,27.6
		l-27.3-5.1c-16.8-3.1-33.7-5.8-50.6-8.5l-5.9-0.9c-19-2.4-38-4.8-57.1-6.7l-1.8-0.2l-4.4-0.4c-4.3-0.4-8.5-0.9-12.8-1.3
		c-2.8-0.3-5.7-0.5-8.5-0.7l-16.3-1.1c-8.3-0.6-16.5-1.2-24.8-1.6l-9-0.4c-3.9-0.2-7.8-0.3-11.6-0.5c-3.9-0.2-7.9-0.4-11.8-0.5
		c-5.4-0.2-10.8-1-15.9-2.6l0,2.2l-20.4-0.2c-7.7-0.1-15.3,0-23,0.1l-8.2,0.1c-6.8,0.1-13.6,0.2-20.4,0.3l-12.2,0.4
		c-3.1,0.1-6.3,0.2-9.4,0.4c-3.2,0.1-6.3,0.2-9.5,0.4l-9,0.4c-7.5,0.5-15,1-22.4,1.5c-16.2,1.1-31.7,2.5-47.9,4
		c-8.5,0.8-16.9,1.8-25.3,2.9l-24.4,3.1l0.5-6.4c-5.7,4.8-12.4,8.2-19.8,9.3c-13.1,1.9-26.1,4.2-39.1,6.6L56,558.9l3.1-26.9
		c0.7-5.7,1.4-11.5,2.1-17.2l1.8-14.6l1.2-0.2c-0.2-1.5-0.4-3-0.5-4.5c-0.2-4.5,0.2-9,1.1-13.4c0.4-1.7,0.8-3.3,1.4-4.9
		c1.1-3.1,2.5-6.1,4.2-8.9l-5.6,1.1c-8.5,1.7-17,3.3-25.6,5l-28.2,5.6l4.5-28.4c1.7-11,3.4-22.1,5.1-33.1
		c1.7-11.1,3.4-22.3,5.2-33.4l2.3-14C238.4,332.4,453.3,334.1,663.8,371.8L663.8,371.8z"/>
	<path class="st3" d="M65.5,417.9c1-7.1,1.7-12.4,2.3-15.9c3.8-0.7,5.8-1,5.9-1c1.6-0.2,2.8,0,3.5,0.5c0.8,0.5,1.2,1.4,1.2,2.8
		c0.1,1.3-0.1,3-0.5,5.1c-0.4,2-1.1,3.5-1.9,4.6c-0.9,1.1-2.1,1.8-3.9,2.4C71.6,416.6,69.4,417.1,65.5,417.9L65.5,417.9z
		 M123.7,413.9c3.3-8.6,5.6-14.6,7-18.1c0.7,3.7,1.8,9.3,3.2,16.6C130.6,413,127.2,413.4,123.7,413.9L123.7,413.9z M204.5,397.3
		c-0.8-3-1.7-5.6-2.6-7.8c-3.1-7.5-6.2-15.1-9.3-22.9c-8.3,0.9-16.5,1.8-24.8,2.7c-1,10.8-1.9,21.6-2.9,32.3
		c-1,10.7-2.1,21.5-3,32.2c7-0.8,14.1-1.6,21.1-2.4c0.8-10.7,1.7-21.3,2.5-32c0.9,3.2,1.9,6,2.9,8.4c2.1,4.8,5.2,12.2,9.5,22.1
		c8.5-0.8,16.9-1.5,25.2-2.2c0.6-10.7,1.3-21.3,1.9-32c0.6-10.7,1.2-21.4,1.9-32.1c-6.8,0.6-13.4,1.2-20.1,1.7
		C205.5,382.6,204.7,393.3,204.5,397.3L204.5,397.3z M278.3,408.3c-2,0.1-11.1,0.4-27.3,1.4c0.1-2.9,0.3-5.8,0.4-8.7
		c8.5-0.5,16.9-1,25.5-1.3c0.1-5.1,0.3-10.2,0.5-15.4c-8.4,0.3-16.8,0.8-25.2,1.3c0-2.6,0.2-5.1,0.3-7.6c3-0.2,7.5-0.5,13.4-0.8
		c6-0.3,10.5-0.4,13.5-0.5c1.2-3.3,3.2-8.8,6.1-16.4c-17.5,0.7-35.1,1.7-52.7,2.8c-0.7,10.7-1.3,21.4-1.9,32
		c-0.6,10.7-1.3,21.3-1.9,32c18.2-1.2,36.3-2.3,54.5-3C280.4,414.6,278.6,409.3,278.3,408.3L278.3,408.3z M337.3,405
		c-7.7,0.1-15.2,0.2-22.9,0.3c0.1-7.6,0.3-15.2,0.4-22.8c0.1-7.6,0.2-15.2,0.3-22.9c-7.9,0.1-15.8,0.3-23.7,0.6
		c-0.3,10.7-0.6,21.3-0.8,31.9c-0.3,10.6-0.6,21.3-0.9,31.9c15.8-0.6,31.7-0.8,47.7-0.9C337.3,417,337.3,411,337.3,405L337.3,405z
		 M390.6,405.9c-7.8-0.3-15.4-0.5-23-0.6c-0.1-7.6-0.2-15.2-0.3-22.8c-0.1-7.6-0.3-15.2-0.3-22.8c-7.9-0.1-15.8-0.2-23.7-0.3
		c0,10.6,0,21.2,0,31.9c0,10.6,0,21.2,0,31.8c15.9,0.2,31.7,0.4,47.7,0.9C390.8,417.9,390.7,411.9,390.6,405.9L390.6,405.9z
		 M397,424.1c8.1,0.3,16.3,0.6,24.4,1c-0.5-10.6-0.9-21.2-1.3-31.9c-0.4-10.6-0.9-21.2-1.2-31.9c-7.9-0.4-15.8-0.7-23.7-1
		c0.3,10.6,0.6,21.3,0.9,31.9C396.4,402.9,396.7,413.5,397,424.1L397,424.1z M465.2,396.1c-1.2-3.1-2.4-5.9-3.7-8.3
		c-4.1-8.1-8.2-16.3-12.3-24.7c-8.2-0.5-16.4-1-24.6-1.5c0.5,10.6,1,21.3,1.4,31.9c0.5,10.6,0.9,21.3,1.4,31.9
		c6.9,0.4,13.9,0.9,20.8,1.3c-0.6-10.6-1.2-21.2-1.7-31.8c1.4,3.4,2.6,6.4,4.1,8.9c2.8,5.2,6.9,13.1,12.6,23.9
		c8.4,0.7,16.7,1.5,25.1,2.3c-0.8-10.7-1.6-21.4-2.4-32.1c-0.8-10.7-1.6-21.4-2.3-32.1c-6.8-0.6-13.5-1.1-20.3-1.7
		C464.4,381.5,465.1,392.1,465.2,396.1L465.2,396.1z M494.4,430.7c8.2,0.8,16.4,1.8,24.6,2.7c-1-10.7-1.9-21.4-2.9-32.2
		c-1-10.7-1.9-21.4-2.8-32.2c-8-0.9-15.9-1.7-23.9-2.6c0.8,10.7,1.7,21.4,2.5,32.1C492.7,409.4,493.5,420,494.4,430.7L494.4,430.7z
		 M563,417.2c-0.3,2.4-1,4.2-2.1,5.4c-1,1-2.2,1.6-3.7,1.7c-1.3,0.1-2.7-0.2-4.2-1.1c-1.5-0.9-2.6-2-3.5-3.5
		c-1.5-2.2-2.6-5.3-3.3-9.2c-0.8-3.9-1.1-7.5-1-10.9c0.1-3.4,0.8-5.8,1.8-7.5c1-1.5,2.4-2.4,4.3-2.5c1.5-0.2,3.3,0.4,5.1,1.8
		c1.7,1.3,3.1,3.3,4.1,5.8c1.1,2.6,1.9,5.8,2.3,9.7C563.3,411.2,563.4,414.6,563,417.2L563,417.2z M636.3,405.6
		c0.3-1.6,1.5-7.5,3.7-17.7c-11.8-2.1-23.5-4.2-35.2-6.2c-3.8-0.6-7.1,0.2-10,2.3c-2,1.4-3.5,3-4.4,5c-1.1,2-1.5,4.5-1.4,7.5
		c0.1,2.8,0.5,5.5,1.3,8.2c0.9,3.1,2.2,5.9,3.9,8.2c1.6,2.2,3.7,4,6,5.4c2.4,1.5,5.3,2.6,8.4,3.2c1.9,0.4,3.7,0.7,5.5,1
		c2.3,0.4,4.2,0.8,5.7,1.1c1.9,0.4,3.3,0.9,4.1,1.6c0.8,0.6,1.4,1.6,1.8,2.8c0.5,1.7,0.3,2.8-0.3,3.6c-0.6,0.7-1.6,1-3.1,0.9
		c-0.3,0-2.2-0.4-5.6-0.9c-7.8-1.4-15.6-2.7-23.2-4c0.6,5.6,1.4,11.3,2.1,16.9c12.8,2.2,25.7,4.6,38.5,7.1c3.5,0.8,6.7,0.1,9.6-2.1
		c1-0.8,1.8-1.9,2.4-3.5c0.7-1.9,1-4.2,1.1-6.9c0-2.9-0.3-5.8-0.9-8.6c-0.8-3.4-2.1-6.3-3.9-8.8c-1.5-2.3-3.7-4.2-6-5.6
		c-2.6-1.6-5.7-2.7-9.4-3.6c-1.4-0.3-3.3-0.6-5.7-1.1c-2.8-0.5-4.6-0.9-5.7-1.1c-1.4-0.3-2.4-0.7-3-1.2c-0.7-0.6-1.2-1.8-1.5-3.3
		c-0.2-1.8-0.2-3.1,0.1-3.9c0.2-0.7,1-0.9,2.2-0.7C621.1,402.9,628.7,404.3,636.3,405.6L636.3,405.6z M605.3,516
		c-8.4-1.5-16.5-3-24.7-4.4c-1-7.8-1.8-15.5-2.7-23.3c-0.9-7.8-1.8-15.5-2.7-23.3c-8.5-1.2-17-2.5-25.4-3.7
		c1,10.8,2.2,21.5,3.3,32.3c1.1,10.7,2.2,21.5,3.3,32.3c17,2.7,34,5.4,51.2,8.6C606.8,528.4,606,522.2,605.3,516L605.3,516z
		 M542.2,507.9c-2.1-0.3-11.8-1.5-28.9-3.6c-0.3-2.9-0.5-5.8-0.8-8.7c8.9,1.1,17.9,2.2,26.9,3.3c-0.5-5.2-1-10.3-1.5-15.5
		c-8.9-1.1-17.9-2.2-26.8-3.3c-0.2-2.5-0.5-5.1-0.6-7.6c3.2,0.4,8,1,14.3,1.8c6.4,0.8,11.1,1.3,14.2,1.7c1-3.1,2.4-8.3,4.4-15.5
		c-18.7-2.3-37.2-4.5-55.8-6.4c0.8,10.7,1.6,21.4,2.4,32.1c0.8,10.7,1.5,21.4,2.3,32.1c19.2,1.9,38.4,4.4,57.6,6.8
		C545.3,514.6,542.7,508.9,542.2,507.9L542.2,507.9z M447.9,514.4c-0.5-7.7-0.8-15.4-1.2-23.1c4,0.3,8,0.6,12.2,0.8
		c0.4,7.7,0.8,15.4,1.4,23.1c2.8,0.2,7.1,0.5,12.9,1c5.7,0.5,10,1,12.9,1.3c-0.3-3.1-0.7-9.9-1.5-20.6c-0.8-10.6-1.7-25.2-3-43.4
		c-8.3-0.8-16.7-1.5-25-2.2c0.5,7.4,0.9,14.9,1.3,22.3c-4.1-0.2-8.2-0.5-12.1-0.8c-0.4-7.4-0.8-14.9-1.2-22.3
		c-8.3-0.5-16.6-1.1-24.9-1.5c0.4,10.6,0.8,21.3,1.2,31.8c0.6,14.2,1,24.8,1.3,31.9C430.8,513.2,439.3,513.8,447.9,514.4
		L447.9,514.4z M412.9,494.5c-1.2,0-3.9-0.2-8.2-0.4c-3.3-0.1-6.1-0.2-8.3-0.3c-3.5-0.3-6.1-1.1-7.7-2.4c-1.6-1.4-2.8-3.8-3.2-7.1
		c-0.5-3.4-0.5-6.7-0.1-10c0.4-3.2,1.3-5.4,2.9-6.7c1.4-1.1,3.9-1.7,7.3-1.7c1.5,0,3.5,0.1,6,0.2c3,0.1,5.1,0.2,6.1,0.2
		c0.8-2.2,1.8-5.2,3-8.8c1.5-4.5,2.4-7.5,2.9-8.8c-6.8-0.3-13.6-0.6-20.3-0.8c-5-0.2-8.2-0.2-9.5,0c-5.7,0.5-10.4,2.2-14.1,5.1
		c-3.4,2.6-6,6-7.7,10.4c-1.9,4.9-2.8,10.7-2.5,17.5c0.3,6.6,1.7,12.1,4.2,16.7c2.3,4.1,5.5,7.3,9.6,9.6c4.6,2.6,10.2,4,16.8,4.2
		c3.9,0.2,7.8,0.3,11.8,0.5c5.2,0.2,9.1,0.4,11.7,0.5C413.3,506.4,413.1,500.4,412.9,494.5L412.9,494.5z M327.7,510.9
		c8.5-0.1,17-0.2,25.5-0.1c-0.1-10.6-0.2-21.2-0.2-31.8c0-10.6-0.1-21.2-0.1-31.8c-8.2-0.1-16.5-0.1-24.7,0.1
		c-0.1,10.6-0.2,21.3-0.3,31.9C327.8,489.6,327.7,500.3,327.7,510.9L327.7,510.9z M260.9,489.4c0.1-2.6,0.3-6.7,0.3-12.4
		c1.2,6,2.3,11.5,3.5,16.6c1.5,6.7,3,13,4.6,18.8c2.1-0.1,5.3-0.2,9.6-0.4c4.2-0.2,7.4-0.3,9.5-0.4c5.1-17.6,7.6-26.1,7.3-25.5
		c0.8-2.6,1.7-6.1,2.8-10.7c-0.3,5.7-0.5,9.9-0.6,12.7c-0.1,7.7-0.3,15.5-0.5,23.2c8-0.3,16-0.4,24-0.5c0.1-10.6,0.2-21.2,0.3-31.8
		c0.1-10.6,0.1-21.3,0.3-31.9c-10.4,0.1-20.8,0.3-31.2,0.7c-1,3.6-2.5,8.8-4.4,15.4c-2.1,7.2-3.5,12.4-4.4,15.5
		c-0.6,2.6-1.4,5.9-2.1,9.9c-0.6-4.6-1.2-8.3-1.8-11.2c-0.7-3.2-2.7-12.8-6.1-28.9c-10.4,0.5-20.9,1.1-31.3,1.8
		c-0.5,10.7-1.1,21.3-1.6,32c-0.5,10.6-1.1,21.3-1.6,31.9c7.5-0.5,15-1,22.6-1.5C260.3,505.1,260.6,497.2,260.9,489.4L260.9,489.4z
		 M189,518.5c0.6-7.7,1.1-15.4,1.7-23c0.5-7.7,1.2-15.3,1.7-23.1c4.6-0.4,9.2-0.8,13.8-1.2c0.9-2.1,2.2-5.2,3.9-9.4
		c1.7-4.2,3-7.3,3.9-9.3c-6.2,0.6-17.2,1.4-32.8,3.1c-14,1.5-25,2.9-32.9,3.9c3.2,11.1,4.9,17,5,17.5c4.6-0.5,9.2-1.1,13.8-1.6
		c-0.6,7.7-1.3,15.4-1.9,23.1c-0.6,7.7-1.4,15.4-2,23.1C171.7,520.3,180.3,519.3,189,518.5L189,518.5z M133.2,479.4
		c0.8-1.7,3.7-8.1,8.6-19.4c-12.1,1.8-24.1,3.5-36.2,5.4c-4,0.8-7.8,2.7-11.4,5.9c-2.5,2.1-4.6,4.4-6.1,6.7
		c-1.7,2.4-2.8,5.2-3.5,8.3c-0.6,2.9-0.8,5.6-0.7,8.2c0.1,3,0.8,5.3,2.1,7.1c1.2,1.7,2.8,2.9,4.9,3.6c2.3,0.8,5.1,0.8,8.4,0.3
		c2-0.3,3.9-0.7,5.8-1c2.4-0.4,4.3-0.7,5.8-0.9c1.9-0.2,3.3-0.2,4.1,0.2c0.8,0.4,1.2,1.2,1.2,2.3c0,1.5-0.4,2.8-1.2,3.8
		c-0.8,0.9-2,1.6-3.7,2c-0.2,0.1-2.2,0.4-5.8,1c-8.1,1.3-16.2,2.8-24.2,4.3c-0.7,5.6-1.4,11.3-2.1,16.9c13.3-2.5,26.6-4.7,39.9-6.7
		c3.5-0.4,7.1-2.3,10.8-5.6c1.4-1.1,2.5-2.7,3.6-4.5c1.2-2.2,2.3-4.7,3-7.5c0.8-3,1.2-5.8,1.2-8.5c0.1-3.2-0.5-5.8-1.9-7.6
		c-1.2-1.8-2.8-3-5.1-3.7c-2.3-0.7-5.4-0.8-9.1-0.4c-1.4,0.2-3.4,0.5-5.9,0.8c-2.8,0.4-4.7,0.7-5.8,0.9c-1.4,0.2-2.4,0.1-3-0.2
		c-0.6-0.4-0.8-1.4-0.8-2.9c0.2-1.8,0.5-3.2,1.1-4.1c0.5-0.7,1.4-1.2,2.6-1.5C117.6,481.7,125.4,480.5,133.2,479.4L133.2,479.4z
		 M575.4,384.1c-3.2-3-6.9-5.6-11.2-7.4c-4-1.7-8.6-2.9-14-3.6c-2.4-0.3-3.9-0.5-4.5-0.5c-3.5-0.2-6.5,0-9.2,0.5
		c-4.8,0.9-8.6,3.1-11.3,6.4c-2.5,2.9-4.1,6.7-4.8,11.5c-0.8,4.6-0.7,9.8,0.2,15.6c0.8,4.9,2.2,9.2,4.2,13.1c2.1,4.3,5,8.1,8.7,11.2
		c4.1,3.5,9.1,6.1,15,7.9c2.8,0.9,6.6,1.6,11.1,2.2c2.6,0.4,5.4,0.6,8.2,0.4c3.5-0.1,6.5-0.7,9.3-1.7c3.8-1.5,6.8-3.9,8.7-7.3
		c2.4-4.2,3.5-9.9,3-16.8c-0.5-6.9-1.9-13.1-4.4-18.7C582,391.8,579.1,387.6,575.4,384.1L575.4,384.1z M161.2,433.8
		c0.2,0.8-1.1-3.9-3.6-14.3c-2.5-10.3-6.2-26.2-11.1-47.6c-8.9,1.2-17.8,2.4-26.7,3.6c-6.7,16-12.5,29.6-17.3,41.1
		c-4.8,11.4-8.7,20.6-11.7,27.5c7.6-1.3,15-2.6,22.7-3.8c0.4-1.1,1.1-2.7,2-4.7c0.9-2.2,1.5-3.8,2-4.8c6.4-0.9,12.7-1.8,19.1-2.7
		c0.3,1.1,0.6,2.6,1.1,4.3c0.5,2.4,0.9,3.9,1,4.3C146.1,435.7,153.7,434.7,161.2,433.8L161.2,433.8z M88.8,427.4
		c4.1-2.8,7.3-6.3,9.5-10.5c2.6-4.7,4.1-10.3,4.5-16.9c0.1-3.3-0.1-6.2-0.8-8.6c-0.5-2.1-1.5-3.8-2.8-5.2c-1.3-1.5-3.1-2.6-5.2-3.3
		c-2.1-0.8-4.7-1.2-7.7-1.2c-2.8,0-8.5,0.7-17.2,2.3c-7.8,1.4-15.6,2.8-23.4,4.3c-1.8,11.1-3.4,22.2-5.1,33.2
		c-1.7,11.1-3.4,22.1-5.1,33.2c8.5-1.7,17-3.3,25.6-5c0.6-4.5,1.2-8.9,1.9-13.4c5.6-1.1,8.9-1.8,9.9-2.1
		C79.2,432.6,84.4,430.3,88.8,427.4L88.8,427.4z"/>
	<path class="st0" d="M556.4,493.4c1,9.9,2,19.8,3.1,29.7c14.8,2.3,29.5,4.7,44.2,7.4c-0.5-3.8-1-7.7-1.5-11.5
		c-7.4-1.3-14.8-2.7-22.2-3.9l-2.5-0.4l-0.3-2.5c-0.7-5.4-1.3-10.9-1.9-16.3C569,494.9,562.7,494.1,556.4,493.4L556.4,493.4z
		 M88.1,498.7c13.7-2,27.4-3.8,41.1-5.5c0.2,0,0.3,0.1,0.5,0.1c1.4,0.4,2.4,1.1,3.2,2.3c1.1,1.6,1.3,3.8,1.3,5.7
		c0,2.6-0.4,5.1-1.1,7.6c-0.6,2.3-1.5,4.6-2.7,6.7c-0.8,1.4-1.8,2.6-2.9,3.6c-2.5,2.3-5.6,4.3-9.1,4.8c-11.9,1.7-23.7,3.8-35.5,5.9
		c0.4-3.3,0.8-6.7,1.2-10c7.3-1.3,14.5-2.6,21.8-3.8c1.8-0.3,4.4-0.6,6.1-1.1c2-0.6,4-1.5,5.4-3.2c1.4-1.7,1.9-3.8,1.9-5.9
		c0-2.2-1-4.2-3-5.3c-1.7-0.9-4.1-0.8-6-0.5c-2,0.2-3.9,0.6-5.9,0.9c-1.9,0.3-3.9,0.6-5.8,1c-2.2,0.4-4.6,0.5-6.8-0.2
		c-1.3-0.4-2.4-1.1-3.2-2.3C88.5,499.4,88.3,499.1,88.1,498.7L88.1,498.7z M169.2,488.8c6.2-0.6,12.5-1.2,18.7-1.7
		c-0.2,2.7-0.4,5.4-0.6,8.1c-0.5,6.7-1,13.5-1.5,20.2c-6.4,0.6-12.8,1.4-19.1,2.2c0.5-6.3,1.1-12.6,1.7-19L169.2,488.8L169.2,488.8z
		 M242.4,483.2c5.1-0.3,10.2-0.6,15.4-0.8c-0.1,2.3-0.1,4.6-0.2,6.9c-0.3,6.8-0.5,13.7-0.7,20.5c-5.3,0.4-10.5,0.7-15.8,1
		C241.4,501.6,241.9,492.4,242.4,483.2L242.4,483.2z M265.6,482c3.3-0.1,6.6-0.3,9.9-0.4c0.4,2.5,0.8,5.1,1.1,7.6l2.7,19.5
		c-0.2,0-0.4,0-0.6,0c-2.3,0.1-4.6,0.2-6.9,0.3c-1.4-5.4-2.6-10.8-3.9-16.1C267.1,489.3,266.3,485.6,265.6,482L265.6,482z
		 M284.8,481.3c2.9-0.1,5.9-0.2,8.8-0.3c-0.4,1.4-0.8,2.8-1.2,4.1l-1,3l0.2,0.1c-0.4,1.4-0.9,2.9-1.3,4.3
		c-1.5,5.3-3.1,10.6-4.6,15.9c-2.1,0.1-4.2,0.2-6.3,0.2l3.7-19.4C283.7,486.7,284.2,484,284.8,481.3L284.8,481.3z M301.5,480.9
		c5.6-0.1,11.2-0.2,16.9-0.3c-0.1,9-0.2,18-0.3,27.1c-5.8,0.1-11.5,0.2-17.3,0.3c0.1-6.6,0.3-13.1,0.4-19.7
		C301.3,485.8,301.4,483.3,301.5,480.9L301.5,480.9z M331.2,480.5c6.1,0,12.3,0,18.4,0c0,9,0.1,17.9,0.2,26.9
		c-6.2,0-12.5,0-18.7,0.1L331.2,480.5L331.2,480.5z M362.8,480.6c6.3,0.1,12.7,0.2,19,0.3c0.1,1.3,0.2,2.5,0.3,3.8
		c0.5,3.4,1.7,6.9,4.3,9.2c2.6,2.2,6.3,3,9.6,3.2c2.8,0.2,5.6,0.2,8.4,0.3c1.7,0.1,3.4,0.2,5.1,0.2c0.1,3.7,0.3,7.5,0.4,11.2
		c-2.7-0.1-5.4-0.2-8.1-0.3c-3.9-0.2-7.9-0.4-11.8-0.5c-5.3-0.2-10.6-1.2-15.3-3.8c-3.6-2-6.3-4.7-8.3-8.3c-2.6-4.6-3.6-10-3.8-15.2
		L362.8,480.6L362.8,480.6z M424.3,482.4c18.7,0.9,37.4,2,56.1,3.5c0.3,3.8,0.5,7.5,0.8,11.3c0.4,5.5,0.7,11.1,1.2,16.6
		c-3-0.3-5.9-0.6-8.9-0.9c-3.4-0.3-6.7-0.6-10.1-0.8c-0.4-6.7-0.8-13.4-1.2-20.2l-0.2-3l-3-0.2c-4-0.2-8.1-0.5-12.1-0.8l-3.7-0.3
		l0.2,3.7c0.3,6.4,0.6,12.9,0.9,19.3c-6.3-0.4-12.6-0.9-19-1.2C425,500.5,424.7,491.5,424.3,482.4L424.3,482.4z M493.5,486.9
		c14,1.2,27.9,2.5,41.8,4c0.1,1.4,0.3,2.7,0.4,4.1c-7.6-0.9-15.2-1.9-22.8-2.8l-4.1-0.5l0.4,4.1c0.3,2.9,0.5,5.8,0.8,8.7l0.2,2.7
		l2.7,0.3c9,1.1,18.1,2.3,27.1,3.4c0.5,1.1,1,2.2,1.5,3.3c1,2.2,2,4.4,3,6.6c-16.3-2.1-32.6-4.1-49-5.8
		C494.9,505.7,494.2,496.3,493.5,486.9L493.5,486.9z"/>
	<path class="st0" d="M179.9,428.4c0.8-9.7,1.6-19.5,2.3-29.2l0.1-1.8c-4.6,0.4-9.2,0.8-13.7,1.3l-0.3,3.2
		c-0.8,9.4-1.8,18.7-2.6,28.1C170.3,429.5,175.1,428.9,179.9,428.4L179.9,428.4z M188.3,396.9l0.5,1.6c0.8,2.7,1.7,5.4,2.7,8
		c2.8,6.6,5.7,13.3,8.6,19.9c6.6-0.6,13.3-1.2,19.9-1.8c0.5-9.7,1.2-19.4,1.8-29.1l0.1-1.2c-4.6,0.3-9.2,0.6-13.8,1l-0.1,2.3
		l-1.2,19.5l-5.3-18.8c-0.2-0.8-0.5-1.6-0.7-2.4C196.4,396.2,192.3,396.5,188.3,396.9L188.3,396.9z M44.8,415.5c6-1,12-2,18-3
		c-0.2,1.7-0.4,3.3-0.7,5l-0.6,4.7l4.7-1c2.2-0.5,4.8-0.9,7-1.6c2.1-0.7,4.1-1.7,5.5-3.5c1.3-1.7,2.1-3.9,2.5-6l0.1-0.5
		c5.7-0.9,11.4-1.7,17.1-2.5c-0.7,2.9-1.7,5.6-3.1,8.2c-2,3.8-4.9,6.9-8.5,9.3c-4.5,3.1-9.7,5-14.9,6.3c-3.2,0.8-6.5,1.4-9.7,2
		l-2.3,0.5l-0.3,2.4c-0.5,3.7-1.1,7.4-1.6,11.1c-6.2,1.2-12.4,2.4-18.5,3.6c1.5-9.5,2.9-19,4.4-28.5
		C44.2,419.8,44.5,417.6,44.8,415.5L44.8,415.5z M110.9,405.4c4.4-0.6,8.8-1.2,13.2-1.7c-1.2,3-2.3,6-3.5,9l-2.1,5.3l5.7-0.8
		c3.4-0.5,6.8-0.9,10.2-1.4l3.5-0.5l-0.7-3.4c-0.6-3.2-1.2-6.4-1.8-9.5c4.8-0.6,9.5-1.1,14.3-1.6c1.5,6.6,3.1,13.1,4.6,19.7
		c0.8,3.5,1.7,7.1,2.6,10.6c-5.2,0.6-10.4,1.3-15.6,2c-0.1-0.5-0.2-0.9-0.3-1.3c-0.3-1.4-0.8-2.8-1.1-4.3l-0.7-3l-3.1,0.4
		c-6.4,0.9-12.7,1.8-19.1,2.7l-1.8,0.3l-0.8,1.7c-0.7,1.6-1.3,3.2-2,4.8c-0.4,1-0.9,2-1.3,3c-4.9,0.8-9.9,1.6-14.8,2.5
		c3.1-7.3,6.2-14.6,9.3-21.9C107.4,413.7,109.1,409.6,110.9,405.4L110.9,405.4z M234.4,393.5c13.1-0.8,26.2-1.4,39.3-1.9
		c-0.1,1.7-0.1,3.3-0.1,5c-7.5,0.3-14.9,0.7-22.4,1.2l-3,0.2l-0.1,3c-0.1,2.9-0.3,5.8-0.4,8.7l-0.2,3.7l3.7-0.2
		c8.2-0.5,16.5-1,24.7-1.3c1,3.1,2.1,6.2,3.1,9.3c-15.5,0.6-30.9,1.6-46.4,2.6c0.5-9.4,1.1-18.8,1.7-28.2L234.4,393.5L234.4,393.5z
		 M293.9,390.9c5.8-0.2,11.6-0.3,17.4-0.4l-0.2,14.7l-0.1,3.4l3.4,0c6.5-0.1,13-0.2,19.5-0.2c0,3.8,0,7.6,0,11.4
		c-13.6,0.2-27.2,0.3-40.9,0.8c0.3-9.4,0.6-18.9,0.8-28.3L293.9,390.9L293.9,390.9z M346.7,390.3c5.8,0,11.6,0.1,17.4,0.1
		c0.1,5,0.1,10,0.2,14.9l0.1,3.2l3.2,0c6.6,0.1,13.2,0.2,19.7,0.5c0.1,3.8,0.2,7.6,0.2,11.3c-13.6-0.4-27.3-0.6-40.9-0.7
		c0-9.5,0-19,0-28.5V390.3L346.7,390.3z M399.4,391.2c5.8,0.2,11.5,0.4,17.3,0.6l0.1,1.5c0.3,9.4,0.7,18.8,1.1,28.2
		c-5.9-0.3-11.7-0.5-17.6-0.7c-0.3-9.6-0.6-19.1-0.8-28.7L399.4,391.2L399.4,391.2z M429.3,392.5c4.6,0.2,9.2,0.5,13.8,0.7l0.1,2.1
		c0.5,9.3,1,18.7,1.5,28c-4.7-0.3-9.4-0.6-14.1-0.9c-0.5-9.6-0.9-19.2-1.3-28.9L429.3,392.5L429.3,392.5z M449.5,393.6
		c3.8,0.2,7.6,0.5,11.4,0.7c0.4,1,0.8,2,1.2,3l7.1,19l-0.6-20.3l0-1.2c4.6,0.3,9.2,0.7,13.8,1l0.2,2.5c0.7,9.4,1.4,18.7,2.1,28.1
		c-6.4-0.6-12.9-1.2-19.3-1.7c-3.9-7.4-7.8-15-11.8-22.4c-1.5-2.7-2.7-5.7-3.9-8.6L449.5,393.6L449.5,393.6z M495.1,396.9
		c5.8,0.5,11.6,1,17.4,1.6l0.3,3.1c0.8,9.4,1.7,18.7,2.5,28.1c-5.9-0.7-11.9-1.4-17.8-2c-0.8-9.8-1.5-19.5-2.3-29.3L495.1,396.9
		L495.1,396.9z M523.3,399.6c6.2,0.6,12.3,1.3,18.5,2c0.1,3.2,0.5,6.4,1.1,9.6c0.7,3.6,1.8,7.4,3.8,10.5c1.2,1.9,2.7,3.4,4.7,4.5
		c1.9,1.1,4,1.7,6.2,1.5c2.2-0.2,4.2-1.1,5.8-2.7c1.9-1.9,2.6-4.7,3-7.3c0.5-3.5,0.1-7.5-0.3-11c-0.1-0.8-0.2-1.5-0.3-2.3
		c6.1,0.8,12.3,1.6,18.4,2.4c0.7,3,1.1,6,1.3,9.1c0.4,5,0,10.5-2.5,14.9c-1.6,2.8-3.9,4.7-7,5.9c-2.6,1-5.4,1.4-8.2,1.5
		c-2.5,0.1-5.1,0-7.6-0.4c-3.5-0.5-7.2-1.1-10.6-2.1c-5.1-1.5-9.8-3.9-13.9-7.3c-3.3-2.8-5.9-6.2-7.8-10.1
		c-1.9-3.9-3.2-7.9-3.9-12.2C523.6,403.9,523.4,401.7,523.3,399.6L523.3,399.6z M595.4,408.3c4.6,0.7,9.3,1.3,13.9,2
		c0.4,0.6,0.8,1.2,1.4,1.6c1.3,1.1,2.9,1.6,4.5,1.9c1.9,0.4,3.8,0.7,5.7,1.1c1.9,0.3,3.7,0.6,5.6,1c3,0.6,5.8,1.6,8.4,3.2
		c2,1.2,3.7,2.8,5,4.7c1.6,2.3,2.7,4.8,3.4,7.5c0.6,2.6,0.8,5.2,0.8,7.8c0,1.9-0.2,4-0.9,5.7c-0.3,0.7-0.7,1.5-1.4,2
		c-2.1,1.6-4.3,2-6.9,1.5c-12-2.5-24.1-4.6-36.2-6.7c-0.4-3.3-0.8-6.6-1.2-10c6.3,1.1,12.5,2.2,18.8,3.3c1.8,0.3,4.2,0.9,6,0.9
		c2.2,0.1,4.4-0.4,5.9-2.2c1.5-1.9,1.5-4.4,0.8-6.7c-0.5-1.8-1.5-3.3-2.9-4.5c-1.5-1.2-3.6-1.8-5.5-2.2c-1.9-0.4-3.8-0.8-5.7-1.1
		c-1.8-0.3-3.7-0.7-5.5-1c-2.5-0.5-5.1-1.4-7.3-2.8c-1.9-1.2-3.7-2.7-5.1-4.6C596.4,410.1,595.8,409.2,595.4,408.3L595.4,408.3z"/>
	<path class="st4" d="M280.3,554.7c-0.5,1.5-1.2,3.5-2,6.1c-0.9,2.6-1.9,5.7-3.2,9.3c-0.3,0.9-0.8,2.3-1.3,4
		c-0.3-1.9-0.4-2.9-0.4-3.1c0-0.1-0.1-0.7-0.3-1.9c-0.2-1.2-0.5-3-0.9-5.4c-0.3-1.9-0.6-3.5-0.8-5c-0.2-1.4-0.4-2.6-0.6-3.6
		c-4,0.2-7.9,0.4-11.8,0.6c0.3,1.7,0.7,3.6,1.1,5.9c0.5,2.3,1,4.8,1.6,7.7c0.7,3.3,1.3,6,1.8,8.3c0.5,2.3,0.9,4,1.2,5.3
		c5-0.2,9.9-0.5,14.8-0.7c0.6-1.5,1.4-3.3,2.3-5.7c1-2.3,2.1-5.1,3.4-8.3c1.2-3,2.3-5.7,3.2-8c0.9-2.3,1.7-4.3,2.3-5.9
		C287.4,554.5,283.9,554.6,280.3,554.7L280.3,554.7z"/>
	<path class="st4" d="M314.9,561.5c0.1-0.3,0.5-1.2,1.1-2.5c0.5-1.3,1.3-3.1,2.2-5.4c-5.3,0.1-10.7,0.2-16,0.3
		c-1.8,0.1-3.4,0.7-4.9,1.8c-1,0.8-1.9,1.6-2.5,2.5c-0.7,1-1.1,2.1-1.3,3.4c-0.2,1.2-0.3,2.4-0.1,3.5c0.1,1.3,0.5,2.3,1.1,3.2
		c0.6,0.8,1.3,1.4,2.3,1.8c1,0.5,2.3,0.7,3.7,0.7c0.9,0,1.7,0,2.6-0.1c1.1,0,1.9-0.1,2.6-0.1c0.9,0,1.5,0.1,1.8,0.3
		c0.4,0.2,0.5,0.6,0.6,1.1c0.1,0.7-0.1,1.2-0.4,1.6c-0.3,0.3-0.8,0.6-1.5,0.7c-0.1,0-1,0.1-2.6,0.1c-3.6,0.1-7.1,0.2-10.7,0.3
		c-0.1,1.2-0.2,2.4-0.3,3.6c-0.1,1.2-0.2,2.4-0.3,3.6c5.9-0.2,11.8-0.4,17.8-0.5c1.6,0,3.2-0.6,4.8-1.8c0.5-0.4,1-1,1.5-1.7
		c0.5-0.9,0.9-1.9,1.1-3c0.3-1.2,0.4-2.4,0.3-3.6c-0.1-1.4-0.4-2.5-1.1-3.4c-0.6-0.8-1.4-1.4-2.4-1.9c-1.1-0.4-2.4-0.7-4.1-0.7
		c-0.6,0-1.5,0-2.6,0.1c-1.2,0-2.1,0.1-2.6,0.1c-0.7,0-1.1-0.1-1.3-0.2c-0.3-0.2-0.5-0.6-0.4-1.3c0-0.8,0.2-1.3,0.4-1.7
		c0.2-0.3,0.5-0.5,1.1-0.5C307.9,561.6,311.4,561.5,314.9,561.5L314.9,561.5z"/>
	<path class="st4" d="M330.6,571c0-1.1,0-2.9-0.1-5.3c0.3,1.3,0.6,2.6,0.9,3.8c0.3,1.2,0.6,2.4,0.9,3.5c0.4,1.5,0.8,2.9,1.2,4.2
		c0.4,1.4,0.8,2.7,1.2,3.9c1,0,2.4,0,4.4,0c1.9,0,3.4,0,4.3,0c1-3.7,1.8-6.5,2.2-8.3c0.5-1.8,0.7-2.6,0.7-2.5
		c0.3-1.1,0.7-2.6,1.1-4.6c0,2.5,0,4.3,0,5.5c0,1.7,0,3.3,0.1,5c0,1.7,0,3.3,0.1,5c3.7,0,7.3,0.1,11,0.1c-0.2-4.6-0.3-9.2-0.5-13.7
		c-0.2-4.6-0.3-9.2-0.5-13.7c-4.7-0.1-9.4-0.1-14-0.1c-0.4,1.6-1,3.7-1.7,6.6c-0.8,3.1-1.4,5.3-1.8,6.6c-0.3,1.1-0.6,2.5-0.8,4.2
		c-0.3-2-0.7-3.6-1-4.8c-0.2-0.7-0.5-2.1-1.1-4.2c-0.5-2.1-1.2-4.9-2.1-8.4c-4.7,0-9.4,0.1-14.1,0.1c-0.1,4.6-0.2,9.2-0.4,13.7
		c-0.1,4.6-0.3,9.2-0.4,13.7c3.4,0,6.9-0.1,10.3-0.1c0-1.7,0-3.4,0-5.1C330.6,574.3,330.6,572.6,330.6,571L330.6,571z"/>
	<path class="st4" d="M372.4,568.3c-0.2-2.9-0.3-5.2-0.4-6.6c1.8,0.1,2.7,0.1,2.8,0.1c0.8,0.1,1.3,0.3,1.7,0.6
		c0.4,0.3,0.6,0.7,0.8,1.3c0.2,0.6,0.3,1.3,0.2,2.2c0,0.8-0.2,1.4-0.4,1.8c-0.3,0.4-0.8,0.6-1.6,0.7
		C375.3,568.3,374.3,568.3,372.4,568.3L372.4,568.3z M384.4,574.5c1.7-0.9,2.9-2.1,3.6-3.7c0.4-0.9,0.6-1.9,0.7-3.1
		c0.1-1.2,0.1-2.4-0.1-3.8c-0.2-1.4-0.6-2.7-1.2-3.8c-0.5-1-1.1-1.8-1.8-2.5c-0.8-0.8-1.7-1.4-2.8-1.9c-1.1-0.5-2.3-0.9-3.8-1.2
		c-1.3-0.3-4-0.4-7.9-0.5c-3.6-0.1-7.1-0.2-10.7-0.2c0.2,4.6,0.4,9.2,0.6,13.8c0.2,4.6,0.4,9.2,0.5,13.7c3.9,0.1,7.8,0.2,11.7,0.3
		c-0.1-1.9-0.2-3.7-0.3-5.6c2.6,0.1,4.1,0.1,4.6,0.1C380.3,575.9,382.7,575.4,384.4,574.5L384.4,574.5z"/>
	<path class="st4" d="M415.8,576.3c-1-0.1-5.4-0.3-13.1-0.7c-0.1-1.3-0.3-2.5-0.4-3.8c4,0.2,8.1,0.4,12.1,0.6
		c-0.3-2.2-0.6-4.4-0.8-6.7c-4-0.2-8-0.4-12-0.6c-0.1-1.1-0.2-2.2-0.3-3.3c1.4,0.1,3.5,0.2,6.4,0.3c2.9,0.1,5,0.3,6.4,0.3
		c0.2-0.7,0.4-1.6,0.7-2.8c0.3-1.1,0.6-2.5,1.1-4.1c-8.4-0.4-16.7-0.8-25-1.2c0.4,4.6,0.9,9.2,1.3,13.8c0.4,4.6,0.8,9.2,1.2,13.8
		c8.7,0.4,17.5,0.8,26.2,1.3c-1.1-2.2-2-3.9-2.6-5C416.2,577.3,415.9,576.6,415.8,576.3L415.8,576.3z"/>
	<polygon class="st3" points="69,470.8 35.4,454.6 39.4,450.4 69,470.8 	"/>
	<polygon class="st3" points="112.6,550.3 79,534.2 83.1,530 112.6,550.3 	"/>
	<polygon class="st3" points="574,550.3 607.6,534.2 603.6,530 574,550.3 	"/>
	<polygon class="st3" points="608.9,466.6 642.5,450.4 635.2,448.4 608.9,466.6 	"/>
</g>
</svg>
