<svg xmlns="http://www.w3.org/2000/svg" viewBox="0 0 1151.09 176.15"><defs><style>.cls-1{fill:#060503;}</style></defs><title>logo-aerosphere-seul</title><g id="Calque_2" data-name="Calque 2"><g id="图层_1" data-name="图层 1"><path class="cls-1" d="M11.13,169.19q-2,7-4.84,7-2.62,0-4.45-5.41A41.14,41.14,0,0,1,0,157.6a39.1,39.1,0,0,1,1.31-11.2L33.12,20.09A47.57,47.57,0,0,1,39,5.6Q42.68,0,46.87,0q3.93,0,7.46,5t5.76,13.91L91.91,144.47a49.82,49.82,0,0,1,1.31,6,45.66,45.66,0,0,1,.52,7.15,41.2,41.2,0,0,1-1.83,13.13q-1.84,5.41-4.45,5.41-3.14,0-5-7.34L52,48.67q-.92-3.09-2.29-6.76t-2.81-3.67q-1.44,0-2.82,3.67a65.74,65.74,0,0,0-2.16,6.76Zm27.62-34.77a53.38,53.38,0,0,1,2.36-17q2.36-7,5.76-7t5.76,7a53.4,53.4,0,0,1,2.36,17,53.37,53.37,0,0,1-2.36,17q-2.36,7-5.76,7t-5.76-7A53.35,53.35,0,0,1,38.75,134.43Z"/><path class="cls-1" d="M133.81,44.81q-4.59,0-7.4,4.83A42.85,42.85,0,0,0,122,61.42a96.42,96.42,0,0,0-2.23,15.26q-.59,8.31-.59,15.26t.59,15.26A96.32,96.32,0,0,0,122,122.45a42.79,42.79,0,0,0,4.45,11.78q2.81,4.83,7.4,4.83h72.14q2.62,0,4.45,5.41a41.24,41.24,0,0,1,1.83,13.13,41.2,41.2,0,0,1-1.83,13.13q-1.84,5.41-4.45,5.41H129.62q-5.37,0-9.56-7.73a83.23,83.23,0,0,1-7.14-19.89,208,208,0,0,1-4.52-27.23,283.1,283.1,0,0,1-1.57-29.36,269.59,269.59,0,0,1,1.64-29.55,192.89,192.89,0,0,1,4.78-27,80.54,80.54,0,0,1,7.59-19.89q4.45-7.72,10.08-7.73h75q2.62,0,4.45,5.41a41.25,41.25,0,0,1,1.83,13.13A41.19,41.19,0,0,1,210.4,39.4q-1.84,5.41-4.45,5.41Zm71.09,34a41.25,41.25,0,0,1,1.83,13.13,41.19,41.19,0,0,1-1.83,13.13q-1.83,5.41-4.45,5.41h-65.2q-2.62,0-4.45-5.41A41.12,41.12,0,0,1,129,91.94a41.17,41.17,0,0,1,1.83-13.13q1.83-5.41,4.45-5.41h65.2Q203.06,73.39,204.9,78.8Z"/><path class="cls-1" d="M327.71,157.6a41.2,41.2,0,0,1-1.83,13.13q-1.84,5.41-4.45,5.41a2.91,2.91,0,0,1-2.36-1.55,19.84,19.84,0,0,1-2-3.86q-.79-2.32-1.18-3.86-5.37-19.7-11.06-30.9t-12-17a27.28,27.28,0,0,0-13.29-7.15,79.27,79.27,0,0,0-15-1.35H237.89V157.6a39.91,39.91,0,0,1-1.9,13.13q-1.9,5.41-4.39,5.41t-4.45-5.41a41.14,41.14,0,0,1-1.83-13.13V58.33a136.61,136.61,0,0,1,1.44-20.86,95.57,95.57,0,0,1,3.67-15.84,34.76,34.76,0,0,1,5.11-10.24q2.88-3.67,5.76-3.67h68.34q3.66,0,6.94,4.06a37.87,37.87,0,0,1,5.76,11A89.22,89.22,0,0,1,326.27,39a131.24,131.24,0,0,1,1.44,20.09,41.19,41.19,0,0,1-1.83,13.13q-1.84,5.41-4.45,5.41T317,72.24a41.14,41.14,0,0,1-1.83-13.13,29.13,29.13,0,0,0-1.37-9.66q-1.38-3.86-3.21-4.64H242q-1.7,0-2.75,2.51a19.29,19.29,0,0,0-1.31,6V73.39H264.6a53.85,53.85,0,0,1,20.82,3.86,45.31,45.31,0,0,1,16.82,12.55q7.53,8.69,13.49,22.79a212.74,212.74,0,0,1,10.67,34.57A41.25,41.25,0,0,1,327.71,157.6Z"/><path class="cls-1" d="M447.37,91.94a270.05,270.05,0,0,1-1.64,29.55,193,193,0,0,1-4.78,27,80.56,80.56,0,0,1-7.59,19.89q-4.45,7.73-10.08,7.73h-59.7q-5.37-.77-9.56-8.69a87.51,87.51,0,0,1-7.14-19.89,201.83,201.83,0,0,1-4.52-26.65,267.74,267.74,0,0,1,.07-58.52,192.79,192.79,0,0,1,4.78-27,80.54,80.54,0,0,1,7.59-19.89q4.45-7.72,10.08-7.73h59.7q5.37.78,9.56,8.69a87.82,87.82,0,0,1,7.14,19.89A202.19,202.19,0,0,1,445.8,63,272.15,272.15,0,0,1,447.37,91.94Zm-19.51,42.3a41.57,41.57,0,0,0,4.52-11.78,96.54,96.54,0,0,0,2.23-15.26q.59-8.3.59-15.26t-.59-15.26a96.64,96.64,0,0,0-2.23-15.26,41.62,41.62,0,0,0-4.52-11.78q-2.88-4.83-7.33-4.83H367.64q-4.59,0-7.4,4.83a42.83,42.83,0,0,0-4.45,11.78,96.35,96.35,0,0,0-2.23,15.26Q353,85,353,91.94t.59,15.26a96.25,96.25,0,0,0,2.23,15.26,42.77,42.77,0,0,0,4.45,11.78q2.81,4.83,7.4,4.83h52.89Q425,139.06,427.86,134.24Z"/><path class="cls-1" d="M471.07,106.42a37.84,37.84,0,0,1-5.5-11,93.64,93.64,0,0,1-3.73-16.22,137.26,137.26,0,0,1-1.37-20.09A137.31,137.31,0,0,1,461.84,39a93.66,93.66,0,0,1,3.73-16.22,37.86,37.86,0,0,1,5.5-11q3.14-4.06,6.81-4.06h79.47q2.62,0,4.45,5.41a41.25,41.25,0,0,1,1.83,13.13A41.19,41.19,0,0,1,561.8,39.4q-1.83,5.41-4.45,5.41H477.61q-2,0-3.47,4.06a29.73,29.73,0,0,0-1.51,10.24,30.08,30.08,0,0,0,1.51,10c1,2.84,2.16,4.25,3.47,4.25H550q3.66,0,6.87,4.06a36.82,36.82,0,0,1,5.56,11,93.46,93.46,0,0,1,3.73,16.42,141.28,141.28,0,0,1,1.37,20.28,137.17,137.17,0,0,1-1.37,20.09,93.73,93.73,0,0,1-3.73,16.22,34,34,0,0,1-5.56,10.82q-3.21,3.87-6.87,3.86H470.67q-2.62,0-4.45-5.41a41.14,41.14,0,0,1-1.83-13.13,41.19,41.19,0,0,1,1.83-13.13q1.83-5.4,4.45-5.41h79.87q2,0,3.4-4.06a29.62,29.62,0,0,0,1.44-9.85,32.83,32.83,0,0,0-1.44-10.43q-1.44-4.25-3.4-4.25H477.88Q474.21,110.48,471.07,106.42Z"/><path class="cls-1" d="M665.36,7.73q3.66,0,6.87,4.06a37.88,37.88,0,0,1,5.63,11A89.6,89.6,0,0,1,681.66,39,137.31,137.31,0,0,1,683,59.1a137.26,137.26,0,0,1-1.37,20.09,89.58,89.58,0,0,1-3.8,16.22,37.86,37.86,0,0,1-5.63,11q-3.21,4.06-6.87,4.06H593.22V157.6a39.91,39.91,0,0,1-1.9,13.13q-1.9,5.41-4.39,5.41t-4.45-5.41a41.14,41.14,0,0,1-1.83-13.13V26.27a41.19,41.19,0,0,1,1.83-13.13q1.83-5.4,4.45-5.41ZM593.22,44.81V73.39h72.66q2,0,3.47-4.06a29.76,29.76,0,0,0,1.51-10.24,30.15,30.15,0,0,0-1.51-10q-1.51-4.25-3.47-4.25Z"/><path class="cls-1" d="M798.51,157.6a41.2,41.2,0,0,1-1.83,13.13q-1.84,5.41-4.45,5.41t-4.45-5.41a41.14,41.14,0,0,1-1.83-13.13v-8.88a94,94,0,0,0-1.83-19.12,45.66,45.66,0,0,0-4.06-11.78,14.43,14.43,0,0,0-5.11-5.79,10.41,10.41,0,0,0-5-1.55H724.54a13.61,13.61,0,0,1-8.18-3.09,31.33,31.33,0,0,1-7.79-9.27V157.6a41.2,41.2,0,0,1-1.83,13.13q-1.84,5.41-4.45,5.41t-4.45-5.41A41.14,41.14,0,0,1,696,157.6V26.27a41.19,41.19,0,0,1,1.83-13.13q1.83-5.4,4.45-5.41t4.45,5.41a41.25,41.25,0,0,1,1.83,13.13v6.57a103,103,0,0,0,1.64,20.28,45.67,45.67,0,0,0,4.06,12.36,16.36,16.36,0,0,0,5.17,6.18,9.7,9.7,0,0,0,5.11,1.74H770a13.65,13.65,0,0,1,8.18,3.09,31.52,31.52,0,0,1,7.79,9.27V26.27a41.19,41.19,0,0,1,1.83-13.13q1.83-5.4,4.45-5.41t4.45,5.41a41.25,41.25,0,0,1,1.83,13.13Z"/><path class="cls-1" d="M838.71,44.81q-4.59,0-7.4,4.83a42.83,42.83,0,0,0-4.45,11.78,96.43,96.43,0,0,0-2.23,15.26Q824,85,824,91.94t.59,15.26a96.33,96.33,0,0,0,2.23,15.26,42.77,42.77,0,0,0,4.45,11.78q2.81,4.83,7.4,4.83h72.14q2.62,0,4.45,5.41a41.24,41.24,0,0,1,1.83,13.13,41.2,41.2,0,0,1-1.83,13.13q-1.83,5.41-4.45,5.41H834.52q-5.37,0-9.56-7.73a83.23,83.23,0,0,1-7.14-19.89,208,208,0,0,1-4.52-27.23,283.1,283.1,0,0,1-1.57-29.36,269.75,269.75,0,0,1,1.64-29.55,192.79,192.79,0,0,1,4.78-27,80.54,80.54,0,0,1,7.59-19.89q4.45-7.72,10.08-7.73h75q2.62,0,4.45,5.41a41.25,41.25,0,0,1,1.83,13.13A41.19,41.19,0,0,1,915.3,39.4q-1.83,5.41-4.45,5.41Zm71.09,34a41.25,41.25,0,0,1,1.83,13.13,41.19,41.19,0,0,1-1.83,13.13q-1.84,5.41-4.45,5.41h-65.2q-2.62,0-4.45-5.41a41.14,41.14,0,0,1-1.83-13.13,41.19,41.19,0,0,1,1.83-13.13q1.83-5.41,4.45-5.41h65.2Q908,73.39,909.8,78.8Z"/><path class="cls-1" d="M1032.61,157.6a41.2,41.2,0,0,1-1.83,13.13q-1.84,5.41-4.45,5.41a2.91,2.91,0,0,1-2.36-1.55,19.84,19.84,0,0,1-2-3.86q-.79-2.32-1.18-3.86-5.37-19.7-11.06-30.9t-12-17a27.28,27.28,0,0,0-13.29-7.15,79.27,79.27,0,0,0-15-1.35H942.79V157.6a39.91,39.91,0,0,1-1.9,13.13q-1.9,5.41-4.39,5.41t-4.45-5.41a41.14,41.14,0,0,1-1.83-13.13V58.33a136.6,136.6,0,0,1,1.44-20.86,95.57,95.57,0,0,1,3.67-15.84,34.76,34.76,0,0,1,5.11-10.24q2.88-3.67,5.76-3.67h68.34q3.66,0,6.94,4.06a37.87,37.87,0,0,1,5.76,11A89.22,89.22,0,0,1,1031.17,39a131.24,131.24,0,0,1,1.44,20.09,41.19,41.19,0,0,1-1.83,13.13q-1.84,5.41-4.45,5.41t-4.45-5.41A41.14,41.14,0,0,1,1020,59.1a29.13,29.13,0,0,0-1.37-9.66q-1.38-3.86-3.21-4.64h-68.6q-1.7,0-2.75,2.51a19.29,19.29,0,0,0-1.31,6V73.39H969.5a53.85,53.85,0,0,1,20.82,3.86,45.31,45.31,0,0,1,16.82,12.55q7.53,8.69,13.49,22.79a212.73,212.73,0,0,1,10.67,34.57A41.25,41.25,0,0,1,1032.61,157.6Z"/><path class="cls-1" d="M1072.67,44.81q-4.59,0-7.4,4.83a42.83,42.83,0,0,0-4.45,11.78,96.42,96.42,0,0,0-2.23,15.26Q1058,85,1058,91.94t.59,15.26a96.32,96.32,0,0,0,2.23,15.26,42.77,42.77,0,0,0,4.45,11.78q2.81,4.83,7.4,4.83h72.14q2.62,0,4.45,5.41a41.25,41.25,0,0,1,1.83,13.13,41.2,41.2,0,0,1-1.83,13.13q-1.83,5.41-4.45,5.41h-76.33q-5.37,0-9.56-7.73a83.23,83.23,0,0,1-7.14-19.89,208,208,0,0,1-4.52-27.23,283.1,283.1,0,0,1-1.57-29.36,269.75,269.75,0,0,1,1.64-29.55,192.79,192.79,0,0,1,4.78-27,80.54,80.54,0,0,1,7.59-19.89q4.45-7.72,10.08-7.73h75q2.62,0,4.45,5.41a41.25,41.25,0,0,1,1.83,13.13,41.19,41.19,0,0,1-1.83,13.13q-1.83,5.41-4.45,5.41Zm71.09,34a41.25,41.25,0,0,1,1.83,13.13,41.19,41.19,0,0,1-1.83,13.13q-1.84,5.41-4.45,5.41h-65.2q-2.62,0-4.45-5.41a41.14,41.14,0,0,1-1.83-13.13,41.19,41.19,0,0,1,1.83-13.13q1.83-5.41,4.45-5.41h65.2Q1141.93,73.39,1143.76,78.8Z"/></g></g></svg>