<?xml version="1.0" encoding="utf-8"?>
<!-- Generator: Adobe Illustrator 27.9.0, SVG Export Plug-In . SVG Version: 6.00 Build 0)  -->
<svg version="1.1" id="uuid-820def3a-f605-407e-a225-8978e2398b8a"
	 xmlns="http://www.w3.org/2000/svg" xmlns:xlink="http://www.w3.org/1999/xlink" x="0px" y="0px" viewBox="0 0 610.1 648.3"
	 style="enable-background:new 0 0 610.1 648.3;" xml:space="preserve">
<style type="text/css">
	.st0{fill:#FFFFFF;}
</style>
<g id="uuid-1c80fa12-db9c-4ce1-8ca9-701eb3754ae9">
	<path class="st0" d="M608.6,381.7c-1.4-6.3-4-12.2-7.8-17.4c0.7-3.1,1.4-6.3,2-9.4l5.6-27.3l-9.1-1.6c-18.8-3.4-37.7-6.4-56.6-9.1
		l-21.6-148.5c4.5-9.7,6.8-20.3,6.7-31.5v-3.2c9.5-13.1,15.7-27.9,17-44.2c2.7-33.9-12.6-54.8-37.3-74.8L489.6,0l3.3,22.9
		c4.8,33.4,4.2,50.8-18.5,71.5c-7.1-11.9-18.9-20-31.4-26.9l-18-10l4.9,20c3.6,14.8,0.9,26.6-5.7,35.8c-7.3-3.2-14.5-6.6-21.7-10.1
		c0-0.1,0-0.1,0-0.1c0-53.5-43.4-96.9-96.9-96.9s-96.9,43.4-96.9,96.9c0,0.1,0,0.1,0,0.1c-7.2,3.5-14.4,6.9-21.7,10.1
		c-6.6-9.2-9.3-20.9-5.7-35.8l4.9-20l-18,10c-12.5,6.9-24.4,15-31.4,26.9c-22.7-20.8-23.3-38.2-18.5-71.5L121.4,0l-17.9,14.5
		c-24.7,20.1-40,40.9-37.3,74.8c1.3,16.3,7.5,31.1,17,44.2v3.2c0,11.3,2.2,21.9,6.7,31.5L68.1,317.7c-14.8,2.3-29.7,4.8-44.4,7.5
		l-6.3,1.1l-3.1,18.9c-1.6,10-3.1,20.1-4.7,30.1c-1.5,9.9-3.1,19.9-4.6,29.8l-3.1,19.7l-2,12.5l8.8,4.2l37.7,18l-0.3,2.8
		c-2,15.6-3.7,31.3-5.5,47l9.1,3.2l64.7,22.8l2.1-0.3c13.8-1.8,27.7-3.4,41.6-4.8c3.5,3.6,7.1,7.1,10.8,10.6
		c22.2,21.2,46.4,39.4,71.4,57.2c10.8,7.7,21.6,15.3,32.3,23.2c9.2,6.8,18.4,13.9,26.9,21.5l6.1,5.5l6.1-5.5
		c8.5-7.7,17.7-14.7,26.9-21.5c10.7-7.9,21.5-15.5,32.3-23.2c24.9-17.8,49.1-36,71.4-57.2c3.7-3.5,7.2-7,10.7-10.6
		c15.7,1.5,31.3,3.4,46.9,5.5l2.2,0.3l76.5-27c-2.2-15.9-4.4-31.9-6.4-47.9l-1.9-15.1l22.3-17.3c1.3-0.8,2.6-1.6,3.9-2.6
		c8.7-6.7,13.7-19.8,13.8-30.6C610.1,391,609.6,386.3,608.6,381.7L608.6,381.7z M598.8,408.2c-1.2,3.1-3,6-5.2,8.4h0l0,0
		c-0.9,0.9-1.8,1.8-2.8,2.5c-1.1,0.8-2.2,1.6-3.4,2.2l-34.2,26.4l8.1,1.5l1.7,13.2c0.7,5.5,1.4,11,2.1,16.5l3.4,24.8l-67.5,23.1
		c-16.7-2.3-33.9-4.2-51.6-5.9c-49.6,52.1-108.1,82.8-143.8,115.2c-35.7-32.3-94.2-63.1-143.8-115.2c-15.8,1.5-31.2,3.2-46.3,5.2
		l-64.9-22.9l2.8-24.3c0.6-5.2,1.2-10.3,1.9-15.5l1.2-9.3L9.9,432.1l4-25.5c1.6-10,3.1-19.9,4.6-29.9c1.5-10,3-20.1,4.7-30.1l2-12.6
		c16.9-3.1,33.8-5.9,50.8-8.4l23.1-158.9c-4.7-9.1-7.1-19.1-7-30l0-6.2c-9.5-12.3-15.8-26.2-17.1-41.9c-2.6-33.3,14.8-51.5,34-67.1
		c-5.4,37.4-5.2,59.6,31.1,87.6c4-16.3,17.6-25.8,32.2-33.8c-5.1,20.9,0.4,37,11.9,48.9c11.3-4.8,22.5-10,33.5-15.6
		c-0.1-1.9-0.2-3.8-0.2-5.7c0-48.5,39.4-87.9,87.9-87.9s87.9,39.3,87.9,87.9c0,1.9-0.1,3.8-0.2,5.7c11,5.6,22.2,10.8,33.5,15.6
		c11.5-11.9,17-28,11.9-48.9c14.6,8.1,28.1,17.5,32.2,33.8c36.2-28,36.5-50.2,31-87.6c19.2,15.6,36.7,33.8,34,67.1
		c-1.2,15.6-7.6,29.6-17.1,41.9l0,6.2c0,10.9-2.3,21-7,30l23,158c21,3,42,6.3,63,10l-3.8,18.2c-0.9,4.5-2,9.1-2.9,13.6
		c0.7,0.9,1.5,1.7,2.1,2.6c3.2,4.4,5.3,9.2,6.5,14.5c0.9,3.9,1.3,7.9,1.3,12C601,399.9,600.4,404.1,598.8,408.2L598.8,408.2z"/>
	<path class="st0" d="M282.9,136.1l-0.2-0.5c-12.6-1.6-25.1-5.3-37.6-11.8c2.1,8.3,2.5,13.4,1.5,21.8c9.5,13.1,23.2,22.9,39.1,27.4
		c7.1-3.6,11.9-5.1,19.6-6c7.7,1,12.5,2.4,19.7,6.1c15.9-4.4,29.5-14.1,39.1-27c-1-8.6-0.6-13.8,1.5-22.2
		c-12.5,6.5-25.1,10.2-37.6,11.8l-0.2,0.5L342,91.2l-36.7-27.5l-36.7,27.5L282.9,136.1L282.9,136.1z M277.2,156.6l-0.3,8.6
		l-7.4-10.6l-12.5-3.2l8-3.3l-7.4-10.6l12.3,8.6l7.9-3.3l-0.4,8.6l12.3,8.6L277.2,156.6L277.2,156.6z M333.2,151.3l-0.4-8.6l7.9,3.3
		l12.3-8.6l-7.4,10.6l8,3.3l-12.5,3.2l-7.4,10.6l-0.3-8.6l-12.5,3.3L333.2,151.3L333.2,151.3z M300.2,98l5-15.6l5,15.6l16.4,0
		l-13.3,9.6l5.1,15.6l-13.3-9.7l-13.3,9.7l5.1-15.6L283.8,98L300.2,98L300.2,98z M305.3,136.3h22.3c-5.5,10.5-12.8,20.2-22.3,29.2
		c-9.5-8.9-16.8-18.7-22.3-29.2L305.3,136.3L305.3,136.3z"/>
	<path class="st0" d="M245,123.3c6-12.7,13.8-23.3,22.9-32.1c-2.1-12.4-2.3-25.5,0.3-39.3c13.8,1.8,26,6,37.1,11.8
		c11.1-5.8,23.4-9.9,37.1-11.8c2.5,13.8,2.4,26.8,0.3,39.3c9.1,8.8,16.8,19.4,22.9,32.1c3.5-8.1,6.3-12.5,12.6-18.9
		c0-0.4,0-0.9,0-1.3c0-16.3-5.3-31.3-14.4-43.4c-8.8-1.5-13.7-3.4-21.2-7.8l0.3,0c-6.6-5.8-9.9-9.8-14-17.6
		c-7.4-2.5-15.2-3.9-23.4-3.9s-16.4,1.4-23.9,4c-4.1,7.7-7.4,11.7-13.9,17.4l0.3,0c-7.4,4.4-12.2,6.3-20.8,7.8
		c-9.1,12.1-14.4,27.2-14.4,43.4c0,0.6,0,1.1,0,1.7C238.8,111,241.6,115.3,245,123.3L245,123.3z M351.8,67.6l8,10.2l5.4-6.7
		L364.7,84l8,10.1l-8.3-2.2l-0.5,12.9l-4.6-14.3l-8.3-2.2l5.5-6.6L351.8,67.6L351.8,67.6z M293.2,36.1l12.1,4.5l12.1-4.5l-4.7,7.2
		l12.1,4.5h-15l-4.6,7.2l-4.6-7.2h-15l12.1-4.5L293.2,36.1L293.2,36.1z M245.4,71.1l5.4,6.7l8-10.2l-4.6,14.3l5.5,6.6l-8.3,2.2
		l-4.6,14.3l-0.5-12.9l-8.3,2.2l8-10.1L245.4,71.1L245.4,71.1z"/>
	<path class="st0" d="M280.7,223.1c7.1,6.5,14.8,15,20.5,24.4c-2.3-8.3-6.1-15.8-10.8-22.4c-2.6,0.1-5.3-0.6-7.8-1.3
		C282,223.5,281.3,223.3,280.7,223.1L280.7,223.1z"/>
	<path class="st0" d="M330.3,223.1c-0.7,0.2-1.3,0.5-2,0.7c-2.5,0.8-5.1,1.4-7.8,1.3c-4.6,6.6-8.4,14.1-10.8,22.4
		C315.5,238.1,323.2,229.6,330.3,223.1L330.3,223.1z"/>
	<path class="st0" d="M374.1,162.2c-0.2,0-0.4,0.1-0.5,0.1c-0.4,0.1-0.8,0.1-1.2,0.2c-0.2,0-0.4,0.1-0.6,0.1
		c-0.4,0.1-0.8,0.2-1.2,0.2c-0.1,0-0.3,0.1-0.5,0.1c-0.5,0.1-1.1,0.2-1.6,0.4c0,0-0.1,0-0.1,0c-0.5,0.1-1,0.2-1.4,0.4
		c-0.1,0-0.3,0.1-0.4,0.1c-0.4,0.1-0.7,0.2-1,0.3c-0.1,0-0.3,0.1-0.4,0.1c-0.4,0.1-0.7,0.2-1,0.3c-0.1,0-0.2,0.1-0.3,0.1
		c-0.4,0.1-0.9,0.3-1.3,0.4c0,0-0.1,0-0.1,0c-0.4,0.1-0.7,0.3-1.1,0.4c-0.1,0-0.2,0.1-0.3,0.1c-0.3,0.1-0.6,0.2-0.8,0.4
		c-0.1,0-0.2,0.1-0.3,0.1c-0.3,0.1-0.6,0.3-0.9,0.4c-0.1,0-0.1,0.1-0.2,0.1c-0.3,0.2-0.7,0.3-1,0.5c0,0-0.1,0-0.1,0.1
		c-0.3,0.1-0.5,0.3-0.8,0.5c-0.1,0.1-0.1,0.1-0.2,0.1c-0.2,0.1-0.4,0.3-0.6,0.4c-0.1,0.1-0.1,0.1-0.2,0.1c-0.2,0.2-0.4,0.3-0.6,0.5
		c0,0-0.1,0.1-0.1,0.1c-0.2,0.2-0.4,0.4-0.6,0.6c0,0,0,0,0,0l0,0c-1.9,1.9-2.2,4.2-0.9,6.6c2.6,4.9,6.8,8.4,10.5,12
		c-4.8,2.5-12.9,7.1-21.6,14c11.5-5.6,22.8-9.9,35.9-12c6.7-1.1,11.9,0.2,17,4.6c0.4,0.4,0.9,0.8,1.3,1.2
		c8.8,1.5,15.8,6.5,17.8,15.8c0.1,0.7,0.3,1.4,0.3,2.2c0,0.2,0,0.5,0,0.8c0.3,3.6-0.1,7.4-1.2,10.9c-0.2,0.5-0.3,1.1-0.5,1.6
		c-0.1,0.2-0.2,0.5-0.3,0.8c-0.3,0.8-0.6,1.5-1,2.2l-3.5,7.1l-5.6-5.6c-2.2-2.1-9.5,2.9-11.3,4c-10.5,6.9-19.8,15.2-21.2,28.3
		c-0.4,3.4-0.3,6.8,0,10.2c8.5-0.4,14.1-2.1,15.1-5.6c-3-0.7-5.8-1.6-8.2-3.1c14.9,4,23.7,1,28.7-6.3c-6-0.3-11.3-1.4-15.9-3.3
		c28.8,3.4,44.1-0.9,48.3-11.8c-7.6,0.8-15.7,0.5-24.7-2.1c25.6,0.2,40.3-5.6,42.9-17.9c-8.9,3.1-21.5,2.5-36.9-1.2
		c40.6,1.7,67-9.9,70.1-43.2c-13.9,15.8-35.9,22-62.1,23.3c47.1-10.7,78.2-30,78.1-66c-0.5,0.6-1.1,1.2-1.6,1.8
		c-0.1,0.1-0.3,0.3-0.4,0.4c-0.4,0.4-0.8,0.9-1.2,1.3c-0.1,0.1-0.3,0.3-0.4,0.4c-0.4,0.4-0.8,0.9-1.3,1.3c-0.1,0.1-0.2,0.2-0.4,0.4
		c-0.4,0.4-0.9,0.9-1.3,1.3c-0.1,0.1-0.2,0.2-0.3,0.3c-0.5,0.4-0.9,0.9-1.4,1.3c-0.1,0.1-0.2,0.2-0.3,0.3c-0.5,0.4-1,0.9-1.5,1.3
		c-0.1,0.1-0.2,0.1-0.3,0.2c-0.5,0.4-1,0.8-1.5,1.2c-0.1,0.1-0.2,0.1-0.2,0.2c-0.5,0.4-1,0.8-1.5,1.2c-0.1,0.1-0.2,0.1-0.3,0.2
		c-0.5,0.4-1,0.8-1.5,1.1c-0.1,0.1-0.2,0.1-0.3,0.2c-0.5,0.4-1,0.7-1.5,1c-0.1,0.1-0.2,0.2-0.4,0.2c-0.5,0.3-0.9,0.6-1.4,0.9
		c-0.2,0.1-0.3,0.2-0.5,0.3c-0.4,0.3-0.9,0.5-1.3,0.8c-0.2,0.1-0.4,0.2-0.6,0.4c-0.4,0.2-0.8,0.4-1.1,0.7c-0.3,0.1-0.5,0.3-0.8,0.4
		c-0.3,0.2-0.6,0.4-1,0.5c-0.3,0.2-0.7,0.4-1,0.5c-0.2,0.1-0.5,0.2-0.7,0.4c-0.4,0.2-0.8,0.4-1.3,0.6c-0.2,0.1-0.3,0.2-0.5,0.2
		c-0.5,0.2-1,0.5-1.5,0.7c-0.1,0-0.2,0.1-0.2,0.1c-0.6,0.3-1.2,0.5-1.8,0.8l0,0c-7.2,3-14.9,5.1-23.1,6.5c0,0,0,0-0.1,0
		c-0.7,0.1-1.4,0.2-2,0.3c-0.1,0-0.2,0-0.3,0c-0.6,0.1-1.2,0.2-1.9,0.3c-0.1,0-0.3,0-0.4,0.1c-0.8,0.1-1.5,0.2-2.2,0.3
		c65.8-27.8,95.2-72.4,69.5-116c7,63.2-84.2,101.8-138.1,110.3C375.2,161.9,374.6,162,374.1,162.2L374.1,162.2z"/>
	<path class="st0" d="M447.5,133.2L447.5,133.2L447.5,133.2c0.4-0.3,0.7-0.5,1.1-0.8c0,0,0,0,0,0c0.3-0.3,0.7-0.5,1-0.8c0,0,0,0,0,0
		c0.3-0.3,0.6-0.5,1-0.8c0,0,0,0,0,0c0.3-0.3,0.6-0.5,0.9-0.8c0,0,0,0,0.1-0.1c0.3-0.3,0.6-0.5,0.8-0.8c0,0,0-0.1,0.1-0.1
		c0.3-0.3,0.5-0.5,0.8-0.8c0,0,0-0.1,0.1-0.1c0.2-0.3,0.5-0.5,0.7-0.8c0,0,0.1-0.1,0.1-0.1c0.2-0.3,0.4-0.5,0.6-0.8
		c0,0,0.1-0.1,0.1-0.1c0.2-0.3,0.4-0.5,0.6-0.8c0-0.1,0.1-0.1,0.1-0.2c0.2-0.3,0.4-0.5,0.5-0.8c0-0.1,0.1-0.1,0.1-0.2
		c0.2-0.3,0.3-0.5,0.5-0.8c0-0.1,0.1-0.1,0.1-0.2c0.1-0.3,0.3-0.5,0.4-0.8c0-0.1,0.1-0.1,0.1-0.2c0.1-0.3,0.2-0.5,0.3-0.8
		c0-0.1,0.1-0.2,0.1-0.2c0.1-0.3,0.2-0.5,0.3-0.8c0-0.1,0-0.2,0.1-0.3c0.1-0.2,0.1-0.5,0.2-0.8c0-0.1,0-0.2,0.1-0.3
		c0.1-0.2,0.1-0.5,0.2-0.8c0-0.1,0-0.2,0-0.3c0-0.2,0.1-0.5,0.1-0.8c0-0.1,0-0.2,0-0.3c0-0.2,0-0.5,0-0.7c0-0.1,0-0.2,0-0.4
		c0-0.2,0-0.5,0-0.7c0-0.1,0-0.2,0-0.4c0-0.2,0-0.5-0.1-0.7c0-0.1,0-0.3-0.1-0.4c0-0.2-0.1-0.5-0.1-0.7c0-0.2-0.1-0.3-0.1-0.4
		c0-0.2-0.1-0.5-0.2-0.7c0-0.2-0.1-0.3-0.1-0.5c-0.1-0.2-0.1-0.5-0.2-0.7c-0.1-0.2-0.1-0.3-0.2-0.5c-0.1-0.2-0.2-0.4-0.3-0.7
		c-0.1-0.2-0.2-0.3-0.2-0.5c-0.1-0.2-0.2-0.4-0.3-0.7c-0.1-0.2-0.2-0.4-0.3-0.5c-0.1-0.2-0.2-0.4-0.4-0.7c-0.1-0.2-0.2-0.4-0.4-0.6
		c-0.1-0.2-0.3-0.4-0.4-0.7c-0.1-0.2-0.3-0.4-0.4-0.6c-0.1-0.2-0.3-0.4-0.4-0.6c-0.2-0.2-0.3-0.4-0.5-0.7c-0.2-0.2-0.3-0.4-0.5-0.6
		c-0.2-0.2-0.4-0.4-0.6-0.7c-0.2-0.2-0.3-0.4-0.5-0.6c-0.2-0.3-0.5-0.6-0.8-0.8c-0.1-0.2-0.3-0.3-0.4-0.4c-0.4-0.4-0.9-0.9-1.3-1.3
		c1,26.4-17.5,39.4-43.3,51.8C417.2,147.9,435.6,141.9,447.5,133.2L447.5,133.2z"/>
	<path class="st0" d="M152.3,117.2c0,0.2,0.1,0.5,0.1,0.7c0,0.1,0,0.2,0.1,0.3c0,0.2,0.1,0.5,0.2,0.8c0,0.1,0,0.2,0.1,0.3
		c0.1,0.2,0.1,0.5,0.2,0.8c0,0.1,0.1,0.2,0.1,0.3c0.1,0.3,0.2,0.5,0.3,0.8c0,0.1,0.1,0.2,0.1,0.2c0.1,0.3,0.2,0.5,0.3,0.8
		c0,0.1,0.1,0.2,0.1,0.2c0.1,0.3,0.3,0.5,0.4,0.8c0,0.1,0.1,0.1,0.1,0.2c0.1,0.3,0.3,0.5,0.5,0.8c0,0.1,0.1,0.1,0.1,0.2
		c0.2,0.3,0.3,0.5,0.5,0.8c0,0.1,0.1,0.1,0.1,0.2c0.2,0.3,0.4,0.5,0.6,0.8c0,0.1,0.1,0.1,0.1,0.1c0.2,0.3,0.4,0.5,0.6,0.8
		c0,0,0.1,0.1,0.1,0.1c0.2,0.3,0.5,0.5,0.7,0.8c0,0,0.1,0.1,0.1,0.1c0.2,0.3,0.5,0.5,0.8,0.8c0,0,0.1,0.1,0.1,0.1
		c0.3,0.3,0.6,0.6,0.8,0.8c0,0,0,0,0.1,0.1c0.3,0.3,0.6,0.6,0.9,0.8c0,0,0,0,0.1,0c0.3,0.3,0.6,0.6,1,0.8c0,0,0,0,0,0
		c0.3,0.3,0.7,0.6,1,0.8c0,0,0,0,0,0c0.9,0.7,1.7,1.3,2.7,1.9l0,0l0.1,0.1l0,0c11.9,8.1,29,13.7,39.2,16.8
		c-25.8-12.4-44.3-25.4-43.3-51.8c-0.5,0.4-0.9,0.9-1.3,1.3c-0.1,0.1-0.2,0.3-0.4,0.4c-0.3,0.3-0.6,0.6-0.8,0.9
		c-0.2,0.2-0.3,0.3-0.4,0.5c-0.2,0.2-0.4,0.5-0.6,0.8c-0.2,0.2-0.3,0.4-0.4,0.6c-0.2,0.2-0.4,0.4-0.5,0.7c-0.1,0.2-0.3,0.4-0.4,0.6
		c-0.1,0.2-0.3,0.4-0.4,0.6c-0.1,0.2-0.2,0.4-0.4,0.6s-0.3,0.4-0.4,0.6s-0.2,0.4-0.4,0.6c-0.1,0.2-0.2,0.4-0.3,0.6
		c-0.1,0.2-0.2,0.4-0.3,0.7c-0.1,0.2-0.2,0.4-0.3,0.5c-0.1,0.2-0.2,0.4-0.3,0.7c-0.1,0.2-0.1,0.3-0.2,0.5c-0.1,0.2-0.1,0.4-0.2,0.7
		c-0.1,0.2-0.1,0.3-0.2,0.5c-0.1,0.2-0.1,0.5-0.2,0.7c0,0.2-0.1,0.3-0.1,0.5c-0.1,0.2-0.1,0.5-0.1,0.7c0,0.2-0.1,0.3-0.1,0.4
		c0,0.2-0.1,0.5-0.1,0.7c0,0.1,0,0.3,0,0.4c0,0.2,0,0.5,0,0.7c0,0.1,0,0.2,0,0.4c0,0.2,0,0.5,0,0.7
		C152.3,117,152.3,117.1,152.3,117.2L152.3,117.2z"/>
	<path class="st0" d="M166.5,167.6c-0.8-0.1-1.5-0.2-2.2-0.3c-0.1,0-0.3,0-0.4-0.1c-0.6-0.1-1.3-0.2-1.9-0.3c-0.1,0-0.2,0-0.3,0
		c-0.7-0.1-1.4-0.2-2-0.3c0,0,0,0-0.1,0c-8.2-1.4-15.9-3.5-23.1-6.5c0,0,0,0,0,0c-0.6-0.2-1.2-0.5-1.8-0.8c-0.1,0-0.2-0.1-0.3-0.1
		c-0.5-0.2-1-0.5-1.5-0.7c-0.2-0.1-0.4-0.2-0.5-0.2c-0.4-0.2-0.8-0.4-1.3-0.6c-0.2-0.1-0.5-0.3-0.8-0.4c-0.3-0.2-0.7-0.4-1-0.5
		c-0.3-0.2-0.6-0.4-1-0.5c-0.3-0.1-0.5-0.3-0.8-0.4c-0.4-0.2-0.8-0.4-1.2-0.7c-0.2-0.1-0.4-0.2-0.6-0.4c-0.4-0.3-0.9-0.5-1.3-0.8
		c-0.2-0.1-0.3-0.2-0.5-0.3c-0.5-0.3-0.9-0.6-1.4-0.9c-0.1-0.1-0.2-0.2-0.4-0.2c-0.5-0.3-1-0.7-1.5-1c-0.1-0.1-0.2-0.1-0.3-0.2
		c-0.5-0.4-1-0.7-1.5-1.1c-0.1-0.1-0.2-0.1-0.2-0.2c-0.5-0.4-1-0.8-1.5-1.2c-0.1-0.1-0.2-0.1-0.2-0.2c-0.5-0.4-1-0.8-1.5-1.2
		c-0.1-0.1-0.2-0.1-0.3-0.2c-0.5-0.4-1-0.8-1.5-1.3c-0.1-0.1-0.2-0.2-0.3-0.3c-0.5-0.4-0.9-0.9-1.4-1.3c-0.1-0.1-0.2-0.2-0.3-0.3
		c-0.4-0.4-0.9-0.9-1.3-1.3c-0.1-0.1-0.2-0.2-0.4-0.4c-0.4-0.4-0.8-0.9-1.3-1.3c-0.1-0.1-0.3-0.3-0.4-0.4c-0.4-0.4-0.8-0.9-1.2-1.3
		c-0.1-0.1-0.3-0.3-0.4-0.4c-0.5-0.6-1.1-1.2-1.6-1.8c-0.1,35.9,31,55.2,78.1,66c-26.2-1.3-48.2-7.5-62.1-23.3
		c3.1,33.2,29.5,44.9,70.1,43.2c-15.4,3.7-27.9,4.3-36.9,1.2c2.6,12.4,17.3,18.2,42.9,17.9c-9.1,2.6-17.1,2.9-24.7,2.1
		c4.2,10.8,19.5,15.2,48.3,11.8c-4.6,1.9-9.9,3-15.9,3.3c5,7.4,13.9,10.3,28.7,6.3c-2.5,1.5-5.3,2.5-8.2,3.1
		c0.9,3.5,6.6,5.2,15.1,5.6c0.2-3.4,0.4-6.8,0-10.2c-1.5-13.1-10.7-21.4-21.2-28.3c-1.7-1.1-9.1-6.1-11.3-4l-5.6,5.6l-3.5-7.1
		c-0.3-0.7-0.7-1.4-0.9-2.2c-0.1-0.2-0.2-0.5-0.3-0.8c-0.2-0.5-0.4-1-0.5-1.6c-1-3.5-1.4-7.4-1.1-10.9c0-0.2,0-0.5,0.1-0.7
		c0.1-0.7,0.2-1.5,0.3-2.2c1.9-9.3,8.9-14.3,17.8-15.8c0.4-0.4,0.9-0.8,1.3-1.2c5.1-4.4,10.3-5.7,17-4.6c13.1,2.1,24.4,6.4,35.9,12
		c-8.6-6.8-16.8-11.5-21.6-14c3.7-3.6,7.9-7.1,10.6-12c1.3-2.4,0.9-4.7-0.9-6.6l0,0c0,0,0,0,0,0c-0.2-0.2-0.4-0.4-0.6-0.6
		c0,0-0.1,0-0.1-0.1c-0.2-0.2-0.4-0.3-0.6-0.5c-0.1-0.1-0.1-0.1-0.2-0.1c-0.2-0.1-0.4-0.3-0.6-0.4c-0.1,0-0.1-0.1-0.2-0.1
		c-0.2-0.2-0.5-0.3-0.8-0.5c0,0-0.1,0-0.1-0.1c-0.3-0.2-0.6-0.4-1-0.5c-0.1,0-0.1-0.1-0.2-0.1c-0.3-0.1-0.6-0.3-0.9-0.4
		c-0.1,0-0.2-0.1-0.3-0.1c-0.3-0.1-0.6-0.2-0.8-0.4c-0.1,0-0.2-0.1-0.3-0.1c-0.4-0.1-0.7-0.3-1.1-0.4c0,0-0.1,0-0.1,0
		c-0.4-0.1-0.9-0.3-1.3-0.4c-0.1,0-0.2-0.1-0.3-0.1c-0.3-0.1-0.7-0.2-1-0.3c-0.1,0-0.3-0.1-0.4-0.1c-0.3-0.1-0.7-0.2-1-0.3
		c-0.1,0-0.3-0.1-0.4-0.1c-0.5-0.1-0.9-0.2-1.4-0.4c0,0-0.1,0-0.1,0c-0.5-0.1-1-0.2-1.6-0.4c-0.1,0-0.3-0.1-0.5-0.1
		c-0.4-0.1-0.8-0.2-1.2-0.2c-0.2,0-0.4-0.1-0.6-0.1c-0.4-0.1-0.8-0.1-1.2-0.2c-0.2,0-0.4-0.1-0.5-0.1c-0.6-0.1-1.2-0.2-1.8-0.3
		C181.2,153.3,90,114.8,97,51.5C71.3,95.2,100.7,139.8,166.5,167.6L166.5,167.6z"/>
	<path class="st0" d="M462.2,332.4c-7.2-0.8-14.4-1.6-21.5-2.3c0.8,9.6,1.5,19.3,2.3,28.9c0.7,9.6,1.5,19.2,2.3,28.9
		c7.4,0.8,14.8,1.6,22.2,2.5c-0.9-9.6-1.7-19.3-2.6-29C463.9,351.8,463,342.1,462.2,332.4L462.2,332.4z"/>
	<path class="st0" d="M414.5,464c2.5,0.2,6.4,0.4,11.6,0.9c5.1,0.5,9,0.9,11.6,1.1c-0.2-2.8-0.6-8.9-1.3-18.6
		c-0.7-9.6-1.6-22.6-2.7-39.1c-7.5-0.7-15-1.4-22.5-2c0.4,6.7,0.8,13.4,1.2,20.1c-3.6-0.2-7.4-0.5-10.9-0.7
		c-0.4-6.7-0.7-13.4-1-20.1c-7.5-0.5-14.9-1-22.4-1.4c0.4,9.6,0.7,19.1,1.1,28.7c0.5,12.8,0.9,22.4,1.2,28.8
		c7.7,0.4,15.4,0.9,23.2,1.5c-0.4-6.9-0.8-13.9-1-20.8c3.6,0.2,7.2,0.5,11,0.7C413.6,450.1,414,457,414.5,464L414.5,464z"/>
	<path class="st0" d="M207.9,355.9c-0.6,9.6-1.2,19.2-1.7,28.8c16.4-1,32.7-2.1,49.1-2.7c-2.8-8.6-4.5-13.4-4.8-14.3
		c-1.8,0.1-10,0.4-24.6,1.3c0.1-2.6,0.2-5.2,0.4-7.8c7.6-0.5,15.2-0.9,22.9-1.2c0.1-4.6,0.2-9.2,0.5-13.8
		c-7.6,0.3-15.1,0.7-22.7,1.2c0-2.3,0.2-4.6,0.3-6.9c2.7-0.1,6.7-0.4,12.1-0.7c5.4-0.3,9.4-0.4,12.2-0.5c1.1-3,2.9-7.9,5.5-14.8
		c-15.8,0.6-31.6,1.5-47.4,2.5C209,336.7,208.5,346.3,207.9,355.9L207.9,355.9z"/>
	<path class="st0" d="M361.9,461c4.7,0.2,8.2,0.3,10.5,0.4c-0.2-5.4-0.5-10.8-0.6-16.1c-1,0-3.5-0.2-7.4-0.3c-3-0.1-5.5-0.2-7.5-0.3
		c-3.2-0.2-5.5-1-6.9-2.2c-1.5-1.3-2.5-3.4-2.9-6.4c-0.4-3.1-0.4-6.1-0.1-9c0.4-2.9,1.2-4.9,2.6-6c1.3-1,3.5-1.5,6.6-1.5
		c1.4,0,3.1,0.1,5.4,0.2c2.7,0.1,4.6,0.2,5.5,0.2c0.8-2,1.6-4.6,2.7-7.9c1.4-4.1,2.2-6.8,2.6-7.9c-6.1-0.2-12.2-0.5-18.2-0.8
		c-4.5-0.1-7.4-0.2-8.6,0c-5.1,0.5-9.3,2-12.7,4.6c-3.1,2.3-5.4,5.4-7,9.4c-1.7,4.4-2.5,9.6-2.3,15.8c0.2,5.9,1.5,10.9,3.8,15.1
		c2.1,3.7,4.9,6.6,8.6,8.6c4.2,2.3,9.2,3.6,15.1,3.8C354.8,460.7,358.3,460.9,361.9,461L361.9,461z"/>
	<path class="st0" d="M378.3,354.1c-0.4-9.5-0.8-19.1-1.1-28.7c-7.1-0.3-14.2-0.6-21.3-0.9c0.2,9.6,0.6,19.1,0.8,28.7
		c0.2,9.5,0.5,19.1,0.8,28.7c7.3,0.3,14.6,0.6,22,0.9C379,373.3,378.6,363.7,378.3,354.1L378.3,354.1z"/>
	<path class="st0" d="M295.2,431.3c-0.1,9.6-0.1,19.1-0.2,28.7c7.6-0.1,15.4-0.2,22.9-0.1c-0.1-9.6-0.1-19.1-0.2-28.7
		c0-9.5-0.1-19.1-0.1-28.7c-7.4-0.1-14.9,0-22.2,0C295.3,412.2,295.3,421.8,295.2,431.3L295.2,431.3z"/>
	<path class="st0" d="M351.7,365.5c-7-0.3-13.8-0.4-20.7-0.5c-0.1-6.8-0.2-13.7-0.3-20.5c-0.1-6.9-0.2-13.7-0.2-20.6
		c-7.1-0.1-14.2-0.2-21.4-0.3v57.3c14.3,0.2,28.5,0.4,42.9,0.8C351.9,376.3,351.8,370.9,351.7,365.5L351.7,365.5z"/>
	<path class="st0" d="M289.7,431.4c0.1-9.5,0.1-19.1,0.2-28.7c-9.4,0.1-18.7,0.3-28.1,0.6c-0.9,3.3-2.3,7.9-3.9,13.9
		c-1.9,6.5-3.2,11.1-4,13.9c-0.5,2.4-1.2,5.3-1.9,9c-0.6-4.1-1-7.5-1.6-10.1c-0.6-2.9-2.4-11.6-5.5-26c-9.4,0.4-18.8,1-28.2,1.6
		c-0.5,9.6-1,19.2-1.4,28.8c-0.5,9.6-1,19.2-1.4,28.8c6.8-0.4,13.6-0.9,20.3-1.3c0.2-7,0.5-14.1,0.8-21.2c0.1-2.3,0.2-6,0.3-11.1
		c1,5.4,2.1,10.4,3.2,15c1.4,6.1,2.7,11.7,4.1,17c1.9-0.1,4.8-0.2,8.6-0.3s6.7-0.2,8.5-0.3c4.6-15.8,6.8-23.5,6.6-23
		c0.8-2.3,1.6-5.5,2.5-9.6c-0.3,5.1-0.5,9-0.5,11.4c-0.1,7-0.3,13.9-0.4,20.9c7.2-0.2,14.4-0.3,21.6-0.4
		C289.5,450.5,289.6,441,289.7,431.4L289.7,431.4z"/>
	<path class="st0" d="M283.4,344.4c0.1-6.8,0.2-13.7,0.3-20.6c-7.1,0.1-14.2,0.3-21.4,0.5c-0.3,9.6-0.5,19.1-0.8,28.7
		c-0.2,9.6-0.5,19.1-0.8,28.7c14.2-0.5,28.5-0.7,42.9-0.9v-16.2c-6.9,0.1-13.7,0.2-20.6,0.2C283.2,358.1,283.3,351.2,283.4,344.4
		L283.4,344.4z"/>
	<path class="st0" d="M437.5,358.5c-0.7-9.6-1.5-19.3-2.1-28.9c-6.1-0.5-12.2-1-18.2-1.6c1,15.5,1.6,25,1.7,28.7
		c-1-2.8-2.1-5.3-3.3-7.5c-3.7-7.3-7.4-14.7-11.1-22.2c-7.4-0.5-14.8-0.9-22.2-1.3c0.4,9.6,0.9,19.2,1.3,28.8
		c0.4,9.6,0.8,19.1,1.3,28.7c6.3,0.4,12.5,0.8,18.8,1.2c-0.6-9.5-1-19.1-1.6-28.6c1.2,3,2.4,5.7,3.6,8c2.5,4.6,6.2,11.8,11.4,21.5
		c7.5,0.7,15.1,1.3,22.6,2C438.9,377.7,438.2,368.1,437.5,358.5L437.5,358.5z"/>
	<path class="st0" d="M145.1,390.7L145.1,390.7C145.1,390.8,145.1,390.8,145.1,390.7z"/>
	<path class="st0" d="M131.9,334.9c-8,1.1-16,2.2-24,3.2c-6,14.4-11.3,26.7-15.6,37c-4.3,10.3-7.9,18.6-10.5,24.8
		c6.8-1.2,13.6-2.3,20.4-3.4c0.3-1,1-2.4,1.8-4.3c0.8-2,1.4-3.4,1.8-4.3c5.7-0.8,11.5-1.6,17.2-2.5c0.2,1,0.5,2.3,1,3.9
		c0.5,2.2,0.8,3.5,0.9,3.9c6.7-1,13.6-1.8,20.3-2.6c-0.2-0.6-1.3-4.8-3.2-12.9C139.6,368.5,136.3,354.2,131.9,334.9L131.9,334.9z
		 M111.4,372.7c3-7.7,5-13.1,6.3-16.3c0.6,3.3,1.6,8.3,2.9,15C117.6,371.9,114.5,372.3,111.4,372.7L111.4,372.7z"/>
	<path class="st0" d="M146.8,469.5c7.8-1,15.6-1.9,23.3-2.7c0.5-6.9,1-13.8,1.5-20.7c0.5-6.9,1-13.8,1.5-20.8
		c4.1-0.4,8.3-0.7,12.4-1.1c0.8-1.9,2-4.7,3.5-8.5c1.6-3.7,2.7-6.5,3.5-8.4c-5.6,0.5-15.5,1.3-29.5,2.8c-12.6,1.4-22.5,2.6-29.6,3.5
		c2.9,10,4.4,15.3,4.5,15.8c4.2-0.5,8.3-1,12.4-1.5c-0.6,7-1.2,13.9-1.7,20.8S147.3,462.6,146.8,469.5L146.8,469.5z"/>
	<path class="st0" d="M98.9,434.8c7-1,14-2.1,21-3.1c0.7-1.5,3.3-7.3,7.7-17.5c-10.9,1.6-21.7,3.2-32.6,4.8c-3.6,0.7-7,2.5-10.2,5.3
		c-2.3,1.9-4.1,3.9-5.5,6.1c-1.6,2.2-2.6,4.7-3.2,7.5c-0.5,2.6-0.8,5.1-0.6,7.4c0.1,2.7,0.8,4.8,1.9,6.4c1,1.6,2.5,2.6,4.4,3.2
		c2.1,0.7,4.6,0.8,7.5,0.3c1.8-0.3,3.5-0.6,5.2-0.9c2.2-0.3,3.9-0.6,5.2-0.8c1.7-0.2,3-0.1,3.7,0.2c0.7,0.4,1,1,1,2.1
		c0,1.4-0.3,2.5-1,3.4c-0.7,0.8-1.8,1.4-3.3,1.9c-0.2,0.1-2,0.4-5.2,0.9c-7.3,1.2-14.6,2.5-21.8,3.9c-0.6,5.1-1.3,10.2-1.8,15.2
		l7.2-1.3c9.6-1.7,19.1-3.3,28.7-4.8c3.2-0.4,6.4-2.1,9.7-5.1c1.2-1,2.3-2.4,3.2-4c1.1-2,2-4.2,2.7-6.7c0.7-2.7,1.1-5.2,1.1-7.6
		c0.1-2.9-0.5-5.2-1.7-6.9c-1-1.6-2.6-2.7-4.6-3.3c-2.1-0.6-4.9-0.8-8.2-0.4c-1.3,0.2-3.1,0.4-5.3,0.7c-2.5,0.4-4.2,0.6-5.2,0.8
		c-1.3,0.2-2.2,0.1-2.7-0.1c-0.6-0.4-0.8-1.2-0.7-2.6c0.2-1.7,0.5-2.9,1-3.7C96.9,435.5,97.7,435,98.9,434.8L98.9,434.8z"/>
	<path class="st0" d="M184.1,357.8c-0.8-2.7-1.5-5-2.4-7c-2.8-6.8-5.6-13.6-8.3-20.6c-7.5,0.8-14.9,1.6-22.3,2.5
		c-0.9,9.7-1.7,19.4-2.6,29.1c-0.9,9.7-1.9,19.3-2.7,29c6.3-0.7,12.7-1.5,19-2.2c0.8-9.6,1.6-19.2,2.3-28.8c0.8,2.9,1.7,5.4,2.6,7.5
		c1.9,4.3,4.7,11,8.6,19.9c7.6-0.7,15.2-1.4,22.7-2c0.5-9.6,1.2-19.2,1.7-28.8c0.6-9.6,1.1-19.2,1.7-28.9c-6.1,0.5-12.1,1-18.1,1.6
		C185,344.5,184.3,354.1,184.1,357.8L184.1,357.8z"/>
	<path class="st0" d="M56.6,392.8c5-1,8.1-1.6,8.9-1.9c5.8-1.4,10.5-3.4,14.4-6.1c3.7-2.5,6.5-5.6,8.6-9.4c2.3-4.2,3.7-9.3,4.1-15.2
		c0.1-3-0.1-5.6-0.7-7.7c-0.5-1.9-1.3-3.4-2.5-4.7c-1.2-1.3-2.8-2.3-4.7-3c-1.9-0.7-4.2-1.1-6.9-1.1c-2.5,0-7.6,0.6-15.5,2
		c-7.1,1.3-14.1,2.6-21.1,3.8c-1.6,10-3.1,20-4.6,29.9c-1.5,10-3.1,19.9-4.6,29.9l0,0l0,0l7.1-1.4c5.3-1,10.6-2.1,15.9-3.1
		C55.4,400.9,56,396.9,56.6,392.8L56.6,392.8z M61,362c3.4-0.6,5.2-0.9,5.3-0.9c1.4-0.1,2.6,0,3.1,0.5c0.8,0.4,1,1.3,1.1,2.5
		c0.1,1.2-0.1,2.7-0.4,4.6c-0.3,1.8-1,3.1-1.7,4.1c-0.8,1-1.9,1.6-3.5,2.1c-0.5,0.1-2.5,0.6-6,1.4C59.8,370,60.4,365.2,61,362
		L61,362z"/>
	<path class="st0" d="M462.2,454.1c-0.2-2.6-0.5-5.2-0.7-7.9c8,1,16.1,2,24.3,3c-0.5-4.6-0.9-9.3-1.3-14c-8-1-16.1-2-24.1-3
		c-0.2-2.3-0.4-4.6-0.6-6.9c2.9,0.4,7.2,0.9,12.9,1.6c5.7,0.7,10,1.2,12.8,1.6c0.9-2.8,2.2-7.5,4-14c-16.8-2.1-33.5-4.1-50.3-5.7
		c0.8,9.6,1.4,19.2,2.1,28.9c0.7,9.6,1.4,19.2,2.1,28.9c17.3,1.7,34.6,3.9,51.9,6.1c-4.2-9.3-6.5-14.5-7-15.4
		C486.3,457.1,477.6,456,462.2,454.1L462.2,454.1z"/>
	<path class="st0" d="M508,339.1c-3.6-1.5-7.8-2.6-12.6-3.3c-2.1-0.3-3.5-0.4-4-0.4c-3.1-0.2-5.9,0-8.3,0.5
		c-4.3,0.9-7.8,2.8-10.1,5.8c-2.3,2.6-3.7,6.1-4.3,10.3c-0.7,4.2-0.6,8.8,0.2,14.1c0.7,4.4,2,8.3,3.8,11.8c1.9,3.9,4.5,7.3,7.8,10.1
		c3.7,3.1,8.2,5.5,13.5,7.1c2.5,0.8,5.9,1.5,10,2c2.4,0.4,4.9,0.5,7.4,0.4c3.2-0.1,5.9-0.6,8.3-1.6c3.4-1.3,6.1-3.5,7.8-6.6
		c2.2-3.8,3.1-8.9,2.7-15.2c-0.5-6.2-1.7-11.8-3.9-16.9c-2.1-4.5-4.8-8.4-8.1-11.5C515.2,343.1,511.8,340.8,508,339.1L508,339.1z
		 M506.9,375.7c-0.3,2.2-0.9,3.8-1.9,4.9c-0.9,0.9-2,1.4-3.3,1.5c-1.2,0.1-2.4-0.2-3.8-1c-1.3-0.8-2.3-1.8-3.2-3.1
		c-1.3-2-2.4-4.8-3-8.3c-0.7-3.5-1-6.8-0.9-9.9c0.1-3,0.7-5.2,1.6-6.7c0.9-1.4,2.2-2.1,3.9-2.2c1.3-0.2,3,0.4,4.6,1.7
		c1.5,1.2,2.8,3,3.7,5.3c1,2.4,1.7,5.3,2,8.7C507.2,370.3,507.3,373.4,506.9,375.7L506.9,375.7z"/>
	<path class="st0" d="M578.6,379.8c-1.4-2-3.3-3.8-5.4-5c-2.4-1.4-5.1-2.5-8.5-3.2c-1.3-0.2-3-0.5-5.1-1c-2.5-0.5-4.2-0.8-5.1-1
		c-1.3-0.3-2.1-0.6-2.7-1c-0.6-0.6-1.1-1.6-1.4-3c-0.2-1.7-0.2-2.8,0.1-3.5c0.2-0.6,0.9-0.8,2-0.6c6.8,1.2,13.7,2.5,20.5,3.8
		c0.2-1.4,1.4-6.7,3.3-16c-10.6-1.9-21.1-3.8-31.7-5.6c-3.4-0.5-6.4,0.2-9,2.1c-1.8,1.2-3.1,2.7-3.9,4.5c-1,1.8-1.3,4-1.2,6.8
		c0.1,2.5,0.5,5,1.2,7.4c0.8,2.8,2,5.3,3.5,7.4c1.5,2,3.3,3.6,5.4,4.9c2.1,1.4,4.8,2.4,7.6,2.9c1.7,0.3,3.4,0.6,5,0.9
		c2.1,0.4,3.8,0.7,5.1,1c1.7,0.4,3,0.8,3.7,1.4c0.8,0.6,1.2,1.4,1.6,2.5c0.4,1.5,0.3,2.6-0.2,3.2c-0.5,0.6-1.5,0.9-2.8,0.9
		c-0.2,0-2-0.3-5-0.8c-7-1.3-14-2.5-20.9-3.6c0.6,5.1,1.2,10.1,1.8,15.2c10.7,1.8,21.4,3.8,32.2,5.9l8.5,0.1
		c0.5-0.2,0.9-0.4,1.4-0.7l0.1-0.1h0c0.4-0.2,0.8-0.5,1.2-0.8c0.9-0.7,1.6-1.7,2.2-3.1c0.6-1.7,0.9-3.8,1-6.2c0-2.6-0.2-5.2-0.8-7.7
		C581.4,384.7,580.3,382,578.6,379.8L578.6,379.8z"/>
	<path class="st0" d="M547.1,481c-0.7-5.4-1.4-10.9-2.1-16.3c-7.5-1.4-14.9-2.7-22.2-3.9c-0.9-7-1.6-14-2.4-21c-0.8-7-1.6-14-2.4-21
		c-7.6-1.1-15.3-2.2-22.9-3.4c0.9,9.7,2,19.4,3,29.1c1,9.7,2,19.4,3,29.1c12.8,2,25.6,4,38.5,6.4l7.1,1.3c0.2,0,0.3,0,0.5,0.1
		C547.1,481.3,547.1,481.2,547.1,481L547.1,481L547.1,481L547.1,481z"/>
	<path class="st0" d="M413.3,134.9c-7.6-3.3-15.1-6.9-22.5-10.5c-1.5,5.9-3.5,11.6-6.2,17.1c2.3,1.1,4.6,2.2,6.9,3.3
		C399.3,142.2,406.7,138.9,413.3,134.9L413.3,134.9z"/>
	<path class="st0" d="M226.4,141.4c-2.6-5.5-4.7-11.2-6.2-17.1c-7.4,3.7-14.9,7.2-22.5,10.5c6.6,4,14,7.3,21.9,9.9
		C221.8,143.7,224.1,142.6,226.4,141.4L226.4,141.4z"/>
	<path class="st0" d="M124.2,224.9c3.8,3.1,8.2,5.8,13,8c3.4,9.1,10,15.8,18.6,20.2c7.1,14.8,22.4,20.6,38.1,22.1
		c5.8,5.7,13.4,7.2,21.5,8.3c6.1,4.9,15,5.8,24.1,3.2c-7.6-0.4-16.4-1.8-21.9-7.2c-8.2-0.8-15.4-4-20.9-10.2
		c-14.8-1-30.3-5.8-36.2-20.7c-8.9-4.1-15.7-10.6-18.4-20.2c-16.4-7-27-18.9-31.6-35.1L91.6,323.4c6.2-0.9,12.4-1.7,18.6-2.5
		L124.2,224.9L124.2,224.9z"/>
	<path class="st0" d="M468.8,228.5c-2.7,9.6-9.5,16.1-18.4,20.2c-5.9,14.9-21.5,19.7-36.2,20.7c-5.5,6.2-12.7,9.4-20.9,10.2
		c-5.6,5.3-14.3,6.8-22,7.2c9.1,2.6,18,1.7,24.1-3.2c8.1-1.1,15.7-2.6,21.5-8.3c15.6-1.5,31-7.3,38.1-22.1
		c8.6-4.4,15.3-11.1,18.6-20.2c4.8-2.3,9.2-5,13-8l13.9,95.4c6.2,0.7,12.4,1.5,18.6,2.3l-18.8-129.3
		C495.8,209.6,485.2,221.5,468.8,228.5L468.8,228.5z"/>
	<path class="st0" d="M439.9,484.4l-4-0.4c-3.8-0.4-7.7-0.8-11.5-1.1c-2.5-0.2-5.1-0.4-7.6-0.6l-14.7-1c-6.9-0.5-13.8-1-20.7-1.3
		l47.3,14.5c-5,5.4-10.2,10.7-15.7,15.9c-20.7,19.7-43.6,36.9-66.8,53.4c-13.6,9.7-27.4,19.2-40.7,29.4
		c-13.3-10.2-27.1-19.6-40.7-29.4c-23.2-16.6-46.1-33.7-66.8-53.4c-5.5-5.2-10.7-10.5-15.7-15.9l45.9-14.1
		c-4.4,0.3-8.8,0.6-13.2,0.9c-14.6,1-28.6,2.2-43.1,3.6c-3,0.3-6.1,0.6-9.1,1l0,0c-3.5,0.4-7,0.8-10.5,1.2
		c9.9,12.6,21,24.7,33.3,36.4c21.4,20.3,44.8,37.9,68.8,55c17,12.2,34.9,24.3,51.2,37.7c16.3-13.4,34.2-25.6,51.2-37.7
		c24-17.1,47.4-34.7,68.8-55c12.5-11.9,23.7-24.2,33.7-37c-5.9-0.7-11.7-1.3-17.6-1.9L439.9,484.4L439.9,484.4z"/>
	<path class="st0" d="M231.4,195.6c-8.1-1.3-11.2,2.2-14.8,5.6c-19.3,2-15.8,20-12.7,26.2c4.1-4.1,10.1-2.2,18.4,3.3
		c1.3,0.9,2.5,1.7,3.7,2.6c0.4,0.2,0.7,0.5,1,0.8c0.3,0.2,0.6,0.4,0.8,0.6c0.3,0.2,0.6,0.5,1,0.7c0.3,0.2,0.5,0.4,0.8,0.6
		c0.3,0.2,0.6,0.5,0.9,0.7c0.2,0.2,0.5,0.4,0.7,0.6c0.3,0.2,0.6,0.5,0.9,0.7c0.2,0.2,0.5,0.4,0.7,0.6c0.3,0.2,0.5,0.5,0.8,0.8
		c0.2,0.2,0.4,0.4,0.6,0.6c0.2,0.2,0.5,0.5,0.8,0.8c0.2,0.2,0.4,0.4,0.6,0.6c0.2,0.2,0.5,0.5,0.7,0.8c0.2,0.2,0.4,0.4,0.5,0.6
		c0.2,0.2,0.4,0.5,0.7,0.8c0.2,0.2,0.3,0.4,0.5,0.6c0.2,0.3,0.4,0.5,0.6,0.8c0.1,0.2,0.3,0.4,0.4,0.6c0.2,0.3,0.4,0.5,0.6,0.8
		c0.1,0.2,0.2,0.3,0.4,0.5c0.2,0.3,0.4,0.6,0.6,0.8c0.1,0.1,0.1,0.2,0.2,0.3c0.7,1.1,1.3,2.1,1.8,3.1c0.1,0.2,0.2,0.3,0.2,0.5
		c0.1,0.3,0.2,0.5,0.4,0.8c0.1,0.2,0.2,0.4,0.3,0.6c0.1,0.2,0.2,0.5,0.3,0.8c0.1,0.2,0.2,0.4,0.2,0.6c0.1,0.2,0.2,0.5,0.3,0.7
		c0.1,0.2,0.1,0.4,0.2,0.6c0.1,0.2,0.2,0.5,0.2,0.7c0.1,0.2,0.1,0.4,0.2,0.6c0.1,0.2,0.1,0.5,0.2,0.7c0.1,0.2,0.1,0.4,0.2,0.6
		c0.1,0.2,0.1,0.5,0.2,0.7c0.1,0.2,0.1,0.4,0.1,0.6c0.1,0.2,0.1,0.5,0.1,0.7c0,0.2,0.1,0.4,0.1,0.6c0,0.2,0.1,0.5,0.1,0.7
		c0,0.2,0.1,0.4,0.1,0.7c0,0.2,0.1,0.5,0.1,0.7c0,0.2,0.1,0.5,0.1,0.7c0,0.2,0,0.5,0.1,0.7c0,0.2,0,0.5,0.1,0.7c0,0.2,0,0.5,0,0.7
		c0,0.2,0,0.5,0,0.7c0,0.2,0,0.4,0,0.7c0,0.2,0,0.5,0,0.7c0,0.2,0,0.4,0,0.6c0,0.2,0,0.5,0,0.7c0,0.2,0,0.4,0,0.6c0,0.3,0,0.5,0,0.8
		c0,0.2,0,0.4,0,0.6c0,0.3,0,0.6,0,0.8c0,0.2,0,0.4,0,0.6c0,0.3,0,0.6-0.1,1c0,0.1,0,0.3,0,0.5c0,0.5-0.1,0.9-0.1,1.4l23.5,20
		c5-24.9-4.6-49.1-27-69.5c3.8,1.2,7.2-0.3,9.2-4.4c36.3,18.8,43.9,43.1,47,87.4c0.5,0,0.9,0,1.4,0c1.1-30.7-3.7-67.3-31.6-86.4
		c0,0-0.1-0.1-0.1-0.1c-0.8-0.6-1.6-1.1-2.5-1.6c0,0-0.1-0.1-0.1-0.1c-1.8-1.1-3.6-2.1-5.5-3c0,0-0.1-0.1-0.1-0.1
		c-0.9-0.4-1.8-0.8-2.7-1.2c-0.2-0.1-0.3-0.1-0.5-0.2c-0.9-0.4-1.7-0.7-2.6-1.1c-0.1-0.1-0.2-0.1-0.4-0.1c-2-0.8-4.2-1.4-6.4-2.1
		c-0.3-0.1-0.5-0.1-0.8-0.2c-0.9-0.2-1.7-0.4-2.6-0.6c-0.3-0.1-0.6-0.1-0.9-0.2c-1-0.2-1.9-0.4-2.9-0.6c-0.2,0-0.4-0.1-0.5-0.1
		c-1.2-0.2-2.4-0.4-3.6-0.6c-0.3,0-0.6-0.1-0.8-0.1c-0.9-0.1-1.9-0.2-2.9-0.4c-0.4,0-0.8-0.1-1.2-0.1c-0.9-0.1-1.8-0.2-2.8-0.2
		c-0.4,0-0.8-0.1-1.2-0.1c-1.3-0.1-2.6-0.2-4-0.2c3.6,3.9,7.4,7.7,8.2,12.8c-8.2-4.7-16.5-6.6-24.7-3.5c-0.4-5.9,2.1-11,12.7-10.9
		c1.7-2.8,4.8-4.6,9.3-4.3c35.5,2.2,58.2,26.2,67.3,15.6C284.1,221.7,265.3,201.1,231.4,195.6L231.4,195.6z"/>
	<path class="st0" d="M364.7,267c0-0.2,0-0.5,0-0.7c0-0.2,0-0.5,0-0.7s0-0.5,0-0.7c0-0.2,0-0.5,0-0.7c0-0.2,0-0.5,0.1-0.7
		s0-0.4,0.1-0.7c0-0.2,0.1-0.5,0.1-0.7c0-0.2,0.1-0.4,0.1-0.6c0-0.2,0.1-0.5,0.1-0.7c0-0.2,0.1-0.4,0.1-0.6c0-0.2,0.1-0.5,0.1-0.7
		c0-0.2,0.1-0.4,0.1-0.6c0-0.2,0.1-0.5,0.2-0.7c0-0.2,0.1-0.4,0.2-0.6c0.1-0.2,0.1-0.5,0.2-0.7c0.1-0.2,0.1-0.4,0.2-0.6
		c0.1-0.2,0.1-0.5,0.2-0.7c0.1-0.2,0.1-0.4,0.2-0.6c0.1-0.2,0.2-0.5,0.3-0.8c0.1-0.2,0.1-0.4,0.2-0.6c0.1-0.3,0.2-0.5,0.3-0.8
		c0.1-0.2,0.2-0.4,0.2-0.5c0.1-0.3,0.2-0.5,0.4-0.8c0.1-0.1,0.1-0.3,0.2-0.4c0.5-1.1,1.2-2.2,1.9-3.2c0.1-0.1,0.1-0.2,0.2-0.3
		c0.2-0.3,0.4-0.6,0.6-0.9c0.1-0.1,0.2-0.3,0.3-0.5c0.2-0.3,0.4-0.5,0.6-0.8c0.1-0.2,0.3-0.4,0.4-0.5c0.2-0.3,0.4-0.5,0.6-0.8
		c0.1-0.2,0.3-0.4,0.5-0.6c0.2-0.3,0.5-0.5,0.7-0.8c0.2-0.2,0.3-0.4,0.5-0.6c0.2-0.3,0.5-0.5,0.7-0.8c0.2-0.2,0.4-0.4,0.5-0.6
		c0.2-0.2,0.5-0.5,0.8-0.8c0.2-0.2,0.4-0.4,0.6-0.6c0.3-0.2,0.5-0.5,0.8-0.8c0.2-0.2,0.4-0.4,0.7-0.6c0.3-0.2,0.6-0.5,0.9-0.8
		c0.2-0.2,0.5-0.4,0.7-0.6c0.3-0.2,0.6-0.5,0.9-0.8c0.2-0.2,0.5-0.4,0.8-0.6c0.3-0.2,0.6-0.5,1-0.8c0.3-0.2,0.5-0.4,0.8-0.6
		c0.3-0.3,0.7-0.5,1-0.8c1.2-0.9,2.4-1.7,3.7-2.6c8.3-5.5,14.3-7.4,18.4-3.3c3.1-6.2,6.5-24.2-12.7-26.2c-3.6-3.3-6.7-6.9-14.8-5.6
		c-34,5.5-52.8,26.1-64.9,23.3c9.2,10.5,31.9-13.4,67.4-15.6c4.4-0.3,7.6,1.5,9.3,4.3c10.5-0.1,13,4.9,12.7,10.9
		c-8.2-3.1-16.5-1.2-24.7,3.5c0.8-5.1,4.6-8.9,8.2-12.8c-1.4,0-2.7,0.1-4,0.2c-0.4,0-0.8,0.1-1.2,0.1c-0.9,0.1-1.9,0.1-2.8,0.2
		c-0.4,0-0.8,0.1-1.2,0.1c-1,0.1-1.9,0.2-2.9,0.4c-0.3,0-0.6,0.1-0.8,0.1c-1.2,0.2-2.4,0.4-3.6,0.6c-0.2,0-0.4,0.1-0.5,0.1
		c-1,0.2-2,0.4-2.9,0.6c-0.3,0.1-0.6,0.1-0.9,0.2c-0.9,0.2-1.7,0.4-2.6,0.6c-0.3,0.1-0.5,0.1-0.8,0.2c-2.2,0.6-4.3,1.3-6.4,2.1
		c-0.1,0.1-0.3,0.1-0.4,0.1c-0.9,0.3-1.8,0.7-2.6,1.1c-0.2,0.1-0.3,0.1-0.5,0.2c-0.9,0.4-1.8,0.8-2.7,1.2c0,0-0.1,0.1-0.1,0.1
		c-1.9,0.9-3.8,2-5.5,3c0,0-0.1,0.1-0.1,0.1c-0.8,0.5-1.7,1.1-2.5,1.6c0,0-0.1,0.1-0.1,0.1c-2.5,1.7-4.9,3.6-7,5.6l0,0l0,0
		c-21.6,20.1-25.5,52.8-24.5,80.7c0.5,0,0.9,0,1.4,0c3-44.3,10.7-68.5,47-87.3c2,4.1,5.4,5.6,9.2,4.4c-22.4,20.5-32,44.6-27,69.5
		l11.8-10l0,0l11.8-10c0-0.5-0.1-0.9-0.1-1.4c0-0.1,0-0.3,0-0.5c0-0.3,0-0.6-0.1-1c0-0.2,0-0.4,0-0.6c0-0.3,0-0.6,0-0.8
		c0-0.2,0-0.4,0-0.6c0-0.3,0-0.5,0-0.8c0-0.2,0-0.4,0-0.6c0-0.2,0-0.5,0-0.7c0-0.2,0-0.4,0-0.7C364.6,267.4,364.6,267.2,364.7,267
		L364.7,267z"/>
</g>
<path class="st0" d="M250.6,505c-0.8,2.3-1.7,5.1-2.8,8.4c-0.3,0.8-0.7,2-1.1,3.6c-0.2-1.7-0.4-2.6-0.4-2.8c0,0-0.1-0.6-0.3-1.7
	c-0.2-1.1-0.4-2.7-0.8-4.8c-0.3-1.7-0.5-3.2-0.7-4.5c-0.2-1.3-0.4-2.4-0.5-3.3c-3.6,0.2-7.1,0.4-10.6,0.5c0.3,1.5,0.6,3.3,1,5.3
	c0.4,2,0.9,4.4,1.4,7c0.6,3,1.1,5.5,1.6,7.5c0.5,2,0.8,3.6,1.1,4.8c4.5-0.2,8.9-0.4,13.3-0.6c0.6-1.3,1.2-3,2.1-5.1s1.9-4.6,3.1-7.5
	c1.1-2.7,2.1-5.1,2.9-7.2s1.5-3.9,2.1-5.3c-3.2,0.1-6.4,0.2-9.6,0.4C252,500.9,251.3,502.7,250.6,505L250.6,505z"/>
<path class="st0" d="M274.2,505.8c3.1-0.1,6.2-0.1,9.3-0.2c0.1-0.3,0.5-1,1-2.2c0.5-1.2,1.1-2.8,2-4.9c-4.8,0.1-9.6,0.1-14.4,0.3
	c-1.6,0-3,0.6-4.5,1.6c-0.9,0.7-1.7,1.4-2.3,2.3c-0.6,0.9-1,1.9-1.2,3c-0.2,1.1-0.2,2.1-0.1,3.1c0.1,1.1,0.5,2.1,1,2.9
	c0.5,0.7,1.2,1.3,2,1.7c0.9,0.4,2.1,0.6,3.4,0.6c0.8,0,1.5,0,2.3-0.1c1,0,1.7-0.1,2.3-0.1c0.8,0,1.3,0.1,1.6,0.3
	c0.3,0.2,0.5,0.5,0.5,1c0,0.6-0.1,1.1-0.4,1.4c-0.3,0.3-0.8,0.5-1.4,0.6c-0.1,0-0.9,0.1-2.4,0.1c-3.2,0.1-6.4,0.2-9.6,0.3
	c-0.1,1.1-0.2,2.1-0.2,3.2s-0.1,2.1-0.2,3.2c5.3-0.2,10.6-0.4,16-0.4c1.4,0,2.9-0.5,4.3-1.6c0.5-0.4,0.9-0.9,1.3-1.5
	c0.5-0.8,0.8-1.7,1-2.7c0.2-1.1,0.3-2.2,0.3-3.2c-0.1-1.2-0.4-2.3-1-3.1c-0.5-0.7-1.2-1.3-2.2-1.7s-2.2-0.6-3.7-0.6
	c-0.6,0-1.4,0-2.3,0c-1.1,0-1.9,0-2.3,0.1c-0.6,0-1-0.1-1.2-0.2c-0.3-0.2-0.4-0.6-0.4-1.2c0-0.7,0.1-1.2,0.4-1.5
	C273.4,506,273.7,505.8,274.2,505.8L274.2,505.8z"/>
<path class="st0" d="M312.9,514.3c0,1.5,0,3,0.1,4.5s0,3,0.1,4.5c3.3,0,6.6,0.1,9.9,0.1c-0.1-4.1-0.3-8.2-0.4-12.4
	s-0.3-8.2-0.4-12.4c-4.2,0-8.4-0.1-12.6-0.1c-0.4,1.4-0.9,3.4-1.6,5.9c-0.7,2.8-1.3,4.7-1.6,5.9c-0.2,1-0.5,2.3-0.8,3.8
	c-0.3-1.8-0.6-3.2-0.9-4.4c-0.2-0.6-0.5-1.9-1-3.8c-0.5-1.9-1.1-4.4-1.9-7.5c-4.2,0-8.5,0-12.7,0.1c-0.1,4.1-0.2,8.2-0.3,12.4
	c-0.1,4.1-0.2,8.3-0.4,12.4c3.1,0,6.2-0.1,9.3-0.1c0-1.5,0-3,0-4.5c0-1.5,0-3,0.1-4.6c0-1,0-2.6-0.1-4.8c0.3,1.2,0.6,2.3,0.8,3.4
	c0.3,1.1,0.6,2.1,0.8,3.1c0.4,1.3,0.7,2.6,1.1,3.8c0.4,1.2,0.7,2.4,1,3.5c0.9,0,2.2,0,4,0c1.7,0,3,0,3.9,0c0.9-3.4,1.6-5.9,2-7.5
	c0.4-1.6,0.6-2.4,0.6-2.3c0.2-1,0.6-2.4,1-4.1C312.9,511.6,312.9,513.2,312.9,514.3L312.9,514.3z"/>
<path class="st0" d="M339.9,518.7c2.6-0.1,4.7-0.5,6.3-1.4c1.5-0.8,2.6-1.9,3.2-3.3c0.4-0.8,0.6-1.8,0.6-2.8c0.1-1,0.1-2.2-0.1-3.4
	c-0.2-1.3-0.6-2.4-1-3.4c-0.4-0.9-1-1.6-1.7-2.2c-0.7-0.7-1.5-1.2-2.5-1.7c-1-0.5-2.1-0.8-3.4-1.1c-1.2-0.2-3.6-0.4-7.1-0.5
	c-3.2-0.1-6.4-0.1-9.6-0.2c0.2,4.1,0.3,8.3,0.5,12.4c0.2,4.1,0.3,8.2,0.5,12.4c3.5,0.1,7,0.1,10.6,0.2c-0.1-1.7-0.2-3.4-0.3-5
	C338.1,518.7,339.4,518.7,339.9,518.7L339.9,518.7z M335.4,511.7c-0.1-2.6-0.3-4.6-0.4-6c1.6,0.1,2.4,0.1,2.5,0.1
	c0.7,0.1,1.2,0.2,1.5,0.5s0.6,0.6,0.7,1.2c0.1,0.5,0.2,1.2,0.2,2c0,0.7-0.1,1.3-0.4,1.6c-0.3,0.3-0.8,0.6-1.5,0.6
	C337.9,511.7,337,511.7,335.4,511.7L335.4,511.7z"/>
<path class="st0" d="M354.1,524.2c7.9,0.3,15.7,0.7,23.6,1.2c-1-2-1.8-3.5-2.4-4.5c-0.6-1.1-0.9-1.7-1-1.9c-0.9,0-4.8-0.3-11.8-0.6
	c-0.1-1.1-0.3-2.2-0.4-3.4c3.6,0.2,7.3,0.4,10.9,0.6c-0.2-2-0.5-4-0.8-6c-3.6-0.2-7.2-0.4-10.8-0.5c-0.1-1-0.2-2-0.3-3
	c1.3,0.1,3.2,0.2,5.8,0.3s4.5,0.2,5.8,0.3c0.2-0.6,0.4-1.5,0.6-2.5c0.3-1,0.6-2.3,1-3.7c-7.5-0.4-15-0.8-22.5-1.1
	c0.4,4.1,0.8,8.3,1.1,12.4C353.4,516,353.8,520.1,354.1,524.2L354.1,524.2z"/>
</svg>
