<svg id="Calque_1" data-name="Calque 1" xmlns="http://www.w3.org/2000/svg" viewBox="0 0 1200 400"><defs><style>.cls-1{fill:none;}.cls-2{fill:#cab677;}</style></defs><rect class="cls-1" width="1200" height="400"/><path class="cls-2" d="M591.36,244.94H542.43l-6.3,21.21H495.39l48.51-147h45.78l48.51,147H597.66Zm-9.66-32.35-14.91-50-14.7,50Z"/><path class="cls-2" d="M840.83,266.15H803.45V187l-35.7,59H764l-35.49-58.81v79h-37.6v-147h37.6l37.38,62.79,37.59-62.79h37.38Z"/><path class="cls-2" d="M989.5,244.94H940.56l-6.3,21.21H893.52l48.51-147h45.79l48.51,147H995.8Zm-9.67-32.35-14.91-50-14.69,50Z"/><path class="cls-2" d="M494.14,317.12l5.43-3.15a5.77,5.77,0,0,0,5.79,3.82c3,0,3.74-1.18,3.74-2.24,0-1.7-1.57-2.36-5.71-3.51s-8.11-3.11-8.11-8.39,4.49-8.38,9.25-8.38a10.7,10.7,0,0,1,10.09,6.22l-5.32,3.11c-.95-2-2.25-3.19-4.77-3.19-2,0-2.95,1-2.95,2.09s.67,2.12,5,3.42,8.86,2.72,8.86,8.55c0,5.32-4.25,8.47-10.24,8.47C499.37,323.94,495.67,321.18,494.14,317.12Z"/><path class="cls-2" d="M546.31,305.27a9.47,9.47,0,0,1-9.65,9.45h-4.13v8.66h-6.3V295.82h10.43A9.47,9.47,0,0,1,546.31,305.27Zm-6.3,0a3.37,3.37,0,0,0-3.35-3.55h-4.13v7.09h4.13A3.37,3.37,0,0,0,540,305.27Z"/><path class="cls-2" d="M556,309.6a14.34,14.34,0,1,1,14.34,14.34A14.21,14.21,0,0,1,556,309.6Zm22.37,0a8,8,0,1,0-8,8.19A7.84,7.84,0,0,0,578.32,309.6Z"/><path class="cls-2" d="M605.33,314.33h-3v9.05H596V295.82h11a9.42,9.42,0,0,1,9.45,9.45,9.08,9.08,0,0,1-5.08,8l5.87,10.12h-6.77Zm-3-5.52h4.73a3.57,3.57,0,0,0,0-7.09h-4.73Z"/><path class="cls-2" d="M646,301.88H639v21.5h-6.3v-21.5h-7.09v-6.06H646Z"/><path class="cls-2" d="M654.5,317.12l5.43-3.15a5.77,5.77,0,0,0,5.79,3.82c3,0,3.74-1.18,3.74-2.24,0-1.7-1.57-2.36-5.71-3.51s-8.11-3.11-8.11-8.39,4.49-8.38,9.25-8.38A10.7,10.7,0,0,1,675,301.49l-5.32,3.11a4.82,4.82,0,0,0-4.77-3.19c-2,0-2.95,1-2.95,2.09s.67,2.12,5,3.42,8.86,2.72,8.86,8.55c0,5.32-4.25,8.47-10.23,8.47C659.74,323.94,656,321.18,654.5,317.12Z"/><path class="cls-2" d="M732.07,323.38h-6.3v-16l-7.13,11.69h-.71l-7.13-11.69v16h-6.3V295.82h6.3l7.48,12.25,7.49-12.25h6.3Z"/><path class="cls-2" d="M760.81,319.05H750.57l-1.38,4.33H742.3l9.37-27.56h8l9.38,27.56h-6.9Zm-1.89-5.91L755.69,303l-3.23,10.12Z"/><path class="cls-2" d="M801,295.82v27.56h-4.73l-10.63-15v15H779.3V295.82H784l10.64,15v-15Z"/><path class="cls-2" d="M829.7,319.05H819.47l-1.38,4.33h-6.9l9.38-27.56h8L838,323.38h-6.9Zm-1.89-5.91L824.58,303l-3.22,10.12Z"/><path class="cls-2" d="M874.51,310.39c0,8.43-5.86,13.55-13.58,13.55-8.67,0-14.89-6.38-14.89-14.3a14.29,14.29,0,0,1,14.45-14.37,14.1,14.1,0,0,1,12,6.3l-5.35,3.07a8.28,8.28,0,0,0-14.85,5c0,4.69,3.31,8.11,8.67,8.11,3.66,0,6.06-1.61,7-4.25h-7.36V308h13.82Z"/><path class="cls-2" d="M903.25,317.32v6.06H885.92V295.82h17.13v6.06H892.22v4.57h9.85v6h-9.85v4.88Z"/><path class="cls-2" d="M942.23,323.38h-6.3v-16l-7.13,11.69h-.71L921,307.36v16h-6.31V295.82H921l7.48,12.25,7.48-12.25h6.3Z"/><path class="cls-2" d="M972.15,317.32v6.06H954.82V295.82H972v6.06H961.13v4.57H971v6h-9.84v4.88Z"/><path class="cls-2" d="M1005.22,295.82v27.56h-4.72l-10.63-15v15h-6.31V295.82h4.73l10.63,15v-15Z"/><path class="cls-2" d="M1036.33,301.88h-7.09v21.5h-6.3v-21.5h-7.09v-6.06h20.48Z"/><path class="cls-2" d="M164.14,323.94,307.23,76.1,450.31,323.94ZM184,312.45H430.42L307.23,99.07Z"/><path class="cls-2" d="M212.78,295.85l94.45-163.58,94.44,163.58Zm19.9-11.48h149.1L307.23,155.24Z"/><path class="cls-2" d="M261.42,267.77l45.81-79.33L353,267.77Zm19.9-11.49h51.82l-25.91-44.87Z"/></svg>