<svg xmlns="http://www.w3.org/2000/svg" viewBox="0 0 792 612"><defs><style>.cls-1{fill:none;}.cls-2{fill:#00a98f;}.cls-3{fill:#001e45;}</style></defs><title>Uniti</title><g id="Logo_Vertical" data-name="Logo Vertical"><rect class="cls-1" width="792" height="612"/><path class="cls-2" d="M182.25,464.05V375.66H208V462c0,12.76,6.75,22.33,24.39,22.33s24.4-9.57,24.4-22.33V375.66h25.9v88.39c0,28.33-21.4,45.6-50.3,45.6C203.64,509.65,182.25,492.38,182.25,464.05Z"/><path class="cls-2" d="M407.82,375.66V507h-19.7l-56.3-80.32V507h-25.9V375.66h19.71l56.29,80.13V375.66Z"/><path class="cls-2" d="M458.12,375.66V507h-25.9V375.66Z"/><path class="cls-2" d="M569.4,400.43H533.93V507H508V400.43H472.75V375.66H569.4Z"/><path class="cls-2" d="M609.75,375.66V507h-25.9V375.66Z"/><polygon class="cls-2" points="396 281.91 361.29 266.82 361.29 127.51 325.42 123.98 325.42 290.97 396 328.67 396 281.91"/><polygon class="cls-2" points="312.65 245.68 196.78 195.32 209.46 229.04 312.65 284.15 312.65 245.68"/><polygon class="cls-2" points="312.65 189.06 145.34 142.99 155.46 169.91 312.65 231.34 312.65 189.06"/><polygon class="cls-2" points="312.65 122.82 100.4 102.35 109.5 126.97 312.65 175.6 312.65 122.82"/><polygon class="cls-3" points="396 281.91 430.71 266.82 430.71 127.51 466.58 123.98 466.58 290.97 396 328.67 396 281.91"/><polygon class="cls-3" points="479.35 245.68 595.22 195.32 582.54 229.04 479.35 284.15 479.35 245.68"/><polygon class="cls-3" points="479.35 189.06 646.66 142.99 636.54 169.91 479.35 231.34 479.35 189.06"/><polygon class="cls-3" points="479.35 122.82 691.6 102.35 682.5 126.97 479.35 175.6 479.35 122.82"/></g></svg>