<?xml version="1.0" encoding="UTF-8"?>
<svg id="Layer_1" data-name="Layer 1" xmlns="http://www.w3.org/2000/svg" viewBox="0 0 864 156.8809">
  <path id="fullLogo" d="M59.0932,128.2883c0,20.3975-8.0065,28.5927-29.164,28.5927h-.7626c-21.1601,0-29.1666-8.0065-29.1666-28.5927V28.594C0,8.1965,8.1978,0,29.1666,0h.38c20.9688,0,28.9753,8.0078,28.9753,28.594v15.059l-23.0654,.954V26.6886c0-5.9098-2.8593-7.8177-5.9098-7.8177h-.38c-2.8593,0-6.1011,1.7166-6.1011,7.8177v103.5049c0,6.1011,3.2419,7.8152,6.1011,7.8152h.7626c3.048,0,6.0986-1.714,6.0986-7.8152v-18.6809l23.0654,.954v15.8216Z"/>
  <path id="fullLogo-2" data-name="fullLogo" d="M134.189,1.9066V154.9756h-23.0654V88.4472h-16.393v66.5284h-23.0654V1.9066h23.0654V70.149h16.393V1.9066h23.0654Z"/>
  <path id="fullLogo-3" data-name="fullLogo" d="M188.3186,127.5256h-17.1582l-2.2853,27.45h-25.3534L164.2992,1.9066h30.8806l20.7775,153.069h-25.3534l-2.2853-27.45Zm-1.5253-18.2983l-5.3385-62.9064-1.7166-19.6323-1.714,19.6323-5.3385,62.9064h14.1076Z"/>
  <path id="fullLogo-4" data-name="fullLogo" d="M289.5305,101.4096v24.9733c0,20.3949-8.0065,28.5927-30.3093,28.5927h-33.9312V1.9066h31.8345c22.1115,0,30.118,8.0065,30.118,28.5927v19.8261c0,12.5797-3.0506,20.5862-10.6744,24.9708,9.1491,4.0019,12.9624,12.1997,12.9624,26.1134ZM248.3555,20.2075v47.8449h8.7691c4.1932,0,7.0525-1.7166,7.0525-7.8152V28.0226c0-6.1011-2.8593-7.8152-7.0525-7.8152h-8.7691Zm18.1095,73.7696c0-6.1011-3.0506-7.6264-7.2438-7.6264h-10.8657v50.3241h10.8657c4.1932,0,7.2438-1.714,7.2438-7.6238v-35.0738Z"/>
  <path id="fullLogo-5" data-name="fullLogo" d="M356.2346,136.6747v18.3009h-52.8008V1.9066h51.8494V20.2075h-28.784v46.5109h24.9708v18.2983h-24.9708v51.6581h29.7353Z"/>
  <path id="fullLogo-6" data-name="fullLogo" d="M430.3791,154.9756h-22.8741l-.954-54.5174c-.1887-7.2438-3.4306-9.1517-8.3865-9.1517h-7.0525v63.6691h-23.0654V1.9066h31.8345c22.1115,0,30.118,8.0065,30.118,28.5927v24.9708c0,13.345-3.6219,21.5402-12.1997,25.736,8.7665,3.8106,11.4371,12.5797,11.6284,28.0213l.9514,45.7483ZM391.112,20.2075v52.8008h8.7691c4.1932,0,7.0525-1.7166,7.0525-7.6238V28.0226c0-6.1011-2.8593-7.8152-7.0525-7.8152h-8.7691Z"/>
  <path id="fullLogo-7" data-name="fullLogo" d="M501.6694,20.2075h-20.5888V154.9756h-23.0654V20.2075h-20.5862V1.9066h64.2404V20.2075Z"/>
  <path id="fullLogo-8" data-name="fullLogo" d="M563.2315,32.5959V126.3829c0,20.3949-8.0065,28.5927-24.0168,28.5927h-24.0194V4.0032h24.0194c16.0103,0,24.0168,8.0065,24.0168,28.5927Zm-7.6238,0c0-13.5337-4.1932-22.1115-16.393-22.1115h-16.3955V148.4944h16.3955c12.3884,0,16.393-8.5778,16.393-22.1115V32.5959Z"/>
  <path id="fullLogo-9" data-name="fullLogo" d="M630.5148,148.4944v6.4812h-43.8429V4.0032h42.889v6.4812h-35.2651v62.3325h31.4545v6.4812h-31.4545v69.1963h36.2191Z"/>
  <path id="fullLogo-10" data-name="fullLogo" d="M692.6508,112.0866v16.2016c0,20.5862-8.1952,28.5927-23.8281,28.5927h-1.5253c-15.439,0-23.6368-8.1952-23.6368-28.5927v-10.8657l7.6264-.5713v11.2458c0,13.5337,4.3846,21.7315,16.0103,21.7315h1.5253c11.6284,0,16.0129-8.1978,16.0129-21.7315v-15.439c0-5.1472-1.5253-11.057-4.5759-14.8703l-25.7334-32.2146c-6.6699-8.1952-10.1031-13.1511-10.1031-25.3508v-9.5317c0-20.3975,8.3891-28.594,23.6368-28.594h.3826c15.439,0,23.6368,8.0078,23.6368,28.594v9.9118l-7.6238,.5713v-10.2918c0-13.5337-4.1958-21.7315-16.0129-21.7315h-.3826c-11.2458,0-16.0103,8.0065-16.0103,21.7315v8.7665c0,6.2925,1.334,12.011,4.7646,16.3955l25.9247,32.2146c6.4812,8.1952,9.9118,13.1511,9.9118,23.8281Z"/>
  <path id="fullLogo-11" data-name="fullLogo" d="M720.6644,4.0032V154.9756h-7.6238V4.0032h7.6238Z"/>
  <path id="fullLogo-12" data-name="fullLogo" d="M791.3834,154.9756h-5.7185l-1.334-14.6789c-3.8132,9.9118-10.8657,16.5843-20.2062,16.5843h-.7626c-11.8197,0-19.2522-6.6725-19.2522-27.0674V30.6906c0-20.3975,8.0039-28.594,23.2542-28.594h.3826c15.439,0,23.2542,8.0078,23.2542,28.594v14.4876l-7.6238,.7626v-15.059c0-13.5337-4.0045-21.7315-15.6303-21.7315h-.3826c-11.4371,0-15.439,8.0065-15.439,21.7315V127.7169c0,14.105,2.4767,22.1115,14.2963,22.1115h.5713c12.391,0,16.9643-17.5382,16.9643-22.6828v-42.509h-14.4851v-6.4812h22.1115v76.8202Z"/>
  <path id="fullLogo-13" data-name="fullLogo" d="M864,4.0032V154.9756h-6.8612l-33.3598-114.7533-4.1932-15.4416,.5713,15.4416,.5713,114.7533h-7.6238V4.0032h6.8612l33.5511,116.4699,3.8106,13.9137-.38-13.9137-.7626-116.4699h7.8152Z"/>
</svg>