<svg xmlns="http://www.w3.org/2000/svg" viewBox="0 0 2000 794.48"><defs><style>.cls-1{fill:#101821;}</style></defs><g id="FH"><polygon class="cls-1" points="283.95 273.77 375.93 365.75 375.93 138.85 185 329.78 283.95 428.73 283.95 273.77"/><polygon class="cls-1" points="302.51 318.58 471.03 487.11 302.51 655.63 302.51 318.58"/><path class="cls-1" d="M680,467.53c0,28.76-11.29,40.32-41.12,40.32h-1.07c-29.84,0-41.13-11.29-41.13-40.32V327c0-28.77,11.56-40.32,41.13-40.32h.53c29.57,0,40.86,11.29,40.86,40.32v21.23l-32.53,1.34V324.27c0-8.33-4-11-8.33-11h-.53c-4,0-8.61,2.42-8.61,11v146c0,8.6,4.57,11,8.61,11h1.07c4.3,0,8.6-2.42,8.6-11V443.87L680,445.22Z"/><path class="cls-1" d="M785.93,289.33V505.16H753.41V411.35H730.29v93.81H697.77V289.33h32.52v96.22h23.12V289.33Z"/><path class="cls-1" d="M862.26,466.45h-24.2l-3.22,38.71H799.09l29.3-215.83h43.54l29.3,215.83H865.48Zm-2.15-25.8L852.58,352l-2.42-27.68L847.74,352l-7.53,88.7Z"/><path class="cls-1" d="M1005,429.63v35.21c0,28.76-11.29,40.32-42.74,40.32H914.39V289.33h44.89c31.18,0,42.46,11.28,42.46,40.31v28c0,17.74-4.3,29-15,35.21C999.59,398.45,1005,410,1005,429.63Zm-58.06-114.5v67.46h12.37c5.91,0,9.94-2.42,9.94-11V326.15c0-8.6-4-11-9.94-11Zm25.54,104c0-8.6-4.3-10.75-10.22-10.75H946.91v71h15.32c5.92,0,10.22-2.41,10.22-10.75Z"/><path class="cls-1" d="M1099,479.35v25.81h-74.45V289.33h73.11v25.8H1057.1v65.58h35.21v25.8H1057.1v72.84Z"/><path class="cls-1" d="M1203.57,505.16h-32.25L1170,428.29c-.27-10.22-4.84-12.91-11.83-12.91h-9.94v89.78h-32.53V289.33h44.89c31.18,0,42.47,11.28,42.47,40.31v35.21c0,18.82-5.11,30.37-17.2,36.29,12.36,5.37,16.12,17.74,16.39,39.51Zm-55.36-190v74.45h12.36c5.91,0,9.94-2.42,9.94-10.75V326.15c0-8.6-4-11-9.94-11Z"/><path class="cls-1" d="M1304.1,315.13h-29v190h-32.53v-190h-29v-25.8h90.59Z"/><path class="cls-1" d="M1390.9,332.6V464.84c0,28.76-11.29,40.32-33.86,40.32h-33.87V292.28H1357C1379.61,292.28,1390.9,303.57,1390.9,332.6Zm-10.75,0c0-19.08-5.91-31.18-23.11-31.18h-23.12V496H1357c17.47,0,23.11-12.09,23.11-31.18Z"/><path class="cls-1" d="M1485.77,496v9.14H1424V292.28h60.48v9.14H1434.7v87.89h44.36v9.14H1434.7V496Z"/><path class="cls-1" d="M1573.39,444.68v22.85c0,29-11.56,40.32-33.6,40.32h-2.15c-21.77,0-33.33-11.56-33.33-40.32V452.21l10.75-.81v15.86c0,19.08,6.19,30.64,22.58,30.64h2.15c16.4,0,22.58-11.56,22.58-30.64V445.49c0-7.26-2.15-15.59-6.45-21l-36.29-45.42c-9.4-11.56-14.24-18.55-14.24-35.75V329.91c0-28.76,11.83-40.32,33.33-40.32h.54c21.76,0,33.32,11.29,33.32,40.32v14l-10.75.8V330.18c0-19.08-5.91-30.64-22.57-30.64h-.54c-15.86,0-22.58,11.29-22.58,30.64v12.36c0,8.88,1.88,16.94,6.72,23.12l36.55,45.43C1568.55,422.64,1573.39,429.63,1573.39,444.68Z"/><path class="cls-1" d="M1612.89,292.28V505.16h-10.75V292.28Z"/><path class="cls-1" d="M1712.61,505.16h-8.07l-1.88-20.7c-5.37,14-15.32,23.39-28.49,23.39h-1.07c-16.67,0-27.15-9.41-27.15-38.17V329.91c0-28.76,11.29-40.32,32.79-40.32h.54c21.77,0,32.79,11.29,32.79,40.32v20.43l-10.75,1.08V330.18c0-19.08-5.65-30.64-22-30.64h-.54c-16.13,0-21.77,11.29-21.77,30.64V466.72c0,19.89,3.49,31.18,20.16,31.18h.8c17.48,0,23.92-24.73,23.92-32V406h-20.42v-9.14h31.18Z"/><path class="cls-1" d="M1815,292.28V505.16h-9.67l-47-161.81-5.92-21.77.81,21.77.8,161.81h-10.74V292.28h9.67l47.31,164.23,5.37,19.62-.53-19.62L1804,292.28Z"/></g></svg>