<svg xmlns="http://www.w3.org/2000/svg" viewBox="0 0 2000 1298"><defs><style>.cls-1{fill:#fff;}</style></defs><g id="FH"><polygon class="cls-1" points="945.63 348.93 1044.41 447.71 1044.41 204.05 839.37 409.08 945.63 515.34 945.63 348.93"/><polygon class="cls-1" points="965.56 397.05 1146.53 578.03 965.56 759 965.56 397.05"/><path class="cls-1" d="M413,1048.94c0,32.11-12.61,45-45.91,45h-1.2c-33.31,0-45.91-12.6-45.91-45V892c0-32.11,12.9-45,45.91-45h.6c33,0,45.61,12.6,45.61,45v23.7l-36.31,1.5V889c0-9.3-4.5-12.31-9.3-12.31h-.6c-4.5,0-9.6,2.7-9.6,12.31v162.92c0,9.61,5.1,12.3,9.6,12.3h1.2c4.8,0,9.6-2.69,9.6-12.3v-29.4L413,1024Z"/><path class="cls-1" d="M531.22,850V1091h-36.3V986.23H469.11V1091h-36.3V850h36.3V957.43h25.81V850Z"/><path class="cls-1" d="M616.43,1047.74h-27l-3.6,43.21H545.91L578.62,850h48.61L659.93,1091H620Zm-2.4-28.8-8.41-99-2.7-30.9-2.7,30.9-8.4,99Z"/><path class="cls-1" d="M775.74,1006.63v39.31c0,32.11-12.6,45-47.71,45H674.62V850h50.11c34.81,0,47.41,12.6,47.41,45v31.2c0,19.81-4.8,32.41-16.8,39.31C769.74,971.83,775.74,984.73,775.74,1006.63ZM710.93,878.82v75.31h13.8c6.6,0,11.1-2.7,11.1-12.3V891.12c0-9.61-4.5-12.3-11.1-12.3Zm28.51,116.11c0-9.6-4.81-12-11.41-12h-17.1v79.21H728c6.6,0,11.41-2.69,11.41-12Z"/><path class="cls-1" d="M880.74,1062.14V1091H797.63V850h81.61v28.81H833.93V952h39.31v28.8H833.93v81.31Z"/><path class="cls-1" d="M997.45,1091h-36l-1.5-85.81c-.3-11.41-5.4-14.41-13.2-14.41h-11.1V1091H899.33V850h50.11c34.81,0,47.41,12.6,47.41,45v39.3c0,21-5.7,33.91-19.2,40.51,13.8,6,18,19.8,18.3,44.11ZM935.64,878.82v83.11h13.8c6.6,0,11.1-2.7,11.1-12V891.12c0-9.61-4.5-12.3-11.1-12.3Z"/><path class="cls-1" d="M1109.66,878.82h-32.4V1091H1041V878.82h-32.4V850h101.11Z"/><path class="cls-1" d="M1206.57,898.32v147.62c0,32.11-12.6,45-37.81,45H1131V853.31h37.8C1194,853.31,1206.57,865.91,1206.57,898.32Zm-12,0c0-21.31-6.6-34.81-25.81-34.81H1143v217.24h25.8c19.5,0,25.81-13.5,25.81-34.81Z"/><path class="cls-1" d="M1312.48,1080.75V1091h-69V853.31H1311v10.2h-55.51v98.12H1305v10.2h-49.51v108.92Z"/><path class="cls-1" d="M1410.28,1023.44v25.5c0,32.41-12.9,45-37.5,45h-2.4c-24.31,0-37.21-12.9-37.21-45v-17.1l12-.9v17.7c0,21.3,6.91,34.21,25.21,34.21h2.4c18.3,0,25.2-12.91,25.2-34.21v-24.3c0-8.1-2.4-17.4-7.2-23.41l-40.51-50.71c-10.5-12.9-15.9-20.7-15.9-39.9v-15c0-32.11,13.21-45,37.21-45h.6c24.3,0,37.2,12.6,37.2,45v15.6l-12,.9v-16.2c0-21.3-6.6-34.21-25.2-34.21h-.6c-17.71,0-25.21,12.6-25.21,34.21v13.8c0,9.9,2.1,18.9,7.5,25.81l40.81,50.7C1404.88,998.83,1410.28,1006.63,1410.28,1023.44Z"/><path class="cls-1" d="M1454.38,853.31V1091h-12V853.31Z"/><path class="cls-1" d="M1565.7,1091h-9l-2.1-23.1c-6,15.6-17.1,26.1-31.8,26.1h-1.2c-18.61,0-30.31-10.5-30.31-42.61v-156c0-32.11,12.6-45,36.61-45h.6c24.3,0,36.6,12.6,36.6,45v22.8l-12,1.2v-23.7c0-21.3-6.3-34.21-24.6-34.21h-.6c-18,0-24.3,12.6-24.3,34.21V1048c0,22.21,3.89,34.81,22.5,34.81h.9c19.5,0,26.7-27.61,26.7-35.71V980.23h-22.8V970h34.81Z"/><path class="cls-1" d="M1680,853.31V1091h-10.8l-52.51-180.63-6.6-24.31.9,24.31.9,180.63h-12V853.31h10.8l52.81,183.33,6,21.9-.6-21.9-1.2-183.33Z"/></g></svg>