<?xml version="1.0" encoding="UTF-8"?>
<svg xmlns="http://www.w3.org/2000/svg" xmlns:xlink="http://www.w3.org/1999/xlink" version="1.2" >
<font id="Gabriela Light">
<font-face  font-family="Gabriela" units-per-em="1000" ascent="1000" descent="-415" font-style="normal" font-weight="300" font-stretch="normal" cap-height="680" x-height="500" underline-position="-75" underline-thickness="50" />
<missing-glyph  horiz-adv-x="600" d="M80 745 L80 0 L520 0 L520 745 L80 745 Z M111 730 L489 730 L300 389 L111 730 Z M292 374 L100 27 L100 720 L292 374 Z M309 374 L500 720 L500 27 L309 374 Z M300 358 L490 15 L110 15 L300 358 Z " />
<glyph glyph-name="NULL" d="" />
<glyph glyph-name="CR" unicode="&#xd;" horiz-adv-x="250" d="" />
<glyph glyph-name="space" unicode="&#x20;" horiz-adv-x="272" d="" />
<glyph glyph-name="exclam" unicode="&#x21;" horiz-adv-x="259" d="M122 166 L137 166 C144 461 166 520 166 602 C166 661 153 691 131 691 C108 691 96 659 96 601 C96 520 116 460 122 166 L122 166 Z M130 81 C101 81 81 63 81 35 C81 8 101 -11 130 -11 C158 -11 178 8 178 35 C178 63 158 81 130 81 L130 81 Z " />
<glyph glyph-name="quotedbl" unicode="&#x22;" horiz-adv-x="328" d="M88 433 L102 433 C111 552 116 626 120 725 C113 729 103 732 95 732 C87 732 78 729 70 725 C74 626 79 552 88 433 L88 433 Z M226 433 L240 433 C249 552 254 626 258 725 C251 729 241 732 233 732 C225 732 216 729 208 725 C212 626 217 552 226 433 L226 433 Z " />
<glyph glyph-name="numbersign" unicode="&#x23;" horiz-adv-x="668" d="M629 444 L629 469 L450 469 L501 680 L474 680 L423 469 L266 469 L317 680 L290 680 L239 469 L77 469 L77 444 L233 444 L193 279 L39 279 L39 254 L187 254 L125 0 L152 0 L214 254 L371 254 L309 0 L336 0 L398 254 L591 254 L591 279 L404 279 L444 444 L629 444 Z M377 279 L220 279 L260 444 L417 444 L377 279 Z " />
<glyph glyph-name="dollar" unicode="&#x24;" horiz-adv-x="537" d="M475 162 C475 272 381 325 285 376 C193 426 122 466 122 551 C122 627 180 678 265 678 C356 678 434 618 460 488 L469 488 C466 555 466 622 466 689 L457 689 L432 628 C396 664 340 690 282 694 L282 777 L260 777 L260 695 C164 693 74 633 74 530 C74 425 166 381 259 329 C352 277 425 228 425 140 C425 58 361 2 270 2 C173 2 90 66 67 202 L58 202 C62 132 62 61 62 -9 L70 -9 L97 52 C136 15 194 -11 257 -14 L257 -97 L279 -97 L279 -15 C387 -13 475 55 475 162 L475 162 Z " />
<glyph glyph-name="percent" unicode="&#x25;" horiz-adv-x="713" d="M329 521 C329 626 278 695 195 695 C112 695 62 625 62 521 C62 416 112 347 195 347 C278 347 329 415 329 521 L329 521 Z M115 521 C115 636 146 681 195 681 C244 681 276 637 276 521 C276 404 244 360 195 360 C146 360 115 405 115 521 L115 521 Z M87 81 L102 64 L625 587 L610 604 L87 81 Z M659 159 C659 264 608 333 526 333 C442 333 392 263 392 159 C392 54 442 -15 526 -15 C608 -15 659 53 659 159 L659 159 Z M445 159 C445 274 476 319 526 319 C574 319 606 275 606 159 C606 42 574 -2 526 -2 C476 -2 445 43 445 159 L445 159 Z " />
<glyph glyph-name="ampersand" unicode="&#x26;" horiz-adv-x="698" d="M664 122 C654 51 605 13 557 13 C520 13 479 35 438 71 C530 133 607 225 607 301 C607 336 590 355 565 355 C542 355 527 341 524 323 C547 323 562 308 562 275 C562 219 511 139 429 80 C362 142 297 239 251 335 C373 400 442 479 442 561 C442 631 391 695 293 695 C191 695 134 626 134 536 C134 479 158 402 195 324 C94 273 46 215 46 140 C46 49 112 -15 219 -15 C291 -15 359 14 405 44 C451 7 497 -15 541 -15 C605 -15 673 34 675 122 L664 122 Z M296 678 C360 678 397 626 397 560 C397 481 342 411 245 347 C209 423 187 497 187 549 C187 620 228 678 296 678 L296 678 Z M250 9 C153 9 98 78 98 159 C98 216 125 262 202 311 C251 214 321 116 394 53 C351 27 301 9 250 9 L250 9 Z " />
<glyph glyph-name="quotesingle" unicode="&#x27;" horiz-adv-x="190" d="M88 433 L102 433 C111 552 116 626 120 725 C113 729 103 732 95 732 C87 732 78 729 70 725 C74 626 79 552 88 433 L88 433 Z " />
<glyph glyph-name="parenleft" unicode="&#x28;" horiz-adv-x="324" d="M100 272 C100 484 189 663 314 728 L311 741 C156 665 54 495 54 272 C54 50 156 -122 311 -197 L314 -183 C189 -119 100 61 100 272 L100 272 Z " />
<glyph glyph-name="parenright" unicode="&#x29;" horiz-adv-x="324" d="M225 272 C225 61 136 -119 10 -183 L14 -197 C168 -122 270 50 270 272 C270 495 168 665 14 741 L10 728 C136 663 225 484 225 272 L225 272 Z " />
<glyph glyph-name="asterisk" unicode="&#x2a;" horiz-adv-x="442" d="M220 537 L223 537 C229 609 251 632 251 665 C251 688 240 701 222 701 C204 701 194 688 194 664 C194 634 212 608 220 537 L220 537 Z M211 529 L213 533 C146 560 131 588 100 599 C77 606 62 599 57 582 C51 566 61 550 83 543 C112 533 142 544 211 529 L211 529 Z M230 533 L231 530 C300 547 329 532 361 542 C383 549 392 565 386 581 C381 598 364 605 343 597 C314 588 294 562 230 533 L230 533 Z M217 520 L214 522 C168 467 135 460 116 435 C102 415 105 398 118 388 C133 378 149 382 164 401 C181 426 182 458 217 520 L217 520 Z M228 522 L225 520 C263 458 258 427 277 400 C291 381 309 377 323 388 C337 398 337 416 324 434 C308 456 276 469 228 522 L228 522 Z " />
<glyph glyph-name="plus" unicode="&#x2b;" horiz-adv-x="508" d="M462 301 L266 301 L266 497 L239 497 L239 301 L46 301 L46 277 L239 277 L239 81 L266 81 L266 277 L462 277 L462 301 Z " />
<glyph glyph-name="comma" unicode="&#x2c;" horiz-adv-x="220" d="M112 83 C82 83 63 62 63 32 C63 1 87 -14 110 -15 C107 -51 94 -93 77 -127 L84 -132 C117 -93 158 -16 158 31 C158 64 139 83 112 83 L112 83 Z " />
<glyph glyph-name="hyphen" unicode="&#x2d;" horiz-adv-x="436" d="M76 314 L76 289 L361 289 L361 314 L76 314 Z " />
<glyph glyph-name="period" unicode="&#x2e;" horiz-adv-x="243" d="M122 -15 C152 -15 173 5 173 34 C173 63 152 83 122 83 C91 83 70 63 70 34 C70 5 91 -15 122 -15 L122 -15 Z " />
<glyph glyph-name="slash" unicode="&#x2f;" horiz-adv-x="461" d="M27 -30 L53 -30 L434 710 L408 710 L27 -30 Z " />
<glyph glyph-name="zero" unicode="0" horiz-adv-x="641" d="M577 340 C577 549 482 695 321 695 C159 695 65 549 65 340 C65 131 159 -15 321 -15 C482 -15 577 131 577 340 L577 340 Z M122 340 C122 561 203 678 321 678 C438 678 519 561 519 340 C519 119 438 2 321 2 C203 2 122 119 122 340 L122 340 Z " />
<glyph glyph-name="one" unicode="1" horiz-adv-x="308" d="M137 38 C137 17 119 12 59 12 L59 0 L266 0 L266 12 C206 12 188 17 188 38 L188 685 L176 686 L43 568 L51 559 L137 629 L137 38 Z " />
<glyph glyph-name="two" unicode="2" horiz-adv-x="541" d="M262 695 C144 695 65 630 65 553 C65 506 93 473 131 473 C152 473 170 482 178 497 C141 499 112 526 112 569 C112 629 173 678 255 678 C351 678 408 609 408 525 C408 310 54 192 54 38 C54 21 59 9 65 0 L72 0 C86 23 119 52 166 52 C237 52 286 -14 371 -14 C434 -14 483 23 483 85 C483 98 481 114 478 127 L471 127 C466 76 433 39 366 39 C298 39 245 80 180 80 C133 80 91 60 73 30 L71 30 C77 190 466 291 466 521 C466 627 385 695 262 695 L262 695 Z " />
<glyph glyph-name="three" unicode="3" horiz-adv-x="539" d="M248 2 C163 2 104 50 104 111 C104 155 134 182 168 187 C163 204 145 213 124 213 C85 213 55 178 55 128 C55 49 133 -15 254 -15 C383 -15 472 58 472 165 C472 285 365 339 267 348 L267 350 C354 354 463 421 463 533 C463 634 377 695 262 695 C146 695 75 631 75 554 C75 507 102 473 139 473 C159 473 177 482 185 497 C148 499 119 527 119 571 C119 630 174 678 254 678 C337 678 405 627 405 532 C405 427 319 357 206 357 L206 339 C317 339 414 282 414 167 C414 70 344 2 248 2 L248 2 Z " />
<glyph glyph-name="four" unicode="4" horiz-adv-x="563" d="M533 141 L533 156 L408 156 L408 510 L393 512 C388 483 374 450 357 421 L357 156 L55 155 C209 265 343 440 343 573 C343 645 304 695 244 695 C197 695 170 666 170 635 C170 628 171 621 175 616 C187 633 206 644 227 644 C270 644 294 604 294 551 C294 433 175 268 26 152 L26 141 L357 141 L357 38 C357 17 339 12 279 12 L279 0 L487 0 L487 12 C427 12 408 17 408 38 L408 141 L533 141 Z " />
<glyph glyph-name="five" unicode="5" horiz-adv-x="530" d="M248 410 C185 410 139 391 102 368 L127 637 C138 642 154 645 170 645 C225 645 289 612 358 612 C415 612 452 636 452 679 C452 688 450 706 447 715 L440 715 C437 687 412 665 359 665 C298 665 243 695 188 695 C162 695 131 689 114 677 L82 354 L96 344 C142 375 179 391 231 391 C340 391 415 331 415 207 C415 93 349 2 241 2 C165 2 101 47 101 113 C101 160 133 189 168 191 C162 206 146 216 125 216 C85 216 56 180 56 129 C56 46 137 -15 247 -15 C380 -15 474 73 474 202 C474 333 378 410 248 410 L248 410 Z " />
<glyph glyph-name="six" unicode="6" horiz-adv-x="569" d="M303 435 C222 435 154 390 124 316 C126 530 198 678 326 678 C388 678 436 643 436 592 C436 561 419 535 391 530 C399 518 415 509 432 509 C466 509 483 546 483 579 C483 645 420 695 327 695 C148 695 65 505 65 302 C65 96 150 -15 289 -15 C417 -15 508 82 508 217 C508 353 415 435 303 435 L303 435 Z M293 2 C200 2 137 78 126 251 C134 349 208 418 295 418 C366 418 450 372 450 216 C450 73 384 2 293 2 L293 2 Z " />
<glyph glyph-name="seven" unicode="7" horiz-adv-x="474" d="M155 45 C155 10 162 -15 187 -15 C208 -15 217 4 217 52 C217 343 443 493 443 652 C443 667 438 681 432 690 L425 690 C407 662 377 636 334 636 C270 636 207 695 137 695 C79 695 34 652 34 581 C34 566 36 546 39 527 L46 527 C51 599 82 644 146 644 C200 644 263 609 324 609 C369 609 409 628 425 660 L426 660 C422 482 155 323 155 45 L155 45 Z " />
<glyph glyph-name="eight" unicode="8" horiz-adv-x="566" d="M346 363 C423 384 479 444 479 526 C479 629 391 695 284 695 C176 695 87 629 87 526 C87 443 144 384 221 363 C130 342 63 274 63 178 C63 60 163 -15 284 -15 C404 -15 503 60 503 178 C503 274 436 342 346 363 L346 363 Z M143 526 C143 619 207 678 284 678 C360 678 423 619 423 526 C423 434 361 371 284 371 C207 371 143 432 143 526 L143 526 Z M284 2 C194 2 120 71 120 178 C120 286 194 354 284 354 C373 354 446 286 446 178 C446 71 373 2 284 2 L284 2 Z " />
<glyph glyph-name="nine" unicode="9" horiz-adv-x="569" d="M279 695 C149 695 60 602 60 472 C60 341 152 263 264 263 C346 263 414 305 444 376 L444 361 C444 117 363 3 247 3 C178 3 129 39 129 91 C129 122 148 145 174 149 C167 162 151 170 134 170 C104 170 83 145 83 105 C83 35 154 -15 248 -15 C416 -15 502 146 502 368 C502 587 418 695 279 695 L279 695 Z M272 280 C201 280 117 324 117 473 C117 609 183 678 275 678 C366 678 429 609 442 433 C430 343 358 280 272 280 L272 280 Z " />
<glyph glyph-name="colon" unicode="&#x3a;" horiz-adv-x="256" d="M128 382 C158 382 180 402 180 431 C180 460 158 480 128 480 C97 480 77 460 77 431 C77 402 97 382 128 382 L128 382 Z M128 47 C158 47 180 67 180 96 C180 125 158 145 128 145 C97 145 77 125 77 96 C77 67 97 47 128 47 L128 47 Z " />
<glyph glyph-name="semicolon" unicode="&#x3b;" horiz-adv-x="269" d="M141 480 C110 480 89 460 89 431 C89 402 110 382 141 382 C171 382 192 402 192 431 C192 460 171 480 141 480 L141 480 Z M132 83 C102 83 83 62 83 32 C83 0 107 -14 130 -15 C127 -51 114 -93 97 -127 L105 -132 C137 -93 178 -16 178 31 C178 64 159 83 132 83 L132 83 Z " />
<glyph glyph-name="less" unicode="&#x3c;" horiz-adv-x="441" d="M373 487 L40 299 L40 272 L373 84 L373 112 L66 285 L373 459 L373 487 Z " />
<glyph glyph-name="equal" unicode="&#x3d;" horiz-adv-x="587" d="M79 353 L509 353 L509 378 L79 378 L79 353 Z M79 191 L509 191 L509 216 L79 216 L79 191 Z " />
<glyph glyph-name="greater" unicode="&#x3e;" horiz-adv-x="441" d="M68 487 L68 459 L375 285 L68 112 L68 84 L401 272 L401 299 L68 487 Z " />
<glyph glyph-name="question" unicode="&#x3f;" horiz-adv-x="432" d="M228 166 L230 174 C209 183 196 204 196 230 C196 331 392 389 392 538 C392 625 324 691 214 691 C113 691 38 635 38 556 C38 507 66 473 110 473 C130 473 142 481 150 495 C108 501 81 517 81 563 C81 628 135 674 208 674 C283 674 340 627 340 549 C340 413 164 358 164 243 C164 215 175 194 192 181 C202 173 216 167 228 166 L228 166 Z M209 81 C181 81 161 63 161 35 C161 8 181 -11 209 -11 C238 -11 258 8 258 35 C258 63 238 81 209 81 L209 81 Z " />
<glyph glyph-name="at" unicode="&#x40;" horiz-adv-x="897" d="M663 56 C776 56 851 171 851 324 C851 547 690 693 472 693 C228 693 54 512 54 278 C54 54 215 -111 457 -111 C563 -111 667 -79 732 -39 L724 -26 C651 -67 553 -94 458 -94 C230 -94 77 60 77 279 C77 504 240 676 472 676 C686 676 828 529 828 322 C828 181 762 77 678 77 C632 77 617 107 617 154 L617 515 L564 485 L564 447 C541 490 494 515 438 515 C326 515 244 416 244 277 C244 137 328 56 421 56 C489 56 542 103 564 167 C563 94 599 56 663 56 L663 56 Z M429 77 C354 77 298 154 298 276 C298 407 358 498 444 498 C498 498 551 463 564 399 L564 248 C564 158 507 77 429 77 L429 77 Z " />
<glyph glyph-name="A" unicode="A" horiz-adv-x="652" d="M578 38 L329 695 L325 695 L85 62 C71 28 52 12 -6 12 L-6 0 L184 0 L184 12 C136 12 103 24 103 41 C103 50 124 112 161 211 L456 211 C494 107 517 42 517 31 C517 16 492 12 453 12 L453 0 L655 0 L655 12 C595 12 585 19 578 38 L578 38 Z M168 229 C204 326 253 455 311 604 C365 457 414 328 450 229 L168 229 Z " />
<glyph glyph-name="B" unicode="B" horiz-adv-x="587" d="M336 356 C444 378 501 434 501 517 C501 616 422 680 255 680 L45 680 L45 668 C105 668 125 663 125 642 L125 38 C125 17 105 12 45 12 L45 0 L266 0 C439 0 528 69 528 178 C528 272 461 337 336 356 L336 356 Z M252 662 C371 662 445 616 445 515 C445 409 364 363 235 363 L175 363 L175 662 L252 662 Z M258 18 L175 18 L175 345 L255 345 C385 345 473 292 473 180 C473 69 388 18 258 18 L258 18 Z " />
<glyph glyph-name="C" unicode="C" horiz-adv-x="636" d="M363 6 C221 6 118 120 118 349 C118 566 222 678 352 678 C450 678 545 612 568 461 L577 461 C573 537 573 613 573 689 L564 689 L539 619 C499 667 442 695 362 695 C180 695 60 547 60 336 C60 129 173 -15 357 -15 C450 -15 526 24 577 89 L566 99 C514 38 442 6 363 6 L363 6 Z " />
<glyph glyph-name="D" unicode="D" horiz-adv-x="700" d="M296 680 L45 680 L45 668 C105 668 124 663 124 642 L124 38 C124 17 105 12 45 12 L45 0 L296 0 C519 0 640 136 640 340 C640 544 519 680 296 680 L296 680 Z M301 17 L175 17 L175 663 L301 663 C467 663 582 558 582 340 C582 122 467 17 301 17 L301 17 Z " />
<glyph glyph-name="E" unicode="E" horiz-adv-x="569" d="M507 160 C482 54 464 18 410 18 L175 18 L175 336 L356 336 C394 336 405 321 416 241 L428 241 L428 450 L416 450 C405 372 394 355 356 355 L175 355 L175 662 L389 662 C451 662 473 624 480 531 L492 531 L492 680 L45 680 L45 668 C105 668 125 663 125 642 L125 38 C125 17 105 12 45 12 L45 0 L502 0 L519 160 L507 160 Z " />
<glyph glyph-name="F" unicode="F" horiz-adv-x="536" d="M492 680 L45 680 L45 668 C106 668 125 663 125 642 L125 38 C125 17 106 12 45 12 L45 0 L282 0 L282 12 C201 12 175 17 175 38 L175 330 L356 330 C394 330 405 315 416 235 L428 235 L428 444 L416 444 C405 366 394 348 356 348 L175 348 L175 662 L389 662 C451 662 473 625 480 531 L492 531 L492 680 Z " />
<glyph glyph-name="G" unicode="G" horiz-adv-x="695" d="M461 293 L461 281 C517 281 535 276 535 255 L535 125 C535 50 451 2 361 2 C222 2 118 116 118 342 C118 566 223 678 358 678 C461 678 556 609 578 461 L587 461 C583 537 583 613 583 689 L575 689 L550 619 C510 667 448 695 367 695 C181 695 60 546 60 338 C60 129 181 -15 362 -15 C446 -15 513 16 558 68 L578 -9 L586 -9 L586 255 C586 276 604 281 660 281 L660 293 L461 293 Z " />
<glyph glyph-name="H" unicode="H" horiz-adv-x="720" d="M673 668 L673 680 L467 680 L467 668 C526 668 545 663 545 642 L545 351 L175 351 L175 642 C175 663 194 668 253 668 L253 680 L46 680 L46 668 C106 668 124 663 124 642 L124 38 C124 17 106 12 46 12 L46 0 L253 0 L253 12 C194 12 175 17 175 38 L175 332 L545 332 L545 38 C545 17 526 12 467 12 L467 0 L673 0 L673 12 C614 12 595 17 595 38 L595 642 C595 663 614 668 673 668 L673 668 Z " />
<glyph glyph-name="I" unicode="I" horiz-adv-x="298" d="M174 642 C174 663 193 668 249 668 L249 680 L50 680 L50 668 C106 668 124 663 124 642 L124 38 C124 17 106 12 50 12 L50 0 L249 0 L249 12 C193 12 174 17 174 38 L174 642 Z " />
<glyph glyph-name="J" unicode="J" horiz-adv-x="431" d="M266 148 C266 67 240 2 168 2 C98 2 73 64 73 176 C44 174 27 155 27 115 C27 42 76 -15 168 -15 C273 -15 316 59 316 162 L316 642 C316 663 334 668 391 668 L391 680 L191 680 L191 668 C247 668 266 663 266 642 L266 148 Z " />
<glyph glyph-name="K" unicode="K" horiz-adv-x="640" d="M174 38 L174 642 C174 663 193 668 249 668 L249 680 L49 680 L49 668 C106 668 124 663 124 642 L124 38 C124 17 106 12 49 12 L49 0 L249 0 L249 12 C193 12 174 17 174 38 L174 38 Z M549 39 L283 365 L519 627 C544 656 566 666 612 668 L612 680 L414 680 L414 668 C464 668 490 659 490 639 C490 616 438 567 236 344 C478 55 486 43 486 29 C486 18 473 12 417 12 L417 0 L623 0 L623 12 C589 13 569 16 549 39 L549 39 Z " />
<glyph glyph-name="L" unicode="L" horiz-adv-x="540" d="M498 161 C474 52 457 18 405 18 L175 18 L175 642 C175 663 200 668 273 668 L273 680 L45 680 L45 668 C105 668 125 663 125 642 L125 38 C125 17 105 12 45 12 L45 0 L493 0 L510 161 L498 161 Z " />
<glyph glyph-name="M" unicode="M" horiz-adv-x="869" d="M823 668 L823 680 L691 680 L429 73 L172 680 L47 680 L47 668 C106 668 125 661 125 630 L125 64 C125 26 101 12 47 12 L47 0 L229 0 L229 12 C172 12 145 26 145 64 L145 614 L410 -13 L414 -13 L693 634 L693 38 C693 17 673 12 610 12 L610 0 L823 0 L823 12 C763 12 744 17 744 38 L744 630 C744 661 763 668 823 668 L823 668 Z " />
<glyph glyph-name="N" unicode="N" horiz-adv-x="709" d="M479 680 L479 668 C546 668 568 653 568 612 L568 94 L170 680 L46 680 L46 668 C106 668 125 663 125 642 L125 68 C125 27 106 12 46 12 L46 0 L234 0 L234 12 C167 12 145 27 145 68 L145 628 L579 -5 L588 -5 L588 612 C588 653 607 668 667 668 L667 680 L479 680 Z " />
<glyph glyph-name="O" unicode="O" horiz-adv-x="723" d="M663 340 C663 549 545 695 361 695 C177 695 60 549 60 340 C60 131 177 -15 361 -15 C545 -15 663 131 663 340 L663 340 Z M118 340 C118 561 222 678 361 678 C501 678 605 561 605 340 C605 119 501 2 361 2 C222 2 118 119 118 340 L118 340 Z " />
<glyph glyph-name="P" unicode="P" horiz-adv-x="554" d="M241 292 C423 292 518 366 518 490 C518 608 433 680 255 680 L45 680 L45 668 C105 668 125 663 125 642 L125 38 C125 17 105 12 45 12 L45 0 L282 0 L282 12 C203 12 175 17 175 38 L175 292 L241 292 Z M250 662 C378 662 463 609 463 488 C463 364 374 311 245 311 L175 311 L175 662 L250 662 Z " />
<glyph glyph-name="Q" unicode="Q" horiz-adv-x="726" d="M739 5 C705 -71 656 -104 608 -104 C546 -104 514 -49 484 10 C593 60 662 178 662 341 C662 548 545 695 361 695 C177 695 60 546 60 339 C60 132 177 -15 361 -15 C392 -15 421 -11 449 -3 C479 -73 515 -144 597 -144 C683 -144 731 -62 746 2 L739 5 Z M118 338 C118 555 220 678 361 678 C500 678 604 560 604 342 C604 183 551 79 473 31 C442 92 409 149 345 149 C297 149 264 118 264 72 C264 49 274 29 289 14 C186 49 118 160 118 338 L118 338 Z M364 2 C298 2 285 47 285 73 C285 109 309 130 340 130 C390 130 415 76 441 16 C417 7 391 2 364 2 L364 2 Z " />
<glyph glyph-name="R" unicode="R" horiz-adv-x="620" d="M597 46 C585 28 567 6 542 6 C493 6 484 91 468 176 C453 259 407 314 327 334 C451 353 516 415 516 508 C516 613 432 680 255 680 L45 680 L45 668 C105 668 124 663 124 642 L124 38 C124 17 105 12 45 12 L45 0 L273 0 L273 12 C199 12 175 17 175 38 L175 328 L241 328 L248 328 C368 328 397 243 418 142 C438 45 453 -15 522 -15 C572 -15 595 16 608 38 L597 46 Z M175 346 L175 662 L245 662 C376 662 461 612 461 505 C461 396 373 346 243 346 L175 346 Z " />
<glyph glyph-name="S" unicode="S" horiz-adv-x="548" d="M290 376 C199 423 125 464 125 552 C125 627 180 678 268 678 C362 678 439 618 466 488 L474 488 C471 555 471 622 471 689 L462 689 L437 629 C397 670 332 695 267 695 C170 695 77 637 77 531 C77 424 172 378 264 329 C364 276 433 232 433 143 C433 57 368 2 277 2 C178 2 95 66 72 202 L64 202 C67 132 67 61 67 -9 L76 -9 L102 52 C144 12 209 -15 279 -15 C391 -15 483 53 483 164 C483 280 383 329 290 376 L290 376 Z " />
<glyph glyph-name="T" unicode="T" horiz-adv-x="567" d="M530 680 L36 680 L36 524 L48 524 C53 625 78 662 143 662 L257 662 L257 43 C257 18 237 12 175 12 L175 0 L391 0 L391 12 C328 12 308 18 308 43 L308 662 L422 662 C488 662 512 625 518 524 L530 524 L530 680 Z " />
<glyph glyph-name="U" unicode="U" horiz-adv-x="683" d="M548 612 L548 240 C548 81 467 6 353 6 C237 6 164 84 164 243 L164 642 C164 663 183 668 243 668 L243 680 L35 680 L35 668 C95 668 114 663 114 642 L114 241 C114 75 205 -15 343 -15 C489 -15 568 85 568 242 L568 612 C568 653 587 668 647 668 L647 680 L456 680 L456 668 C525 668 548 653 548 612 L548 612 Z " />
<glyph glyph-name="V" unicode="V" horiz-adv-x="652" d="M461 680 L461 668 C515 668 546 652 546 633 C546 612 461 389 342 79 C225 392 136 627 136 649 C136 664 160 668 200 668 L200 680 L-3 680 L-3 668 C57 668 67 661 75 642 L323 -14 L327 -14 L567 618 C580 652 600 668 658 668 L658 680 L461 680 Z " />
<glyph glyph-name="W" unicode="W" horiz-adv-x="962" d="M775 680 L775 668 C826 668 859 655 859 633 C859 621 849 592 684 87 C516 606 507 631 507 645 C507 664 529 668 572 668 L572 680 L369 680 L369 668 C424 668 439 663 446 643 L470 572 C434 464 386 315 312 87 C144 606 135 631 135 645 C135 664 157 668 200 668 L200 680 L-3 680 L-3 668 C52 668 67 663 74 643 L292 -14 L297 -14 L480 540 L665 -14 L670 -14 L879 618 C891 653 912 668 971 668 L971 680 L775 680 Z " />
<glyph glyph-name="X" unicode="X" horiz-adv-x="649" d="M552 37 C466 172 399 276 347 357 L531 626 C553 657 570 667 621 668 L621 680 L428 680 L428 668 C474 668 505 659 505 637 C505 625 501 615 336 374 C175 627 172 634 172 645 C172 659 193 668 233 668 L233 680 L27 680 L27 668 C83 668 93 662 105 643 C185 515 249 414 299 335 L107 54 C86 24 69 13 17 12 L17 0 L218 0 L218 12 C167 12 137 25 137 47 C137 61 141 69 310 318 C482 47 487 44 487 32 C487 17 469 12 424 12 L424 0 L632 0 L632 12 C581 12 564 18 552 37 L552 37 Z " />
<glyph glyph-name="Y" unicode="Y" horiz-adv-x="638" d="M441 680 L441 668 C493 668 528 659 528 636 C528 619 522 607 335 271 C151 605 137 631 137 646 C137 663 159 668 202 668 L202 680 L2 680 L2 668 C54 668 66 662 76 643 L293 247 L293 38 C293 17 275 12 219 12 L219 0 L418 0 L418 12 C362 12 344 17 344 38 L344 246 L547 617 C566 653 582 668 641 668 L641 680 L441 680 Z " />
<glyph glyph-name="Z" unicode="Z" horiz-adv-x="565" d="M514 158 C492 50 473 18 418 18 L99 18 L505 667 L505 680 L59 680 L59 539 L71 539 C78 631 102 662 155 662 L445 662 L39 13 L39 0 L511 0 L526 158 L514 158 Z " />
<glyph glyph-name="bracketleft" unicode="&#x5b;" horiz-adv-x="268" d="M222 748 L222 759 L103 735 L103 -165 L222 -189 L222 -178 L146 -159 L146 729 L222 748 Z " />
<glyph glyph-name="backslash" unicode="&#x5c;" horiz-adv-x="461" d="M434 -30 L53 710 L27 710 L408 -30 L434 -30 Z " />
<glyph glyph-name="bracketright" unicode="&#x5d;" horiz-adv-x="268" d="M46 759 L46 748 L122 729 L122 -159 L46 -178 L46 -189 L164 -165 L164 735 L46 759 Z " />
<glyph glyph-name="asciicircum" unicode="&#x5e;" horiz-adv-x="437" d="M380 407 L226 680 L213 680 L57 408 L74 408 L219 664 L364 407 L380 407 Z " />
<glyph glyph-name="underscore" unicode="&#x5f;" horiz-adv-x="410" d="M0 -132 L0 -155 L410 -155 L410 -132 L0 -132 Z " />
<glyph glyph-name="grave" unicode="&#x60;" horiz-adv-x="263" d="M196 581 L200 588 C154 624 116 682 107 750 C104 751 101 751 98 751 C78 751 70 732 70 714 C70 662 135 601 196 581 L196 581 Z " />
<glyph glyph-name="a" unicode="a" horiz-adv-x="502" d="M493 52 C484 27 469 6 444 6 C413 6 402 43 402 101 L402 338 C402 473 331 515 243 515 C151 515 74 467 74 411 C74 384 93 369 120 369 C120 454 172 499 241 499 C312 499 352 455 352 355 L352 259 C190 257 51 224 51 106 C51 39 94 -15 183 -15 C267 -15 330 32 356 103 C357 29 379 -15 430 -15 C468 -15 495 11 503 48 L493 52 Z M201 9 C141 9 104 49 104 112 C104 197 175 241 352 243 L352 162 C352 73 278 9 201 9 L201 9 Z " />
<glyph glyph-name="b" unicode="b" horiz-adv-x="586" d="M321 515 C233 515 168 463 140 395 C141 436 142 477 142 517 L142 740 L15 725 L15 714 C69 714 91 710 91 690 L91 -15 C123 -15 139 21 139 109 L141 109 C167 40 224 -15 313 -15 C440 -15 531 94 531 253 C531 407 446 515 321 515 L321 515 Z M308 2 C213 2 142 86 142 192 L142 316 C142 422 221 498 313 498 C422 498 476 389 476 254 C476 112 417 2 308 2 L308 2 Z " />
<glyph glyph-name="c" unicode="c" horiz-adv-x="488" d="M279 499 C320 499 350 484 370 458 C389 431 398 395 398 352 C424 352 441 368 441 399 C441 466 375 515 285 515 C150 515 54 407 54 250 C54 96 146 -15 275 -15 C347 -15 411 18 443 83 L434 91 C403 36 350 6 288 6 C176 6 109 108 109 255 C109 394 170 499 279 499 L279 499 Z " />
<glyph glyph-name="d" unicode="d" horiz-adv-x="603" d="M584 52 C575 27 560 6 535 6 C504 6 494 43 494 101 L494 740 L369 725 L369 714 C424 714 444 710 444 690 L445 416 L443 412 L443 402 C416 467 354 515 271 515 C145 515 55 405 55 248 C55 92 143 -15 270 -15 C361 -15 419 40 444 109 L447 109 C447 30 469 -15 521 -15 C559 -15 586 11 594 48 L584 52 Z M277 2 C168 2 110 113 110 253 C110 389 167 498 275 498 C367 498 443 421 443 316 L443 191 C443 85 371 2 277 2 L277 2 Z " />
<glyph glyph-name="e" unicode="e" horiz-adv-x="522" d="M459 267 C466 283 469 303 469 326 C469 443 389 515 282 515 C152 515 54 408 54 250 C54 96 146 -15 281 -15 C355 -15 424 18 459 83 L450 91 C418 36 360 6 295 6 C173 6 109 111 109 255 L109 267 L459 267 Z M279 499 C372 499 419 423 419 328 C419 288 412 285 398 285 L110 285 C118 407 177 499 279 499 L279 499 Z " />
<glyph glyph-name="f" unicode="f" horiz-adv-x="341" d="M243 724 C294 724 311 687 311 616 C336 616 354 635 354 664 C354 708 316 740 254 740 C162 740 114 672 114 574 L114 500 L39 500 L39 483 L114 483 L114 44 C114 17 96 12 39 12 L39 0 L279 0 L279 12 C192 12 165 17 165 44 L165 483 L320 483 L320 500 L210 500 C162 500 151 524 151 605 C151 680 187 724 243 724 L243 724 Z " />
<glyph glyph-name="g" unicode="g" horiz-adv-x="473" d="M276 32 C187 44 116 50 116 98 C116 131 149 166 234 166 L240 166 C341 166 424 237 424 343 C424 415 385 469 328 496 C342 531 371 544 395 544 C417 544 435 532 445 511 C457 516 464 528 464 541 C464 564 440 584 409 584 C368 584 327 550 317 501 C293 510 267 515 240 515 C138 515 55 449 55 343 C55 259 107 197 180 175 C119 164 74 130 74 81 C74 9 166 -1 251 -13 C339 -25 427 -40 427 -118 C427 -188 356 -238 245 -238 C120 -238 72 -174 72 -118 C72 -90 85 -68 94 -53 C53 -57 24 -87 24 -130 C24 -216 137 -255 242 -255 C378 -255 466 -190 466 -99 C466 0 358 20 276 32 L276 32 Z M109 343 C109 438 160 499 240 499 C319 499 370 438 370 343 C370 248 319 182 240 182 C160 182 109 248 109 343 L109 343 Z " />
<glyph glyph-name="h" unicode="h" horiz-adv-x="588" d="M487 44 L487 348 C487 475 404 515 330 515 C250 515 178 468 154 395 C156 441 157 489 157 536 L157 740 L32 725 L32 714 C85 714 107 710 107 690 L107 44 C107 17 89 12 32 12 L32 0 L233 0 L233 12 C175 12 157 17 157 44 L157 322 C157 429 234 494 313 494 C375 494 436 454 436 346 L436 44 C436 17 418 12 361 12 L361 0 L562 0 L562 12 C505 12 487 17 487 44 L487 44 Z " />
<glyph glyph-name="i" unicode="i" horiz-adv-x="270" d="M130 622 C159 622 179 641 179 667 C179 694 159 713 130 713 C101 713 81 694 81 667 C81 641 101 622 130 622 L130 622 Z M114 44 C114 17 96 12 38 12 L38 0 L239 0 L239 12 C182 12 164 17 164 44 L164 515 L38 500 L38 489 C92 489 114 485 114 465 L114 44 Z " />
<glyph glyph-name="j" unicode="j" horiz-adv-x="249" d="M119 622 C148 622 168 641 168 667 C168 694 148 713 119 713 C90 713 70 694 70 667 C70 641 90 622 119 622 L119 622 Z M-3 -230 L-7 -243 C9 -250 28 -255 50 -255 C123 -255 157 -195 157 -94 L157 513 L32 500 L32 489 C85 489 107 485 107 465 L107 -106 C107 -207 82 -238 38 -238 C25 -238 12 -235 -3 -230 L-3 -230 Z " />
<glyph glyph-name="k" unicode="k" horiz-adv-x="532" d="M32 725 L32 714 C85 714 107 710 107 690 L107 44 C107 17 89 12 32 12 L32 0 L233 0 L233 12 C175 12 157 17 157 44 L157 738 L32 725 Z M486 13 C463 16 444 28 419 52 C338 129 286 192 205 278 C287 349 338 396 415 465 C435 484 454 488 496 488 L496 500 L302 500 L302 488 C352 488 373 481 373 471 C373 446 276 360 157 260 L373 39 C408 1 432 -13 465 -13 C487 -13 504 -7 517 0 L517 10 C505 10 496 10 486 13 L486 13 Z " />
<glyph glyph-name="l" unicode="l" horiz-adv-x="264" d="M107 44 C107 17 89 12 32 12 L32 0 L233 0 L233 12 C175 12 157 17 157 44 L157 740 L32 725 L32 714 C85 714 107 710 107 690 L107 44 Z " />
<glyph glyph-name="m" unicode="m" horiz-adv-x="902" d="M800 44 L800 358 C800 476 721 515 650 515 C572 515 503 469 479 396 C464 484 395 515 332 515 C254 515 183 468 160 393 L162 515 L38 500 L38 489 C92 489 114 485 114 465 L114 44 C114 17 96 12 38 12 L38 0 L239 0 L239 12 C182 12 164 17 164 44 L164 322 C164 429 239 494 316 494 C375 494 432 456 432 356 L432 44 C432 17 414 12 356 12 L356 0 L558 0 L558 12 C500 12 482 17 482 44 L482 322 C482 429 557 494 634 494 C693 494 750 456 750 356 L750 44 C750 17 732 12 675 12 L675 0 L876 0 L876 12 C818 12 800 17 800 44 L800 44 Z " />
<glyph glyph-name="n" unicode="n" horiz-adv-x="595" d="M493 44 L493 348 C493 475 410 515 337 515 C255 515 184 467 160 393 L163 515 L38 500 L38 489 C92 489 114 485 114 465 L114 44 C114 17 96 12 38 12 L38 0 L239 0 L239 12 C182 12 164 17 164 44 L164 322 C164 429 241 494 320 494 C382 494 443 454 443 346 L443 44 C443 17 425 12 368 12 L368 0 L569 0 L569 12 C511 12 493 17 493 44 L493 44 Z " />
<glyph glyph-name="o" unicode="o" horiz-adv-x="581" d="M290 -15 C432 -15 526 95 526 251 C526 407 432 515 290 515 C149 515 54 407 54 251 C54 95 149 -15 290 -15 L290 -15 Z M291 1 C171 1 109 109 109 251 C109 393 171 499 291 499 C411 499 472 393 472 251 C472 109 411 1 291 1 L291 1 Z " />
<glyph glyph-name="p" unicode="p" horiz-adv-x="600" d="M336 515 C247 515 181 461 154 392 L156 515 L32 500 L32 489 C85 489 107 485 107 465 L107 -255 L231 -240 L231 -229 C177 -229 156 -225 156 -205 L155 113 C180 42 237 -15 328 -15 C455 -15 546 94 546 253 C546 407 461 515 336 515 L336 515 Z M322 2 C228 2 157 86 157 192 L157 316 C157 422 237 498 328 498 C436 498 491 389 491 254 C491 112 431 2 322 2 L322 2 Z " />
<glyph glyph-name="q" unicode="q" horiz-adv-x="586" d="M495 -196 L495 515 C480 500 462 487 440 475 L442 413 C414 472 353 515 274 515 C146 515 55 405 55 248 C55 92 143 -15 270 -15 C360 -15 418 39 444 108 L447 108 L446 -246 L571 -231 L571 -220 C517 -220 495 -216 495 -196 L495 -196 Z M277 2 C168 2 110 113 110 252 C110 390 169 498 279 498 C367 498 443 430 443 333 L443 192 C443 86 372 2 277 2 L277 2 Z " />
<glyph glyph-name="r" unicode="r" horiz-adv-x="438" d="M316 515 C236 515 176 454 159 372 L162 515 L38 500 L38 489 C92 489 114 485 114 465 L114 44 C114 17 96 12 38 12 L38 0 L279 0 L279 12 C191 12 164 17 164 44 L164 291 C164 419 227 487 293 487 C337 487 369 455 369 381 C393 381 415 398 415 434 C415 486 372 515 316 515 L316 515 Z " />
<glyph glyph-name="s" unicode="s" horiz-adv-x="449" d="M232 515 C127 515 65 459 65 383 C65 295 146 264 219 234 C285 206 353 175 353 104 C353 38 296 2 224 2 C151 2 100 40 92 140 C81 139 69 134 61 126 C54 118 49 108 49 95 C49 39 108 -15 215 -15 C329 -15 394 44 394 124 C394 206 325 240 253 270 C179 300 106 326 106 398 C106 457 156 498 228 498 C304 498 350 450 350 372 C361 372 372 377 378 385 C384 392 387 401 387 413 C387 474 323 515 232 515 L232 515 Z " />
<glyph glyph-name="t" unicode="t" horiz-adv-x="375" d="M356 75 C330 31 290 5 244 5 C174 5 155 60 155 142 L155 483 L345 483 L345 500 L155 500 L155 633 C138 626 121 620 104 615 L104 500 L38 500 L38 483 L104 483 L104 142 C104 67 137 -15 232 -15 C288 -15 336 13 365 65 L356 75 Z " />
<glyph glyph-name="u" unicode="u" horiz-adv-x="583" d="M563 52 C556 27 540 6 515 6 C484 6 474 43 474 101 L474 515 L348 500 L348 489 C403 489 423 485 423 465 L423 172 C423 67 345 6 270 6 C211 6 153 46 153 155 L153 515 L27 500 L27 489 C82 489 102 485 102 465 L102 154 C102 23 185 -15 257 -15 C340 -15 409 36 427 105 L428 105 C428 32 449 -15 501 -15 C539 -15 566 11 574 48 L563 52 Z " />
<glyph glyph-name="v" unicode="v" horiz-adv-x="536" d="M366 500 L366 488 C410 488 432 477 432 457 C432 412 341 194 282 49 C243 149 124 425 124 463 C124 482 153 488 203 488 L203 500 L7 500 L7 488 C45 487 58 482 67 460 L254 -9 L280 -9 L464 454 C475 484 496 487 533 488 L533 500 L366 500 Z " />
<glyph glyph-name="w" unicode="w" horiz-adv-x="782" d="M612 500 L612 488 C656 488 679 477 679 457 C679 405 595 182 549 46 C519 131 408 423 408 469 C408 482 435 487 480 488 L480 500 L292 500 L292 488 C331 487 344 483 352 460 L379 386 C345 282 297 148 262 47 C230 140 121 424 121 465 C121 482 147 487 193 488 L193 500 L5 500 L5 488 C43 487 57 482 65 460 L234 -9 L261 -9 L389 357 L521 -9 L547 -9 L710 454 C720 484 742 487 779 488 L779 500 L612 500 Z " />
<glyph glyph-name="x" unicode="x" horiz-adv-x="533" d="M447 37 C380 129 325 206 282 268 L420 458 C436 481 454 486 504 488 L504 500 L318 500 L318 488 C364 487 385 477 385 460 C385 433 329 361 272 282 C193 395 156 455 156 468 C156 482 179 488 220 488 L220 500 L29 500 L29 488 C68 487 82 478 94 461 C154 377 203 307 243 251 L99 42 C83 19 65 15 15 12 L15 0 L201 0 L201 12 C159 13 133 22 133 41 C133 66 176 120 253 236 C349 101 387 44 387 32 C387 17 367 12 324 12 L324 0 L518 0 L518 12 C484 13 460 18 447 37 L447 37 Z " />
<glyph glyph-name="y" unicode="y" horiz-adv-x="537" d="M365 500 L365 488 C414 488 431 476 431 455 C431 408 337 187 281 48 C241 149 123 422 123 463 C123 482 150 488 202 488 L202 500 L6 500 L6 488 C44 487 57 482 65 460 L256 -16 L258 -16 C199 -158 157 -233 93 -233 C46 -233 39 -196 39 -135 C11 -135 -9 -158 -9 -187 C-9 -223 23 -255 80 -255 C154 -255 206 -198 274 -25 L463 454 C474 482 493 487 532 488 L532 500 L365 500 Z " />
<glyph glyph-name="z" unicode="z" horiz-adv-x="476" d="M409 180 C403 46 383 17 316 17 L100 17 L413 485 L413 500 L60 500 L60 350 L71 350 C79 462 96 483 173 483 L358 483 L44 15 L44 0 L420 0 L420 180 L409 180 Z " />
<glyph glyph-name="braceleft" unicode="&#x7b;" horiz-adv-x="303" d="M212 715 C230 715 252 711 269 703 L269 715 C251 726 225 732 200 732 C138 732 93 694 93 633 C93 564 151 487 151 399 C151 348 132 276 30 276 L30 264 C132 264 151 192 151 141 C151 53 93 -24 93 -93 C93 -154 138 -192 200 -192 C225 -192 251 -186 269 -175 L269 -163 C252 -171 230 -175 212 -175 C169 -175 139 -147 139 -99 C139 -32 197 42 197 131 C197 208 154 258 78 270 C154 282 197 332 197 409 C197 498 139 572 139 639 C139 687 169 715 212 715 L212 715 Z " />
<glyph glyph-name="bar" unicode="&#x7c;" horiz-adv-x="236" d="M105 -198 L132 -198 L132 735 L105 735 L105 -198 Z " />
<glyph glyph-name="braceright" unicode="&#x7d;" horiz-adv-x="303" d="M153 399 C153 487 211 564 211 633 C211 694 166 732 103 732 C78 732 53 726 35 715 L35 703 C52 711 73 715 91 715 C134 715 164 687 164 639 C164 572 106 498 106 409 C106 332 150 282 226 270 C150 258 106 208 106 131 C106 42 164 -32 164 -99 C164 -147 134 -175 91 -175 C73 -175 52 -171 35 -163 L35 -175 C53 -186 78 -192 103 -192 C166 -192 211 -154 211 -93 C211 -24 153 53 153 141 C153 192 172 264 274 264 L274 276 C172 276 153 348 153 399 L153 399 Z " />
<glyph glyph-name="asciitilde" unicode="&#x7e;" horiz-adv-x="598" d="M410 230 C480 230 519 285 519 343 L495 343 C495 300 464 256 410 256 C328 256 286 355 191 355 C118 355 81 296 81 240 L105 240 C105 283 134 328 191 328 C275 328 315 230 410 230 L410 230 Z " />
<glyph glyph-name="exclamdown" unicode="&#xa1;" horiz-adv-x="243" d="M121 419 C150 419 170 437 170 465 C170 492 150 511 121 511 C92 511 73 492 73 465 C73 437 92 419 121 419 L121 419 Z M114 334 C108 40 88 -20 88 -101 C88 -159 100 -191 123 -191 C145 -191 158 -161 158 -102 C158 -20 136 39 129 334 L114 334 Z " />
<glyph glyph-name="cent" unicode="&#xa2;" horiz-adv-x="511" d="M291 86 C179 86 112 188 112 335 C112 473 172 578 275 578 C351 578 416 522 437 401 L446 401 C443 463 443 526 443 589 L434 589 L411 536 C380 571 336 591 289 594 L289 681 L267 681 L267 595 C153 591 57 485 57 329 C57 183 141 74 263 66 L263 -15 L285 -15 L285 65 C354 67 415 100 446 163 L437 171 C406 116 353 86 291 86 L291 86 Z " />
<glyph glyph-name="sterling" unicode="&#xa3;" horiz-adv-x="593" d="M534 80 L527 80 C527 22 496 -22 429 -22 C360 -22 298 28 238 68 C250 96 257 130 257 172 C257 212 250 255 241 298 L462 298 L465 316 L238 316 C223 385 205 454 205 510 C205 614 267 678 350 678 C411 678 468 643 468 585 C468 545 441 515 403 513 C410 498 429 489 449 489 C489 489 515 527 515 570 C515 642 442 695 341 695 C234 695 147 635 147 509 C147 445 169 382 188 316 L100 316 L100 298 L194 298 C207 250 219 201 219 149 C219 125 217 103 212 84 C181 102 150 115 119 115 C74 115 38 90 38 49 C38 10 70 -15 117 -15 C160 -15 199 5 224 44 C285 -7 347 -75 430 -75 C493 -75 544 -36 544 27 C544 44 540 62 534 80 L534 80 Z M116 2 C75 2 55 23 55 49 C55 75 75 98 113 98 C145 98 174 82 203 60 C188 24 159 2 116 2 L116 2 Z " />
<glyph glyph-name="currency" unicode="&#xa4;" horiz-adv-x="534" d="M463 142 L399 205 C426 236 443 277 443 321 C443 366 426 407 398 438 L462 501 L446 517 L382 453 C351 480 311 496 267 496 C223 496 182 480 151 453 L87 518 L71 501 L136 437 C108 406 91 365 91 321 C91 277 107 236 134 205 L71 142 L86 126 L150 190 C181 162 222 145 267 145 C311 145 352 162 383 189 L446 126 L463 142 Z M267 166 C183 166 116 237 116 322 C116 406 183 475 267 475 C352 475 418 406 418 322 C418 237 352 166 267 166 L267 166 Z " />
<glyph glyph-name="yen" unicode="&#xa5;" horiz-adv-x="691" d="M464 680 L464 668 C517 668 552 659 552 636 C552 619 546 607 359 271 C174 605 161 631 161 646 C161 663 183 668 226 668 L226 680 L25 680 L25 668 C78 668 89 662 100 643 L307 266 L188 266 L188 248 L316 248 L317 247 L317 164 L188 164 L188 145 L317 145 L317 38 C317 17 299 12 243 12 L243 0 L442 0 L442 12 C386 12 368 17 368 38 L368 145 L510 145 L510 164 L368 164 L368 246 L369 248 L510 248 L510 266 L379 266 L571 617 C590 653 606 668 665 668 L665 680 L464 680 Z " />
<glyph glyph-name="brokenbar" unicode="&#xa6;" horiz-adv-x="236" d="M105 410 L132 410 L132 735 L105 735 L105 410 Z M105 -200 L132 -200 L132 125 L105 125 L105 -200 Z " />
<glyph glyph-name="section" unicode="&#xa7;" horiz-adv-x="471" d="M276 143 C359 167 403 222 403 290 C403 461 115 440 115 579 C115 637 165 678 237 678 C314 678 359 630 359 552 C366 552 374 555 379 560 C389 566 397 577 397 593 C397 654 333 695 241 695 C136 695 74 639 74 564 C74 486 139 452 207 421 C126 400 74 349 74 276 C74 106 361 133 361 -16 C361 -82 306 -118 234 -118 C161 -118 110 -80 102 20 C91 19 80 14 71 7 C64 -1 59 -11 59 -26 C59 -81 117 -135 225 -135 C338 -135 403 -77 403 2 C403 79 342 113 276 143 L276 143 Z M116 288 C116 347 160 391 235 408 C301 378 361 345 361 272 C361 209 316 171 251 155 C182 185 116 216 116 288 L116 288 Z " />
<glyph glyph-name="dieresis" unicode="&#xa8;" horiz-adv-x="600" d="M118 625 C143 625 162 641 162 665 C162 689 143 706 118 706 C91 706 73 689 73 665 C73 641 91 625 118 625 L118 625 Z M324 625 C350 625 369 641 369 665 C369 689 350 706 324 706 C298 706 279 689 279 665 C279 641 298 625 324 625 L324 625 Z " />
<glyph glyph-name="copyright" unicode="&#xa9;" horiz-adv-x="631" d="M315 688 C175 688 63 577 63 437 C63 297 175 186 315 186 C457 186 568 296 568 437 C568 577 456 688 315 688 L315 688 Z M315 202 C184 202 81 306 81 438 C81 569 184 672 315 672 C447 672 550 569 550 438 C550 306 447 202 315 202 L315 202 Z M335 310 C272 310 219 356 219 449 C219 525 254 577 319 577 C371 577 411 543 418 484 L427 484 L427 592 L419 592 L408 562 C388 581 358 593 320 593 C231 593 171 528 171 441 C171 347 243 290 322 290 C369 290 406 308 433 343 L425 351 C401 324 368 310 335 310 L335 310 Z " />
<glyph glyph-name="ordfeminine" unicode="&#xaa;" horiz-adv-x="411" d="M354 404 C349 385 338 371 324 371 C303 371 298 400 298 434 L298 577 C298 660 254 692 190 692 C127 692 77 660 77 622 C77 602 93 594 113 594 C113 655 147 679 187 679 C233 679 255 649 255 587 L255 530 C152 529 63 505 63 430 C63 387 91 352 148 352 C199 352 240 381 258 426 C260 380 275 352 309 352 C334 352 356 369 362 401 L354 404 Z M163 376 C127 376 105 399 105 436 C105 488 148 516 255 518 L255 467 C255 415 212 376 163 376 L163 376 Z " />
<glyph glyph-name="guillemotleft" unicode="&#xab;" horiz-adv-x="510" d="M101 279 C162 243 233 158 255 92 L245 88 C189 166 116 229 47 262 L47 296 C116 329 189 392 245 470 L255 466 C233 400 162 315 101 279 L101 279 Z M291 279 C352 243 423 158 445 92 L435 88 C379 166 306 229 237 262 L237 296 C306 329 379 392 435 470 L445 466 C423 400 352 315 291 279 L291 279 Z " />
<glyph glyph-name="registered" unicode="&#xae;" horiz-adv-x="632" d="M316 688 C175 688 63 577 63 437 C63 297 175 186 316 186 C457 186 569 296 569 437 C569 577 457 688 316 688 L316 688 Z M316 202 C184 202 81 306 81 438 C81 569 184 672 316 672 C447 672 551 569 551 438 C551 306 447 202 316 202 L316 202 Z M436 306 C417 306 417 344 408 376 C399 408 385 428 355 437 C398 448 425 476 425 512 C425 558 389 589 321 589 L200 589 L200 580 C226 580 234 577 234 560 L234 323 C234 307 226 303 200 303 L200 294 L313 294 L313 303 C281 303 271 307 271 323 L271 432 L298 432 C332 432 357 412 370 367 C383 324 391 289 425 289 C445 289 460 301 465 316 L458 322 C453 310 443 306 436 306 L436 306 Z M271 446 L271 575 L309 575 C346 575 384 563 384 513 C384 461 339 446 302 446 L271 446 Z " />
<glyph glyph-name="macron" unicode="&#xaf;" horiz-adv-x="517" d="M69 678 L69 652 L330 652 L330 678 L69 678 Z " />
<glyph glyph-name="degree" unicode="&#xb0;" horiz-adv-x="334" d="M167 568 C232 568 283 618 283 683 C283 748 232 798 167 798 C102 798 51 748 51 683 C51 618 102 568 167 568 L167 568 Z M167 592 C116 592 77 631 77 683 C77 736 116 775 167 775 C217 775 256 736 256 683 C256 631 217 592 167 592 L167 592 Z " />
<glyph glyph-name="plusminus" unicode="&#xb1;" horiz-adv-x="582" d="M305 360 L305 500 L278 500 L278 360 L80 360 L80 336 L278 336 L278 194 L305 194 L305 336 L502 336 L502 360 L305 360 Z M80 94 L502 94 L502 119 L80 119 L80 94 Z " />
<glyph glyph-name="acute" unicode="&#xb4;" horiz-adv-x="263" d="M66 581 C127 601 192 662 192 714 C192 732 183 751 160 751 C157 751 154 751 151 750 C142 682 106 624 62 588 L66 581 Z " />
<glyph glyph-name="paragraph" unicode="&#xb6;" horiz-adv-x="605" d="M33 453 C33 290 156 218 346 216 L346 -240 L372 -240 L372 662 L441 662 L441 -240 L467 -240 L467 590 C467 658 503 662 574 662 L574 680 L365 680 C164 680 33 620 33 453 L33 453 Z " />
<glyph glyph-name="periodcentered" unicode="&#xb7;" horiz-adv-x="250" d="M125 284 C155 284 177 304 177 333 C177 362 155 382 125 382 C94 382 73 362 73 333 C73 304 94 284 125 284 L125 284 Z " />
<glyph glyph-name="cedilla" unicode="&#xb8;" horiz-adv-x="288" d="M128 -228 C188 -228 228 -191 228 -141 C228 -88 185 -58 131 -57 L159 0 L141 0 L101 -80 C164 -80 186 -112 186 -145 C186 -180 160 -209 115 -209 C97 -209 80 -205 61 -197 L55 -207 C74 -220 103 -228 128 -228 L128 -228 Z " />
<glyph glyph-name="ordmasculine" unicode="&#xba;" horiz-adv-x="423" d="M211 352 C304 352 366 420 366 523 C366 625 304 692 211 692 C119 692 57 625 57 523 C57 421 119 352 211 352 L211 352 Z M212 365 C139 365 103 429 103 523 C103 617 139 679 212 679 C285 679 321 616 321 523 C321 430 285 365 212 365 L212 365 Z " />
<glyph glyph-name="guillemotright" unicode="&#xbb;" horiz-adv-x="510" d="M218 279 C158 315 87 400 65 466 L75 470 C130 392 204 329 273 296 L273 262 C204 229 130 166 75 88 L65 92 C87 158 158 243 218 279 L218 279 Z M408 279 C348 315 277 400 255 466 L265 470 C320 392 394 329 463 296 L463 262 C394 229 320 166 265 88 L255 92 C277 158 348 243 408 279 L408 279 Z " />
<glyph glyph-name="onequarter" unicode="&#xbc;" horiz-adv-x="655" d="M122 657 L122 376 C122 367 117 363 84 362 L84 354 L196 354 L196 362 C161 363 158 367 158 376 L158 693 L148 695 L75 630 L83 622 L122 657 Z M563 604 L40 81 L56 64 L579 587 L563 604 Z M603 69 L603 79 L542 79 L542 242 L532 243 C528 220 519 195 506 174 L506 79 L367 79 L367 81 C438 124 513 210 513 277 C513 313 493 341 457 341 C431 341 412 327 412 306 C412 302 414 297 416 294 C422 303 431 309 442 309 C462 309 474 292 474 264 C474 204 417 128 342 76 L342 69 L506 69 L506 23 C506 13 499 10 468 9 L468 0 L580 0 L580 9 C547 10 542 13 542 23 L542 69 L603 69 Z " />
<glyph glyph-name="onehalf" unicode="&#xbd;" horiz-adv-x="661" d="M122 376 C122 367 117 363 84 362 L84 354 L196 354 L196 362 C161 363 158 367 158 376 L158 693 L148 695 L75 630 L83 622 L122 657 L122 376 Z M40 81 L56 64 L579 587 L563 604 L40 81 Z M481 341 C421 341 379 309 379 269 C379 241 400 226 418 226 C429 226 441 232 445 241 C429 243 411 255 411 278 C411 306 439 329 477 329 C518 329 549 302 549 261 C549 160 370 106 370 22 C370 12 373 4 376 0 L383 0 C388 13 406 27 429 27 C465 27 495 -7 539 -7 C575 -7 598 16 598 51 C598 59 597 69 594 77 L589 77 C587 50 570 32 536 32 C504 32 474 49 440 49 C411 49 392 35 385 21 L382 21 C388 104 588 139 588 253 C588 307 544 341 481 341 L481 341 Z " />
<glyph glyph-name="threequarters" unicode="&#xbe;" horiz-adv-x="690" d="M130 447 C126 456 114 462 103 462 C85 462 64 448 64 419 C64 378 106 348 164 348 C228 348 278 385 278 438 C278 497 215 527 173 527 L173 530 C211 531 273 559 273 616 C273 663 230 696 167 696 C106 696 64 664 64 624 C64 596 85 581 103 581 C115 581 127 587 131 596 C115 597 97 610 97 633 C97 661 125 684 163 684 C204 684 234 658 234 619 C234 571 189 536 127 534 L127 522 C193 520 237 489 237 435 C237 390 206 360 162 360 C124 360 96 383 96 410 C96 433 114 446 130 447 L130 447 Z M599 604 L76 81 L91 64 L614 587 L599 604 Z M639 69 L639 79 L577 79 L577 242 L567 243 C564 220 554 195 541 174 L541 79 L402 79 L402 81 C473 124 549 210 549 277 C549 313 529 341 492 341 C466 341 448 327 448 306 C448 302 449 297 451 294 C457 303 466 309 477 309 C497 309 510 292 510 264 C510 204 452 128 377 76 L377 69 L541 69 L541 23 C541 13 534 10 503 9 L503 0 L616 0 L616 9 C582 10 577 13 577 23 L577 69 L639 69 Z " />
<glyph glyph-name="questiondown" unicode="&#xbf;" horiz-adv-x="428" d="M221 419 C249 419 269 437 269 465 C269 492 249 511 221 511 C192 511 172 492 172 465 C172 437 192 419 221 419 L221 419 Z M202 334 L200 326 C220 317 234 296 234 270 C234 169 38 111 38 -38 C38 -125 106 -191 216 -191 C317 -191 392 -135 392 -56 C392 -7 364 27 320 27 C300 27 288 19 280 5 C322 -1 349 -17 349 -63 C349 -128 295 -174 222 -174 C147 -174 90 -127 90 -49 C90 87 266 142 266 257 C266 285 255 306 238 319 C228 327 214 333 202 334 L202 334 Z " />
<glyph glyph-name="Agrave" unicode="&#xc0;" horiz-adv-x="652" d="M361 749 C376 745 391 742 406 741 L408 748 C354 769 303 812 275 871 C256 870 247 859 247 842 C247 800 301 767 361 749 L361 749 Z M578 38 L329 695 L325 695 L85 62 C71 28 52 12 -6 12 L-6 0 L184 0 L184 12 C136 12 103 24 103 41 C103 50 124 112 161 211 L456 211 C494 107 517 42 517 31 C517 16 492 12 453 12 L453 0 L655 0 L655 12 C595 12 585 19 578 38 L578 38 Z M168 229 C204 326 253 455 311 604 C365 457 414 328 450 229 L168 229 Z " />
<glyph glyph-name="Aacute" unicode="&#xc1;" horiz-adv-x="652" d="M284 749 C343 766 398 801 398 843 C398 859 390 869 373 871 C340 810 286 767 230 748 L231 741 C247 741 267 744 284 749 L284 749 Z M578 38 L329 695 L325 695 L85 62 C71 28 52 12 -6 12 L-6 0 L184 0 L184 12 C136 12 103 24 103 41 C103 50 124 112 161 211 L456 211 C494 107 517 42 517 31 C517 16 492 12 453 12 L453 0 L655 0 L655 12 C595 12 585 19 578 38 L578 38 Z M168 229 C204 326 253 455 311 604 C365 457 414 328 450 229 L168 229 Z " />
<glyph glyph-name="Acircumflex" unicode="&#xc2;" horiz-adv-x="652" d="M313 822 C338 783 397 748 453 740 L454 748 C402 771 360 820 344 871 L306 871 C289 820 248 771 196 748 L197 740 C244 748 293 783 313 822 L313 822 Z M578 38 L329 695 L325 695 L85 62 C71 28 52 12 -6 12 L-6 0 L184 0 L184 12 C136 12 103 24 103 41 C103 50 124 112 161 211 L456 211 C494 107 517 42 517 31 C517 16 492 12 453 12 L453 0 L655 0 L655 12 C595 12 585 19 578 38 L578 38 Z M168 229 C204 326 253 455 311 604 C365 457 414 328 450 229 L168 229 Z " />
<glyph glyph-name="Atilde" unicode="&#xc3;" horiz-adv-x="652" d="M193 757 C191 764 190 774 190 779 C190 809 213 825 238 825 C291 825 329 750 397 750 C441 750 471 781 471 822 C471 833 468 846 466 853 L457 853 C459 847 460 837 460 831 C460 803 438 785 411 785 C356 785 319 861 252 861 C208 861 179 828 179 788 C179 777 182 764 184 757 L193 757 Z M578 38 L329 695 L325 695 L85 62 C71 28 52 12 -6 12 L-6 0 L184 0 L184 12 C136 12 103 24 103 41 C103 50 124 112 161 211 L456 211 C494 107 517 42 517 31 C517 16 492 12 453 12 L453 0 L655 0 L655 12 C595 12 585 19 578 38 L578 38 Z M168 229 C204 326 253 455 311 604 C365 457 414 328 450 229 L168 229 Z " />
<glyph glyph-name="Adieresis" unicode="&#xc4;" horiz-adv-x="652" d="M222 765 C248 765 267 782 267 806 C267 830 248 847 222 847 C196 847 177 830 177 806 C177 782 196 765 222 765 L222 765 Z M429 765 C454 765 473 782 473 806 C473 830 454 847 429 847 C402 847 384 830 384 806 C384 782 402 765 429 765 L429 765 Z M578 38 L329 695 L325 695 L85 62 C71 28 52 12 -6 12 L-6 0 L184 0 L184 12 C136 12 103 24 103 41 C103 50 124 112 161 211 L456 211 C494 107 517 42 517 31 C517 16 492 12 453 12 L453 0 L655 0 L655 12 C595 12 585 19 578 38 L578 38 Z M168 229 C204 326 253 455 311 604 C365 457 414 328 450 229 L168 229 Z " />
<glyph glyph-name="Aring" unicode="&#xc5;" horiz-adv-x="652" d="M326 728 C371 728 404 760 404 806 C404 851 371 883 326 883 C280 883 247 851 247 806 C247 760 280 728 326 728 L326 728 Z M326 861 C355 861 378 837 378 806 C378 774 355 750 326 750 C296 750 273 774 273 806 C273 837 296 861 326 861 L326 861 Z M578 38 L329 695 L325 695 L85 62 C71 28 52 12 -6 12 L-6 0 L184 0 L184 12 C136 12 103 24 103 41 C103 50 124 112 161 211 L456 211 C494 107 517 42 517 31 C517 16 492 12 453 12 L453 0 L655 0 L655 12 C595 12 585 19 578 38 L578 38 Z M168 229 C204 326 253 455 311 604 C365 457 414 328 450 229 L168 229 Z " />
<glyph glyph-name="AE" unicode="&#xc6;" horiz-adv-x="870" d="M816 160 C802 54 788 18 734 18 L499 18 L465 336 L646 336 C685 336 698 321 716 241 L728 241 L706 450 L694 450 C692 372 683 355 644 355 L463 355 L431 662 L645 662 C708 662 733 624 750 531 L762 531 L746 680 L299 680 L301 668 C347 668 370 665 379 655 L90 62 C74 28 53 12 -5 12 L-7 0 L183 0 L185 12 C137 12 105 24 107 41 C108 50 136 112 183 211 L428 211 L446 38 C449 17 430 12 370 12 L371 0 L828 0 L828 160 L816 160 Z M192 229 C241 331 307 469 385 627 L426 229 L192 229 Z " />
<glyph glyph-name="Ccedilla" unicode="&#xc7;" horiz-adv-x="636" d="M363 6 C221 6 118 120 118 349 C118 566 222 678 352 678 C450 678 545 612 568 461 L577 461 C573 537 573 613 573 689 L564 689 L539 619 C499 667 442 695 362 695 C180 695 60 547 60 336 C60 135 167 -7 342 -15 L310 -80 C372 -80 394 -112 394 -145 C394 -180 369 -209 323 -209 C305 -209 289 -205 270 -197 L263 -207 C282 -220 311 -228 336 -228 C396 -228 436 -191 436 -141 C436 -88 393 -58 340 -57 L360 -15 C452 -14 527 25 577 89 L566 99 C514 38 442 6 363 6 L363 6 Z " />
<glyph glyph-name="Egrave" unicode="&#xc8;" horiz-adv-x="569" d="M331 749 C346 745 361 742 376 741 L378 748 C324 769 273 812 245 871 C226 870 217 859 217 842 C217 800 271 767 331 749 L331 749 Z M507 160 C482 54 464 18 410 18 L175 18 L175 336 L356 336 C394 336 405 321 416 241 L428 241 L428 450 L416 450 C405 372 394 355 356 355 L175 355 L175 662 L389 662 C451 662 473 624 480 531 L492 531 L492 680 L45 680 L45 668 C105 668 125 663 125 642 L125 38 C125 17 105 12 45 12 L45 0 L502 0 L519 160 L507 160 Z " />
<glyph glyph-name="Eacute" unicode="&#xc9;" horiz-adv-x="569" d="M254 749 C313 766 368 801 368 843 C368 859 360 869 343 871 C310 810 256 767 200 748 L201 741 C217 741 237 744 254 749 L254 749 Z M507 160 C482 54 464 18 410 18 L175 18 L175 336 L356 336 C394 336 405 321 416 241 L428 241 L428 450 L416 450 C405 372 394 355 356 355 L175 355 L175 662 L389 662 C451 662 473 624 480 531 L492 531 L492 680 L45 680 L45 668 C105 668 125 663 125 642 L125 38 C125 17 105 12 45 12 L45 0 L502 0 L519 160 L507 160 Z " />
<glyph glyph-name="Ecircumflex" unicode="&#xca;" horiz-adv-x="569" d="M283 822 C308 783 367 748 423 740 L424 748 C372 771 330 820 314 871 L276 871 C259 820 218 771 166 748 L167 740 C214 748 263 783 283 822 L283 822 Z M507 160 C482 54 464 18 410 18 L175 18 L175 336 L356 336 C394 336 405 321 416 241 L428 241 L428 450 L416 450 C405 372 394 355 356 355 L175 355 L175 662 L389 662 C451 662 473 624 480 531 L492 531 L492 680 L45 680 L45 668 C105 668 125 663 125 642 L125 38 C125 17 105 12 45 12 L45 0 L502 0 L519 160 L507 160 Z " />
<glyph glyph-name="Edieresis" unicode="&#xcb;" horiz-adv-x="569" d="M192 765 C218 765 237 782 237 806 C237 830 218 847 192 847 C166 847 147 830 147 806 C147 782 166 765 192 765 L192 765 Z M399 765 C424 765 443 782 443 806 C443 830 424 847 399 847 C372 847 354 830 354 806 C354 782 372 765 399 765 L399 765 Z M507 160 C482 54 464 18 410 18 L175 18 L175 336 L356 336 C394 336 405 321 416 241 L428 241 L428 450 L416 450 C405 372 394 355 356 355 L175 355 L175 662 L389 662 C451 662 473 624 480 531 L492 531 L492 680 L45 680 L45 668 C105 668 125 663 125 642 L125 38 C125 17 105 12 45 12 L45 0 L502 0 L519 160 L507 160 Z " />
<glyph glyph-name="Igrave" unicode="&#xcc;" horiz-adv-x="298" d="M231 741 L233 748 C179 769 128 812 100 871 C81 870 72 859 72 842 C72 800 126 767 186 749 C201 745 216 742 231 741 L231 741 Z M174 642 C174 663 193 668 249 668 L249 680 L50 680 L50 668 C106 668 124 663 124 642 L124 38 C124 17 106 12 50 12 L50 0 L249 0 L249 12 C193 12 174 17 174 38 L174 642 Z " />
<glyph glyph-name="Iacute" unicode="&#xcd;" horiz-adv-x="298" d="M56 741 C72 741 92 744 109 749 C168 766 223 801 223 843 C223 859 215 869 198 871 C165 810 111 767 55 748 L56 741 Z M174 642 C174 663 193 668 249 668 L249 680 L50 680 L50 668 C106 668 124 663 124 642 L124 38 C124 17 106 12 50 12 L50 0 L249 0 L249 12 C193 12 174 17 174 38 L174 642 Z " />
<glyph glyph-name="Icircumflex" unicode="&#xce;" horiz-adv-x="298" d="M169 871 L131 871 C114 820 73 771 21 748 L22 740 C69 748 118 783 138 822 C163 783 222 748 278 740 L279 748 C227 771 185 820 169 871 L169 871 Z M50 668 C106 668 124 663 124 642 L124 38 C124 17 106 12 50 12 L50 0 L249 0 L249 12 C193 12 174 17 174 38 L174 642 C174 663 193 668 249 668 L249 680 L50 680 L50 668 Z " />
<glyph glyph-name="Idieresis" unicode="&#xcf;" horiz-adv-x="298" d="M46 765 C72 765 91 782 91 806 C91 830 72 847 46 847 C20 847 1 830 1 806 C1 782 20 765 46 765 L46 765 Z M253 765 C278 765 297 782 297 806 C297 830 278 847 253 847 C226 847 208 830 208 806 C208 782 226 765 253 765 L253 765 Z M174 642 C174 663 193 668 249 668 L249 680 L50 680 L50 668 C106 668 124 663 124 642 L124 38 C124 17 106 12 50 12 L50 0 L249 0 L249 12 C193 12 174 17 174 38 L174 642 Z " />
<glyph glyph-name="Eth" unicode="&#xd0;" horiz-adv-x="700" d="M296 680 L45 680 L45 668 C105 668 124 663 124 642 L124 348 L46 348 L46 330 L124 330 L124 38 C124 17 105 12 45 12 L45 0 L296 0 C519 0 640 136 640 340 C640 544 519 680 296 680 L296 680 Z M301 17 L175 17 L175 330 L352 330 L352 348 L175 348 L175 663 L301 663 C467 663 582 558 582 340 C582 122 467 17 301 17 L301 17 Z " />
<glyph glyph-name="Ntilde" unicode="&#xd1;" horiz-adv-x="709" d="M225 757 C223 764 222 774 222 779 C222 809 245 825 270 825 C323 825 361 750 429 750 C473 750 503 781 503 822 C503 833 500 846 498 853 L489 853 C491 847 492 837 492 831 C492 803 470 785 443 785 C388 785 351 861 284 861 C240 861 211 828 211 788 C211 777 214 764 216 757 L225 757 Z M479 680 L479 668 C546 668 568 653 568 612 L568 94 L170 680 L46 680 L46 668 C106 668 125 663 125 642 L125 68 C125 27 106 12 46 12 L46 0 L234 0 L234 12 C167 12 145 27 145 68 L145 628 L579 -5 L588 -5 L588 612 C588 653 607 668 667 668 L667 680 L479 680 Z " />
<glyph glyph-name="Ograve" unicode="&#xd2;" horiz-adv-x="723" d="M443 739 L445 746 C391 767 340 810 312 869 C293 868 284 857 284 840 C284 798 338 765 398 747 C413 743 428 740 443 739 L443 739 Z M663 340 C663 549 545 695 361 695 C177 695 60 549 60 340 C60 131 177 -15 361 -15 C545 -15 663 131 663 340 L663 340 Z M118 340 C118 561 222 678 361 678 C501 678 605 561 605 340 C605 119 501 2 361 2 C222 2 118 119 118 340 L118 340 Z " />
<glyph glyph-name="Oacute" unicode="&#xd3;" horiz-adv-x="723" d="M268 739 C284 739 304 742 321 747 C380 764 435 799 435 841 C435 857 427 867 410 869 C377 808 323 765 267 746 L268 739 Z M663 340 C663 549 545 695 361 695 C177 695 60 549 60 340 C60 131 177 -15 361 -15 C545 -15 663 131 663 340 L663 340 Z M118 340 C118 561 222 678 361 678 C501 678 605 561 605 340 C605 119 501 2 361 2 C222 2 118 119 118 340 L118 340 Z " />
<glyph glyph-name="Ocircumflex" unicode="&#xd4;" horiz-adv-x="723" d="M350 820 C375 781 434 746 490 738 L491 746 C439 769 397 818 381 869 L343 869 C326 818 285 769 233 746 L234 738 C281 746 330 781 350 820 L350 820 Z M361 695 C177 695 60 549 60 340 C60 131 177 -15 361 -15 C545 -15 663 131 663 340 C663 549 545 695 361 695 L361 695 Z M361 2 C222 2 118 119 118 340 C118 561 222 678 361 678 C501 678 605 561 605 340 C605 119 501 2 361 2 L361 2 Z " />
<glyph glyph-name="Otilde" unicode="&#xd5;" horiz-adv-x="723" d="M288 859 C244 859 215 826 215 786 C215 775 218 762 220 755 L229 755 C227 762 226 772 226 777 C226 807 249 823 274 823 C327 823 365 748 433 748 C477 748 507 779 507 820 C507 831 504 844 502 851 L493 851 C495 845 496 835 496 829 C496 801 474 783 447 783 C392 783 355 859 288 859 L288 859 Z M663 340 C663 549 545 695 361 695 C177 695 60 549 60 340 C60 131 177 -15 361 -15 C545 -15 663 131 663 340 L663 340 Z M118 340 C118 561 222 678 361 678 C501 678 605 561 605 340 C605 119 501 2 361 2 C222 2 118 119 118 340 L118 340 Z " />
<glyph glyph-name="Odieresis" unicode="&#xd6;" horiz-adv-x="723" d="M258 763 C284 763 303 780 303 804 C303 828 284 845 258 845 C232 845 213 828 213 804 C213 780 232 763 258 763 L258 763 Z M465 763 C490 763 509 780 509 804 C509 828 490 845 465 845 C438 845 420 828 420 804 C420 780 438 763 465 763 L465 763 Z M663 340 C663 549 545 695 361 695 C177 695 60 549 60 340 C60 131 177 -15 361 -15 C545 -15 663 131 663 340 L663 340 Z M118 340 C118 561 222 678 361 678 C501 678 605 561 605 340 C605 119 501 2 361 2 C222 2 118 119 118 340 L118 340 Z " />
<glyph glyph-name="multiply" unicode="&#xd7;" horiz-adv-x="511" d="M441 439 L424 457 L256 295 L87 457 L70 439 L237 277 L70 116 L87 97 L256 260 L424 97 L441 116 L274 277 L441 439 Z " />
<glyph glyph-name="Oslash" unicode="&#xd8;" horiz-adv-x="723" d="M577 601 L639 678 L623 691 L563 616 C512 666 443 695 361 695 C177 695 60 549 60 340 C60 237 88 150 139 87 L70 1 L86 -12 L153 71 C204 17 275 -15 361 -15 C545 -15 663 131 663 340 C663 447 632 538 577 601 L577 601 Z M118 340 C118 561 222 678 361 678 C433 678 496 647 539 587 L166 121 C136 176 118 249 118 340 L118 340 Z M361 2 C286 2 221 36 177 102 L551 569 C585 513 605 436 605 340 C605 119 501 2 361 2 L361 2 Z " />
<glyph glyph-name="Ugrave" unicode="&#xd9;" horiz-adv-x="683" d="M431 741 L433 748 C379 769 328 812 300 871 C281 870 272 859 272 842 C272 800 326 767 386 749 C401 745 416 742 431 741 L431 741 Z M548 612 L548 240 C548 81 467 6 353 6 C237 6 164 84 164 243 L164 642 C164 663 183 668 243 668 L243 680 L35 680 L35 668 C95 668 114 663 114 642 L114 241 C114 75 205 -15 343 -15 C489 -15 568 85 568 242 L568 612 C568 653 587 668 647 668 L647 680 L456 680 L456 668 C525 668 548 653 548 612 L548 612 Z " />
<glyph glyph-name="Uacute" unicode="&#xda;" horiz-adv-x="683" d="M256 741 C272 741 292 744 309 749 C368 766 423 801 423 843 C423 859 415 869 398 871 C365 810 311 767 255 748 L256 741 Z M548 612 L548 240 C548 81 467 6 353 6 C237 6 164 84 164 243 L164 642 C164 663 183 668 243 668 L243 680 L35 680 L35 668 C95 668 114 663 114 642 L114 241 C114 75 205 -15 343 -15 C489 -15 568 85 568 242 L568 612 C568 653 587 668 647 668 L647 680 L456 680 L456 668 C525 668 548 653 548 612 L548 612 Z " />
<glyph glyph-name="Ucircumflex" unicode="&#xdb;" horiz-adv-x="683" d="M338 822 C363 783 422 748 478 740 L479 748 C427 771 385 820 369 871 L331 871 C314 820 273 771 221 748 L222 740 C269 748 318 783 338 822 L338 822 Z M456 680 L456 668 C525 668 548 653 548 612 L548 240 C548 81 467 6 353 6 C237 6 164 84 164 243 L164 642 C164 663 183 668 243 668 L243 680 L35 680 L35 668 C95 668 114 663 114 642 L114 241 C114 75 205 -15 343 -15 C489 -15 568 85 568 242 L568 612 C568 653 587 668 647 668 L647 680 L456 680 Z " />
<glyph glyph-name="Udieresis" unicode="&#xdc;" horiz-adv-x="683" d="M246 765 C272 765 291 782 291 806 C291 830 272 847 246 847 C220 847 201 830 201 806 C201 782 220 765 246 765 L246 765 Z M453 765 C478 765 497 782 497 806 C497 830 478 847 453 847 C426 847 408 830 408 806 C408 782 426 765 453 765 L453 765 Z M548 612 L548 240 C548 81 467 6 353 6 C237 6 164 84 164 243 L164 642 C164 663 183 668 243 668 L243 680 L35 680 L35 668 C95 668 114 663 114 642 L114 241 C114 75 205 -15 343 -15 C489 -15 568 85 568 242 L568 612 C568 653 587 668 647 668 L647 680 L456 680 L456 668 C525 668 548 653 548 612 L548 612 Z " />
<glyph glyph-name="Yacute" unicode="&#xdd;" horiz-adv-x="638" d="M288 749 C347 766 402 801 402 843 C402 859 394 869 377 871 C344 810 290 767 234 748 L235 741 C251 741 271 744 288 749 L288 749 Z M441 680 L441 668 C493 668 528 659 528 636 C528 619 522 607 335 271 C151 605 137 631 137 646 C137 663 159 668 202 668 L202 680 L2 680 L2 668 C54 668 66 662 76 643 L293 247 L293 38 C293 17 275 12 219 12 L219 0 L418 0 L418 12 C362 12 344 17 344 38 L344 246 L547 617 C566 653 582 668 641 668 L641 680 L441 680 Z " />
<glyph glyph-name="Thorn" unicode="&#xde;" horiz-adv-x="575" d="M245 149 C427 149 523 223 523 347 C523 465 438 537 260 537 L174 537 L174 642 C174 663 193 668 249 668 L249 680 L50 680 L50 668 C106 668 124 663 124 642 L124 38 C124 17 106 12 50 12 L50 0 L249 0 L249 12 C193 12 174 17 174 38 L174 149 L245 149 Z M254 519 C382 519 467 466 467 345 C467 221 379 168 249 168 L174 168 L174 519 L254 519 Z " />
<glyph glyph-name="germandbls" unicode="&#xdf;" horiz-adv-x="576" d="M284 393 C284 487 448 507 448 622 C448 692 388 740 295 740 C159 740 115 639 115 526 L115 500 L40 500 L40 480 L115 480 L115 44 C115 18 97 12 40 12 L40 0 L166 0 L166 526 C166 586 166 723 293 723 C373 723 404 670 404 619 C404 507 250 480 250 369 C250 229 498 247 498 102 C498 39 451 2 386 2 C315 2 280 49 275 131 C266 129 258 126 252 120 C245 114 241 103 241 91 C241 37 290 -15 380 -15 C473 -15 543 36 543 121 C543 283 284 276 284 393 L284 393 Z " />
<glyph glyph-name="agrave" unicode="&#xe0;" horiz-adv-x="502" d="M303 581 L306 588 C260 624 223 682 214 750 C211 751 207 751 205 751 C184 751 176 732 176 714 C176 662 241 601 303 581 L303 581 Z M493 52 C484 27 469 6 444 6 C413 6 402 43 402 101 L402 338 C402 473 331 515 243 515 C151 515 74 467 74 411 C74 384 93 369 120 369 C120 454 172 499 241 499 C312 499 352 455 352 355 L352 259 C190 257 51 224 51 106 C51 39 94 -15 183 -15 C267 -15 330 32 356 103 C357 29 379 -15 430 -15 C468 -15 495 11 503 48 L493 52 Z M201 9 C141 9 104 49 104 112 C104 197 175 241 352 243 L352 162 C352 73 278 9 201 9 L201 9 Z " />
<glyph glyph-name="aacute" unicode="&#xe1;" horiz-adv-x="502" d="M305 714 C305 732 296 751 273 751 C270 751 267 751 264 750 C255 682 219 624 175 588 L179 581 C240 601 305 662 305 714 L305 714 Z M493 52 C484 27 469 6 444 6 C413 6 402 43 402 101 L402 338 C402 473 331 515 243 515 C151 515 74 467 74 411 C74 384 93 369 120 369 C120 454 172 499 241 499 C312 499 352 455 352 355 L352 259 C190 257 51 224 51 106 C51 39 94 -15 183 -15 C267 -15 330 32 356 103 C357 29 379 -15 430 -15 C468 -15 495 11 503 48 L493 52 Z M201 9 C141 9 104 49 104 112 C104 197 175 241 352 243 L352 162 C352 73 278 9 201 9 L201 9 Z " />
<glyph glyph-name="acircumflex" unicode="&#xe2;" horiz-adv-x="502" d="M232 695 C256 644 310 600 365 587 L368 595 C317 625 276 685 260 745 L223 745 C207 685 166 625 115 595 L118 587 C164 600 212 644 232 695 L232 695 Z M493 52 C484 27 469 6 444 6 C413 6 402 43 402 101 L402 338 C402 473 331 515 243 515 C151 515 74 467 74 411 C74 384 93 369 120 369 C120 454 172 499 241 499 C312 499 352 455 352 355 L352 259 C190 257 51 224 51 106 C51 39 94 -15 183 -15 C267 -15 330 32 356 103 C357 29 379 -15 430 -15 C468 -15 495 11 503 48 L493 52 Z M201 9 C141 9 104 49 104 112 C104 197 175 241 352 243 L352 162 C352 73 278 9 201 9 L201 9 Z " />
<glyph glyph-name="atilde" unicode="&#xe3;" horiz-adv-x="502" d="M108 614 C108 617 106 623 106 632 C106 671 131 686 154 686 C206 686 243 609 310 609 C353 609 381 640 381 683 C381 696 379 708 377 715 L368 715 C369 711 370 703 370 694 C370 663 350 644 323 644 C269 644 234 722 168 722 C125 722 95 690 95 646 C95 635 97 622 100 614 L108 614 Z M493 52 C484 27 469 6 444 6 C413 6 402 43 402 101 L402 338 C402 473 331 515 243 515 C151 515 74 467 74 411 C74 384 93 369 120 369 C120 454 172 499 241 499 C312 499 352 455 352 355 L352 259 C190 257 51 224 51 106 C51 39 94 -15 183 -15 C267 -15 330 32 356 103 C357 29 379 -15 430 -15 C468 -15 495 11 503 48 L493 52 Z M201 9 C141 9 104 49 104 112 C104 197 175 241 352 243 L352 162 C352 73 278 9 201 9 L201 9 Z " />
<glyph glyph-name="adieresis" unicode="&#xe4;" horiz-adv-x="502" d="M138 625 C163 625 182 641 182 665 C182 689 163 706 138 706 C111 706 93 689 93 665 C93 641 111 625 138 625 L138 625 Z M344 625 C370 625 389 641 389 665 C389 689 370 706 344 706 C318 706 299 689 299 665 C299 641 318 625 344 625 L344 625 Z M493 52 C484 27 469 6 444 6 C413 6 402 43 402 101 L402 338 C402 473 331 515 243 515 C151 515 74 467 74 411 C74 384 93 369 120 369 C120 454 172 499 241 499 C312 499 352 455 352 355 L352 259 C190 257 51 224 51 106 C51 39 94 -15 183 -15 C267 -15 330 32 356 103 C357 29 379 -15 430 -15 C468 -15 495 11 503 48 L493 52 Z M201 9 C141 9 104 49 104 112 C104 197 175 241 352 243 L352 162 C352 73 278 9 201 9 L201 9 Z " />
<glyph glyph-name="aring" unicode="&#xe5;" horiz-adv-x="502" d="M240 592 C283 592 314 622 314 665 C314 708 283 739 240 739 C197 739 166 708 166 665 C166 622 197 592 240 592 L240 592 Z M240 717 C267 717 288 694 288 665 C288 636 267 614 240 614 C213 614 192 636 192 665 C192 694 213 717 240 717 L240 717 Z M493 52 C484 27 469 6 444 6 C413 6 402 43 402 101 L402 338 C402 473 331 515 243 515 C151 515 74 467 74 411 C74 384 93 369 120 369 C120 454 172 499 241 499 C312 499 352 455 352 355 L352 259 C190 257 51 224 51 106 C51 39 94 -15 183 -15 C267 -15 330 32 356 103 C357 29 379 -15 430 -15 C468 -15 495 11 503 48 L493 52 Z M201 9 C141 9 104 49 104 112 C104 197 175 241 352 243 L352 162 C352 73 278 9 201 9 L201 9 Z " />
<glyph glyph-name="ae" unicode="&#xe6;" horiz-adv-x="819" d="M756 267 C763 283 766 303 766 326 C766 443 686 515 578 515 C500 515 434 476 394 410 C372 488 313 515 243 515 C151 515 74 467 74 411 C74 384 93 369 120 369 C120 454 172 499 241 499 C312 499 352 455 352 355 L352 259 C190 257 51 224 51 105 C51 39 94 -15 183 -15 C275 -15 350 42 371 137 C404 45 480 -15 578 -15 C651 -15 721 18 756 83 L747 91 C714 36 656 6 591 6 C469 6 406 111 406 255 L406 267 L756 267 Z M576 499 C669 499 716 423 716 328 C716 288 708 285 694 285 L407 285 C415 407 473 499 576 499 L576 499 Z M202 9 C141 9 104 49 104 111 C104 197 175 241 352 243 L352 162 C352 73 278 9 202 9 L202 9 Z " />
<glyph glyph-name="ccedilla" unicode="&#xe7;" horiz-adv-x="488" d="M443 83 L434 91 C403 36 350 6 288 6 C176 6 109 108 109 255 C109 394 170 499 279 499 C320 499 350 484 370 458 C389 431 398 395 398 352 C424 352 441 368 441 399 C441 466 375 515 285 515 C150 515 54 407 54 250 C54 102 139 -7 261 -15 L229 -80 C291 -80 313 -112 313 -145 C313 -180 288 -209 242 -209 C224 -209 208 -205 189 -197 L182 -207 C201 -220 230 -228 255 -228 C315 -228 355 -191 355 -141 C355 -88 312 -58 259 -57 L279 -15 C349 -14 412 19 443 83 L443 83 Z " />
<glyph glyph-name="egrave" unicode="&#xe8;" horiz-adv-x="522" d="M329 581 L332 588 C286 624 249 682 240 750 C237 751 233 751 231 751 C210 751 202 732 202 714 C202 662 267 601 329 581 L329 581 Z M459 267 C466 283 469 303 469 326 C469 443 389 515 282 515 C152 515 54 408 54 250 C54 96 146 -15 281 -15 C355 -15 424 18 459 83 L450 91 C418 36 360 6 295 6 C173 6 109 111 109 255 L109 267 L459 267 Z M279 499 C372 499 419 423 419 328 C419 288 412 285 398 285 L110 285 C118 407 177 499 279 499 L279 499 Z " />
<glyph glyph-name="eacute" unicode="&#xe9;" horiz-adv-x="522" d="M332 714 C332 732 323 751 300 751 C297 751 294 751 291 750 C282 682 246 624 202 588 L206 581 C267 601 332 662 332 714 L332 714 Z M459 267 C466 283 469 303 469 326 C469 443 389 515 282 515 C152 515 54 408 54 250 C54 96 146 -15 281 -15 C355 -15 424 18 459 83 L450 91 C418 36 360 6 295 6 C173 6 109 111 109 255 L109 267 L459 267 Z M279 499 C372 499 419 423 419 328 C419 288 412 285 398 285 L110 285 C118 407 177 499 279 499 L279 499 Z " />
<glyph glyph-name="ecircumflex" unicode="&#xea;" horiz-adv-x="522" d="M258 695 C282 644 336 600 391 587 L394 595 C343 625 302 685 286 745 L249 745 C233 685 192 625 141 595 L144 587 C190 600 238 644 258 695 L258 695 Z M459 267 C466 283 469 303 469 326 C469 443 389 515 282 515 C152 515 54 408 54 250 C54 96 146 -15 281 -15 C355 -15 424 18 459 83 L450 91 C418 36 360 6 295 6 C173 6 109 111 109 255 L109 267 L459 267 Z M279 499 C372 499 419 423 419 328 C419 288 412 285 398 285 L110 285 C118 407 177 499 279 499 L279 499 Z " />
<glyph glyph-name="edieresis" unicode="&#xeb;" horiz-adv-x="522" d="M165 625 C190 625 209 641 209 665 C209 689 190 706 165 706 C138 706 120 689 120 665 C120 641 138 625 165 625 L165 625 Z M371 625 C397 625 416 641 416 665 C416 689 397 706 371 706 C345 706 326 689 326 665 C326 641 345 625 371 625 L371 625 Z M459 267 C466 283 469 303 469 326 C469 443 389 515 282 515 C152 515 54 408 54 250 C54 96 146 -15 281 -15 C355 -15 424 18 459 83 L450 91 C418 36 360 6 295 6 C173 6 109 111 109 255 L109 267 L459 267 Z M279 499 C372 499 419 423 419 328 C419 288 412 285 398 285 L110 285 C118 407 177 499 279 499 L279 499 Z " />
<glyph glyph-name="igrave" unicode="&#xec;" horiz-adv-x="270" d="M191 581 L194 588 C148 624 111 682 102 750 C99 751 95 751 93 751 C72 751 64 732 64 714 C64 662 129 601 191 581 L191 581 Z M114 44 C114 17 96 12 38 12 L38 0 L239 0 L239 12 C182 12 164 17 164 44 L164 515 L38 500 L38 489 C92 489 114 485 114 465 L114 44 Z " />
<glyph glyph-name="iacute" unicode="&#xed;" horiz-adv-x="270" d="M67 581 C128 601 193 662 193 714 C193 732 184 751 161 751 C158 751 155 751 152 750 C143 682 107 624 63 588 L67 581 Z M114 44 C114 17 96 12 38 12 L38 0 L239 0 L239 12 C182 12 164 17 164 44 L164 515 L38 500 L38 489 C92 489 114 485 114 465 L114 44 Z " />
<glyph glyph-name="icircumflex" unicode="&#xee;" horiz-adv-x="270" d="M146 745 L112 745 C98 685 61 625 15 595 L18 587 C59 600 102 644 120 695 C142 644 192 600 241 587 L243 595 C197 625 160 685 146 745 L146 745 Z M164 44 L164 515 L38 500 L38 489 C92 489 114 485 114 465 L114 44 C114 17 96 12 38 12 L38 0 L239 0 L239 12 C182 12 164 17 164 44 L164 44 Z " />
<glyph glyph-name="idieresis" unicode="&#xef;" horiz-adv-x="270" d="M65 625 C91 625 110 641 110 665 C110 689 91 706 65 706 C39 706 20 689 20 665 C20 641 39 625 65 625 L65 625 Z M194 625 C220 625 239 641 239 665 C239 689 220 706 194 706 C168 706 149 689 149 665 C149 641 168 625 194 625 L194 625 Z M114 44 C114 17 96 12 38 12 L38 0 L239 0 L239 12 C182 12 164 17 164 44 L164 515 L38 500 L38 489 C92 489 114 485 114 465 L114 44 Z " />
<glyph glyph-name="eth" unicode="&#xf0;" horiz-adv-x="580" d="M327 652 L404 703 L393 720 L311 666 C276 694 238 719 197 739 L188 723 C221 703 254 678 286 649 L203 594 L213 577 L300 635 C350 585 394 524 423 453 C388 493 339 515 278 515 C144 515 55 407 55 252 C55 95 149 -15 291 -15 C428 -15 520 95 520 256 C520 401 446 548 327 652 L327 652 Z M292 2 C171 2 109 110 109 251 C109 392 170 498 286 498 C368 498 432 446 456 348 C462 317 465 285 465 251 C465 110 407 2 292 2 L292 2 Z " />
<glyph glyph-name="ntilde" unicode="&#xf1;" horiz-adv-x="595" d="M168 614 C168 617 166 623 166 632 C166 671 191 686 214 686 C266 686 303 609 370 609 C413 609 441 640 441 683 C441 696 439 708 437 715 L428 715 C429 711 430 703 430 694 C430 663 410 644 383 644 C329 644 294 722 228 722 C185 722 155 690 155 646 C155 635 157 622 160 614 L168 614 Z M493 44 L493 348 C493 475 410 515 337 515 C255 515 184 467 160 393 L163 515 L38 500 L38 489 C92 489 114 485 114 465 L114 44 C114 17 96 12 38 12 L38 0 L239 0 L239 12 C182 12 164 17 164 44 L164 322 C164 429 241 494 320 494 C382 494 443 454 443 346 L443 44 C443 17 425 12 368 12 L368 0 L569 0 L569 12 C511 12 493 17 493 44 L493 44 Z " />
<glyph glyph-name="ograve" unicode="&#xf2;" horiz-adv-x="581" d="M352 581 L355 588 C309 624 272 682 263 750 C260 751 256 751 254 751 C233 751 225 732 225 714 C225 662 290 601 352 581 L352 581 Z M290 -15 C432 -15 526 95 526 251 C526 407 432 515 290 515 C149 515 54 407 54 251 C54 95 149 -15 290 -15 L290 -15 Z M291 1 C171 1 109 109 109 251 C109 393 171 499 291 499 C411 499 472 393 472 251 C472 109 411 1 291 1 L291 1 Z " />
<glyph glyph-name="oacute" unicode="&#xf3;" horiz-adv-x="581" d="M228 581 C289 601 354 662 354 714 C354 732 345 751 322 751 C319 751 316 751 313 750 C304 682 268 624 224 588 L228 581 Z M290 -15 C432 -15 526 95 526 251 C526 407 432 515 290 515 C149 515 54 407 54 251 C54 95 149 -15 290 -15 L290 -15 Z M291 1 C171 1 109 109 109 251 C109 393 171 499 291 499 C411 499 472 393 472 251 C472 109 411 1 291 1 L291 1 Z " />
<glyph glyph-name="ocircumflex" unicode="&#xf4;" horiz-adv-x="581" d="M281 695 C305 644 359 600 414 587 L417 595 C366 625 325 685 309 745 L272 745 C256 685 215 625 164 595 L167 587 C213 600 261 644 281 695 L281 695 Z M290 515 C149 515 54 407 54 251 C54 95 149 -15 290 -15 C432 -15 526 95 526 251 C526 407 432 515 290 515 L290 515 Z M291 1 C171 1 109 109 109 251 C109 393 171 499 291 499 C411 499 472 393 472 251 C472 109 411 1 291 1 L291 1 Z " />
<glyph glyph-name="otilde" unicode="&#xf5;" horiz-adv-x="581" d="M217 722 C174 722 144 690 144 646 C144 635 146 622 149 614 L157 614 C157 617 155 623 155 632 C155 671 180 686 203 686 C255 686 292 609 359 609 C402 609 430 640 430 683 C430 696 428 708 426 715 L417 715 C418 711 419 703 419 694 C419 663 399 644 372 644 C318 644 283 722 217 722 L217 722 Z M290 -15 C432 -15 526 95 526 251 C526 407 432 515 290 515 C149 515 54 407 54 251 C54 95 149 -15 290 -15 L290 -15 Z M291 1 C171 1 109 109 109 251 C109 393 171 499 291 499 C411 499 472 393 472 251 C472 109 411 1 291 1 L291 1 Z " />
<glyph glyph-name="odieresis" unicode="&#xf6;" horiz-adv-x="581" d="M187 625 C212 625 231 641 231 665 C231 689 212 706 187 706 C160 706 142 689 142 665 C142 641 160 625 187 625 L187 625 Z M393 625 C419 625 438 641 438 665 C438 689 419 706 393 706 C367 706 348 689 348 665 C348 641 367 625 393 625 L393 625 Z M290 -15 C432 -15 526 95 526 251 C526 407 432 515 290 515 C149 515 54 407 54 251 C54 95 149 -15 290 -15 L290 -15 Z M291 1 C171 1 109 109 109 251 C109 393 171 499 291 499 C411 499 472 393 472 251 C472 109 411 1 291 1 L291 1 Z " />
<glyph glyph-name="divide" unicode="&#xf7;" horiz-adv-x="587" d="M295 418 C312 418 325 430 325 448 C325 466 312 478 295 478 C275 478 263 466 263 448 C263 430 275 418 295 418 L295 418 Z M79 277 L509 277 L509 302 L79 302 L79 277 Z M295 101 C312 101 325 113 325 131 C325 149 312 161 295 161 C275 161 263 149 263 131 C263 113 275 101 295 101 L295 101 Z " />
<glyph glyph-name="oslash" unicode="&#xf8;" horiz-adv-x="581" d="M440 462 L486 536 L468 548 L423 476 C386 501 341 515 290 515 C149 515 54 407 54 251 C54 159 87 82 144 36 L97 -39 L115 -51 L161 23 C197 -2 241 -15 290 -15 C432 -15 526 95 526 251 C526 342 494 416 440 462 L440 462 Z M109 251 C109 393 171 499 291 499 C339 499 378 482 407 452 L162 63 C127 108 109 175 109 251 L109 251 Z M291 1 C244 1 206 18 177 46 L421 436 C455 391 472 326 472 251 C472 109 411 1 291 1 L291 1 Z " />
<glyph glyph-name="ugrave" unicode="&#xf9;" horiz-adv-x="583" d="M345 581 L348 588 C302 624 265 682 256 750 C253 751 249 751 247 751 C226 751 218 732 218 714 C218 662 283 601 345 581 L345 581 Z M563 52 C556 27 540 6 515 6 C484 6 474 43 474 101 L474 515 L348 500 L348 489 C403 489 423 485 423 465 L423 172 C423 67 345 6 270 6 C211 6 153 46 153 155 L153 515 L27 500 L27 489 C82 489 102 485 102 465 L102 154 C102 23 185 -15 257 -15 C340 -15 409 36 427 105 L428 105 C428 32 449 -15 501 -15 C539 -15 566 11 574 48 L563 52 Z " />
<glyph glyph-name="uacute" unicode="&#xfa;" horiz-adv-x="583" d="M347 714 C347 732 338 751 315 751 C312 751 309 751 306 750 C297 682 261 624 217 588 L221 581 C282 601 347 662 347 714 L347 714 Z M563 52 C556 27 540 6 515 6 C484 6 474 43 474 101 L474 515 L348 500 L348 489 C403 489 423 485 423 465 L423 172 C423 67 345 6 270 6 C211 6 153 46 153 155 L153 515 L27 500 L27 489 C82 489 102 485 102 465 L102 154 C102 23 185 -15 257 -15 C340 -15 409 36 427 105 L428 105 C428 32 449 -15 501 -15 C539 -15 566 11 574 48 L563 52 Z " />
<glyph glyph-name="ucircumflex" unicode="&#xfb;" horiz-adv-x="583" d="M274 695 C298 644 352 600 407 587 L410 595 C359 625 318 685 302 745 L265 745 C249 685 208 625 157 595 L160 587 C206 600 254 644 274 695 L274 695 Z M563 52 C556 27 540 6 515 6 C484 6 474 43 474 101 L474 515 L348 500 L348 489 C403 489 423 485 423 465 L423 172 C423 67 345 6 270 6 C211 6 153 46 153 155 L153 515 L27 500 L27 489 C82 489 102 485 102 465 L102 154 C102 23 185 -15 257 -15 C340 -15 409 36 427 105 L428 105 C428 32 449 -15 501 -15 C539 -15 566 11 574 48 L563 52 Z " />
<glyph glyph-name="udieresis" unicode="&#xfc;" horiz-adv-x="583" d="M180 625 C205 625 224 641 224 665 C224 689 205 706 180 706 C153 706 135 689 135 665 C135 641 153 625 180 625 L180 625 Z M386 625 C412 625 431 641 431 665 C431 689 412 706 386 706 C360 706 341 689 341 665 C341 641 360 625 386 625 L386 625 Z M563 52 C556 27 540 6 515 6 C484 6 474 43 474 101 L474 515 L348 500 L348 489 C403 489 423 485 423 465 L423 172 C423 67 345 6 270 6 C211 6 153 46 153 155 L153 515 L27 500 L27 489 C82 489 102 485 102 465 L102 154 C102 23 185 -15 257 -15 C340 -15 409 36 427 105 L428 105 C428 32 449 -15 501 -15 C539 -15 566 11 574 48 L563 52 Z " />
<glyph glyph-name="yacute" unicode="&#xfd;" horiz-adv-x="537" d="M339 714 C339 732 330 751 307 751 C304 751 301 751 298 750 C289 682 253 624 209 588 L213 581 C274 601 339 662 339 714 L339 714 Z M365 500 L365 488 C414 488 431 476 431 455 C431 408 337 187 281 48 C241 149 123 422 123 463 C123 482 150 488 202 488 L202 500 L6 500 L6 488 C44 487 57 482 65 460 L256 -16 L258 -16 C199 -158 157 -233 93 -233 C46 -233 39 -196 39 -135 C11 -135 -9 -158 -9 -187 C-9 -223 23 -255 80 -255 C154 -255 206 -198 274 -25 L463 454 C474 482 493 487 532 488 L532 500 L365 500 Z " />
<glyph glyph-name="thorn" unicode="&#xfe;" horiz-adv-x="585" d="M318 513 C235 513 165 462 140 395 L140 738 L16 725 L16 714 C70 714 91 710 91 690 L91 -253 L216 -240 L216 -229 C161 -229 140 -225 140 -205 L140 102 C167 35 223 -13 309 -13 C439 -13 530 98 530 251 C530 405 438 513 318 513 L318 513 Z M307 4 C211 4 142 90 142 185 L142 314 C142 416 221 496 313 496 C419 496 476 392 476 253 C476 113 415 4 307 4 L307 4 Z " />
<glyph glyph-name="ydieresis" unicode="&#xff;" horiz-adv-x="537" d="M173 625 C198 625 217 641 217 665 C217 689 198 706 173 706 C146 706 128 689 128 665 C128 641 146 625 173 625 L173 625 Z M379 625 C405 625 424 641 424 665 C424 689 405 706 379 706 C353 706 334 689 334 665 C334 641 353 625 379 625 L379 625 Z M365 500 L365 488 C414 488 431 476 431 455 C431 408 337 187 281 48 C241 149 123 422 123 463 C123 482 150 488 202 488 L202 500 L6 500 L6 488 C44 487 57 482 65 460 L256 -16 L258 -16 C199 -158 157 -233 93 -233 C46 -233 39 -196 39 -135 C11 -135 -9 -158 -9 -187 C-9 -223 23 -255 80 -255 C154 -255 206 -198 274 -25 L463 454 C474 482 493 487 532 488 L532 500 L365 500 Z " />
<glyph glyph-name="Amacron" unicode="&#x100;" horiz-adv-x="652" d="M458 819 L193 819 L193 792 L458 792 L458 819 Z M578 38 L329 695 L325 695 L85 62 C71 28 52 12 -6 12 L-6 0 L184 0 L184 12 C136 12 103 24 103 41 C103 50 124 112 161 211 L456 211 C494 107 517 42 517 31 C517 16 492 12 453 12 L453 0 L655 0 L655 12 C595 12 585 19 578 38 L578 38 Z M168 229 C204 326 253 455 311 604 C365 457 414 328 450 229 L168 229 Z " />
<glyph glyph-name="amacron" unicode="&#x101;" horiz-adv-x="502" d="M372 678 L111 678 L111 652 L372 652 L372 678 Z M493 52 C484 27 469 6 444 6 C413 6 402 43 402 101 L402 338 C402 473 331 515 243 515 C151 515 74 467 74 411 C74 384 93 369 120 369 C120 454 172 499 241 499 C312 499 352 455 352 355 L352 259 C190 257 51 224 51 106 C51 39 94 -15 183 -15 C267 -15 330 32 356 103 C357 29 379 -15 430 -15 C468 -15 495 11 503 48 L493 52 Z M201 9 C141 9 104 49 104 112 C104 197 175 241 352 243 L352 162 C352 73 278 9 201 9 L201 9 Z " />
<glyph glyph-name="Abreve" unicode="&#x102;" horiz-adv-x="652" d="M326 740 C392 740 447 790 452 869 L444 871 C427 812 377 780 326 780 C274 780 224 812 207 871 L199 869 C205 790 259 740 326 740 L326 740 Z M578 38 L329 695 L325 695 L85 62 C71 28 52 12 -6 12 L-6 0 L184 0 L184 12 C136 12 103 24 103 41 C103 50 124 112 161 211 L456 211 C494 107 517 42 517 31 C517 16 492 12 453 12 L453 0 L655 0 L655 12 C595 12 585 19 578 38 L578 38 Z M168 229 C204 326 253 455 311 604 C365 457 414 328 450 229 L168 229 Z " />
<glyph glyph-name="abreve" unicode="&#x103;" horiz-adv-x="502" d="M241 590 C311 590 363 644 368 735 L359 737 C343 666 296 630 241 630 C187 630 140 666 124 737 L115 735 C120 644 172 590 241 590 L241 590 Z M493 52 C484 27 469 6 444 6 C413 6 402 43 402 101 L402 338 C402 473 331 515 243 515 C151 515 74 467 74 411 C74 384 93 369 120 369 C120 454 172 499 241 499 C312 499 352 455 352 355 L352 259 C190 257 51 224 51 106 C51 39 94 -15 183 -15 C267 -15 330 32 356 103 C357 29 379 -15 430 -15 C468 -15 495 11 503 48 L493 52 Z M201 9 C141 9 104 49 104 112 C104 197 175 241 352 243 L352 162 C352 73 278 9 201 9 L201 9 Z " />
<glyph glyph-name="Aogonek" unicode="&#x104;" horiz-adv-x="652" d="M578 38 L329 695 L325 695 L85 62 C71 28 52 12 -6 12 L-6 0 L184 0 L184 12 C136 12 103 24 103 41 C103 50 124 112 161 211 L456 211 C495 106 517 42 517 29 C517 -9 379 -61 379 -158 C379 -205 410 -229 449 -229 C482 -229 510 -212 525 -182 L519 -177 C504 -192 487 -198 471 -198 C441 -198 423 -176 423 -143 C423 -74 503 0 589 0 L655 0 L655 12 C593 12 584 20 578 38 L578 38 Z M168 229 C204 326 253 455 311 604 C367 453 414 325 450 229 L168 229 Z " />
<glyph glyph-name="aogonek" unicode="&#x105;" horiz-adv-x="502" d="M467 -5 C484 8 498 24 503 48 L493 52 C484 27 469 6 444 6 C413 6 402 43 402 101 L402 338 C402 473 331 515 243 515 C151 515 74 467 74 411 C74 384 93 369 120 369 C120 454 172 499 241 499 C312 499 352 455 352 355 L352 259 C190 257 51 224 51 105 C51 39 94 -15 184 -15 C267 -15 330 32 356 103 C356 28 378 -15 431 -15 C363 -61 327 -119 327 -164 C327 -204 358 -229 398 -229 C430 -229 458 -212 473 -182 L467 -177 C452 -192 435 -198 418 -198 C389 -198 371 -179 371 -148 C371 -106 406 -50 467 -5 L467 -5 Z M201 9 C141 9 104 49 104 111 C104 197 175 241 352 243 L352 162 C352 73 278 9 201 9 L201 9 Z " />
<glyph glyph-name="Cacute" unicode="&#x106;" horiz-adv-x="636" d="M306 749 C365 766 420 801 420 843 C420 859 412 869 395 871 C362 810 308 767 252 748 L253 741 C269 741 289 744 306 749 L306 749 Z M363 6 C221 6 118 120 118 349 C118 566 222 678 352 678 C450 678 545 612 568 461 L577 461 C573 537 573 613 573 689 L564 689 L539 619 C499 667 442 695 362 695 C180 695 60 547 60 336 C60 129 173 -15 357 -15 C450 -15 526 24 577 89 L566 99 C514 38 442 6 363 6 L363 6 Z " />
<glyph glyph-name="cacute" unicode="&#x107;" horiz-adv-x="488" d="M209 581 C270 601 335 662 335 714 C335 732 326 751 303 751 C300 751 297 751 294 750 C285 682 249 624 205 588 L209 581 Z M279 499 C320 499 350 484 370 458 C389 431 398 395 398 352 C424 352 441 368 441 399 C441 466 375 515 285 515 C150 515 54 407 54 250 C54 96 146 -15 275 -15 C347 -15 411 18 443 83 L434 91 C403 36 350 6 288 6 C176 6 109 108 109 255 C109 394 170 499 279 499 L279 499 Z " />
<glyph glyph-name="Cdotaccent" unicode="&#x10a;" horiz-adv-x="636" d="M347 761 C376 761 396 779 396 806 C396 833 376 851 347 851 C318 851 298 833 298 806 C298 779 318 761 347 761 L347 761 Z M363 6 C221 6 118 120 118 349 C118 566 222 678 352 678 C450 678 545 612 568 461 L577 461 C573 537 573 613 573 689 L564 689 L539 619 C499 667 442 695 362 695 C180 695 60 547 60 336 C60 129 173 -15 357 -15 C450 -15 526 24 577 89 L566 99 C514 38 442 6 363 6 L363 6 Z " />
<glyph glyph-name="cdotaccent" unicode="&#x10b;" horiz-adv-x="488" d="M271 622 C300 622 320 641 320 667 C320 694 300 713 271 713 C242 713 222 694 222 667 C222 641 242 622 271 622 L271 622 Z M279 499 C320 499 350 484 370 458 C389 431 398 395 398 352 C424 352 441 368 441 399 C441 466 375 515 285 515 C150 515 54 407 54 250 C54 96 146 -15 275 -15 C347 -15 411 18 443 83 L434 91 C403 36 350 6 288 6 C176 6 109 108 109 255 C109 394 170 499 279 499 L279 499 Z " />
<glyph glyph-name="Ccaron" unicode="&#x10c;" horiz-adv-x="636" d="M328 740 L366 740 C382 791 424 840 476 864 L475 871 C428 863 379 828 358 789 C333 828 275 863 219 871 L218 864 C270 840 311 791 328 740 L328 740 Z M363 6 C221 6 118 120 118 349 C118 566 222 678 352 678 C450 678 545 612 568 461 L577 461 C573 537 573 613 573 689 L564 689 L539 619 C499 667 442 695 362 695 C180 695 60 547 60 336 C60 129 173 -15 357 -15 C450 -15 526 24 577 89 L566 99 C514 38 442 6 363 6 L363 6 Z " />
<glyph glyph-name="ccaron" unicode="&#x10d;" horiz-adv-x="488" d="M256 585 L294 585 C309 646 350 705 401 736 L399 744 C353 732 306 687 285 637 C260 687 205 732 151 744 L148 736 C200 705 240 646 256 585 L256 585 Z M434 91 C403 36 350 6 288 6 C176 6 109 108 109 255 C109 394 170 499 279 499 C320 499 350 484 370 458 C389 431 398 395 398 352 C424 352 441 368 441 399 C441 466 375 515 285 515 C150 515 54 407 54 250 C54 96 146 -15 275 -15 C347 -15 411 18 443 83 L434 91 Z " />
<glyph glyph-name="Dcaron" unicode="&#x10e;" horiz-adv-x="700" d="M328 740 L366 740 C382 791 424 840 476 864 L475 871 C428 863 379 828 358 789 C333 828 275 863 219 871 L218 864 C270 840 311 791 328 740 L328 740 Z M296 680 L45 680 L45 668 C105 668 124 663 124 642 L124 38 C124 17 105 12 45 12 L45 0 L296 0 C519 0 640 136 640 340 C640 544 519 680 296 680 L296 680 Z M301 17 L175 17 L175 663 L301 663 C467 663 582 558 582 340 C582 122 467 17 301 17 L301 17 Z " />
<glyph glyph-name="dcaron" unicode="&#x10f;" horiz-adv-x="603" d="M554 555 C589 590 617 647 617 694 C617 727 603 753 579 753 C572 753 565 750 561 747 C567 727 571 702 571 675 C571 637 562 594 548 560 L554 555 Z M535 6 C504 6 494 43 494 101 L494 740 L369 725 L369 714 C424 714 444 710 444 690 L445 416 L443 412 L443 402 C416 467 354 515 271 515 C145 515 55 405 55 248 C55 92 143 -15 270 -15 C361 -15 419 40 444 109 L447 109 C447 30 469 -15 521 -15 C559 -15 586 11 594 48 L584 52 C575 27 560 6 535 6 L535 6 Z M277 2 C168 2 110 113 110 253 C110 389 167 498 275 498 C367 498 443 421 443 316 L443 191 C443 85 371 2 277 2 L277 2 Z " />
<glyph glyph-name="Dcroat" unicode="&#x110;" horiz-adv-x="700" d="M296 680 L45 680 L45 668 C105 668 124 663 124 642 L124 348 L46 348 L46 330 L124 330 L124 38 C124 17 105 12 45 12 L45 0 L296 0 C519 0 640 136 640 340 C640 544 519 680 296 680 L296 680 Z M301 17 L175 17 L175 330 L352 330 L352 348 L175 348 L175 663 L301 663 C467 663 582 558 582 340 C582 122 467 17 301 17 L301 17 Z " />
<glyph glyph-name="dcroat" unicode="&#x111;" horiz-adv-x="603" d="M584 52 C575 27 560 6 535 6 C504 6 494 43 494 101 L494 587 L590 587 L590 605 L494 605 L494 740 L369 725 L369 714 C424 714 444 710 444 690 L444 605 L284 605 L284 587 L444 587 L445 416 L443 412 L443 402 C416 467 354 515 271 515 C145 515 55 405 55 248 C55 92 143 -15 270 -15 C361 -15 419 40 444 109 L447 109 C447 30 469 -15 521 -15 C559 -15 586 11 594 48 L584 52 Z M277 2 C168 2 110 113 110 253 C110 389 167 498 275 498 C367 498 443 421 443 316 L443 191 C443 85 371 2 277 2 L277 2 Z " />
<glyph glyph-name="Emacron" unicode="&#x112;" horiz-adv-x="569" d="M427 819 L162 819 L162 792 L427 792 L427 819 Z M507 160 C482 54 464 18 410 18 L175 18 L175 336 L356 336 C394 336 405 321 416 241 L428 241 L428 450 L416 450 C405 372 394 355 356 355 L175 355 L175 662 L389 662 C451 662 473 624 480 531 L492 531 L492 680 L45 680 L45 668 C105 668 125 663 125 642 L125 38 C125 17 105 12 45 12 L45 0 L502 0 L519 160 L507 160 Z " />
<glyph glyph-name="emacron" unicode="&#x113;" horiz-adv-x="522" d="M398 678 L137 678 L137 652 L398 652 L398 678 Z M459 267 C466 283 469 303 469 326 C469 443 389 515 282 515 C152 515 54 408 54 250 C54 96 146 -15 281 -15 C355 -15 424 18 459 83 L450 91 C418 36 360 6 295 6 C173 6 109 111 109 255 L109 267 L459 267 Z M279 499 C372 499 419 423 419 328 C419 288 412 285 398 285 L110 285 C118 407 177 499 279 499 L279 499 Z " />
<glyph glyph-name="Edotaccent" unicode="&#x116;" horiz-adv-x="569" d="M295 761 C324 761 344 779 344 806 C344 833 324 851 295 851 C266 851 246 833 246 806 C246 779 266 761 295 761 L295 761 Z M507 160 C482 54 464 18 410 18 L175 18 L175 336 L356 336 C394 336 405 321 416 241 L428 241 L428 450 L416 450 C405 372 394 355 356 355 L175 355 L175 662 L389 662 C451 662 473 624 480 531 L492 531 L492 680 L45 680 L45 668 C105 668 125 663 125 642 L125 38 C125 17 105 12 45 12 L45 0 L502 0 L519 160 L507 160 Z " />
<glyph glyph-name="edotaccent" unicode="&#x117;" horiz-adv-x="522" d="M268 622 C297 622 317 641 317 667 C317 694 297 713 268 713 C239 713 219 694 219 667 C219 641 239 622 268 622 L268 622 Z M459 267 C466 283 469 303 469 326 C469 443 389 515 282 515 C152 515 54 408 54 250 C54 96 146 -15 281 -15 C355 -15 424 18 459 83 L450 91 C418 36 360 6 295 6 C173 6 109 111 109 255 L109 267 L459 267 Z M279 499 C372 499 419 423 419 328 C419 288 412 285 398 285 L110 285 C118 407 177 499 279 499 L279 499 Z " />
<glyph glyph-name="Eogonek" unicode="&#x118;" horiz-adv-x="569" d="M502 0 L519 160 L507 160 C482 54 464 18 410 18 L175 18 L175 336 L356 336 C394 336 405 321 416 241 L428 241 L428 450 L416 450 C405 372 394 355 356 355 L175 355 L175 662 L389 662 C451 662 473 624 480 531 L492 531 L492 680 L45 680 L45 668 C105 668 125 663 125 642 L125 38 C125 17 105 12 45 12 L45 0 L487 0 C401 -47 356 -113 356 -162 C356 -203 387 -229 427 -229 C460 -229 488 -212 502 -182 L496 -177 C481 -192 464 -198 447 -198 C418 -198 400 -179 400 -148 C400 -105 435 -49 502 0 L502 0 Z " />
<glyph glyph-name="eogonek" unicode="&#x119;" horiz-adv-x="522" d="M459 267 C466 283 469 303 469 326 C469 443 389 515 282 515 C152 515 54 408 54 250 C54 96 146 -15 282 -15 C299 -15 316 -13 332 -9 C256 -55 217 -117 217 -164 C217 -204 247 -229 288 -229 C320 -229 348 -212 362 -182 L357 -177 C341 -192 325 -198 308 -198 C279 -198 260 -179 260 -148 C260 -95 310 -32 378 6 C407 22 438 43 459 83 L450 91 C418 38 360 6 295 6 C173 6 109 111 109 255 L109 267 L459 267 Z M279 499 C372 499 419 423 419 328 C419 288 412 285 398 285 L110 285 C118 407 177 499 279 499 L279 499 Z " />
<glyph glyph-name="Ecaron" unicode="&#x11a;" horiz-adv-x="569" d="M276 740 L314 740 C330 791 372 840 424 864 L423 871 C376 863 327 828 306 789 C281 828 223 863 167 871 L166 864 C218 840 259 791 276 740 L276 740 Z M507 160 C482 54 464 18 410 18 L175 18 L175 336 L356 336 C394 336 405 321 416 241 L428 241 L428 450 L416 450 C405 372 394 355 356 355 L175 355 L175 662 L389 662 C451 662 473 624 480 531 L492 531 L492 680 L45 680 L45 668 C105 668 125 663 125 642 L125 38 C125 17 105 12 45 12 L45 0 L502 0 L519 160 L507 160 Z " />
<glyph glyph-name="ecaron" unicode="&#x11b;" horiz-adv-x="522" d="M252 585 L290 585 C305 646 346 705 397 736 L395 744 C349 732 302 687 281 637 C256 687 201 732 147 744 L144 736 C196 705 236 646 252 585 L252 585 Z M459 267 C466 283 469 303 469 326 C469 443 389 515 282 515 C152 515 54 408 54 250 C54 96 146 -15 281 -15 C355 -15 424 18 459 83 L450 91 C418 36 360 6 295 6 C173 6 109 111 109 255 L109 267 L459 267 Z M279 499 C372 499 419 423 419 328 C419 288 412 285 398 285 L110 285 C118 407 177 499 279 499 L279 499 Z " />
<glyph glyph-name="Gbreve" unicode="&#x11e;" horiz-adv-x="695" d="M352 740 C418 740 473 790 478 869 L470 871 C453 812 403 780 352 780 C300 780 250 812 233 871 L225 869 C231 790 285 740 352 740 L352 740 Z M461 293 L461 281 C517 281 535 276 535 255 L535 125 C535 50 451 2 361 2 C222 2 118 116 118 342 C118 566 223 678 358 678 C461 678 556 609 578 461 L587 461 C583 537 583 613 583 689 L575 689 L550 619 C510 667 448 695 367 695 C181 695 60 546 60 338 C60 129 181 -15 362 -15 C446 -15 513 16 558 68 L578 -9 L586 -9 L586 255 C586 276 604 281 660 281 L660 293 L461 293 Z " />
<glyph glyph-name="gbreve" unicode="&#x11f;" horiz-adv-x="473" d="M239 590 C309 590 361 644 366 735 L357 737 C341 666 294 630 239 630 C185 630 138 666 122 737 L113 735 C118 644 170 590 239 590 L239 590 Z M276 32 C187 44 116 50 116 98 C116 131 149 166 234 166 L240 166 C341 166 424 237 424 343 C424 415 385 469 328 496 C342 531 371 544 395 544 C417 544 435 532 445 511 C457 516 464 528 464 541 C464 564 440 584 409 584 C368 584 327 550 317 501 C293 510 267 515 240 515 C138 515 55 449 55 343 C55 259 107 197 180 175 C119 164 74 130 74 81 C74 9 166 -1 251 -13 C339 -25 427 -40 427 -118 C427 -188 356 -238 245 -238 C120 -238 72 -174 72 -118 C72 -90 85 -68 94 -53 C53 -57 24 -87 24 -130 C24 -216 137 -255 242 -255 C378 -255 466 -190 466 -99 C466 0 358 20 276 32 L276 32 Z M109 343 C109 438 160 499 240 499 C319 499 370 438 370 343 C370 248 319 182 240 182 C160 182 109 248 109 343 L109 343 Z " />
<glyph glyph-name="Gdotaccent" unicode="&#x120;" horiz-adv-x="695" d="M352 761 C381 761 401 779 401 806 C401 833 381 851 352 851 C323 851 303 833 303 806 C303 779 323 761 352 761 L352 761 Z M461 293 L461 281 C517 281 535 276 535 255 L535 125 C535 50 451 2 361 2 C222 2 118 116 118 342 C118 566 223 678 358 678 C461 678 556 609 578 461 L587 461 C583 537 583 613 583 689 L575 689 L550 619 C510 667 448 695 367 695 C181 695 60 546 60 338 C60 129 181 -15 362 -15 C446 -15 513 16 558 68 L578 -9 L586 -9 L586 255 C586 276 604 281 660 281 L660 293 L461 293 Z " />
<glyph glyph-name="gdotaccent" unicode="&#x121;" horiz-adv-x="473" d="M239 622 C268 622 288 641 288 667 C288 694 268 713 239 713 C210 713 190 694 190 667 C190 641 210 622 239 622 L239 622 Z M276 32 C187 44 116 50 116 98 C116 131 149 166 234 166 L240 166 C341 166 424 237 424 343 C424 415 385 469 328 496 C342 531 371 544 395 544 C417 544 435 532 445 511 C457 516 464 528 464 541 C464 564 440 584 409 584 C368 584 327 550 317 501 C293 510 267 515 240 515 C138 515 55 449 55 343 C55 259 107 197 180 175 C119 164 74 130 74 81 C74 9 166 -1 251 -13 C339 -25 427 -40 427 -118 C427 -188 356 -238 245 -238 C120 -238 72 -174 72 -118 C72 -90 85 -68 94 -53 C53 -57 24 -87 24 -130 C24 -216 137 -255 242 -255 C378 -255 466 -190 466 -99 C466 0 358 20 276 32 L276 32 Z M109 343 C109 438 160 499 240 499 C319 499 370 438 370 343 C370 248 319 182 240 182 C160 182 109 248 109 343 L109 343 Z " />
<glyph glyph-name="uni0122" unicode="&#x122;" horiz-adv-x="695" d="M461 293 L461 281 C517 281 535 276 535 255 L535 125 C535 50 451 2 361 2 C222 2 118 116 118 342 C118 566 223 678 358 678 C461 678 556 609 578 461 L587 461 C583 537 583 613 583 689 L575 689 L550 619 C510 667 448 695 367 695 C181 695 60 546 60 338 C60 129 181 -15 362 -15 C446 -15 513 16 558 68 L578 -9 L586 -9 L586 255 C586 276 604 281 660 281 L660 293 L461 293 Z M358 -52 C330 -52 315 -72 315 -94 C315 -120 335 -134 356 -136 C354 -159 348 -187 338 -208 L346 -213 C371 -185 401 -133 401 -97 C401 -71 385 -52 358 -52 L358 -52 Z " />
<glyph glyph-name="uni0123" unicode="&#x123;" horiz-adv-x="473" d="M239 588 C267 588 282 607 282 630 C282 656 261 669 241 671 C243 695 249 722 259 743 L250 749 C226 721 196 668 196 632 C196 606 212 588 239 588 L239 588 Z M276 32 C187 44 116 50 116 98 C116 131 149 166 234 166 L240 166 C341 166 424 237 424 343 C424 415 385 469 328 496 C342 531 371 544 395 544 C417 544 435 532 445 511 C457 516 464 528 464 541 C464 564 440 584 409 584 C368 584 327 550 317 501 C293 510 267 515 240 515 C138 515 55 449 55 343 C55 259 107 197 180 175 C119 164 74 130 74 81 C74 9 166 -1 251 -13 C339 -25 427 -40 427 -118 C427 -188 356 -238 245 -238 C120 -238 72 -174 72 -118 C72 -90 85 -68 94 -53 C53 -57 24 -87 24 -130 C24 -216 137 -255 242 -255 C378 -255 466 -190 466 -99 C466 0 358 20 276 32 L276 32 Z M109 343 C109 438 160 499 240 499 C319 499 370 438 370 343 C370 248 319 182 240 182 C160 182 109 248 109 343 L109 343 Z " />
<glyph glyph-name="Hbar" unicode="&#x126;" horiz-adv-x="720" d="M674 503 L674 521 L595 521 L595 642 C595 663 614 668 673 668 L673 680 L467 680 L467 668 C526 668 545 663 545 642 L545 521 L175 521 L175 642 C175 663 194 668 253 668 L253 680 L46 680 L46 668 C106 668 124 663 124 642 L124 521 L45 521 L45 503 L124 503 L124 38 C124 17 106 12 46 12 L46 0 L253 0 L253 12 C194 12 175 17 175 38 L175 332 L545 332 L545 38 C545 17 526 12 467 12 L467 0 L673 0 L673 12 C614 12 595 17 595 38 L595 503 L674 503 Z M545 351 L175 351 L175 503 L545 503 L545 351 Z " />
<glyph glyph-name="hbar" unicode="&#x127;" horiz-adv-x="588" d="M487 44 L487 348 C487 475 404 515 330 515 C250 515 178 468 154 395 C156 441 157 489 157 536 L157 589 L339 589 L339 607 L157 607 L157 740 L32 725 L32 714 C85 714 107 710 107 690 L107 607 L33 607 L33 589 L107 589 L107 44 C107 17 89 12 32 12 L32 0 L233 0 L233 12 C175 12 157 17 157 44 L157 322 C157 429 234 494 313 494 C375 494 436 454 436 346 L436 44 C436 17 418 12 361 12 L361 0 L562 0 L562 12 C505 12 487 17 487 44 L487 44 Z " />
<glyph glyph-name="Itilde" unicode="&#x128;" horiz-adv-x="298" d="M76 861 C32 861 3 828 3 788 C3 777 6 764 8 757 L17 757 C15 764 14 774 14 779 C14 809 37 825 62 825 C115 825 153 750 221 750 C265 750 295 781 295 822 C295 833 292 846 290 853 L281 853 C283 847 284 837 284 831 C284 803 262 785 235 785 C180 785 143 861 76 861 L76 861 Z M174 642 C174 663 193 668 249 668 L249 680 L50 680 L50 668 C106 668 124 663 124 642 L124 38 C124 17 106 12 50 12 L50 0 L249 0 L249 12 C193 12 174 17 174 38 L174 642 Z " />
<glyph glyph-name="itilde" unicode="&#x129;" horiz-adv-x="270" d="M67 722 C30 722 4 690 4 646 C4 635 6 622 8 614 L15 614 C15 617 14 623 14 632 C14 671 35 686 55 686 C100 686 132 609 189 609 C226 609 251 640 251 683 C251 696 249 708 247 715 L240 715 C240 711 241 703 241 694 C241 663 224 644 201 644 C154 644 124 722 67 722 L67 722 Z M114 44 C114 17 96 12 38 12 L38 0 L239 0 L239 12 C182 12 164 17 164 44 L164 515 L38 500 L38 489 C92 489 114 485 114 465 L114 44 Z " />
<glyph glyph-name="Imacron" unicode="&#x12a;" horiz-adv-x="298" d="M17 819 L17 792 L282 792 L282 819 L17 819 Z M174 642 C174 663 193 668 249 668 L249 680 L50 680 L50 668 C106 668 124 663 124 642 L124 38 C124 17 106 12 50 12 L50 0 L249 0 L249 12 C193 12 174 17 174 38 L174 642 Z " />
<glyph glyph-name="imacron" unicode="&#x12b;" horiz-adv-x="270" d="M25 678 L25 652 L234 652 L234 678 L25 678 Z M114 44 C114 17 96 12 38 12 L38 0 L239 0 L239 12 C182 12 164 17 164 44 L164 515 L38 500 L38 489 C92 489 114 485 114 465 L114 44 Z " />
<glyph glyph-name="Iogonek" unicode="&#x12e;" horiz-adv-x="298" d="M249 668 L249 680 L50 680 L50 668 C106 668 124 663 124 642 L124 38 C124 17 106 12 50 12 L50 0 L159 0 C115 -43 72 -111 72 -162 C72 -205 102 -229 143 -229 C175 -229 203 -212 217 -182 L211 -177 C196 -192 179 -198 162 -198 C133 -198 115 -179 115 -144 C115 -101 143 -41 174 0 L249 0 L249 12 C193 12 174 17 174 38 L174 642 C174 663 193 668 249 668 L249 668 Z " />
<glyph glyph-name="iogonek" unicode="&#x12f;" horiz-adv-x="270" d="M130 622 C159 622 179 641 179 667 C179 694 159 713 130 713 C101 713 81 694 81 667 C81 641 101 622 130 622 L130 622 Z M239 0 L239 12 C182 12 164 17 164 44 L164 515 L38 500 L38 489 C92 489 114 485 114 465 L114 44 C114 17 96 12 38 12 L38 0 L149 0 C101 -50 70 -112 70 -158 C70 -203 101 -230 141 -230 C173 -230 201 -214 216 -184 L210 -178 C194 -193 178 -200 161 -200 C132 -200 113 -178 113 -140 C113 -104 133 -47 163 0 L239 0 Z " />
<glyph glyph-name="Idotaccent" unicode="&#x130;" horiz-adv-x="298" d="M149 761 C178 761 198 779 198 806 C198 833 178 851 149 851 C120 851 100 833 100 806 C100 779 120 761 149 761 L149 761 Z M174 642 C174 663 193 668 249 668 L249 680 L50 680 L50 668 C106 668 124 663 124 642 L124 38 C124 17 106 12 50 12 L50 0 L249 0 L249 12 C193 12 174 17 174 38 L174 642 Z " />
<glyph glyph-name="dotlessi" unicode="&#x131;" horiz-adv-x="270" d="M114 44 C114 17 96 12 38 12 L38 0 L239 0 L239 12 C182 12 164 17 164 44 L164 515 L38 500 L38 489 C92 489 114 485 114 465 L114 44 Z " />
<glyph glyph-name="IJ" unicode="&#x132;" horiz-adv-x="588" d="M174 642 C174 663 193 668 249 668 L249 680 L50 680 L50 668 C106 668 124 663 124 642 L124 293 C124 271 106 267 50 267 L50 254 L249 254 L249 267 C193 267 174 271 174 293 L174 642 Z M422 166 C422 74 388 2 296 2 C208 2 175 65 175 176 C146 174 129 155 129 117 C129 42 188 -15 294 -15 C422 -15 473 67 473 180 L473 642 C473 663 491 668 547 668 L547 680 L348 680 L348 668 C404 668 422 663 422 642 L422 166 Z " />
<glyph glyph-name="ij" unicode="&#x133;" horiz-adv-x="519" d="M130 622 C159 622 179 641 179 667 C179 694 159 713 130 713 C101 713 81 694 81 667 C81 641 101 622 130 622 L130 622 Z M389 622 C418 622 438 641 438 667 C438 694 418 713 389 713 C360 713 340 694 340 667 C340 641 360 622 389 622 L389 622 Z M114 44 C114 17 96 12 38 12 L38 0 L239 0 L239 12 C182 12 164 17 164 44 L164 515 L38 500 L38 489 C92 489 114 485 114 465 L114 44 Z M267 -230 L263 -243 C279 -250 298 -255 320 -255 C393 -255 427 -195 427 -94 L427 513 L302 500 L302 489 C355 489 377 485 377 465 L377 -106 C377 -207 352 -238 308 -238 C295 -238 282 -235 267 -230 L267 -230 Z " />
<glyph glyph-name="uni0136" unicode="&#x136;" horiz-adv-x="640" d="M174 38 L174 642 C174 663 193 668 249 668 L249 680 L49 680 L49 668 C106 668 124 663 124 642 L124 38 C124 17 106 12 49 12 L49 0 L249 0 L249 12 C193 12 174 17 174 38 L174 38 Z M549 39 L283 365 L519 627 C544 656 566 666 612 668 L612 680 L414 680 L414 668 C464 668 490 659 490 639 C490 616 438 567 236 344 C478 55 486 43 486 29 C486 18 473 12 417 12 L417 0 L623 0 L623 12 C589 13 569 16 549 39 L549 39 Z M316 -52 C288 -52 273 -72 273 -94 C273 -120 293 -134 314 -136 C312 -159 306 -187 296 -208 L304 -213 C329 -185 359 -133 359 -97 C359 -71 343 -52 316 -52 L316 -52 Z " />
<glyph glyph-name="uni0137" unicode="&#x137;" horiz-adv-x="532" d="M32 725 L32 714 C85 714 107 710 107 690 L107 44 C107 17 89 12 32 12 L32 0 L233 0 L233 12 C175 12 157 17 157 44 L157 738 L32 725 Z M486 13 C463 16 444 28 419 52 C338 129 286 192 205 278 C287 349 338 396 415 465 C435 484 454 488 496 488 L496 500 L302 500 L302 488 C352 488 373 481 373 471 C373 446 276 360 157 260 L373 39 C408 1 432 -13 465 -13 C487 -13 504 -7 517 0 L517 10 C505 10 496 10 486 13 L486 13 Z M270 -52 C242 -52 227 -72 227 -94 C227 -120 247 -134 268 -136 C266 -159 260 -187 250 -208 L258 -213 C283 -185 313 -133 313 -97 C313 -71 297 -52 270 -52 L270 -52 Z " />
<glyph glyph-name="kgreenlandic" unicode="&#x138;" horiz-adv-x="539" d="M38 500 L38 489 C92 489 114 485 114 465 L114 44 C114 17 96 12 38 12 L38 0 L239 0 L239 12 C182 12 164 17 164 44 L164 513 L38 500 Z M492 13 C470 16 450 28 426 52 C345 129 294 192 212 278 C293 349 345 396 421 465 C442 484 461 488 503 488 L503 500 L309 500 L309 488 C358 488 379 481 379 471 C379 446 283 360 164 260 L380 39 C414 1 439 -13 471 -13 C493 -13 511 -7 524 0 L524 10 C512 10 503 10 492 13 L492 13 Z " />
<glyph glyph-name="Lacute" unicode="&#x139;" horiz-adv-x="540" d="M127 749 C186 766 241 801 241 843 C241 859 233 869 216 871 C183 810 129 767 73 748 L74 741 C90 741 110 744 127 749 L127 749 Z M498 161 C474 52 457 18 405 18 L175 18 L175 642 C175 663 200 668 273 668 L273 680 L45 680 L45 668 C105 668 125 663 125 642 L125 38 C125 17 105 12 45 12 L45 0 L493 0 L510 161 L498 161 Z " />
<glyph glyph-name="lacute" unicode="&#x13a;" horiz-adv-x="264" d="M27 777 C43 777 63 780 80 785 C139 802 194 837 194 879 C194 895 186 905 169 907 C136 846 82 803 26 784 L27 777 Z M107 44 C107 17 89 12 32 12 L32 0 L233 0 L233 12 C175 12 157 17 157 44 L157 740 L32 725 L32 714 C85 714 107 710 107 690 L107 44 Z " />
<glyph glyph-name="uni013B" unicode="&#x13b;" horiz-adv-x="540" d="M498 161 C474 52 457 18 405 18 L175 18 L175 642 C175 663 200 668 273 668 L273 680 L45 680 L45 668 C105 668 125 663 125 642 L125 38 C125 17 105 12 45 12 L45 0 L493 0 L510 161 L498 161 Z M279 -52 C251 -52 236 -72 236 -94 C236 -120 256 -134 277 -136 C275 -159 269 -187 259 -208 L267 -213 C292 -185 322 -133 322 -97 C322 -71 306 -52 279 -52 L279 -52 Z " />
<glyph glyph-name="uni013C" unicode="&#x13c;" horiz-adv-x="264" d="M157 44 L157 740 L32 725 L32 714 C85 714 107 710 107 690 L107 44 C107 17 89 12 32 12 L32 0 L233 0 L233 12 C175 12 157 17 157 44 L157 44 Z M137 -52 C109 -52 94 -72 94 -94 C94 -120 114 -134 135 -136 C133 -159 127 -187 117 -208 L125 -213 C150 -185 180 -133 180 -97 C180 -71 164 -52 137 -52 L137 -52 Z " />
<glyph glyph-name="Lcaron" unicode="&#x13d;" horiz-adv-x="540" d="M336 536 C371 571 399 628 399 675 C399 708 385 734 361 734 C354 734 347 731 343 728 C349 708 353 683 353 656 C353 618 344 575 330 541 L336 536 Z M498 161 C474 52 457 18 405 18 L175 18 L175 642 C175 663 200 668 273 668 L273 680 L45 680 L45 668 C105 668 125 663 125 642 L125 38 C125 17 105 12 45 12 L45 0 L493 0 L510 161 L498 161 Z " />
<glyph glyph-name="lcaron" unicode="&#x13e;" horiz-adv-x="264" d="M219 555 C254 590 282 647 282 694 C282 727 268 753 244 753 C237 753 230 750 226 747 C232 727 236 702 236 675 C236 637 227 594 213 560 L219 555 Z M107 44 C107 17 89 12 32 12 L32 0 L233 0 L233 12 C175 12 157 17 157 44 L157 740 L32 725 L32 714 C85 714 107 710 107 690 L107 44 Z " />
<glyph glyph-name="Ldot" unicode="&#x13f;" horiz-adv-x="540" d="M498 161 C474 52 457 18 405 18 L175 18 L175 642 C175 663 200 668 273 668 L273 680 L45 680 L45 668 C105 668 125 663 125 642 L125 38 C125 17 105 12 45 12 L45 0 L493 0 L510 161 L498 161 Z M354 289 C384 289 405 309 405 338 C405 367 384 387 354 387 C323 387 302 367 302 338 C302 309 323 289 354 289 L354 289 Z " />
<glyph glyph-name="ldot" unicode="&#x140;" horiz-adv-x="330" d="M107 44 C107 17 89 12 32 12 L32 0 L233 0 L233 12 C175 12 157 17 157 44 L157 740 L32 725 L32 714 C85 714 107 710 107 690 L107 44 Z M296 289 C326 289 347 308 347 338 C347 366 326 386 296 386 C265 386 244 366 244 338 C244 308 265 289 296 289 L296 289 Z " />
<glyph glyph-name="Lslash" unicode="&#x141;" horiz-adv-x="540" d="M498 161 C474 52 457 18 405 18 L175 18 L175 333 L280 401 L280 422 L175 354 L175 642 C175 663 200 668 273 668 L273 680 L45 680 L45 668 C105 668 125 663 125 642 L125 322 L45 270 L45 249 L125 301 L125 38 C125 17 105 12 45 12 L45 0 L493 0 L510 161 L498 161 Z " />
<glyph glyph-name="lslash" unicode="&#x142;" horiz-adv-x="264" d="M157 44 L157 416 L227 462 L227 487 L157 440 L157 740 L32 725 L32 714 C85 714 107 710 107 690 L107 407 L37 360 L37 336 L107 382 L107 44 C107 17 89 12 32 12 L32 0 L233 0 L233 12 C175 12 157 17 157 44 L157 44 Z " />
<glyph glyph-name="Nacute" unicode="&#x143;" horiz-adv-x="709" d="M316 749 C375 766 430 801 430 843 C430 859 422 869 405 871 C372 810 318 767 262 748 L263 741 C279 741 299 744 316 749 L316 749 Z M479 680 L479 668 C546 668 568 653 568 612 L568 94 L170 680 L46 680 L46 668 C106 668 125 663 125 642 L125 68 C125 27 106 12 46 12 L46 0 L234 0 L234 12 C167 12 145 27 145 68 L145 628 L579 -5 L588 -5 L588 612 C588 653 607 668 667 668 L667 680 L479 680 Z " />
<glyph glyph-name="nacute" unicode="&#x144;" horiz-adv-x="595" d="M365 714 C365 732 356 751 333 751 C330 751 327 751 324 750 C315 682 279 624 235 588 L239 581 C300 601 365 662 365 714 L365 714 Z M493 44 L493 348 C493 475 410 515 337 515 C255 515 184 467 160 393 L163 515 L38 500 L38 489 C92 489 114 485 114 465 L114 44 C114 17 96 12 38 12 L38 0 L239 0 L239 12 C182 12 164 17 164 44 L164 322 C164 429 241 494 320 494 C382 494 443 454 443 346 L443 44 C443 17 425 12 368 12 L368 0 L569 0 L569 12 C511 12 493 17 493 44 L493 44 Z " />
<glyph glyph-name="uni0145" unicode="&#x145;" horiz-adv-x="709" d="M479 680 L479 668 C546 668 568 653 568 612 L568 94 L170 680 L46 680 L46 668 C106 668 125 663 125 642 L125 68 C125 27 106 12 46 12 L46 0 L234 0 L234 12 C167 12 145 27 145 68 L145 628 L579 -5 L588 -5 L588 612 C588 653 607 668 667 668 L667 680 L479 680 Z M356 -52 C328 -52 313 -72 313 -94 C313 -120 333 -134 354 -136 C352 -159 346 -187 336 -208 L344 -213 C369 -185 399 -133 399 -97 C399 -71 383 -52 356 -52 L356 -52 Z " />
<glyph glyph-name="uni0146" unicode="&#x146;" horiz-adv-x="595" d="M493 44 L493 348 C493 475 410 515 337 515 C255 515 184 467 160 393 L163 515 L38 500 L38 489 C92 489 114 485 114 465 L114 44 C114 17 96 12 38 12 L38 0 L239 0 L239 12 C182 12 164 17 164 44 L164 322 C164 429 241 494 320 494 C382 494 443 454 443 346 L443 44 C443 17 425 12 368 12 L368 0 L569 0 L569 12 C511 12 493 17 493 44 L493 44 Z M309 -52 C281 -52 266 -72 266 -94 C266 -120 286 -134 307 -136 C305 -159 299 -187 289 -208 L297 -213 C322 -185 352 -133 352 -97 C352 -71 336 -52 309 -52 L309 -52 Z " />
<glyph glyph-name="Ncaron" unicode="&#x147;" horiz-adv-x="709" d="M338 740 L376 740 C392 791 434 840 486 864 L485 871 C438 863 389 828 368 789 C343 828 285 863 229 871 L228 864 C280 840 321 791 338 740 L338 740 Z M479 680 L479 668 C546 668 568 653 568 612 L568 94 L170 680 L46 680 L46 668 C106 668 125 663 125 642 L125 68 C125 27 106 12 46 12 L46 0 L234 0 L234 12 C167 12 145 27 145 68 L145 628 L579 -5 L588 -5 L588 612 C588 653 607 668 667 668 L667 680 L479 680 Z " />
<glyph glyph-name="ncaron" unicode="&#x148;" horiz-adv-x="595" d="M286 585 L324 585 C339 646 380 705 431 736 L429 744 C383 732 336 687 315 637 C290 687 235 732 181 744 L178 736 C230 705 270 646 286 585 L286 585 Z M493 44 L493 348 C493 475 410 515 337 515 C255 515 184 467 160 393 L163 515 L38 500 L38 489 C92 489 114 485 114 465 L114 44 C114 17 96 12 38 12 L38 0 L239 0 L239 12 C182 12 164 17 164 44 L164 322 C164 429 241 494 320 494 C382 494 443 454 443 346 L443 44 C443 17 425 12 368 12 L368 0 L569 0 L569 12 C511 12 493 17 493 44 L493 44 Z " />
<glyph glyph-name="napostrophe" unicode="&#x149;" horiz-adv-x="666" d="M86 733 C56 733 37 712 37 682 C37 649 61 636 84 635 C81 599 68 557 51 522 L58 518 C91 557 132 634 132 680 C132 713 113 733 86 733 L86 733 Z M565 44 L565 348 C565 475 482 515 408 515 C327 515 255 467 232 393 L231 393 L235 515 L110 500 L110 489 C164 489 185 485 185 465 L185 44 C185 17 167 12 110 12 L110 0 L311 0 L311 12 C254 12 236 17 236 44 L236 322 C236 429 313 494 391 494 C453 494 514 454 514 346 L514 44 C514 17 496 12 439 12 L439 0 L640 0 L640 12 C583 12 565 17 565 44 L565 44 Z " />
<glyph glyph-name="Eng" unicode="&#x14a;" horiz-adv-x="709" d="M479 680 L479 668 C546 668 568 653 568 612 L568 91 L170 680 L46 680 L46 668 C106 668 125 663 125 642 L125 68 C125 27 106 12 46 12 L46 0 L234 0 L234 12 C167 12 145 27 145 68 L145 628 L568 8 L568 -110 C568 -151 568 -239 500 -239 C489 -239 472 -236 456 -233 L453 -246 C465 -250 484 -255 503 -255 C588 -255 588 -152 588 -110 L588 612 C588 653 607 668 667 668 L667 680 L479 680 Z " />
<glyph glyph-name="eng" unicode="&#x14b;" horiz-adv-x="580" d="M337 513 C255 513 184 465 160 391 L163 513 L38 500 L38 489 C92 489 114 485 114 465 L114 44 C114 17 96 12 38 12 L38 0 L239 0 L239 12 C182 12 164 17 164 44 L164 320 C164 427 241 492 320 492 C382 492 443 452 443 344 L443 -106 C443 -205 417 -235 373 -235 C359 -235 343 -231 325 -226 L321 -239 C338 -247 361 -253 385 -253 C459 -253 493 -193 493 -94 L493 346 C493 473 410 513 337 513 L337 513 Z " />
<glyph glyph-name="Omacron" unicode="&#x14c;" horiz-adv-x="723" d="M229 817 L229 790 L494 790 L494 817 L229 817 Z M663 340 C663 549 545 695 361 695 C177 695 60 549 60 340 C60 131 177 -15 361 -15 C545 -15 663 131 663 340 L663 340 Z M118 340 C118 561 222 678 361 678 C501 678 605 561 605 340 C605 119 501 2 361 2 C222 2 118 119 118 340 L118 340 Z " />
<glyph glyph-name="omacron" unicode="&#x14d;" horiz-adv-x="581" d="M160 678 L160 652 L421 652 L421 678 L160 678 Z M290 -15 C432 -15 526 95 526 251 C526 407 432 515 290 515 C149 515 54 407 54 251 C54 95 149 -15 290 -15 L290 -15 Z M291 1 C171 1 109 109 109 251 C109 393 171 499 291 499 C411 499 472 393 472 251 C472 109 411 1 291 1 L291 1 Z " />
<glyph glyph-name="Ohungarumlaut" unicode="&#x150;" horiz-adv-x="723" d="M210 741 C225 741 244 745 260 749 C316 764 369 798 369 839 C369 854 361 865 344 866 C314 808 262 767 209 749 L210 741 Z M353 741 C368 741 387 745 403 749 C459 764 512 798 512 839 C512 854 504 865 487 866 C457 808 405 767 352 749 L353 741 Z M663 340 C663 549 545 695 361 695 C177 695 60 549 60 340 C60 131 177 -15 361 -15 C545 -15 663 131 663 340 L663 340 Z M118 340 C118 561 222 678 361 678 C501 678 605 561 605 340 C605 119 501 2 361 2 C222 2 118 119 118 340 L118 340 Z " />
<glyph glyph-name="ohungarumlaut" unicode="&#x151;" horiz-adv-x="581" d="M170 581 C220 600 293 670 293 722 C293 737 286 751 268 751 C266 751 263 751 260 750 C252 682 211 622 167 587 L170 581 Z M286 581 C335 600 409 670 409 722 C409 737 402 751 384 751 C382 751 379 751 375 750 C367 682 327 622 283 587 L286 581 Z M290 -15 C432 -15 526 95 526 251 C526 407 432 515 290 515 C149 515 54 407 54 251 C54 95 149 -15 290 -15 L290 -15 Z M291 1 C171 1 109 109 109 251 C109 393 171 499 291 499 C411 499 472 393 472 251 C472 109 411 1 291 1 L291 1 Z " />
<glyph glyph-name="OE" unicode="&#x152;" horiz-adv-x="975" d="M925 160 L913 160 C888 54 870 18 816 18 L500 18 C601 72 662 188 663 336 L761 336 C800 336 811 321 821 241 L833 241 L833 450 L821 450 C811 372 800 355 761 355 L663 355 C659 498 599 609 500 662 L795 662 C857 662 879 624 886 531 L898 531 L898 680 L458 680 C428 690 396 695 361 695 C177 695 60 549 60 340 C60 131 177 -15 361 -15 C396 -15 428 -10 458 0 L908 0 L925 160 Z M118 340 C118 561 222 678 361 678 C501 678 605 561 605 340 C605 119 501 2 361 2 C222 2 118 119 118 340 L118 340 Z " />
<glyph glyph-name="oe" unicode="&#x153;" horiz-adv-x="940" d="M877 267 C884 283 887 303 887 326 C887 443 807 515 699 515 C608 515 534 460 499 370 C465 459 389 515 290 515 C149 515 54 407 54 251 C54 95 149 -15 290 -15 C389 -15 464 41 499 131 C533 42 605 -15 699 -15 C772 -15 842 18 877 83 L868 91 C835 36 777 6 712 6 C591 6 527 111 527 255 L527 267 L877 267 Z M291 1 C171 1 109 109 109 251 C109 393 171 499 291 499 C411 499 472 393 472 251 C472 109 411 1 291 1 L291 1 Z M697 499 C790 499 837 423 837 328 C837 288 830 285 815 285 L528 285 C536 407 594 499 697 499 L697 499 Z " />
<glyph glyph-name="Racute" unicode="&#x154;" horiz-adv-x="620" d="M255 749 C314 766 369 801 369 843 C369 859 361 869 344 871 C311 810 257 767 201 748 L202 741 C218 741 238 744 255 749 L255 749 Z M597 46 C585 28 567 6 542 6 C493 6 484 91 468 176 C453 259 407 314 327 334 C451 353 516 415 516 508 C516 613 432 680 255 680 L45 680 L45 668 C105 668 124 663 124 642 L124 38 C124 17 105 12 45 12 L45 0 L273 0 L273 12 C199 12 175 17 175 38 L175 328 L241 328 L248 328 C368 328 397 243 418 142 C438 45 453 -15 522 -15 C572 -15 595 16 608 38 L597 46 Z M175 346 L175 662 L245 662 C376 662 461 612 461 505 C461 396 373 346 243 346 L175 346 Z " />
<glyph glyph-name="racute" unicode="&#x155;" horiz-adv-x="438" d="M293 714 C293 732 284 751 261 751 C258 751 255 751 252 750 C243 682 207 624 163 588 L167 581 C228 601 293 662 293 714 L293 714 Z M316 515 C236 515 176 454 159 372 L162 515 L38 500 L38 489 C92 489 114 485 114 465 L114 44 C114 17 96 12 38 12 L38 0 L279 0 L279 12 C191 12 164 17 164 44 L164 291 C164 419 227 487 293 487 C337 487 369 455 369 381 C393 381 415 398 415 434 C415 486 372 515 316 515 L316 515 Z " />
<glyph glyph-name="uni0156" unicode="&#x156;" horiz-adv-x="620" d="M597 46 C585 28 567 6 542 6 C493 6 484 91 468 176 C453 259 407 314 327 334 C451 353 516 415 516 508 C516 613 432 680 255 680 L45 680 L45 668 C105 668 124 663 124 642 L124 38 C124 17 105 12 45 12 L45 0 L273 0 L273 12 C199 12 175 17 175 38 L175 328 L241 328 L248 328 C368 328 397 243 418 142 C438 45 453 -15 522 -15 C572 -15 595 16 608 38 L597 46 Z M175 346 L175 662 L245 662 C376 662 461 612 461 505 C461 396 373 346 243 346 L175 346 Z M305 -52 C277 -52 262 -72 262 -94 C262 -120 282 -134 303 -136 C301 -159 295 -187 285 -208 L293 -213 C318 -185 348 -133 348 -97 C348 -71 332 -52 305 -52 L305 -52 Z " />
<glyph glyph-name="uni0157" unicode="&#x157;" horiz-adv-x="438" d="M316 515 C236 515 176 454 159 372 L162 515 L38 500 L38 489 C92 489 114 485 114 465 L114 44 C114 17 96 12 38 12 L38 0 L279 0 L279 12 C191 12 164 17 164 44 L164 291 C164 419 227 487 293 487 C337 487 369 455 369 381 C393 381 415 398 415 434 C415 486 372 515 316 515 L316 515 Z M146 -52 C118 -52 103 -72 103 -94 C103 -120 123 -134 144 -136 C142 -159 136 -187 126 -208 L134 -213 C159 -185 189 -133 189 -97 C189 -71 173 -52 146 -52 L146 -52 Z " />
<glyph glyph-name="Rcaron" unicode="&#x158;" horiz-adv-x="620" d="M277 740 L315 740 C331 791 373 840 425 864 L424 871 C377 863 328 828 307 789 C282 828 224 863 168 871 L167 864 C219 840 260 791 277 740 L277 740 Z M597 46 C585 28 567 6 542 6 C493 6 484 91 468 176 C453 259 407 314 327 334 C451 353 516 415 516 508 C516 613 432 680 255 680 L45 680 L45 668 C105 668 124 663 124 642 L124 38 C124 17 105 12 45 12 L45 0 L273 0 L273 12 C199 12 175 17 175 38 L175 328 L241 328 L248 328 C368 328 397 243 418 142 C438 45 453 -15 522 -15 C572 -15 595 16 608 38 L597 46 Z M175 346 L175 662 L245 662 C376 662 461 612 461 505 C461 396 373 346 243 346 L175 346 Z " />
<glyph glyph-name="rcaron" unicode="&#x159;" horiz-adv-x="438" d="M213 585 L251 585 C266 646 307 705 358 736 L356 744 C310 732 263 687 242 637 C217 687 162 732 108 744 L105 736 C157 705 197 646 213 585 L213 585 Z M316 515 C236 515 176 454 159 372 L162 515 L38 500 L38 489 C92 489 114 485 114 465 L114 44 C114 17 96 12 38 12 L38 0 L279 0 L279 12 C191 12 164 17 164 44 L164 291 C164 419 227 487 293 487 C337 487 369 455 369 381 C393 381 415 398 415 434 C415 486 372 515 316 515 L316 515 Z " />
<glyph glyph-name="Sacute" unicode="&#x15a;" horiz-adv-x="548" d="M231 749 C290 766 345 801 345 843 C345 859 337 869 320 871 C287 810 233 767 177 748 L178 741 C194 741 214 744 231 749 L231 749 Z M290 376 C199 423 125 464 125 552 C125 627 180 678 268 678 C362 678 439 618 466 488 L474 488 C471 555 471 622 471 689 L462 689 L437 629 C397 670 332 695 267 695 C170 695 77 637 77 531 C77 424 172 378 264 329 C364 276 433 232 433 143 C433 57 368 2 277 2 C178 2 95 66 72 202 L64 202 C67 132 67 61 67 -9 L76 -9 L102 52 C144 12 209 -15 279 -15 C391 -15 483 53 483 164 C483 280 383 329 290 376 L290 376 Z " />
<glyph glyph-name="sacute" unicode="&#x15b;" horiz-adv-x="449" d="M165 581 C226 601 291 662 291 714 C291 732 282 751 259 751 C256 751 253 751 250 750 C241 682 205 624 161 588 L165 581 Z M232 515 C127 515 65 459 65 383 C65 295 146 264 219 234 C285 206 353 175 353 104 C353 38 296 2 224 2 C151 2 100 40 92 140 C81 139 69 134 61 126 C54 118 49 108 49 95 C49 39 108 -15 215 -15 C329 -15 394 44 394 124 C394 206 325 240 253 270 C179 300 106 326 106 398 C106 457 156 498 228 498 C304 498 350 450 350 372 C361 372 372 377 378 385 C384 392 387 401 387 413 C387 474 323 515 232 515 L232 515 Z " />
<glyph glyph-name="Scedilla" unicode="&#x15e;" horiz-adv-x="548" d="M483 164 C483 280 383 329 290 376 C199 423 125 464 125 552 C125 627 180 678 268 678 C362 678 439 618 466 488 L474 488 C471 555 471 622 471 689 L462 689 L437 629 C397 670 332 695 267 695 C170 695 77 637 77 531 C77 424 172 378 264 329 C364 276 433 232 433 143 C433 57 368 2 277 2 C178 2 95 66 72 202 L64 202 C67 132 67 61 67 -9 L76 -9 L102 52 C141 15 200 -11 265 -15 L233 -80 C295 -80 317 -112 317 -145 C317 -180 292 -209 246 -209 C228 -209 212 -205 193 -197 L186 -207 C205 -220 234 -228 259 -228 C319 -228 359 -191 359 -141 C359 -88 316 -58 263 -57 L283 -15 C393 -13 483 54 483 164 L483 164 Z " />
<glyph glyph-name="scedilla" unicode="&#x15f;" horiz-adv-x="449" d="M394 124 C394 206 325 240 253 270 C179 300 106 326 106 398 C106 457 156 498 228 498 C304 498 350 450 350 372 C361 372 372 377 378 385 C384 392 387 401 387 413 C387 474 323 515 232 515 C127 515 65 459 65 383 C65 295 146 264 219 234 C285 206 353 175 353 104 C353 38 296 2 224 2 C151 2 100 40 92 140 C81 139 69 134 61 126 C54 118 49 108 49 95 C49 39 108 -15 215 -15 L223 -15 L191 -80 C253 -80 275 -112 275 -145 C275 -180 250 -209 204 -209 C186 -209 170 -205 151 -197 L144 -207 C163 -220 192 -228 217 -228 C277 -228 317 -191 317 -141 C317 -88 274 -58 221 -57 L241 -14 C339 -5 394 50 394 124 L394 124 Z " />
<glyph glyph-name="Scaron" unicode="&#x160;" horiz-adv-x="548" d="M253 740 L291 740 C307 791 349 840 401 864 L400 871 C353 863 304 828 283 789 C258 828 200 863 144 871 L143 864 C195 840 236 791 253 740 L253 740 Z M290 376 C199 423 125 464 125 552 C125 627 180 678 268 678 C362 678 439 618 466 488 L474 488 C471 555 471 622 471 689 L462 689 L437 629 C397 670 332 695 267 695 C170 695 77 637 77 531 C77 424 172 378 264 329 C364 276 433 232 433 143 C433 57 368 2 277 2 C178 2 95 66 72 202 L64 202 C67 132 67 61 67 -9 L76 -9 L102 52 C144 12 209 -15 279 -15 C391 -15 483 53 483 164 C483 280 383 329 290 376 L290 376 Z " />
<glyph glyph-name="scaron" unicode="&#x161;" horiz-adv-x="449" d="M212 585 L250 585 C265 646 306 705 357 736 L355 744 C309 732 262 687 241 637 C216 687 161 732 107 744 L104 736 C156 705 196 646 212 585 L212 585 Z M253 270 C179 300 106 326 106 398 C106 457 156 498 228 498 C304 498 350 450 350 372 C361 372 372 377 378 385 C384 392 387 401 387 413 C387 474 323 515 232 515 C127 515 65 459 65 383 C65 295 146 264 219 234 C285 206 353 175 353 104 C353 38 296 2 224 2 C151 2 100 40 92 140 C81 139 69 134 61 126 C54 118 49 108 49 95 C49 39 108 -15 215 -15 C329 -15 394 44 394 124 C394 206 325 240 253 270 L253 270 Z " />
<glyph glyph-name="uni0162" unicode="&#x162;" horiz-adv-x="567" d="M530 680 L36 680 L36 524 L48 524 C53 625 78 662 143 662 L257 662 L257 43 C257 18 237 12 175 12 L175 0 L269 0 L230 -79 C292 -79 314 -111 314 -144 C314 -179 289 -208 243 -208 C225 -208 209 -204 190 -196 L183 -206 C202 -219 231 -227 256 -227 C316 -227 356 -190 356 -140 C356 -87 313 -57 260 -56 L287 0 L391 0 L391 12 C328 12 308 18 308 43 L308 662 L422 662 C488 662 512 625 518 524 L530 524 L530 680 Z " />
<glyph glyph-name="uni0163" unicode="&#x163;" horiz-adv-x="375" d="M232 -15 C288 -15 336 13 365 65 L356 75 C330 31 290 5 244 5 C174 5 155 60 155 142 L155 483 L345 483 L345 500 L155 500 L155 633 C138 626 121 620 104 615 L104 500 L38 500 L38 483 L104 483 L104 142 C104 78 128 8 195 -10 L161 -80 C223 -80 245 -112 245 -145 C245 -180 220 -209 174 -209 C156 -209 140 -205 121 -197 L114 -207 C133 -220 162 -228 187 -228 C247 -228 287 -191 287 -141 C287 -88 244 -58 191 -57 L212 -14 C218 -15 225 -15 232 -15 L232 -15 Z " />
<glyph glyph-name="Tcaron" unicode="&#x164;" horiz-adv-x="567" d="M264 740 L302 740 C318 791 360 840 412 864 L411 871 C364 863 315 828 294 789 C269 828 211 863 155 871 L154 864 C206 840 247 791 264 740 L264 740 Z M530 680 L36 680 L36 524 L48 524 C53 625 78 662 143 662 L257 662 L257 43 C257 18 237 12 175 12 L175 0 L391 0 L391 12 C328 12 308 18 308 43 L308 662 L422 662 C488 662 512 625 518 524 L530 524 L530 680 Z " />
<glyph glyph-name="tcaron" unicode="&#x165;" horiz-adv-x="375" d="M230 555 C265 590 293 647 293 694 C293 727 279 753 255 753 C248 753 241 750 237 747 C243 727 247 702 247 675 C247 637 238 594 224 560 L230 555 Z M356 75 C330 31 290 5 244 5 C174 5 155 60 155 142 L155 483 L345 483 L345 500 L155 500 L155 633 C138 626 121 620 104 615 L104 500 L38 500 L38 483 L104 483 L104 142 C104 67 137 -15 232 -15 C288 -15 336 13 365 65 L356 75 Z " />
<glyph glyph-name="Tbar" unicode="&#x166;" horiz-adv-x="567" d="M530 680 L36 680 L36 524 L48 524 C53 625 78 662 143 662 L257 662 L257 348 L130 348 L130 330 L257 330 L257 43 C257 18 237 12 175 12 L175 0 L391 0 L391 12 C328 12 308 18 308 43 L308 330 L436 330 L436 348 L308 348 L308 662 L422 662 C488 662 512 625 518 524 L530 524 L530 680 Z " />
<glyph glyph-name="tbar" unicode="&#x167;" horiz-adv-x="375" d="M356 75 C330 31 290 5 244 5 C174 5 155 60 155 142 L155 319 L344 319 L344 337 L155 337 L155 483 L345 483 L345 500 L155 500 L155 633 C138 626 121 620 104 615 L104 500 L38 500 L38 483 L104 483 L104 337 L38 337 L38 319 L104 319 L104 142 C104 67 137 -15 232 -15 C288 -15 336 13 365 65 L356 75 Z " />
<glyph glyph-name="Utilde" unicode="&#x168;" horiz-adv-x="683" d="M277 861 C233 861 204 828 204 788 C204 777 207 764 209 757 L218 757 C216 764 215 774 215 779 C215 809 238 825 263 825 C316 825 354 750 422 750 C466 750 496 781 496 822 C496 833 493 846 491 853 L482 853 C484 847 485 837 485 831 C485 803 463 785 436 785 C381 785 344 861 277 861 L277 861 Z M548 612 L548 240 C548 81 467 6 353 6 C237 6 164 84 164 243 L164 642 C164 663 183 668 243 668 L243 680 L35 680 L35 668 C95 668 114 663 114 642 L114 241 C114 75 205 -15 343 -15 C489 -15 568 85 568 242 L568 612 C568 653 587 668 647 668 L647 680 L456 680 L456 668 C525 668 548 653 548 612 L548 612 Z " />
<glyph glyph-name="utilde" unicode="&#x169;" horiz-adv-x="583" d="M150 614 C150 617 148 623 148 632 C148 671 173 686 196 686 C248 686 285 609 352 609 C395 609 423 640 423 683 C423 696 421 708 419 715 L410 715 C411 711 412 703 412 694 C412 663 392 644 365 644 C311 644 276 722 210 722 C167 722 137 690 137 646 C137 635 139 622 142 614 L150 614 Z M563 52 C556 27 540 6 515 6 C484 6 474 43 474 101 L474 515 L348 500 L348 489 C403 489 423 485 423 465 L423 172 C423 67 345 6 270 6 C211 6 153 46 153 155 L153 515 L27 500 L27 489 C82 489 102 485 102 465 L102 154 C102 23 185 -15 257 -15 C340 -15 409 36 427 105 L428 105 C428 32 449 -15 501 -15 C539 -15 566 11 574 48 L563 52 Z " />
<glyph glyph-name="Umacron" unicode="&#x16a;" horiz-adv-x="683" d="M217 819 L217 792 L482 792 L482 819 L217 819 Z M548 612 L548 240 C548 81 467 6 353 6 C237 6 164 84 164 243 L164 642 C164 663 183 668 243 668 L243 680 L35 680 L35 668 C95 668 114 663 114 642 L114 241 C114 75 205 -15 343 -15 C489 -15 568 85 568 242 L568 612 C568 653 587 668 647 668 L647 680 L456 680 L456 668 C525 668 548 653 548 612 L548 612 Z " />
<glyph glyph-name="umacron" unicode="&#x16b;" horiz-adv-x="583" d="M413 678 L152 678 L152 652 L413 652 L413 678 Z M563 52 C556 27 540 6 515 6 C484 6 474 43 474 101 L474 515 L348 500 L348 489 C403 489 423 485 423 465 L423 172 C423 67 345 6 270 6 C211 6 153 46 153 155 L153 515 L27 500 L27 489 C82 489 102 485 102 465 L102 154 C102 23 185 -15 257 -15 C340 -15 409 36 427 105 L428 105 C428 32 449 -15 501 -15 C539 -15 566 11 574 48 L563 52 Z " />
<glyph glyph-name="Uring" unicode="&#x16e;" horiz-adv-x="683" d="M350 728 C395 728 428 760 428 806 C428 851 395 883 350 883 C304 883 271 851 271 806 C271 760 304 728 350 728 L350 728 Z M350 750 C320 750 297 774 297 806 C297 837 320 861 350 861 C379 861 402 837 402 806 C402 774 379 750 350 750 L350 750 Z M548 612 L548 240 C548 81 467 6 353 6 C237 6 164 84 164 243 L164 642 C164 663 183 668 243 668 L243 680 L35 680 L35 668 C95 668 114 663 114 642 L114 241 C114 75 205 -15 343 -15 C489 -15 568 85 568 242 L568 612 C568 653 587 668 647 668 L647 680 L456 680 L456 668 C525 668 548 653 548 612 L548 612 Z " />
<glyph glyph-name="uring" unicode="&#x16f;" horiz-adv-x="583" d="M282 592 C325 592 356 622 356 665 C356 708 325 739 282 739 C239 739 208 708 208 665 C208 622 239 592 282 592 L282 592 Z M282 717 C309 717 330 694 330 665 C330 636 309 614 282 614 C255 614 234 636 234 665 C234 694 255 717 282 717 L282 717 Z M563 52 C556 27 540 6 515 6 C484 6 474 43 474 101 L474 515 L348 500 L348 489 C403 489 423 485 423 465 L423 172 C423 67 345 6 270 6 C211 6 153 46 153 155 L153 515 L27 500 L27 489 C82 489 102 485 102 465 L102 154 C102 23 185 -15 257 -15 C340 -15 409 36 427 105 L428 105 C428 32 449 -15 501 -15 C539 -15 566 11 574 48 L563 52 Z " />
<glyph glyph-name="Uhungarumlaut" unicode="&#x170;" horiz-adv-x="683" d="M199 743 C214 743 233 747 249 751 C305 766 358 800 358 841 C358 856 350 867 333 868 C303 810 251 769 198 751 L199 743 Z M342 743 C357 743 376 747 392 751 C448 766 501 800 501 841 C501 856 493 867 476 868 C446 810 394 769 341 751 L342 743 Z M548 612 L548 240 C548 81 467 6 353 6 C237 6 164 84 164 243 L164 642 C164 663 183 668 243 668 L243 680 L35 680 L35 668 C95 668 114 663 114 642 L114 241 C114 75 205 -15 343 -15 C489 -15 568 85 568 242 L568 612 C568 653 587 668 647 668 L647 680 L456 680 L456 668 C525 668 548 653 548 612 L548 612 Z " />
<glyph glyph-name="uhungarumlaut" unicode="&#x171;" horiz-adv-x="583" d="M286 722 C286 737 279 751 261 751 C259 751 256 751 253 750 C245 682 204 622 160 587 L163 581 C213 600 286 670 286 722 L286 722 Z M279 581 C328 600 402 670 402 722 C402 737 395 751 377 751 C375 751 372 751 368 750 C360 682 320 622 276 587 L279 581 Z M563 52 C556 27 540 6 515 6 C484 6 474 43 474 101 L474 515 L348 500 L348 489 C403 489 423 485 423 465 L423 172 C423 67 345 6 270 6 C211 6 153 46 153 155 L153 515 L27 500 L27 489 C82 489 102 485 102 465 L102 154 C102 23 185 -15 257 -15 C340 -15 409 36 427 105 L428 105 C428 32 449 -15 501 -15 C539 -15 566 11 574 48 L563 52 Z " />
<glyph glyph-name="Uogonek" unicode="&#x172;" horiz-adv-x="683" d="M456 680 L456 668 C525 668 548 653 548 612 L548 240 C548 81 467 6 353 6 C237 6 164 84 164 243 L164 642 C164 663 183 668 243 668 L243 680 L35 680 L35 668 C95 668 114 663 114 642 L114 241 C114 75 205 -15 343 -15 C362 -15 380 -14 397 -10 C321 -55 284 -117 284 -162 C284 -203 314 -229 355 -229 C387 -229 415 -212 429 -182 L423 -177 C408 -192 391 -198 374 -198 C345 -198 327 -179 327 -148 C327 -97 380 -26 449 8 C514 38 568 109 568 242 L568 612 C568 653 587 668 647 668 L647 680 L456 680 Z " />
<glyph glyph-name="uogonek" unicode="&#x173;" horiz-adv-x="583" d="M539 -5 C557 6 570 25 574 48 L563 52 C556 28 540 6 516 6 C484 6 474 43 474 101 L474 515 L348 500 L348 489 C403 489 423 485 423 465 L423 172 C423 67 345 6 270 6 C211 6 153 46 153 155 L153 515 L27 500 L27 489 C82 489 102 485 102 465 L102 154 C102 23 185 -15 257 -15 C340 -15 409 36 427 105 L428 105 C428 32 449 -15 501 -15 L505 -15 C435 -60 399 -119 399 -164 C399 -204 430 -229 470 -229 C502 -229 530 -212 545 -182 L539 -177 C524 -192 507 -198 490 -198 C461 -198 443 -179 443 -148 C443 -107 476 -53 539 -5 L539 -5 Z " />
<glyph glyph-name="Wcircumflex" unicode="&#x174;" horiz-adv-x="962" d="M481 822 C506 783 565 748 621 740 L622 748 C570 771 528 820 512 871 L474 871 C457 820 416 771 364 748 L365 740 C412 748 461 783 481 822 L481 822 Z M775 680 L775 668 C826 668 859 655 859 633 C859 621 849 592 684 87 C516 606 507 631 507 645 C507 664 529 668 572 668 L572 680 L369 680 L369 668 C424 668 439 663 446 643 L470 572 C434 464 386 315 312 87 C144 606 135 631 135 645 C135 664 157 668 200 668 L200 680 L-3 680 L-3 668 C52 668 67 663 74 643 L292 -14 L297 -14 L480 540 L665 -14 L670 -14 L879 618 C891 653 912 668 971 668 L971 680 L775 680 Z " />
<glyph glyph-name="wcircumflex" unicode="&#x175;" horiz-adv-x="782" d="M383 695 C407 644 461 600 516 587 L519 595 C468 625 427 685 411 745 L374 745 C358 685 317 625 266 595 L269 587 C315 600 363 644 383 695 L383 695 Z M612 500 L612 488 C656 488 679 477 679 457 C679 405 595 182 549 46 C519 131 408 423 408 469 C408 482 435 487 480 488 L480 500 L292 500 L292 488 C331 487 344 483 352 460 L379 386 C345 282 297 148 262 47 C230 140 121 424 121 465 C121 482 147 487 193 488 L193 500 L5 500 L5 488 C43 487 57 482 65 460 L234 -9 L261 -9 L389 357 L521 -9 L547 -9 L710 454 C720 484 742 487 779 488 L779 500 L612 500 Z " />
<glyph glyph-name="Ycircumflex" unicode="&#x176;" horiz-adv-x="638" d="M317 822 C342 783 401 748 457 740 L458 748 C406 771 364 820 348 871 L310 871 C293 820 252 771 200 748 L201 740 C248 748 297 783 317 822 L317 822 Z M441 680 L441 668 C493 668 528 659 528 636 C528 619 522 607 335 271 C151 605 137 631 137 646 C137 663 159 668 202 668 L202 680 L2 680 L2 668 C54 668 66 662 76 643 L293 247 L293 38 C293 17 275 12 219 12 L219 0 L418 0 L418 12 C362 12 344 17 344 38 L344 246 L547 617 C566 653 582 668 641 668 L641 680 L441 680 Z " />
<glyph glyph-name="ycircumflex" unicode="&#x177;" horiz-adv-x="537" d="M266 695 C290 644 344 600 399 587 L402 595 C351 625 310 685 294 745 L257 745 C241 685 200 625 149 595 L152 587 C198 600 246 644 266 695 L266 695 Z M365 500 L365 488 C414 488 431 476 431 455 C431 408 337 187 281 48 C241 149 123 422 123 463 C123 482 150 488 202 488 L202 500 L6 500 L6 488 C44 487 57 482 65 460 L256 -16 L258 -16 C199 -158 157 -233 93 -233 C46 -233 39 -196 39 -135 C11 -135 -9 -158 -9 -187 C-9 -223 23 -255 80 -255 C154 -255 206 -198 274 -25 L463 454 C474 482 493 487 532 488 L532 500 L365 500 Z " />
<glyph glyph-name="Ydieresis" unicode="&#x178;" horiz-adv-x="638" d="M226 765 C252 765 271 782 271 806 C271 830 252 847 226 847 C200 847 181 830 181 806 C181 782 200 765 226 765 L226 765 Z M433 765 C458 765 477 782 477 806 C477 830 458 847 433 847 C406 847 388 830 388 806 C388 782 406 765 433 765 L433 765 Z M441 680 L441 668 C493 668 528 659 528 636 C528 619 522 607 335 271 C151 605 137 631 137 646 C137 663 159 668 202 668 L202 680 L2 680 L2 668 C54 668 66 662 76 643 L293 247 L293 38 C293 17 275 12 219 12 L219 0 L418 0 L418 12 C362 12 344 17 344 38 L344 246 L547 617 C566 653 582 668 641 668 L641 680 L441 680 Z " />
<glyph glyph-name="Zacute" unicode="&#x179;" horiz-adv-x="565" d="M227 749 C286 766 341 801 341 843 C341 859 333 869 316 871 C283 810 229 767 173 748 L174 741 C190 741 210 744 227 749 L227 749 Z M514 158 C492 50 473 18 418 18 L99 18 L505 667 L505 680 L59 680 L59 539 L71 539 C78 631 102 662 155 662 L445 662 L39 13 L39 0 L511 0 L526 158 L514 158 Z " />
<glyph glyph-name="zacute" unicode="&#x17a;" horiz-adv-x="476" d="M304 714 C304 732 295 751 272 751 C269 751 266 751 263 750 C254 682 218 624 174 588 L178 581 C239 601 304 662 304 714 L304 714 Z M409 180 C403 46 383 17 316 17 L100 17 L413 485 L413 500 L60 500 L60 350 L71 350 C79 462 96 483 173 483 L358 483 L44 15 L44 0 L420 0 L420 180 L409 180 Z " />
<glyph glyph-name="Zdotaccent" unicode="&#x17b;" horiz-adv-x="565" d="M268 761 C297 761 317 779 317 806 C317 833 297 851 268 851 C239 851 219 833 219 806 C219 779 239 761 268 761 L268 761 Z M514 158 C492 50 473 18 418 18 L99 18 L505 667 L505 680 L59 680 L59 539 L71 539 C78 631 102 662 155 662 L445 662 L39 13 L39 0 L511 0 L526 158 L514 158 Z " />
<glyph glyph-name="zdotaccent" unicode="&#x17c;" horiz-adv-x="476" d="M240 622 C269 622 289 641 289 667 C289 694 269 713 240 713 C211 713 191 694 191 667 C191 641 211 622 240 622 L240 622 Z M409 180 C403 46 383 17 316 17 L100 17 L413 485 L413 500 L60 500 L60 350 L71 350 C79 462 96 483 173 483 L358 483 L44 15 L44 0 L420 0 L420 180 L409 180 Z " />
<glyph glyph-name="Zcaron" unicode="&#x17d;" horiz-adv-x="565" d="M249 740 L287 740 C303 791 345 840 397 864 L396 871 C349 863 300 828 279 789 C254 828 196 863 140 871 L139 864 C191 840 232 791 249 740 L249 740 Z M514 158 C492 50 473 18 418 18 L99 18 L505 667 L505 680 L59 680 L59 539 L71 539 C78 631 102 662 155 662 L445 662 L39 13 L39 0 L511 0 L526 158 L514 158 Z " />
<glyph glyph-name="zcaron" unicode="&#x17e;" horiz-adv-x="476" d="M225 585 L263 585 C278 646 319 705 370 736 L368 744 C322 732 275 687 254 637 C229 687 174 732 120 744 L117 736 C169 705 209 646 225 585 L225 585 Z M409 180 C403 46 383 17 316 17 L100 17 L413 485 L413 500 L60 500 L60 350 L71 350 C79 462 96 483 173 483 L358 483 L44 15 L44 0 L420 0 L420 180 L409 180 Z " />
<glyph glyph-name="uni01EA" unicode="&#x1ea;" horiz-adv-x="723" d="M361 695 C177 695 60 549 60 340 C60 131 177 -15 361 -15 C385 -15 408 -13 430 -7 C352 -52 312 -116 312 -162 C312 -203 343 -229 383 -229 C415 -229 443 -212 457 -182 L452 -177 C436 -191 420 -198 403 -198 C374 -198 355 -179 355 -148 C355 -104 393 -35 484 10 C596 66 663 177 663 340 C663 549 545 695 361 695 L361 695 Z M361 2 C222 2 118 119 118 340 C118 561 222 678 361 678 C501 678 605 561 605 340 C605 119 501 2 361 2 L361 2 Z " />
<glyph glyph-name="uni01EB" unicode="&#x1eb;" horiz-adv-x="581" d="M290 515 C149 515 54 407 54 251 C54 95 149 -15 290 -15 C309 -15 327 -13 345 -9 C269 -55 230 -116 230 -162 C230 -203 261 -229 302 -229 C333 -229 362 -212 376 -182 L370 -177 C355 -192 338 -198 321 -198 C292 -198 274 -179 274 -148 C274 -106 306 -43 387 5 C466 51 526 128 526 251 C526 407 432 515 290 515 L290 515 Z M291 1 C171 1 109 109 109 251 C109 393 171 499 291 499 C411 499 472 393 472 251 C472 109 409 1 291 1 L291 1 Z " />
<glyph glyph-name="AEacute" unicode="&#x1fc;" horiz-adv-x="870" d="M394 749 C453 766 508 801 508 843 C508 859 500 869 483 871 C450 810 396 767 340 748 L341 741 C357 741 377 744 394 749 L394 749 Z M816 160 C802 54 788 18 734 18 L499 18 L465 336 L646 336 C685 336 698 321 716 241 L728 241 L706 450 L694 450 C692 372 683 355 644 355 L463 355 L431 662 L645 662 C708 662 733 624 750 531 L762 531 L746 680 L299 680 L301 668 C347 668 370 665 379 655 L90 62 C74 28 53 12 -5 12 L-7 0 L183 0 L185 12 C137 12 105 24 107 41 C108 50 136 112 183 211 L428 211 L446 38 C449 17 430 12 370 12 L371 0 L828 0 L828 160 L816 160 Z M192 229 C241 331 307 469 385 627 L426 229 L192 229 Z " />
<glyph glyph-name="aeacute" unicode="&#x1fd;" horiz-adv-x="819" d="M478 714 C478 732 469 751 446 751 C443 751 440 751 437 750 C428 682 392 624 348 588 L352 581 C413 601 478 662 478 714 L478 714 Z M756 267 C763 283 766 303 766 326 C766 443 686 515 578 515 C500 515 434 476 394 410 C372 488 313 515 243 515 C151 515 74 467 74 411 C74 384 93 369 120 369 C120 454 172 499 241 499 C312 499 352 455 352 355 L352 259 C190 257 51 224 51 105 C51 39 94 -15 183 -15 C275 -15 350 42 371 137 C404 45 480 -15 578 -15 C651 -15 721 18 756 83 L747 91 C714 36 656 6 591 6 C469 6 406 111 406 255 L406 267 L756 267 Z M576 499 C669 499 716 423 716 328 C716 288 708 285 694 285 L407 285 C415 407 473 499 576 499 L576 499 Z M202 9 C141 9 104 49 104 111 C104 197 175 241 352 243 L352 162 C352 73 278 9 202 9 L202 9 Z " />
<glyph glyph-name="Oslashacute" unicode="&#x1fe;" horiz-adv-x="723" d="M321 747 C380 764 435 799 435 841 C435 857 427 867 410 869 C377 808 323 765 267 746 L268 739 C284 739 304 742 321 747 L321 747 Z M577 601 L639 678 L623 691 L563 616 C512 666 443 695 361 695 C177 695 60 549 60 340 C60 237 88 150 139 87 L70 1 L86 -12 L153 71 C204 17 275 -15 361 -15 C545 -15 663 131 663 340 C663 447 632 538 577 601 L577 601 Z M118 340 C118 561 222 678 361 678 C433 678 496 647 539 587 L166 121 C136 176 118 249 118 340 L118 340 Z M361 2 C286 2 221 36 177 102 L551 569 C585 513 605 436 605 340 C605 119 501 2 361 2 L361 2 Z " />
<glyph glyph-name="oslashacute" unicode="&#x1ff;" horiz-adv-x="581" d="M354 714 C354 732 345 751 322 751 C319 751 316 751 313 750 C304 682 268 624 224 588 L228 581 C289 601 354 662 354 714 L354 714 Z M440 462 L486 536 L468 548 L423 476 C386 501 341 515 290 515 C149 515 54 407 54 251 C54 159 87 82 144 36 L97 -39 L115 -51 L161 23 C197 -2 241 -15 290 -15 C432 -15 526 95 526 251 C526 342 494 416 440 462 L440 462 Z M109 251 C109 393 171 499 291 499 C339 499 378 482 407 452 L162 63 C127 108 109 175 109 251 L109 251 Z M291 1 C244 1 206 18 177 46 L421 436 C455 391 472 326 472 251 C472 109 411 1 291 1 L291 1 Z " />
<glyph glyph-name="uni0218" unicode="&#x218;" horiz-adv-x="548" d="M290 376 C199 423 125 464 125 552 C125 627 180 678 268 678 C362 678 439 618 466 488 L474 488 C471 555 471 622 471 689 L462 689 L437 629 C397 670 332 695 267 695 C170 695 77 637 77 531 C77 424 172 378 264 329 C364 276 433 232 433 143 C433 57 368 2 277 2 C178 2 95 66 72 202 L64 202 C67 132 67 61 67 -9 L76 -9 L102 52 C144 12 209 -15 279 -15 C391 -15 483 53 483 164 C483 280 383 329 290 376 L290 376 Z M274 -52 C246 -52 231 -72 231 -94 C231 -120 251 -134 272 -136 C270 -159 264 -187 254 -208 L262 -213 C287 -185 317 -133 317 -97 C317 -71 301 -52 274 -52 L274 -52 Z " />
<glyph glyph-name="uni0219" unicode="&#x219;" horiz-adv-x="449" d="M253 270 C179 300 106 326 106 398 C106 457 156 498 228 498 C304 498 350 450 350 372 C361 372 372 377 378 385 C384 392 387 401 387 413 C387 474 323 515 232 515 C127 515 65 459 65 383 C65 295 146 264 219 234 C285 206 353 175 353 104 C353 38 296 2 224 2 C151 2 100 40 92 140 C81 139 69 134 61 126 C54 118 49 108 49 95 C49 39 108 -15 215 -15 C329 -15 394 44 394 124 C394 206 325 240 253 270 L253 270 Z M232 -52 C204 -52 189 -72 189 -94 C189 -120 209 -134 230 -136 C228 -159 222 -187 212 -208 L220 -213 C245 -185 275 -133 275 -97 C275 -71 259 -52 232 -52 L232 -52 Z " />
<glyph glyph-name="uni021A" unicode="&#x21a;" horiz-adv-x="567" d="M530 680 L36 680 L36 524 L48 524 C53 625 78 662 143 662 L257 662 L257 43 C257 18 237 12 175 12 L175 0 L391 0 L391 12 C328 12 308 18 308 43 L308 662 L422 662 C488 662 512 625 518 524 L530 524 L530 680 Z M271 -51 C243 -51 228 -71 228 -93 C228 -119 248 -133 269 -135 C267 -158 261 -186 251 -207 L259 -212 C284 -184 314 -132 314 -96 C314 -70 298 -51 271 -51 L271 -51 Z " />
<glyph glyph-name="uni021B" unicode="&#x21b;" horiz-adv-x="375" d="M356 75 C330 31 290 5 244 5 C174 5 155 60 155 142 L155 483 L345 483 L345 500 L155 500 L155 633 C138 626 121 620 104 615 L104 500 L38 500 L38 483 L104 483 L104 142 C104 67 137 -15 232 -15 C288 -15 336 13 365 65 L356 75 Z M202 -52 C174 -52 159 -72 159 -94 C159 -120 179 -134 200 -136 C198 -159 192 -187 182 -208 L190 -213 C215 -185 245 -133 245 -97 C245 -71 229 -52 202 -52 L202 -52 Z " />
<glyph glyph-name="uni0237" unicode="&#x237;" horiz-adv-x="249" d="M-3 -230 L-7 -243 C9 -250 28 -255 50 -255 C123 -255 157 -195 157 -94 L157 513 L32 500 L32 489 C85 489 107 485 107 465 L107 -106 C107 -207 82 -238 38 -238 C25 -238 12 -235 -3 -230 L-3 -230 Z " />
<glyph glyph-name="circumflex" unicode="&#x2c6;" horiz-adv-x="366" d="M202 745 L165 745 C149 685 108 625 57 595 L60 587 C106 600 154 644 174 695 C198 644 252 600 307 587 L310 595 C259 625 218 685 202 745 L202 745 Z " />
<glyph glyph-name="caron" unicode="&#x2c7;" horiz-adv-x="352" d="M300 744 C254 732 207 687 186 637 C161 687 106 732 52 744 L49 736 C101 705 141 646 157 585 L195 585 C210 646 251 705 302 736 L300 744 Z " />
<glyph glyph-name="breve" unicode="&#x2d8;" horiz-adv-x="383" d="M191 590 C261 590 313 644 318 735 L309 737 C293 666 246 630 191 630 C137 630 90 666 74 737 L65 735 C70 644 122 590 191 590 L191 590 Z " />
<glyph glyph-name="dotaccent" unicode="&#x2d9;" horiz-adv-x="240" d="M120 622 C149 622 169 641 169 667 C169 694 149 713 120 713 C91 713 71 694 71 667 C71 641 91 622 120 622 L120 622 Z " />
<glyph glyph-name="ring" unicode="&#x2da;" horiz-adv-x="443" d="M109 592 C152 592 183 622 183 665 C183 708 152 739 109 739 C66 739 35 708 35 665 C35 622 66 592 109 592 L109 592 Z M109 614 C82 614 61 636 61 665 C61 694 82 717 109 717 C136 717 157 694 157 665 C157 636 136 614 109 614 L109 614 Z " />
<glyph glyph-name="ogonek" unicode="&#x2db;" horiz-adv-x="220" d="M188 -182 L182 -177 C167 -192 150 -198 133 -198 C104 -198 86 -179 86 -148 C86 -105 121 -49 188 0 L183 5 C90 -42 42 -111 42 -162 C42 -203 73 -229 113 -229 C146 -229 174 -212 188 -182 L188 -182 Z " />
<glyph glyph-name="tilde" unicode="&#x2dc;" horiz-adv-x="530" d="M131 722 C88 722 58 690 58 646 C58 635 60 622 63 614 L71 614 C71 617 69 623 69 632 C69 671 94 686 117 686 C169 686 206 609 273 609 C316 609 344 640 344 683 C344 696 342 708 340 715 L331 715 C332 711 333 703 333 694 C333 663 313 644 286 644 C232 644 197 722 131 722 L131 722 Z " />
<glyph glyph-name="hungarumlaut" unicode="&#x2dd;" horiz-adv-x="536" d="M90 581 C139 600 213 670 213 722 C213 737 205 751 188 751 C186 751 183 751 179 750 C171 682 130 622 87 587 L90 581 Z M205 581 C254 600 328 670 328 722 C328 737 321 751 303 751 C301 751 298 751 294 750 C286 682 246 622 202 587 L205 581 Z " />
<glyph glyph-name="gravecomb" unicode="&#x300;" d="M-76 581 L-73 588 C-119 624 -156 682 -165 750 C-168 751 -172 751 -174 751 C-195 751 -203 732 -203 714 C-203 662 -138 601 -76 581 L-76 581 Z " />
<glyph glyph-name="acutecomb" unicode="&#x301;" d="M-212 581 C-151 601 -86 662 -86 714 C-86 732 -95 751 -118 751 C-121 751 -124 751 -127 750 C-136 682 -172 624 -216 588 L-212 581 Z " />
<glyph glyph-name="uni0302" unicode="&#x302;" d="M-165 745 L-202 745 C-218 685 -259 625 -310 595 L-307 587 C-261 600 -213 644 -193 695 C-169 644 -115 600 -60 587 L-57 595 C-108 625 -149 685 -165 745 L-165 745 Z " />
<glyph glyph-name="tildecomb" unicode="&#x303;" d="M-276 722 C-319 722 -349 690 -349 646 C-349 635 -347 622 -344 614 L-336 614 C-336 617 -338 623 -338 632 C-338 671 -313 686 -290 686 C-238 686 -201 609 -134 609 C-91 609 -63 640 -63 683 C-63 696 -65 708 -67 715 L-76 715 C-75 711 -74 703 -74 694 C-74 663 -94 644 -121 644 C-175 644 -210 722 -276 722 L-276 722 Z " />
<glyph glyph-name="uni0304" unicode="&#x304;" d="M-330 678 L-330 652 L-69 652 L-69 678 L-330 678 Z " />
<glyph glyph-name="uni0306" unicode="&#x306;" d="M-192 590 C-122 590 -70 644 -65 735 L-74 737 C-90 666 -137 630 -192 630 C-246 630 -293 666 -309 737 L-318 735 C-313 644 -261 590 -192 590 L-192 590 Z " />
<glyph glyph-name="uni0307" unicode="&#x307;" d="M-120 622 C-91 622 -71 641 -71 667 C-71 694 -91 713 -120 713 C-149 713 -169 694 -169 667 C-169 641 -149 622 -120 622 L-120 622 Z " />
<glyph glyph-name="uni0308" unicode="&#x308;" d="M-323 625 C-298 625 -279 641 -279 665 C-279 689 -298 706 -323 706 C-350 706 -368 689 -368 665 C-368 641 -350 625 -323 625 L-323 625 Z M-117 625 C-91 625 -72 641 -72 665 C-72 689 -91 706 -117 706 C-143 706 -162 689 -162 665 C-162 641 -143 625 -117 625 L-117 625 Z " />
<glyph glyph-name="uni030A" unicode="&#x30a;" d="M-109 592 C-66 592 -35 622 -35 665 C-35 708 -66 739 -109 739 C-152 739 -183 708 -183 665 C-183 622 -152 592 -109 592 L-109 592 Z M-109 614 C-136 614 -157 636 -157 665 C-157 694 -136 717 -109 717 C-82 717 -61 694 -61 665 C-61 636 -82 614 -109 614 L-109 614 Z " />
<glyph glyph-name="uni030B" unicode="&#x30b;" d="M-329 581 C-279 600 -206 670 -206 722 C-206 737 -213 751 -231 751 C-233 751 -236 751 -239 750 C-247 682 -288 622 -332 587 L-329 581 Z M-213 581 C-164 600 -90 670 -90 722 C-90 737 -97 751 -115 751 C-117 751 -120 751 -124 750 C-132 682 -172 622 -216 587 L-213 581 Z " />
<glyph glyph-name="uni030C" unicode="&#x30c;" d="M-52 744 C-98 732 -145 687 -166 637 C-191 687 -246 732 -300 744 L-303 736 C-251 705 -211 646 -195 585 L-157 585 C-142 646 -101 705 -50 736 L-52 744 Z " />
<glyph glyph-name="uni0312" unicode="&#x312;" d="M-107 671 C-105 695 -99 722 -90 743 L-98 749 C-122 721 -152 668 -152 632 C-152 606 -136 588 -109 588 C-81 588 -66 607 -66 630 C-66 656 -87 669 -107 671 L-107 671 Z " />
<glyph glyph-name="uni0326" unicode="&#x326;" d="M-107 -52 C-135 -52 -150 -72 -150 -94 C-150 -120 -130 -134 -109 -136 C-111 -159 -117 -187 -127 -208 L-119 -213 C-94 -185 -64 -133 -64 -97 C-64 -71 -80 -52 -107 -52 L-107 -52 Z " />
<glyph glyph-name="uni0327" unicode="&#x327;" d="M-198 -228 C-138 -228 -98 -191 -98 -141 C-98 -88 -141 -58 -194 -57 L-167 0 L-185 0 L-224 -80 C-162 -80 -140 -112 -140 -145 C-140 -180 -165 -209 -211 -209 C-229 -209 -245 -205 -264 -197 L-271 -207 C-252 -220 -223 -228 -198 -228 L-198 -228 Z " />
<glyph glyph-name="uni0328" unicode="&#x328;" d="M-43 -182 L-49 -177 C-64 -192 -81 -198 -98 -198 C-127 -198 -145 -179 -145 -148 C-145 -105 -110 -49 -43 0 L-48 5 C-141 -42 -189 -111 -189 -162 C-189 -203 -158 -229 -118 -229 C-85 -229 -57 -212 -43 -182 L-43 -182 Z " />
<glyph glyph-name="uni0335" unicode="&#x335;" d="M-306 363 L0 363 L0 381 L-306 381 L-306 363 Z " />
<glyph glyph-name="uni0336" unicode="&#x336;" d="M-507 364 L-10 364 L-10 381 L-507 381 L-507 364 Z " />
<glyph glyph-name="uni0337" unicode="&#x337;" d="M-271 368 L-81 494 L-81 519 L-271 392 L-271 368 Z " />
<glyph glyph-name="uni0338" unicode="&#x338;" d="M-472 -39 L-453 -51 L-83 536 L-101 548 L-472 -39 Z " />
<glyph glyph-name="Wgrave" unicode="&#x1e80;" horiz-adv-x="962" d="M529 749 C544 745 559 742 574 741 L576 748 C522 769 471 812 443 871 C424 870 415 859 415 842 C415 800 469 767 529 749 L529 749 Z M775 680 L775 668 C826 668 859 655 859 633 C859 621 849 592 684 87 C516 606 507 631 507 645 C507 664 529 668 572 668 L572 680 L369 680 L369 668 C424 668 439 663 446 643 L470 572 C434 464 386 315 312 87 C144 606 135 631 135 645 C135 664 157 668 200 668 L200 680 L-3 680 L-3 668 C52 668 67 663 74 643 L292 -14 L297 -14 L480 540 L665 -14 L670 -14 L879 618 C891 653 912 668 971 668 L971 680 L775 680 Z " />
<glyph glyph-name="wgrave" unicode="&#x1e81;" horiz-adv-x="782" d="M454 581 L457 588 C411 624 374 682 365 750 C362 751 358 751 356 751 C335 751 327 732 327 714 C327 662 392 601 454 581 L454 581 Z M612 500 L612 488 C656 488 679 477 679 457 C679 405 595 182 549 46 C519 131 408 423 408 469 C408 482 435 487 480 488 L480 500 L292 500 L292 488 C331 487 344 483 352 460 L379 386 C345 282 297 148 262 47 C230 140 121 424 121 465 C121 482 147 487 193 488 L193 500 L5 500 L5 488 C43 487 57 482 65 460 L234 -9 L261 -9 L389 357 L521 -9 L547 -9 L710 454 C720 484 742 487 779 488 L779 500 L612 500 Z " />
<glyph glyph-name="Wacute" unicode="&#x1e82;" horiz-adv-x="962" d="M452 749 C511 766 566 801 566 843 C566 859 558 869 541 871 C508 810 454 767 398 748 L399 741 C415 741 435 744 452 749 L452 749 Z M775 680 L775 668 C826 668 859 655 859 633 C859 621 849 592 684 87 C516 606 507 631 507 645 C507 664 529 668 572 668 L572 680 L369 680 L369 668 C424 668 439 663 446 643 L470 572 C434 464 386 315 312 87 C144 606 135 631 135 645 C135 664 157 668 200 668 L200 680 L-3 680 L-3 668 C52 668 67 663 74 643 L292 -14 L297 -14 L480 540 L665 -14 L670 -14 L879 618 C891 653 912 668 971 668 L971 680 L775 680 Z " />
<glyph glyph-name="wacute" unicode="&#x1e83;" horiz-adv-x="782" d="M456 714 C456 732 447 751 424 751 C421 751 418 751 415 750 C406 682 370 624 326 588 L330 581 C391 601 456 662 456 714 L456 714 Z M612 500 L612 488 C656 488 679 477 679 457 C679 405 595 182 549 46 C519 131 408 423 408 469 C408 482 435 487 480 488 L480 500 L292 500 L292 488 C331 487 344 483 352 460 L379 386 C345 282 297 148 262 47 C230 140 121 424 121 465 C121 482 147 487 193 488 L193 500 L5 500 L5 488 C43 487 57 482 65 460 L234 -9 L261 -9 L389 357 L521 -9 L547 -9 L710 454 C720 484 742 487 779 488 L779 500 L612 500 Z " />
<glyph glyph-name="Wdieresis" unicode="&#x1e84;" horiz-adv-x="962" d="M389 765 C415 765 434 782 434 806 C434 830 415 847 389 847 C363 847 344 830 344 806 C344 782 363 765 389 765 L389 765 Z M596 765 C621 765 640 782 640 806 C640 830 621 847 596 847 C569 847 551 830 551 806 C551 782 569 765 596 765 L596 765 Z M775 680 L775 668 C826 668 859 655 859 633 C859 621 849 592 684 87 C516 606 507 631 507 645 C507 664 529 668 572 668 L572 680 L369 680 L369 668 C424 668 439 663 446 643 L470 572 C434 464 386 315 312 87 C144 606 135 631 135 645 C135 664 157 668 200 668 L200 680 L-3 680 L-3 668 C52 668 67 663 74 643 L292 -14 L297 -14 L480 540 L665 -14 L670 -14 L879 618 C891 653 912 668 971 668 L971 680 L775 680 Z " />
<glyph glyph-name="wdieresis" unicode="&#x1e85;" horiz-adv-x="782" d="M290 625 C315 625 334 641 334 665 C334 689 315 706 290 706 C263 706 245 689 245 665 C245 641 263 625 290 625 L290 625 Z M496 625 C522 625 541 641 541 665 C541 689 522 706 496 706 C470 706 451 689 451 665 C451 641 470 625 496 625 L496 625 Z M612 500 L612 488 C656 488 679 477 679 457 C679 405 595 182 549 46 C519 131 408 423 408 469 C408 482 435 487 480 488 L480 500 L292 500 L292 488 C331 487 344 483 352 460 L379 386 C345 282 297 148 262 47 C230 140 121 424 121 465 C121 482 147 487 193 488 L193 500 L5 500 L5 488 C43 487 57 482 65 460 L234 -9 L261 -9 L389 357 L521 -9 L547 -9 L710 454 C720 484 742 487 779 488 L779 500 L612 500 Z " />
<glyph glyph-name="uni1E9E" unicode="&#x1e9e;" horiz-adv-x="652" d="M404 376 L542 648 L542 657 C499 679 440 695 361 695 C165 695 114 561 114 439 L114 38 C114 17 96 12 36 12 L36 0 L165 0 L165 437 C165 592 230 678 366 678 C413 678 454 671 493 653 L349 363 C466 318 566 250 566 137 C566 66 525 2 443 2 C366 2 301 66 280 202 L271 202 C274 132 274 61 274 -9 L283 -9 L308 47 C340 10 390 -15 448 -15 C548 -15 615 59 615 158 C615 274 522 342 404 376 L404 376 Z " />
<glyph glyph-name="Ygrave" unicode="&#x1ef2;" horiz-adv-x="638" d="M365 749 C380 745 395 742 410 741 L412 748 C358 769 307 812 279 871 C260 870 251 859 251 842 C251 800 305 767 365 749 L365 749 Z M441 680 L441 668 C493 668 528 659 528 636 C528 619 522 607 335 271 C151 605 137 631 137 646 C137 663 159 668 202 668 L202 680 L2 680 L2 668 C54 668 66 662 76 643 L293 247 L293 38 C293 17 275 12 219 12 L219 0 L418 0 L418 12 C362 12 344 17 344 38 L344 246 L547 617 C566 653 582 668 641 668 L641 680 L441 680 Z " />
<glyph glyph-name="ygrave" unicode="&#x1ef3;" horiz-adv-x="537" d="M337 581 L340 588 C294 624 257 682 248 750 C245 751 241 751 239 751 C218 751 210 732 210 714 C210 662 275 601 337 581 L337 581 Z M365 500 L365 488 C414 488 431 476 431 455 C431 408 337 187 281 48 C241 149 123 422 123 463 C123 482 150 488 202 488 L202 500 L6 500 L6 488 C44 487 57 482 65 460 L256 -16 L258 -16 C199 -158 157 -233 93 -233 C46 -233 39 -196 39 -135 C11 -135 -9 -158 -9 -187 C-9 -223 23 -255 80 -255 C154 -255 206 -198 274 -25 L463 454 C474 482 493 487 532 488 L532 500 L365 500 Z " />
<glyph glyph-name="uni1EF8" unicode="&#x1ef8;" horiz-adv-x="638" d="M197 757 C195 764 194 774 194 779 C194 809 217 825 242 825 C295 825 333 750 401 750 C445 750 475 781 475 822 C475 833 472 846 470 853 L461 853 C463 847 464 837 464 831 C464 803 442 785 415 785 C360 785 323 861 256 861 C212 861 183 828 183 788 C183 777 186 764 188 757 L197 757 Z M441 680 L441 668 C493 668 528 659 528 636 C528 619 522 607 335 271 C151 605 137 631 137 646 C137 663 159 668 202 668 L202 680 L2 680 L2 668 C54 668 66 662 76 643 L293 247 L293 38 C293 17 275 12 219 12 L219 0 L418 0 L418 12 C362 12 344 17 344 38 L344 246 L547 617 C566 653 582 668 641 668 L641 680 L441 680 Z " />
<glyph glyph-name="uni1EF9" unicode="&#x1ef9;" horiz-adv-x="537" d="M142 614 C142 617 140 623 140 632 C140 671 165 686 188 686 C240 686 277 609 344 609 C387 609 415 640 415 683 C415 696 413 708 411 715 L402 715 C403 711 404 703 404 694 C404 663 384 644 357 644 C303 644 268 722 202 722 C159 722 129 690 129 646 C129 635 131 622 134 614 L142 614 Z M365 500 L365 488 C414 488 431 476 431 455 C431 408 337 187 281 48 C241 149 123 422 123 463 C123 482 150 488 202 488 L202 500 L6 500 L6 488 C44 487 57 482 65 460 L256 -16 L258 -16 C199 -158 157 -233 93 -233 C46 -233 39 -196 39 -135 C11 -135 -9 -158 -9 -187 C-9 -223 23 -255 80 -255 C154 -255 206 -198 274 -25 L463 454 C474 482 493 487 532 488 L532 500 L365 500 Z " />
<glyph glyph-name="endash" unicode="&#x2013;" horiz-adv-x="528" d="M74 361 L74 336 L454 336 L454 361 L74 361 Z " />
<glyph glyph-name="emdash" unicode="&#x2014;" horiz-adv-x="834" d="M74 361 L74 336 L760 336 L760 361 L74 361 Z " />
<glyph glyph-name="quoteleft" unicode="&#x2018;" horiz-adv-x="215" d="M107 622 C110 658 123 700 140 734 L132 739 C100 700 59 623 59 576 C59 543 78 524 105 524 C134 524 154 545 154 575 C154 607 130 621 107 622 L107 622 Z " />
<glyph glyph-name="quoteright" unicode="&#x2019;" horiz-adv-x="209" d="M113 740 C83 740 64 720 64 689 C64 658 88 644 111 643 C108 607 95 564 78 530 L85 525 C118 565 158 642 158 688 C158 721 140 740 113 740 L113 740 Z " />
<glyph glyph-name="quotesinglbase" unicode="&#x201a;" horiz-adv-x="220" d="M111 83 C82 83 62 62 62 32 C62 0 86 -14 109 -15 C106 -51 93 -93 76 -127 L84 -132 C116 -93 157 -16 157 31 C157 64 138 83 111 83 L111 83 Z " />
<glyph glyph-name="quotedblleft" unicode="&#x201c;" horiz-adv-x="357" d="M107 621 C110 657 123 699 140 734 L132 738 C100 699 59 622 59 576 C59 543 78 523 105 523 C134 523 154 544 154 574 C154 607 130 620 107 621 L107 621 Z M250 621 C253 657 265 699 283 734 L275 738 C242 699 202 622 202 576 C202 543 221 523 248 523 C277 523 297 544 297 574 C297 606 273 620 250 621 L250 621 Z " />
<glyph glyph-name="quotedblright" unicode="&#x201d;" horiz-adv-x="351" d="M113 740 C83 740 64 720 64 689 C64 658 88 644 111 643 C108 607 95 564 78 530 L85 525 C118 565 158 642 158 688 C158 721 140 740 113 740 L113 740 Z M255 740 C226 740 206 720 206 689 C206 658 230 644 253 643 C250 607 238 564 220 530 L228 525 C261 565 301 642 301 688 C301 721 282 740 255 740 L255 740 Z " />
<glyph glyph-name="quotedblbase" unicode="&#x201e;" horiz-adv-x="375" d="M112 83 C82 83 63 62 63 32 C63 1 87 -14 110 -15 C107 -51 94 -93 77 -127 L84 -132 C117 -93 158 -16 158 31 C158 64 139 83 112 83 L112 83 Z M266 83 C237 83 217 62 217 32 C217 1 241 -14 265 -15 C262 -51 249 -93 231 -127 L239 -132 C272 -93 312 -16 312 31 C312 64 294 83 266 83 L266 83 Z " />
<glyph glyph-name="dagger" unicode="&#x2020;" horiz-adv-x="492" d="M243 541 L249 541 C253 653 281 670 281 703 C281 726 267 743 247 743 C226 743 212 726 212 703 C212 671 236 653 243 541 L243 541 Z M230 521 L230 527 C118 531 101 560 69 560 C45 560 30 546 30 525 C30 504 45 491 69 491 C100 491 118 515 230 521 L230 521 Z M263 527 L263 521 C374 516 392 491 424 491 C447 491 463 504 463 525 C463 546 447 560 424 560 C392 560 375 532 263 527 L263 527 Z M249 509 L242 509 C235 370 212 341 212 295 C212 242 239 208 243 -60 L249 -60 C250 208 279 241 279 295 C279 342 253 370 249 509 L249 509 Z " />
<glyph glyph-name="daggerdbl" unicode="&#x2021;" horiz-adv-x="536" d="M264 541 L270 541 C274 653 303 670 303 703 C303 726 289 743 268 743 C248 743 234 726 234 703 C234 671 258 653 264 541 L264 541 Z M251 521 L251 527 C139 531 122 560 90 560 C67 560 51 546 51 525 C51 504 67 491 90 491 C122 491 140 515 251 521 L251 521 Z M284 527 L284 521 C396 516 414 491 446 491 C469 491 485 504 485 525 C485 546 469 560 446 560 C413 560 396 532 284 527 L284 527 Z M270 509 L264 509 C258 397 234 379 234 347 C234 316 258 298 264 186 L270 186 C274 298 303 315 303 347 C303 380 274 397 270 509 L270 509 Z M251 166 L251 172 C139 176 122 206 90 206 C66 206 50 191 50 170 C50 149 66 134 90 134 C122 134 140 160 251 166 L251 166 Z M284 172 L284 166 C396 161 414 133 446 133 C469 133 486 148 486 169 C486 190 469 204 446 204 C413 204 396 177 284 172 L284 172 Z M270 154 L264 154 C258 42 234 24 234 -8 C234 -31 248 -47 268 -47 C289 -47 303 -31 303 -8 C303 25 274 42 270 154 L270 154 Z " />
<glyph glyph-name="bullet" unicode="&#x2022;" horiz-adv-x="329" d="M165 237 C208 237 234 264 234 303 C234 342 208 369 165 369 C122 369 95 342 95 303 C95 264 122 237 165 237 L165 237 Z " />
<glyph glyph-name="ellipsis" unicode="&#x2026;" horiz-adv-x="642" d="M122 -15 C152 -15 173 5 173 34 C173 63 152 83 122 83 C91 83 70 63 70 34 C70 5 91 -15 122 -15 L122 -15 Z M321 -15 C351 -15 373 5 373 34 C373 63 351 83 321 83 C290 83 269 63 269 34 C269 5 290 -15 321 -15 L321 -15 Z M520 -15 C551 -15 572 5 572 34 C572 63 551 83 520 83 C490 83 469 63 469 34 C469 5 490 -15 520 -15 L520 -15 Z " />
<glyph glyph-name="perthousand" unicode="&#x2030;" horiz-adv-x="1028" d="M329 521 C329 626 278 695 195 695 C112 695 62 625 62 521 C62 416 112 347 195 347 C278 347 329 415 329 521 L329 521 Z M115 521 C115 636 146 681 195 681 C244 681 276 637 276 521 C276 404 244 360 195 360 C146 360 115 405 115 521 L115 521 Z M87 81 L102 64 L625 587 L610 604 L87 81 Z M659 159 C659 264 608 333 526 333 C442 333 392 263 392 159 C392 54 442 -15 526 -15 C608 -15 659 53 659 159 L659 159 Z M987 159 C987 264 936 333 854 333 C770 333 720 263 720 159 C720 54 770 -15 854 -15 C936 -15 987 53 987 159 L987 159 Z M445 159 C445 274 476 319 526 319 C574 319 606 275 606 159 C606 42 574 -2 526 -2 C476 -2 445 43 445 159 L445 159 Z M773 159 C773 274 804 319 854 319 C903 319 934 275 934 159 C934 42 903 -2 854 -2 C804 -2 773 43 773 159 L773 159 Z " />
<glyph glyph-name="guilsinglleft" unicode="&#x2039;" horiz-adv-x="320" d="M101 279 C162 243 233 158 255 92 L245 88 C189 166 116 229 47 262 L47 296 C116 329 189 392 245 470 L255 466 C233 400 162 315 101 279 L101 279 Z " />
<glyph glyph-name="guilsinglright" unicode="&#x203a;" horiz-adv-x="320" d="M218 279 C158 315 87 400 65 466 L75 470 C130 392 204 329 273 296 L273 262 C204 229 130 166 75 88 L65 92 C87 158 158 243 218 279 L218 279 Z " />
<glyph glyph-name="fraction" unicode="&#x2044;" horiz-adv-x="570" d="M15 81 L31 64 L554 587 L538 604 L15 81 Z " />
<glyph glyph-name="Euro" unicode="&#x20ac;" horiz-adv-x="674" d="M389 6 C272 6 191 104 173 274 L477 274 L484 293 L172 293 C171 309 170 326 170 344 C170 360 171 376 172 391 L486 391 L493 409 L173 409 C190 589 280 678 388 678 C480 678 569 612 590 461 L599 461 C595 537 595 613 595 689 L586 689 L561 620 C522 667 465 695 392 695 C246 695 141 582 118 409 L39 409 L39 391 L116 391 C114 373 113 355 113 336 C113 321 114 307 115 293 L39 293 L39 274 L116 274 C135 104 234 -15 386 -15 C460 -15 520 13 560 61 L585 -9 L594 -9 C594 67 594 143 598 219 L589 219 C574 72 484 6 389 6 L389 6 Z " />
<glyph glyph-name="trademark" unicode="&#x2122;" horiz-adv-x="821" d="M304 680 L56 680 L56 605 L62 605 C68 654 84 670 115 670 L159 670 L159 399 C159 389 155 384 122 384 L122 377 L243 377 L243 384 C207 384 200 388 200 399 L200 670 L244 670 C278 670 291 652 296 605 L304 605 L304 680 Z M745 673 L745 680 L668 680 L555 426 L442 680 L362 680 L362 673 C393 673 400 668 400 656 L400 413 C400 395 392 386 361 384 L361 377 L452 377 L452 384 C421 385 411 394 411 413 L411 647 L533 372 L542 372 L542 373 L543 372 L669 655 L669 397 C669 388 663 384 633 384 L633 377 L745 377 L745 384 C716 384 710 388 710 397 L710 656 C710 668 716 673 745 673 L745 673 Z " />
<glyph glyph-name="minus" unicode="&#x2212;" horiz-adv-x="587" d="M79 277 L509 277 L509 302 L79 302 L79 277 Z " />
<glyph glyph-name="approxequal" unicode="&#x2248;" horiz-adv-x="597" d="M409 325 C480 325 519 379 519 438 L495 438 C495 395 464 351 409 351 C327 351 286 449 191 449 C117 449 81 391 81 334 L104 334 C104 377 134 423 191 423 C274 423 314 325 409 325 L409 325 Z M409 138 C480 138 519 192 519 251 L495 251 C495 208 464 164 409 164 C327 164 286 262 191 262 C117 262 81 204 81 147 L104 147 C104 190 134 236 191 236 C274 236 314 138 409 138 L409 138 Z " />
<glyph glyph-name="notequal" unicode="&#x2260;" horiz-adv-x="587" d="M510 356 L510 381 L369 381 L423 472 L402 485 L340 381 L80 381 L80 356 L326 356 L240 212 L80 212 L80 187 L225 187 L168 90 L189 76 L255 187 L510 187 L510 212 L269 212 L354 356 L510 356 Z " />
<glyph glyph-name="uniF8FF" unicode="&#xf8ff;" horiz-adv-x="2026" d="M189 565 L100 565 L100 301 L189 301 L189 565 Z M549 307 L549 371 C544 367 537 365 529 365 C519 365 513 369 513 379 L513 424 L549 424 L549 489 L506 489 C480 489 454 473 454 473 L453 477 C486 492 510 531 510 565 L426 565 L426 370 C426 319 447 298 500 298 C522 298 539 301 549 307 L549 307 Z M652 489 L645 489 C619 489 584 481 584 481 L583 485 C621 494 652 527 652 565 L568 565 L568 301 L652 301 L652 489 Z M1201 298 C1223 298 1240 301 1249 307 L1249 371 C1245 367 1237 365 1230 365 C1220 365 1213 369 1213 379 L1213 424 L1249 424 L1249 489 L1207 489 C1180 489 1155 473 1155 473 L1154 477 C1187 492 1211 531 1211 565 L1126 565 L1126 370 C1126 319 1147 298 1201 298 L1201 298 Z M320 390 C310 400 294 408 264 408 C223 408 200 385 200 352 C200 319 223 298 260 298 C293 298 316 312 321 321 L327 321 L327 301 L411 301 L411 418 C411 466 374 497 311 497 C250 497 216 469 205 428 L283 417 C283 433 290 443 304 443 C316 443 322 433 322 419 L322 390 L320 390 Z M759 410 C762 431 768 439 780 439 C792 439 797 430 797 414 L797 301 L882 301 L882 418 C882 469 861 495 823 495 C789 495 763 479 759 435 L756 435 L756 489 L671 489 L671 301 L759 301 L759 410 Z M1004 298 C1075 298 1113 340 1113 396 C1113 453 1073 495 1004 495 C935 495 895 453 895 396 C895 338 934 298 1004 298 L1004 298 Z M1630 495 C1590 495 1573 469 1566 434 L1564 434 L1564 490 L1479 490 L1479 241 L1565 241 L1565 335 L1567 335 C1578 310 1599 298 1628 298 C1666 298 1702 326 1702 396 C1702 465 1674 495 1630 495 L1630 495 Z M1926 400 C1926 453 1885 495 1825 495 C1757 495 1714 454 1714 396 C1714 337 1752 298 1823 298 C1868 298 1912 318 1922 375 L1851 381 C1850 366 1843 352 1826 352 C1806 352 1796 371 1796 391 L1926 391 L1926 400 Z M1364 340 L1362 340 C1358 387 1346 443 1337 490 L1252 490 L1299 340 C1307 318 1320 307 1343 307 L1402 307 L1402 304 C1397 297 1381 294 1345 293 L1289 293 L1289 236 L1323 236 C1366 236 1398 263 1414 311 L1476 490 L1389 490 C1380 443 1369 387 1364 340 L1364 340 Z M1802 402 L1796 402 C1796 426 1808 443 1828 443 C1841 443 1849 434 1849 424 C1849 409 1837 402 1802 402 L1802 402 Z M1595 340 C1586 340 1577 342 1572 351 L1572 413 C1575 431 1584 442 1597 442 C1616 442 1621 424 1621 389 C1621 353 1611 340 1595 340 L1595 340 Z M1004 441 C1018 441 1028 429 1028 396 C1028 363 1018 352 1004 352 C990 352 980 363 980 396 C980 429 990 441 1004 441 L1004 441 Z M322 333 C320 329 312 323 304 323 C288 323 283 336 283 354 C283 374 293 385 307 385 C313 385 320 381 322 377 L322 333 Z M495 225 L614 225 L614 286 L495 252 L495 225 Z M966 281 L881 281 L881 17 L966 17 L966 205 L958 205 C933 205 898 198 898 198 L896 201 C935 210 966 243 966 281 L966 281 Z M375 211 C341 211 316 195 311 151 L310 151 C306 191 286 211 252 211 C218 211 192 195 188 151 L185 151 L185 205 L100 205 L100 17 L188 17 L188 126 C191 147 197 155 209 155 C221 155 227 146 227 131 L227 17 L311 17 L311 126 C315 147 320 155 332 155 C344 155 350 146 350 131 L350 17 L434 17 L434 134 C434 186 414 211 375 211 L375 211 Z M585 98 C584 82 577 68 560 68 C540 68 530 88 530 107 L660 107 L660 116 C660 169 619 211 559 211 C491 211 448 170 448 112 C448 54 486 14 557 14 C602 14 646 34 656 91 L585 98 Z M1088 157 C1104 157 1112 142 1113 124 L1187 134 C1177 191 1133 211 1088 211 C1017 211 979 171 979 112 C979 54 1017 14 1088 14 C1133 14 1177 34 1187 91 L1113 98 C1112 82 1104 68 1088 68 C1070 68 1061 85 1061 112 C1061 139 1070 157 1088 157 L1088 157 Z M1310 211 C1241 211 1201 169 1201 112 C1201 55 1240 14 1310 14 C1380 14 1419 56 1419 112 C1419 169 1379 211 1310 211 L1310 211 Z M782 205 L755 159 L728 205 L640 205 L709 110 L640 17 L728 17 L755 60 L782 17 L870 17 L797 110 L870 205 L782 205 Z M562 159 C575 159 583 150 583 140 C583 125 571 118 536 118 L530 118 C530 143 542 159 562 159 L562 159 Z M1310 68 C1296 68 1286 79 1286 112 C1286 145 1296 157 1310 157 C1324 157 1334 145 1334 112 C1334 79 1324 68 1310 68 L1310 68 Z " />
<glyph glyph-name="fi" unicode="&#xfb01;" horiz-adv-x="583" d="M477 44 L477 515 C442 506 397 500 350 500 L222 500 C166 500 151 520 151 569 C151 676 220 724 307 724 C393 724 423 677 423 616 C448 616 467 636 467 663 C467 708 410 740 322 740 C192 740 114 667 114 542 L114 500 L39 500 L39 483 L114 483 L114 44 C114 17 96 12 39 12 L39 0 L240 0 L240 12 C183 12 165 17 165 44 L165 483 L367 483 C415 483 426 475 426 433 L426 44 C426 17 408 12 351 12 L351 0 L552 0 L552 12 C495 12 477 17 477 44 L477 44 Z " />
<glyph glyph-name="fl" unicode="&#xfb02;" horiz-adv-x="584" d="M477 44 L477 740 L430 711 C401 728 357 740 308 740 C178 740 114 657 114 542 L114 500 L39 500 L39 483 L114 483 L114 44 C114 17 96 12 39 12 L39 0 L240 0 L240 12 C183 12 165 17 165 44 L165 483 L320 483 L320 500 L214 500 C164 500 151 518 151 565 C151 663 200 723 301 723 C378 723 426 689 426 604 L426 44 C426 17 408 12 351 12 L351 0 L552 0 L552 12 C495 12 477 17 477 44 L477 44 Z " />
</font>
</svg>
